<?xml version="1.0" encoding="UTF-8" standalone="no"?>
<!DOCTYPE svg PUBLIC "-//W3C//DTD SVG 1.1//EN" "http://www.w3.org/Graphics/SVG/1.1/DTD/svg11.dtd">
<svg width="100%" height="100%" viewBox="0 0 20 12" version="1.1" xmlns="http://www.w3.org/2000/svg" xmlns:xlink="http://www.w3.org/1999/xlink" xml:space="preserve" xmlns:serif="http://www.serif.com/" style="fill-rule:evenodd;clip-rule:evenodd;stroke-linejoin:round;stroke-miterlimit:2;">
    <g transform="matrix(0.654087,0,0,0.654087,-170.063,-13.8269)">
        <path d="M280.817,36.973C280.817,36.113 280.12,35.417 279.261,35.417C276.55,35.417 274.555,35.417 271.844,35.417C270.985,35.417 270.288,36.113 270.288,36.973C270.288,36.974 270.288,36.975 270.288,36.976C270.288,37.835 270.985,38.532 271.844,38.532C274.555,38.532 276.55,38.532 279.261,38.532C280.12,38.532 280.817,37.835 280.817,36.976C280.817,36.975 280.817,36.974 280.817,36.973ZM286.255,30.071C286.255,29.212 285.559,28.515 284.699,28.515C280.892,28.515 269.715,28.515 265.908,28.515C265.049,28.515 264.352,29.212 264.352,30.071C264.352,30.072 264.352,30.073 264.352,30.074C264.352,30.933 265.049,31.63 265.908,31.63C269.715,31.63 280.892,31.63 284.699,31.63C285.559,31.63 286.255,30.933 286.255,30.074C286.255,30.073 286.255,30.072 286.255,30.071ZM290.278,22.695C290.278,21.836 289.581,21.139 288.722,21.139C284.124,21.139 266.155,21.139 261.557,21.139C260.697,21.139 260.001,21.836 260.001,22.695C260.001,22.696 260.001,22.697 260.001,22.698C260.001,23.557 260.697,24.254 261.557,24.254C266.155,24.254 284.124,24.254 288.722,24.254C289.581,24.254 290.278,23.557 290.278,22.698C290.278,22.697 290.278,22.696 290.278,22.695Z" style="fill:rgb(89,104,219);"/>
    </g>
</svg>
