<?xml version="1.0" encoding="UTF-8" standalone="no"?>
<!DOCTYPE svg PUBLIC "-//W3C//DTD SVG 1.1//EN" "http://www.w3.org/Graphics/SVG/1.1/DTD/svg11.dtd">
<svg width="100%" height="100%" viewBox="0 0 14 20" version="1.1" xmlns="http://www.w3.org/2000/svg" xmlns:xlink="http://www.w3.org/1999/xlink" xml:space="preserve" xmlns:serif="http://www.serif.com/" style="fill-rule:evenodd;clip-rule:evenodd;stroke-linejoin:round;stroke-miterlimit:2;">
    <g transform="matrix(0.77354,0,0,0.773963,-7542.64,-296.042)">
        <path d="M9763.53,397.997C9763.53,397.997 9764.78,399.221 9765.88,400.288C9766.3,400.702 9766.54,401.266 9766.55,401.858C9766.56,402.45 9766.33,403.021 9765.92,403.445C9764.4,404.999 9762.33,407.128 9762.33,407.128C9762.1,407.364 9761.78,407.499 9761.45,407.503C9761.12,407.508 9760.81,407.381 9760.57,407.151C9760.57,407.151 9760.57,407.15 9760.57,407.15C9760.33,406.92 9760.2,406.606 9760.19,406.276C9760.19,405.947 9760.32,405.629 9760.55,405.394L9762.81,403.078L9760.64,400.963L9763.53,397.997ZM9756.01,397.997C9756.01,397.997 9754.75,399.221 9753.66,400.288C9753.24,400.702 9752.99,401.266 9752.99,401.858C9752.98,402.45 9753.2,403.021 9753.62,403.445C9755.13,404.999 9757.21,407.128 9757.21,407.128C9757.44,407.364 9757.75,407.499 9758.08,407.503C9758.41,407.508 9758.73,407.381 9758.97,407.151C9758.97,407.151 9758.97,407.15 9758.97,407.15C9759.2,406.92 9759.34,406.606 9759.34,406.276C9759.34,405.947 9759.22,405.629 9758.99,405.394L9756.73,403.078L9758.9,400.963L9756.01,397.997ZM9763.79,396.491L9755.74,396.491L9755.74,393.961L9752.73,396.647C9752.55,396.871 9752.3,397.015 9752.01,397.048C9751.73,397.08 9751.44,396.999 9751.22,396.822C9751.22,396.822 9751.22,396.821 9751.22,396.821C9750.99,396.644 9750.85,396.385 9750.82,396.102C9750.78,395.818 9750.86,395.533 9751.04,395.31C9751.04,395.31 9752.45,393.532 9753.72,391.924C9755,390.321 9756.93,389.385 9758.97,389.384C9759.5,389.384 9760.03,389.383 9760.55,389.383C9762.6,389.382 9764.54,390.318 9765.81,391.924C9767.09,393.532 9768.49,395.31 9768.49,395.31C9768.86,395.775 9768.78,396.452 9768.32,396.821C9768.32,396.821 9768.32,396.822 9768.32,396.822C9768.09,396.999 9767.81,397.08 9767.52,397.048C9767.24,397.015 9766.98,396.871 9766.81,396.647L9763.79,393.953L9763.79,396.491ZM9759.77,382.501C9761.35,382.501 9762.64,383.788 9762.64,385.373C9762.64,386.958 9761.35,388.244 9759.77,388.244C9758.18,388.244 9756.9,386.958 9756.9,385.373C9756.9,383.788 9758.18,382.501 9759.77,382.501Z" style="fill:rgb(131,139,199);"/>
    </g>
</svg>
