<?xml version="1.0" encoding="UTF-8" standalone="no"?>
<!DOCTYPE svg PUBLIC "-//W3C//DTD SVG 1.1//EN" "http://www.w3.org/Graphics/SVG/1.1/DTD/svg11.dtd">
<svg width="100%" height="100%" viewBox="0 0 25 25" version="1.1" xmlns="http://www.w3.org/2000/svg" xmlns:xlink="http://www.w3.org/1999/xlink" xml:space="preserve" xmlns:serif="http://www.serif.com/" style="fill-rule:evenodd;clip-rule:evenodd;stroke-linejoin:round;stroke-miterlimit:2;">
    <g transform="matrix(1,0,0,1,-4975.52,-594.963)">
        <path d="M4987.87,594.963C4994.69,594.963 5000.22,600.495 5000.22,607.309C5000.22,614.123 4994.69,619.655 4987.87,619.655C4981.06,619.655 4975.53,614.123 4975.53,607.309C4975.53,600.495 4981.06,594.963 4987.87,594.963ZM4993.97,602.707C4993.97,602.579 4993.93,602.454 4993.84,602.36C4993.75,602.267 4993.63,602.214 4993.5,602.214C4991.52,602.214 4984.15,602.214 4982.16,602.214C4982.03,602.214 4981.91,602.267 4981.82,602.361C4981.73,602.455 4981.69,602.581 4981.7,602.709C4981.84,604.78 4982.39,612.724 4982.53,614.719C4982.55,614.976 4982.76,615.175 4983.02,615.175L4992.7,615.175C4992.96,615.175 4993.17,614.975 4993.19,614.717C4993.32,612.717 4993.83,604.773 4993.97,602.707ZM4985.23,604.811C4985.23,604.503 4984.98,604.253 4984.67,604.253C4984.67,604.253 4984.67,604.253 4984.67,604.253C4984.36,604.253 4984.11,604.503 4984.11,604.811C4984.11,606.422 4984.11,611.068 4984.11,612.679C4984.11,612.987 4984.36,613.237 4984.67,613.237C4984.67,613.237 4984.67,613.237 4984.67,613.237C4984.98,613.237 4985.23,612.987 4985.23,612.679C4985.23,611.068 4985.23,606.422 4985.23,604.811ZM4991.63,604.811C4991.63,604.503 4991.38,604.253 4991.07,604.253C4991.07,604.253 4991.07,604.253 4991.07,604.253C4990.76,604.253 4990.51,604.503 4990.51,604.811C4990.51,606.422 4990.51,611.068 4990.51,612.679C4990.51,612.987 4990.76,613.237 4991.07,613.237C4991.07,613.237 4991.07,613.237 4991.07,613.237C4991.38,613.237 4991.63,612.987 4991.63,612.679C4991.63,611.068 4991.63,606.422 4991.63,604.811ZM4988.4,604.811C4988.4,604.503 4988.15,604.253 4987.84,604.253C4987.84,604.253 4987.84,604.253 4987.84,604.253C4987.53,604.253 4987.28,604.503 4987.28,604.811C4987.28,606.422 4987.28,611.068 4987.28,612.679C4987.28,612.987 4987.53,613.237 4987.84,613.237C4987.84,613.237 4987.84,613.237 4987.84,613.237C4988.15,613.237 4988.4,612.987 4988.4,612.679C4988.4,611.068 4988.4,606.422 4988.4,604.811ZM4991.88,600.285C4991.88,600.068 4991.79,599.861 4991.64,599.707C4991.48,599.554 4991.28,599.468 4991.06,599.468C4989.52,599.468 4986.2,599.468 4984.66,599.468C4984.44,599.468 4984.23,599.554 4984.08,599.707C4983.93,599.861 4983.84,600.068 4983.84,600.285C4983.84,600.286 4983.84,600.286 4983.84,600.286C4983.84,600.503 4983.93,600.711 4984.08,600.864C4984.23,601.017 4984.44,601.103 4984.66,601.103C4986.2,601.103 4989.52,601.103 4991.06,601.103C4991.28,601.103 4991.48,601.017 4991.64,600.864C4991.79,600.711 4991.88,600.503 4991.88,600.286C4991.88,600.286 4991.88,600.286 4991.88,600.285Z" style="fill:rgb(244,67,54);"/>
    </g>
</svg>
