<?xml version="1.0" encoding="UTF-8" standalone="no"?>
<!DOCTYPE svg PUBLIC "-//W3C//DTD SVG 1.1//EN" "http://www.w3.org/Graphics/SVG/1.1/DTD/svg11.dtd">
<svg width="100%" height="100%" viewBox="0 0 29 29" version="1.1" xmlns="http://www.w3.org/2000/svg" xmlns:xlink="http://www.w3.org/1999/xlink" xml:space="preserve" xmlns:serif="http://www.serif.com/" style="fill-rule:evenodd;clip-rule:evenodd;stroke-miterlimit:1.5;">
    <g transform="matrix(1,0,0,1,-1396.08,-576.726)">
        <g transform="matrix(1.1764,0,0,1.1764,-4347.08,-104.195)">
            <circle cx="4893.92" cy="590.77" r="11.955" style="fill:rgb(89,104,219);"/>
        </g>
        <g transform="matrix(1,0,0,1,-3482.96,-0.244273)">
            <path d="M4890.88,597.733C4892.42,596.185 4898.86,589.692 4900.68,587.857C4901.44,587.088 4901.45,585.853 4900.71,585.067L4899.22,583.497C4898.85,583.105 4898.34,582.879 4897.8,582.871C4897.26,582.864 4896.74,583.074 4896.35,583.455C4894.47,585.334 4887.93,591.846 4886.35,593.411C4885.97,593.796 4885.69,594.274 4885.55,594.8L4885.13,596.332C4884.93,597.096 4885.15,597.912 4885.71,598.468C4886.28,599.023 4887.1,599.231 4887.86,599.013L4889.53,598.53C4890.05,598.384 4890.51,598.11 4890.88,597.733L4890.88,597.733ZM4889.96,596.818C4889.74,597.036 4889.47,597.196 4889.18,597.281C4888.76,597.402 4888.1,597.589 4887.5,597.763C4887.19,597.852 4886.85,597.767 4886.62,597.541C4886.39,597.315 4886.3,596.983 4886.39,596.672C4886.54,596.118 4886.7,595.532 4886.8,595.139C4886.89,594.834 4887.05,594.556 4887.27,594.333C4888.84,592.767 4895.38,586.255 4897.27,584.376C4897.41,584.243 4897.59,584.169 4897.78,584.171C4897.97,584.174 4898.15,584.253 4898.28,584.391C4898.71,584.85 4899.34,585.511 4899.77,585.961C4900.03,586.237 4900.02,586.671 4899.76,586.941C4897.94,588.776 4891.49,595.269 4889.96,596.818Z" style="fill:white;"/>
        </g>
        <g transform="matrix(1,0,0,1,-3483.26,0)">
            <path d="M4895.27,585.642L4898.6,588.975" style="fill:none;stroke:white;stroke-width:1.3px;"/>
        </g>
    </g>
</svg>
