<?xml version="1.0" encoding="UTF-8" standalone="no"?>
<!DOCTYPE svg PUBLIC "-//W3C//DTD SVG 1.1//EN" "http://www.w3.org/Graphics/SVG/1.1/DTD/svg11.dtd">
<svg width="100%" height="100%" viewBox="0 0 18 18" version="1.1" xmlns="http://www.w3.org/2000/svg" xmlns:xlink="http://www.w3.org/1999/xlink" xml:space="preserve" xmlns:serif="http://www.serif.com/" style="fill-rule:evenodd;clip-rule:evenodd;stroke-linejoin:round;stroke-miterlimit:2;">
    <g transform="matrix(0.618876,0,0,0.619214,-5130.92,-247.004)">
        <path d="M8304.7,398.9C8312.42,398.9 8318.7,405.17 8318.7,412.894C8318.7,420.618 8312.42,426.888 8304.7,426.888C8296.98,426.888 8290.71,420.618 8290.71,412.894C8290.71,405.17 8296.98,398.9 8304.7,398.9ZM8306.12,419.325C8306.12,418.952 8305.97,418.594 8305.71,418.33C8305.45,418.066 8305.09,417.917 8304.72,417.917C8304.71,417.917 8304.7,417.917 8304.69,417.917C8304.31,417.917 8303.96,418.066 8303.69,418.33C8303.43,418.594 8303.28,418.952 8303.28,419.325C8303.28,419.327 8303.28,419.328 8303.28,419.329C8303.28,419.703 8303.43,420.061 8303.69,420.325C8303.96,420.589 8304.31,420.737 8304.69,420.737C8304.7,420.737 8304.71,420.737 8304.72,420.737C8305.09,420.737 8305.45,420.589 8305.71,420.325C8305.97,420.061 8306.12,419.703 8306.12,419.329C8306.12,419.328 8306.12,419.327 8306.12,419.325ZM8306.12,406.47C8306.12,406.094 8305.97,405.733 8305.71,405.466C8305.44,405.2 8305.08,405.05 8304.7,405.05C8304.7,405.05 8304.7,405.05 8304.7,405.05C8304.32,405.05 8303.96,405.2 8303.7,405.466C8303.43,405.733 8303.28,406.094 8303.28,406.47C8303.28,408.782 8303.28,413.33 8303.28,415.641C8303.28,416.018 8303.43,416.379 8303.7,416.645C8303.96,416.912 8304.32,417.061 8304.7,417.061C8304.7,417.061 8304.7,417.061 8304.7,417.061C8305.08,417.061 8305.44,416.912 8305.71,416.645C8305.97,416.379 8306.12,416.018 8306.12,415.641C8306.12,413.33 8306.12,408.782 8306.12,406.47Z" style="fill:rgb(244,67,54);"/>
    </g>
</svg>
