<?xml version="1.0" encoding="UTF-8" standalone="no"?>
<!DOCTYPE svg PUBLIC "-//W3C//DTD SVG 1.1//EN" "http://www.w3.org/Graphics/SVG/1.1/DTD/svg11.dtd">
<svg width="100%" height="100%" viewBox="0 0 12 26" version="1.1" xmlns="http://www.w3.org/2000/svg" xmlns:xlink="http://www.w3.org/1999/xlink" xml:space="preserve" xmlns:serif="http://www.serif.com/" style="fill-rule:evenodd;clip-rule:evenodd;stroke-linejoin:round;stroke-miterlimit:2;">
    <g transform="matrix(0.680387,0,0,0.680758,-6657.17,-254.289)">
        <path d="M9784.39,386.844C9784.39,385.572 9784.9,384.352 9785.8,383.452C9786.7,382.552 9787.92,382.047 9789.19,382.047C9791.6,382.047 9794.51,382.047 9796.91,382.047C9798.18,382.047 9799.4,382.552 9800.3,383.452C9801.2,384.352 9801.71,385.572 9801.71,386.844C9801.71,391.151 9801.71,396.799 9801.71,396.799C9801.71,397.637 9801.03,398.317 9800.19,398.317C9800.19,398.317 9800.19,398.317 9800.19,398.317C9799.35,398.317 9798.67,397.637 9798.67,396.799C9798.67,396.799 9798.67,389.516 9798.67,388.058C9798.67,387.919 9798.56,387.806 9798.42,387.806C9798.42,387.806 9798.42,387.806 9798.42,387.806C9798.35,387.806 9798.29,387.833 9798.24,387.88C9798.19,387.927 9798.17,387.991 9798.17,388.058C9798.17,390.649 9798.17,409.397 9798.17,409.397C9798.17,410.64 9797.16,411.649 9795.91,411.649L9795.91,411.649C9794.67,411.649 9793.66,410.64 9793.66,409.397C9793.66,409.397 9793.66,401.257 9793.66,398.505C9793.66,398.343 9793.6,398.187 9793.48,398.072C9793.37,397.957 9793.21,397.892 9793.05,397.892C9793.05,397.892 9793.05,397.892 9793.05,397.892C9792.89,397.892 9792.73,397.957 9792.61,398.072C9792.5,398.187 9792.43,398.343 9792.43,398.505C9792.43,401.257 9792.43,409.397 9792.43,409.397C9792.43,410.64 9791.43,411.649 9790.18,411.649C9790.18,411.649 9790.18,411.649 9790.18,411.649C9788.94,411.649 9787.93,410.64 9787.93,409.397C9787.93,409.397 9787.93,390.626 9787.93,388.054C9787.93,387.988 9787.9,387.925 9787.86,387.879C9787.81,387.832 9787.75,387.806 9787.68,387.806C9787.68,387.806 9787.68,387.806 9787.68,387.806C9787.54,387.806 9787.43,387.917 9787.43,388.054C9787.43,389.502 9787.43,396.799 9787.43,396.799C9787.43,397.637 9786.75,398.317 9785.92,398.317C9785.91,398.317 9785.91,398.317 9785.91,398.317C9785.07,398.317 9784.39,397.637 9784.39,396.799C9784.39,396.799 9784.39,391.151 9784.39,386.844ZM9793.05,373.537C9795.07,373.537 9796.7,375.171 9796.7,377.184C9796.7,379.197 9795.07,380.832 9793.05,380.832C9791.04,380.832 9789.41,379.197 9789.41,377.184C9789.41,375.171 9791.04,373.537 9793.05,373.537Z" style="fill:rgb(131,139,199);"/>
    </g>
</svg>
