<?xml version="1.0" encoding="UTF-8" standalone="no"?>
<!DOCTYPE svg PUBLIC "-//W3C//DTD SVG 1.1//EN" "http://www.w3.org/Graphics/SVG/1.1/DTD/svg11.dtd">
<svg width="100%" height="100%" viewBox="0 0 25 25" version="1.1" xmlns="http://www.w3.org/2000/svg" xmlns:xlink="http://www.w3.org/1999/xlink" xml:space="preserve" xmlns:serif="http://www.serif.com/" style="fill-rule:evenodd;clip-rule:evenodd;stroke-linejoin:round;stroke-miterlimit:2;">
    <g transform="matrix(1,0,0,1,-1397.8,-578.444)">
        <g transform="matrix(1.0327,0,0,1.0327,-3643.81,-19.299)">
            <circle cx="4893.92" cy="590.77" r="11.955" style="fill:rgb(89,104,219);"/>
        </g>
        <g transform="matrix(1.105,0,0,1.105,1400.85,584.348)">
            <path d="M16.663,5.587C16.763,5.733 16.763,5.925 16.663,6.071C12.708,11.919 8.412,11.658 8.412,11.658C4.065,11.488 0.866,7.123 0.151,6.06C0.06,5.919 0.059,5.738 0.15,5.597C0.866,4.535 4.065,0.17 8.412,0C8.412,0 12.708,-0.261 16.663,5.587ZM14.912,6.086C15.026,5.934 15.026,5.724 14.912,5.572C14.169,4.615 11.386,1.308 8.412,1.385C8.412,1.385 4.915,1.456 1.874,5.573C1.76,5.725 1.76,5.933 1.873,6.085C4.915,10.202 8.412,10.273 8.412,10.273C11.386,10.35 14.169,7.043 14.912,6.086ZM8.412,2.3C10.359,2.3 11.941,3.881 11.941,5.829C11.941,7.777 10.359,9.358 8.412,9.358C6.464,9.358 4.883,7.777 4.883,5.829C4.883,3.881 6.464,2.3 8.412,2.3ZM8.412,3.745C9.562,3.745 10.496,4.679 10.496,5.829C10.496,6.979 9.562,7.913 8.412,7.913C7.261,7.913 6.327,6.979 6.327,5.829C6.327,4.679 7.261,3.745 8.412,3.745Z" style="fill:white;"/>
        </g>
    </g>
</svg>
