<?xml version="1.0" encoding="UTF-8" standalone="no"?>
<!DOCTYPE svg PUBLIC "-//W3C//DTD SVG 1.1//EN" "http://www.w3.org/Graphics/SVG/1.1/DTD/svg11.dtd">
<svg width="100%" height="100%" viewBox="0 0 24 21" version="1.1" xmlns="http://www.w3.org/2000/svg" xmlns:xlink="http://www.w3.org/1999/xlink" xml:space="preserve" xmlns:serif="http://www.serif.com/" style="fill-rule:evenodd;clip-rule:evenodd;stroke-linejoin:round;stroke-miterlimit:2;">
    <g transform="matrix(0.865877,0,0,0.865877,-6487.93,-362.084)">
        <path d="M7494.03,430.095C7493.31,428.91 7492.9,427.521 7492.9,426.036C7492.9,421.695 7496.42,418.17 7500.77,418.17C7502.97,418.17 7504.97,419.081 7506.4,420.546C7507.83,419.081 7509.82,418.17 7512.03,418.17C7516.37,418.17 7519.9,421.695 7519.9,426.036C7519.9,427.529 7519.48,428.925 7518.76,430.114L7518.76,430.115L7518.74,430.133C7518.54,430.47 7518.31,430.791 7518.05,431.092L7518.04,431.113L7518.02,431.136C7517.81,431.377 7517.59,431.606 7517.36,431.821C7517.36,431.821 7510.81,438.626 7507.84,441.717C7507.46,442.108 7506.94,442.329 7506.4,442.329C7505.85,442.33 7505.33,442.109 7504.96,441.718C7501.88,438.531 7494.97,431.354 7494.97,431.354L7494.94,431.317C7494.6,430.941 7494.29,430.532 7494.03,430.095L7494.03,430.095L7494.03,430.095Z" style="fill:rgb(228,9,104);"/>
    </g>
</svg>
