<?xml version="1.0" encoding="UTF-8" standalone="no"?>
<!DOCTYPE svg PUBLIC "-//W3C//DTD SVG 1.1//EN" "http://www.w3.org/Graphics/SVG/1.1/DTD/svg11.dtd">
<svg width="100%" height="100%" viewBox="0 0 17 23" version="1.1" xmlns="http://www.w3.org/2000/svg" xmlns:xlink="http://www.w3.org/1999/xlink" xml:space="preserve" xmlns:serif="http://www.serif.com/" style="fill-rule:evenodd;clip-rule:evenodd;stroke-linejoin:round;stroke-miterlimit:2;">
    <g transform="matrix(0.705579,0,0,0.705965,-6853.22,-267.747)">
        <path d="M9728.15,388.003L9732.81,383.396C9733.18,383.038 9733.67,382.839 9734.18,382.842C9734.68,382.845 9735.17,383.05 9735.53,383.413C9735.53,383.413 9735.53,383.413 9735.53,383.414C9735.89,383.776 9736.09,384.266 9736.08,384.775C9736.08,385.284 9735.88,385.771 9735.51,386.129L9729.61,391.958L9729.61,408.326C9729.61,409.57 9728.6,410.578 9727.36,410.578C9727.36,410.578 9727.36,410.578 9727.36,410.578C9726.11,410.578 9725.11,409.57 9725.11,408.326L9725.11,400.756L9723.88,400.756L9723.88,408.326C9723.88,409.57 9722.87,410.578 9721.63,410.578C9721.63,410.578 9721.63,410.578 9721.63,410.578C9720.38,410.578 9719.38,409.57 9719.38,408.326L9719.38,391.958L9713.47,386.129C9713.11,385.771 9712.91,385.284 9712.9,384.775C9712.9,384.266 9713.1,383.776 9713.46,383.414C9713.46,383.413 9713.46,383.413 9713.46,383.413C9713.81,383.05 9714.3,382.845 9714.81,382.842C9715.32,382.839 9715.81,383.038 9716.17,383.396L9720.84,388.003L9728.15,388.003ZM9724.5,379.264C9726.51,379.264 9728.15,380.898 9728.15,382.911C9728.15,384.924 9726.51,386.558 9724.5,386.558C9722.49,386.558 9720.85,384.924 9720.85,382.911C9720.85,380.898 9722.49,379.264 9724.5,379.264Z" style="fill:rgb(131,139,199);"/>
    </g>
</svg>
