<svg width="15" height="25" viewBox="0 0 15 25" fill="none" xmlns="http://www.w3.org/2000/svg">
<path d="M10.541 17.8066C10.541 19.6748 10.5439 21.5425 10.541 23.4107C10.5389 24.3828 9.72794 25.0409 8.84969 24.7957C8.24451 24.6267 7.87263 24.0899 7.8714 23.3625C7.86812 21.8291 7.86812 20.2957 7.8714 18.7623C7.8714 18.288 7.87386 17.8142 7.8714 17.34C7.86894 16.9947 7.74593 16.8277 7.50444 16.8277C7.26294 16.8277 7.13419 17.0032 7.13419 17.3387C7.13419 19.365 7.13419 21.3911 7.13419 23.417C7.13419 24.1465 6.70163 24.685 6.02716 24.8211C5.31988 24.9618 4.60933 24.4525 4.49494 23.7162C4.47348 23.56 4.46388 23.4023 4.46624 23.2446C4.46405 19.6012 4.46405 15.9581 4.46624 12.315C4.4718 12.2782 4.4718 12.2407 4.46624 12.2039C4.42523 12.0741 4.37644 11.9469 4.33052 11.8184C4.22228 11.8852 4.08861 11.9287 4.00989 12.0217C3.55929 12.5483 3.13 13.0851 2.6958 13.6206C2.57976 13.763 2.46496 13.9063 2.34524 14.0454C1.84707 14.6219 1.04221 14.6857 0.477214 14.195C0.344253 14.0822 0.234186 13.9435 0.15332 13.7868C0.072454 13.6301 0.0223782 13.4585 0.00596199 13.2818C-0.0104542 13.1051 0.00711201 12.9269 0.057654 12.7572C0.108196 12.5875 0.19072 12.4298 0.300498 12.293C1.28207 11.0673 2.25954 9.83908 3.27761 8.64675C4.11157 7.66999 5.19893 7.19746 6.46341 7.18055C7.14813 7.17125 7.83368 7.17294 8.51881 7.18055C9.83618 7.1945 10.944 7.70676 11.8038 8.73255C12.7756 9.89275 13.726 11.0724 14.6739 12.2554C15.3615 13.1147 14.9044 14.3417 13.8387 14.5073C13.3467 14.5838 12.9367 14.3903 12.6194 13.998C12.0921 13.3505 11.5693 12.6988 11.0334 12.0589C10.944 11.952 10.7981 11.8957 10.6784 11.8159C10.6332 11.9536 10.5492 12.0914 10.5488 12.2296C10.5373 14.0889 10.541 15.9478 10.541 17.8066Z" fill="#6C6C6C"/>
<path d="M4.44121 3.25449C4.44121 1.52159 5.8045 0.108218 7.4753 0.109486C7.87857 0.10442 8.27881 0.181891 8.65282 0.337411C9.02684 0.492931 9.36721 0.72341 9.6542 1.01549C9.94119 1.30758 10.1691 1.65546 10.3247 2.039C10.4804 2.42253 10.5607 2.83408 10.5609 3.24982C10.5611 3.66556 10.4814 4.07722 10.3262 4.46094C10.171 4.84467 9.94347 5.19284 9.65682 5.48528C9.37017 5.77772 9.03008 6.00863 8.65625 6.16461C8.28241 6.3206 7.88227 6.39857 7.47899 6.39401C5.80491 6.39654 4.43957 4.98528 4.44121 3.25449Z" fill="#6C6C6C"/>
</svg>
