<svg width="12" height="16" viewBox="0 0 16 26" fill="none" xmlns="http://www.w3.org/2000/svg">
<path d="M10.6894 18.2106C10.6894 20.0787 10.6923 21.9464 10.6894 23.8146C10.6874 24.7867 9.87638 25.4448 8.99813 25.1996C8.39295 25.0306 8.02107 24.4938 8.01984 23.7664C8.01656 22.233 8.01656 20.6996 8.01984 19.1662C8.01984 18.692 8.0223 18.2182 8.01984 17.7439C8.01738 17.3986 7.89437 17.2317 7.65287 17.2317C7.41138 17.2317 7.28263 17.4071 7.28263 17.7427C7.28263 19.7689 7.28263 21.795 7.28263 23.8209C7.28263 24.5504 6.85007 25.0889 6.17559 25.225C5.46832 25.3658 4.75777 24.8565 4.64337 24.1202C4.62191 23.964 4.61232 23.8062 4.61467 23.6485C4.61249 20.0052 4.61249 16.362 4.61467 12.7189C4.62023 12.6821 4.62023 12.6446 4.61467 12.6078C4.57367 12.478 4.52488 12.3508 4.47896 12.2223C4.37071 12.2891 4.23705 12.3326 4.15833 12.4256C3.70772 12.9523 3.27844 13.489 2.84423 14.0245C2.7282 14.167 2.6134 14.3103 2.49367 14.4493C1.99551 15.0258 1.19065 15.0896 0.625652 14.5989C0.492691 14.4862 0.382624 14.3474 0.301758 14.1907C0.220892 14.034 0.170816 13.8624 0.154399 13.6858C0.137983 13.5091 0.15555 13.3308 0.206092 13.1611C0.256634 12.9914 0.339158 12.8337 0.448936 12.697C1.43051 11.4713 2.40798 10.243 3.42604 9.05069C4.26001 8.07392 5.34737 7.60139 6.61185 7.58448C7.29657 7.57518 7.98211 7.57687 8.66725 7.58448C9.98462 7.59843 11.0925 8.11069 11.9523 9.13649C12.924 10.2967 13.8744 11.4763 14.8224 12.6593C15.51 13.5186 15.0528 14.7456 13.9872 14.9113C13.4952 14.9878 13.0851 14.7942 12.7678 14.402C12.2405 13.7545 11.7177 13.1027 11.1819 12.4628C11.0925 12.3559 10.9465 12.2997 10.8268 12.2198C10.7817 12.3576 10.6976 12.4954 10.6972 12.6336C10.6857 14.4928 10.6894 16.3517 10.6894 18.2106Z" fill="#6C6C6C"/>
<path d="M4.58985 3.65696C4.58985 1.92406 5.95314 0.510684 7.62394 0.511952C8.02721 0.506886 8.42744 0.584357 8.80146 0.739877C9.17548 0.895397 9.51584 1.12588 9.80283 1.41796C10.0898 1.71005 10.3177 2.05793 10.4734 2.44146C10.629 2.82499 10.7093 3.23655 10.7095 3.65229C10.7098 4.06803 10.63 4.47968 10.4748 4.86341C10.3196 5.24713 10.0921 5.5953 9.80546 5.88775C9.51881 6.18019 9.17872 6.41109 8.80488 6.56708C8.43105 6.72307 8.0309 6.80104 7.62763 6.79647C5.95355 6.79901 4.58821 5.38775 4.58985 3.65696Z" fill="#6C6C6C"/>
</svg>
