<svg width="69" height="119" viewBox="0 0 119 119" fill="none" xmlns="http://www.w3.org/2000/svg">
<path d="M42.078 41.4105C41.1522 40.4586 39.8861 39.9135 38.5584 39.895C37.2306 39.8766 35.9499 40.3863 34.998 41.3122C34.0461 42.238 33.5009 43.504 33.4825 44.8318C33.4641 46.1596 33.9738 47.4403 34.8997 48.3922L46.4047 59.6513L34.8997 70.9105C34.4388 71.3676 34.073 71.9113 33.8234 72.5105C33.5738 73.1096 33.4453 73.7523 33.4453 74.4013C33.4453 75.0504 33.5738 75.693 33.8234 76.2922C34.073 76.8913 34.4388 77.4351 34.8997 77.8922C35.3567 78.353 35.9005 78.7188 36.4997 78.9684C37.0988 79.218 37.7414 79.3465 38.3905 79.3465C39.0395 79.3465 39.6822 79.218 40.2813 78.9684C40.8805 78.7188 41.4243 78.353 41.8813 77.8922L56.6313 63.1422C57.0922 62.6851 57.4579 62.1413 57.7075 61.5422C57.9571 60.943 58.0857 60.3004 58.0857 59.6513C58.0857 59.0023 57.9571 58.3596 57.7075 57.7605C57.4579 57.1614 57.0922 56.6176 56.6313 56.1605L42.078 41.4105ZM83.8696 56.1605L69.1197 41.4105C68.1938 40.4847 66.9381 39.9645 65.6288 39.9645C64.3195 39.9645 63.0638 40.4847 62.138 41.4105C61.2122 42.3363 60.692 43.592 60.692 44.9013C60.692 46.2106 61.2122 47.4663 62.138 48.3922L73.4463 59.6513L62.138 70.9105C61.6772 71.3676 61.3114 71.9113 61.0618 72.5105C60.8122 73.1096 60.6836 73.7523 60.6836 74.4013C60.6836 75.0504 60.8122 75.693 61.0618 76.2922C61.3114 76.8913 61.6772 77.4351 62.138 77.8922C62.5951 78.353 63.1388 78.7188 63.738 78.9684C64.3371 79.218 64.9798 79.3465 65.6288 79.3465C66.2779 79.3465 66.9205 79.218 67.5197 78.9684C68.1188 78.7188 68.6626 78.353 69.1197 77.8922L83.8696 63.1422C84.3436 62.6982 84.7249 62.1648 84.9915 61.5727C85.2582 60.9805 85.4049 60.3414 85.4231 59.6923C85.4414 59.0432 85.3309 58.3969 85.0981 57.7907C84.8652 57.1845 84.5145 56.6304 84.0663 56.1605H83.8696Z" fill="#0B3C6D"/>
</svg>
