<svg width="16" height="16" viewBox="0 0 21 21" fill="none" xmlns="http://www.w3.org/2000/svg">
<g clip-path="url(#clip0_2935_3522)">
<path d="M0.759766 11.227V10.0525C0.776078 9.91152 0.792391 9.77075 0.808704 9.63013C1.0485 7.47342 1.87213 5.56826 3.32608 3.95771C4.86959 2.24487 6.78161 1.17606 9.05674 0.7733C9.43406 0.706255 9.81626 0.668573 10.196 0.617188H11.3705C11.4201 0.631736 11.4706 0.642532 11.5218 0.649485C13.0878 0.760086 14.5559 1.20836 15.8944 2.02856C18.491 3.62003 20.0889 5.91426 20.6497 8.91514C20.7202 9.29099 20.7544 9.6732 20.8058 10.0525V11.227C20.7898 11.3679 20.7735 11.5087 20.7569 11.6493C20.5171 13.806 19.6935 15.7112 18.2395 17.3217C16.696 19.0346 14.784 20.1034 12.5088 20.5061C12.1315 20.5732 11.7493 20.6109 11.3696 20.6623H10.195C10.1455 20.6477 10.095 20.6369 10.0438 20.63C8.47781 20.5194 7.00966 20.0711 5.6712 19.2509C3.07454 17.6594 1.47671 15.3652 0.915879 12.3643C0.847854 11.9885 0.811151 11.6063 0.759766 11.227ZM5.54886 4.15884L7.13739 5.75276C7.1555 5.71067 7.17997 5.65048 7.20737 5.59175C7.52106 4.91102 8.17781 4.63795 8.87959 4.89683C9.83633 5.24919 10.5665 6.64294 10.3198 7.69365C10.2459 8.00832 10.0913 8.30391 9.96063 8.64158C10.2807 8.96066 10.6365 9.32671 11.0055 9.67418C11.1033 9.76667 11.2384 9.82099 11.3622 9.88412C11.5653 9.98444 11.7875 10.0534 11.9759 10.1748C12.3674 10.4273 12.6097 10.811 12.7716 11.2368C12.8647 11.4793 13.0101 11.6983 13.1974 11.8784C14.4943 13.1651 15.787 14.4558 17.0758 15.7503C17.1291 15.8037 17.1854 15.8546 17.2407 15.9074C19.8001 12.8229 19.9195 7.94813 16.6549 4.71821C13.262 1.363 8.37406 1.76626 5.54886 4.15884ZM9.30878 10.4087L4.30778 5.40334C1.89415 8.22414 1.49873 13.1933 4.91657 16.5647C8.45138 20.051 13.4147 19.3815 16.0104 17.1147L14.7018 15.8047C14.5904 15.9118 14.4731 16.0126 14.3504 16.1066C14.2197 16.2039 14.0763 16.2828 13.9241 16.341C13.3526 16.5444 12.7267 16.5338 12.1624 16.3112C11.9506 16.2262 11.7443 16.1281 11.5448 16.0175C11.0314 15.745 10.5234 15.743 10.0135 16.0224C9.92246 16.0714 9.82752 16.1159 9.73503 16.1644C9.24897 16.4262 8.69302 16.5289 8.14551 16.458C7.55826 16.3836 7.05762 16.1526 6.79727 15.5859C6.4547 14.8411 6.56286 14.1246 7.05909 13.4933C7.35272 13.1219 7.7129 12.8033 8.05596 12.4744C8.31386 12.2268 8.52674 11.9625 8.63881 11.6126C8.78269 11.1678 8.99019 10.7464 9.30878 10.4087Z" fill="black"/>
<path d="M11.207 7.31498C11.256 6.35922 11.5873 5.54831 12.4305 5.02418C13.2453 4.51718 14.1805 4.89205 14.4448 5.81356C14.7521 6.88726 14.2461 8.18168 13.2952 8.75376C12.4848 9.2407 11.5295 8.8487 11.2922 7.93111C11.2632 7.83123 11.24 7.72976 11.2227 7.62721C11.2085 7.52444 11.2114 7.41922 11.207 7.31498Z" fill="black"/>
<path d="M16.6361 9.731C16.5705 10.6887 16.2446 11.506 15.4224 12.035C14.496 12.6325 13.5451 12.2009 13.3298 11.1174C13.1316 10.1191 13.6753 8.89416 14.5533 8.36661C15.4131 7.84884 16.3557 8.25454 16.57 9.23917C16.6067 9.40361 16.615 9.57342 16.6361 9.731Z" fill="black"/>
<path d="M8.27608 10.6703C8.27069 11.0477 8.20658 11.4127 7.99419 11.7318C7.61296 12.3054 6.96649 12.4634 6.32491 12.1522C5.27959 11.6447 4.65514 10.0733 5.0721 8.99911C5.38432 8.19603 6.21823 7.90387 6.96356 8.33648C7.73531 8.78476 8.26825 9.73269 8.27608 10.6703Z" fill="black"/>
</g>
<defs>
<clipPath id="clip0_2935_3522">
<rect width="20.0451" height="20.0451" fill="white" transform="translate(0.759766 0.617188)"/>
</clipPath>
</defs>
</svg>
