<svg width="10" height="15" viewBox="0 0 15 21" fill="none" xmlns="http://www.w3.org/2000/svg">
<path d="M6.07474 18.3625C6.16298 18.4546 6.23299 18.5639 6.28077 18.6843C6.32856 18.8047 6.35318 18.9337 6.35324 19.064C6.35329 19.1943 6.32878 19.3234 6.2811 19.4438C6.23341 19.5642 6.1635 19.6737 6.07534 19.7659C5.98718 19.858 5.8825 19.9312 5.76728 19.9811C5.65207 20.031 5.52857 20.0568 5.40383 20.0568C5.2791 20.0569 5.15558 20.0313 5.04032 19.9814C4.92506 19.9316 4.82033 19.8586 4.73209 19.7665L2.90841 17.8602C2.86175 17.811 2.82015 17.7569 2.7843 17.6987L2.26122 17.1531C2.12454 17.0104 2.01611 16.8409 1.94213 16.6543C1.86815 16.4678 1.83008 16.2679 1.83008 16.066C1.83008 15.8641 1.86815 15.6641 1.94213 15.4776C2.01611 15.2911 2.12454 15.1216 2.26122 14.9788L4.07394 13.0846C4.09596 13.0615 4.12213 13.0432 4.15095 13.0307C4.17977 13.0182 4.21067 13.0117 4.24188 13.0117C4.27309 13.0117 4.304 13.0182 4.33282 13.0307C4.36164 13.0432 4.38781 13.0615 4.40983 13.0846L6.07534 14.8247C6.09746 14.8477 6.11501 14.8751 6.12699 14.9052C6.13896 14.9353 6.14513 14.9676 6.14513 15.0002C6.14513 15.0328 6.13896 15.0651 6.12699 15.0952C6.11501 15.1253 6.09746 15.1526 6.07534 15.1757L4.54993 16.7694L6.07474 18.3625Z" fill="#140F0F"/>
<path d="M14.1485 11.5481C14.1488 11.7319 14.0968 11.9117 13.9992 12.0646C13.9015 12.2175 13.7626 12.3367 13.6001 12.4071C13.4375 12.4775 13.2586 12.4958 13.0861 12.4599C12.9135 12.4239 12.7551 12.3352 12.6308 12.2051L10.1742 9.63841V11.7427C10.1742 11.8171 10.1459 11.8884 10.0956 11.941C10.0453 11.9936 9.97701 12.0231 9.90584 12.0231H4.46146C4.39029 12.0231 4.32203 11.9936 4.2717 11.941C4.22138 11.8884 4.1931 11.8171 4.1931 11.7427V9.56538L1.66655 12.2051C1.49978 12.3793 1.27358 12.4772 1.03773 12.4772C0.801874 12.4772 0.575679 12.3793 0.408905 12.2051C0.24213 12.0308 0.148438 11.7945 0.148438 11.5481C0.148437 11.3017 0.24213 11.0653 0.408905 10.8911L3.97096 7.16986C4.0766 7.05965 4.20713 6.97903 4.35047 6.93543C4.49382 6.89184 4.64537 6.88668 4.79112 6.92044H9.88925C9.95601 6.93551 10.0208 6.95878 10.0824 6.98976C10.173 7.03502 10.2555 7.09614 10.3264 7.17048L13.8882 10.8911C13.9708 10.9774 14.0363 11.0798 14.081 11.1925C14.1256 11.3052 14.1486 11.4261 14.1485 11.5481Z" fill="#140F0F"/>
<path d="M4.19336 3.25335C4.19336 2.64467 4.36612 2.04965 4.68979 1.54355C5.01347 1.03744 5.47352 0.642982 6.01177 0.410049C6.55002 0.177115 7.1423 0.116169 7.7137 0.234917C8.2851 0.353666 8.80997 0.646776 9.22193 1.07718C9.63389 1.50759 9.91444 2.05596 10.0281 2.65295C10.1418 3.24994 10.0834 3.86873 9.86047 4.43108C9.63752 4.99344 9.25997 5.47409 8.77555 5.81225C8.29114 6.15042 7.72163 6.33092 7.13903 6.33092C6.75219 6.33096 6.36913 6.25138 6.01172 6.09673C5.65432 5.94209 5.32958 5.7154 5.05604 5.42961C4.7825 5.14382 4.56553 4.80454 4.41751 4.43113C4.26949 4.05773 4.19332 3.65751 4.19336 3.25335Z" fill="#140F0F"/>
<path d="M12.0955 14.9776C12.2322 15.1203 12.3406 15.2898 12.4146 15.4763C12.4886 15.6629 12.5266 15.8628 12.5266 16.0647C12.5266 16.2666 12.4886 16.4666 12.4146 16.6531C12.3406 16.8396 12.2322 17.0091 12.0955 17.1519L11.5736 17.6974C11.5374 17.7557 11.4954 17.8099 11.4483 17.859L9.62464 19.7652C9.53648 19.8573 9.43181 19.9304 9.31663 19.9803C9.20144 20.0301 9.07798 20.0558 8.95331 20.0558C8.82863 20.0558 8.70517 20.0301 8.58999 19.9803C8.4748 19.9304 8.37014 19.8573 8.28198 19.7652C8.19382 19.6731 8.12389 19.5638 8.07617 19.4434C8.02846 19.3231 8.00391 19.1941 8.00391 19.0638C8.00391 18.9336 8.02846 18.8046 8.07617 18.6843C8.12389 18.5639 8.19382 18.4546 8.28198 18.3625L9.8068 16.7694L8.28139 15.1757C8.25927 15.1526 8.24171 15.1253 8.22974 15.0952C8.21776 15.0651 8.21159 15.0328 8.21159 15.0002C8.21159 14.9676 8.21776 14.9353 8.22974 14.9052C8.24171 14.8751 8.25927 14.8477 8.28139 14.8247L9.9469 13.0846C9.96891 13.0615 9.99509 13.0432 10.0239 13.0307C10.0527 13.0182 10.0836 13.0117 10.1148 13.0117C10.1461 13.0117 10.177 13.0182 10.2058 13.0307C10.2346 13.0432 10.2608 13.0615 10.2828 13.0846L12.0955 14.9776Z" fill="#140F0F"/>
</svg>
