<svg width="23" height="24" viewBox="0 0 34 35" fill="none" xmlns="http://www.w3.org/2000/svg">
<g clip-path="url(#clip0_2367_3221)">
<path d="M31.4521 34.1279H8.83927C8.60516 34.0878 8.37192 34.0408 8.13694 34.0078C4.33029 33.409 1.12849 30.2107 0.786461 26.0368C0.634948 24.1669 1.0872 22.2978 2.07676 20.704C3.06632 19.1102 4.541 17.8759 6.28409 17.1824C7.01253 16.8952 7.7897 16.7333 8.57818 16.5036V16.1685C8.57818 12.0758 8.57818 7.98256 8.57818 3.88871C8.57818 2.00627 9.81661 0.768714 11.6982 0.767844C16.5527 0.767844 21.4069 0.766102 26.2608 0.762621C26.4657 0.755368 26.6698 0.791905 26.8595 0.869793C27.0492 0.947681 27.2201 1.06513 27.3608 1.2143C29.4112 3.27863 31.4692 5.336 33.5347 7.38641C33.6883 7.53096 33.8093 7.70669 33.8894 7.90183C33.9696 8.09696 34.0071 8.30698 33.9994 8.51779C33.989 12.7956 33.9869 17.0733 33.9933 21.3511C33.9933 24.6086 34.0003 27.8661 33.9933 31.1236C33.9933 32.4221 33.3771 33.355 32.1944 33.8972C31.952 33.9896 31.7041 34.0666 31.4521 34.1279V34.1279ZM15.0906 32.1732H30.869C31.6748 32.1732 32.043 31.8059 32.043 31.0018C32.043 23.8689 32.043 16.7357 32.043 9.60217V9.23839H26.6567C25.8987 9.23839 25.5254 8.85894 25.5254 8.09396C25.5254 6.42184 25.5254 4.75001 25.5254 3.07847V2.71991H11.726C10.8949 2.71991 10.5337 3.07847 10.5337 3.90437V16.5802L10.7165 16.6098C12.2072 16.8149 13.6222 17.3919 14.8312 18.2877C15.0022 18.4092 15.2055 18.4768 15.4152 18.4818C19.3025 18.4928 23.1898 18.4957 27.0771 18.4905C27.5436 18.4905 28.0109 18.48 28.4774 18.4905C28.7167 18.4947 28.946 18.587 29.1215 18.7498C29.2969 18.9126 29.4062 19.1344 29.4282 19.3727C29.4503 19.611 29.3838 19.8491 29.2412 20.0413C29.0987 20.2336 28.8903 20.3665 28.6558 20.4147C28.5168 20.4387 28.3755 20.4474 28.2346 20.4408H16.9417C17.2498 21.0979 17.584 21.6975 17.812 22.3345C18.04 22.9716 18.1758 23.6626 18.3576 24.3501H28.2067C28.3042 24.3501 28.4026 24.3501 28.5 24.3501C28.7353 24.3633 28.9582 24.46 29.1284 24.6229C29.2987 24.7859 29.4051 25.0042 29.4286 25.2387C29.4485 25.468 29.3861 25.697 29.2524 25.8844C29.1187 26.0718 28.9226 26.2054 28.6993 26.2613C28.5513 26.2932 28.3998 26.3063 28.2485 26.3005C25.0667 26.3005 21.8849 26.3005 18.7032 26.3005H18.3054C17.9973 28.6616 16.9478 30.5875 15.0862 32.1732H15.0906ZM9.56857 32.1732C10.9217 32.1704 12.2437 31.7665 13.3672 31.0123C14.4908 30.2582 15.3655 29.1879 15.8807 27.9366C16.3959 26.6854 16.5285 25.3095 16.2617 23.9829C15.9949 22.6563 15.3406 21.4386 14.3817 20.4838C13.4228 19.5291 12.2023 18.8801 10.8746 18.619C9.54685 18.3579 8.1715 18.4965 6.9225 19.0171C5.67349 19.5377 4.60692 20.417 3.85768 21.5438C3.10845 22.6706 2.71019 23.9943 2.71329 25.3475C2.72111 27.1597 3.44622 28.8952 4.73004 30.1743C6.01387 31.4534 7.75196 32.1721 9.56422 32.1732H9.56857ZM27.4992 4.18809V7.25674H30.567L27.4992 4.18809Z" fill="#009721"/>
<path d="M21.2817 12.6248C23.6473 12.6248 26.0131 12.6248 28.3793 12.6248C29.1434 12.6248 29.6352 13.3045 29.3549 13.9677C29.2849 14.1526 29.1586 14.3109 28.9939 14.4202C28.8292 14.5295 28.6343 14.5843 28.4367 14.577C27.8623 14.5848 27.287 14.577 26.7117 14.577H14.339C14.1996 14.5841 14.0599 14.5765 13.9221 14.5543C13.6819 14.5059 13.4688 14.3688 13.3253 14.1702C13.1817 13.9717 13.1183 13.7263 13.1476 13.4831C13.1769 13.2398 13.2969 13.0166 13.4835 12.8578C13.6701 12.6991 13.9097 12.6165 14.1545 12.6265C16.2932 12.6219 18.4313 12.6219 20.5689 12.6265L21.2817 12.6248Z" fill="#009721"/>
<path d="M8.16769 26.7546C8.28953 26.6389 8.37657 26.5605 8.45925 26.4779C9.64117 25.2968 10.8196 24.1114 12.0067 22.9347C12.6021 22.3455 13.5029 22.5709 13.6961 23.3507C13.7979 23.7633 13.6256 24.0853 13.3384 24.3708C11.8878 25.8213 10.4372 27.2719 8.98667 28.7225C8.94838 28.7608 8.91008 28.7999 8.86918 28.8356C8.44184 29.2098 7.89962 29.2151 7.49143 28.8173C6.8381 28.1791 6.19318 27.5347 5.55667 26.8843C5.15023 26.4665 5.15806 25.8669 5.54971 25.4839C5.94136 25.101 6.52797 25.1079 6.95095 25.5196C7.37394 25.9313 7.75428 26.3325 8.16769 26.7546Z" fill="#009721"/>
</g>
<defs>
<clipPath id="clip0_2367_3221">
<rect width="33.2425" height="33.3652" fill="white" transform="translate(0.757812 0.761719)"/>
</clipPath>
</defs>
</svg>
