<svg width="25" height="20" viewBox="0 0 25 20" fill="none" xmlns="http://www.w3.org/2000/svg">
<path d="M19.941 4.63818H13.9466C13.0343 4.64135 12.1404 4.88157 11.3625 5.33266C10.5845 5.78374 9.9523 6.42837 9.53484 7.19624C8.9358 6.76576 8.20492 6.53172 7.45282 6.52954C6.52544 6.52954 5.63605 6.87826 4.98029 7.49898C4.32454 8.1197 3.95614 8.96158 3.95614 9.83941C3.95906 10.3312 4.07891 10.816 4.3068 11.2579H2.95709V1.80115C2.95709 1.55034 2.85183 1.3098 2.66447 1.13245C2.47711 0.955102 2.223 0.855469 1.95804 0.855469C1.69307 0.855469 1.43896 0.955102 1.2516 1.13245C1.06424 1.3098 0.958984 1.55034 0.958984 1.80115L0.958984 18.8234C0.958984 19.0742 1.06424 19.3147 1.2516 19.4921C1.43896 19.6694 1.69307 19.769 1.95804 19.769C2.223 19.769 2.47711 19.6694 2.66447 19.4921C2.85183 19.3147 2.95709 19.0742 2.95709 18.8234V16.932H22.9381V18.8234C22.9381 19.0742 23.0434 19.3147 23.2307 19.4921C23.4181 19.6694 23.6722 19.769 23.9372 19.769C24.2021 19.769 24.4562 19.6694 24.6436 19.4921C24.831 19.3147 24.9362 19.0742 24.9362 18.8234V9.36657C24.9346 8.11299 24.4078 6.91117 23.4714 6.02475C22.5349 5.13833 21.2653 4.63968 19.941 4.63818V4.63818ZM10.9495 9.36657C10.9495 8.61415 11.2653 7.89253 11.8273 7.36049C12.3894 6.82844 13.1518 6.52954 13.9466 6.52954H19.941C20.7359 6.52954 21.4982 6.82844 22.0603 7.36049C22.6223 7.89253 22.9381 8.61415 22.9381 9.36657V11.2579H10.9495V9.36657ZM5.95424 9.83941C5.95424 9.55886 6.04213 9.2846 6.2068 9.05133C6.37146 8.81805 6.60551 8.63624 6.87934 8.52887C7.15317 8.42151 7.45448 8.39342 7.74517 8.44815C8.03587 8.50289 8.30289 8.63799 8.51247 8.83637C8.72205 9.03475 8.86478 9.28751 8.9226 9.56267C8.98042 9.83784 8.95075 10.1231 8.83732 10.3823C8.7239 10.6415 8.53182 10.863 8.28538 11.0189C8.03894 11.1747 7.74921 11.2579 7.45282 11.2579C7.05537 11.2579 6.6742 11.1085 6.39316 10.8425C6.11213 10.5764 5.95424 10.2156 5.95424 9.83941ZM2.95709 15.0406V13.1493H22.9381V15.0406H2.95709Z" fill="#6B9EFF"/>
</svg>
