<svg width="24" height="20" viewBox="0 0 24 20" fill="none" xmlns="http://www.w3.org/2000/svg">
<g clip-path="url(#clip0_617_1639)">
<path d="M18.982 4.37646H12.9877C12.0753 4.37963 11.1815 4.61985 10.4035 5.07094C9.62551 5.52202 8.99332 6.16665 8.57585 6.93452C7.97682 6.50404 7.24594 6.27 6.49383 6.26782C5.56646 6.26782 4.67706 6.61654 4.02131 7.23726C3.36555 7.85798 2.99715 8.69986 2.99715 9.57769C3.00008 10.0695 3.11993 10.5543 3.34782 10.9962H1.9981V1.53943C1.9981 1.28862 1.89285 1.04808 1.70549 0.870733C1.51813 0.693384 1.26402 0.59375 0.999051 0.59375C0.734086 0.59375 0.479974 0.693384 0.292615 0.870733C0.105257 1.04808 0 1.28862 0 1.53943L0 18.5616C0 18.8124 0.105257 19.053 0.292615 19.2303C0.479974 19.4077 0.734086 19.5073 0.999051 19.5073C1.26402 19.5073 1.51813 19.4077 1.70549 19.2303C1.89285 19.053 1.9981 18.8124 1.9981 18.5616V16.6703H21.9791V18.5616C21.9791 18.8124 22.0844 19.053 22.2717 19.2303C22.4591 19.4077 22.7132 19.5073 22.9782 19.5073C23.2431 19.5073 23.4973 19.4077 23.6846 19.2303C23.872 19.053 23.9772 18.8124 23.9772 18.5616V9.10486C23.9756 7.85127 23.4488 6.64946 22.5124 5.76304C21.576 4.87662 20.3063 4.37796 18.982 4.37646ZM9.99051 9.10486C9.99051 8.35243 10.3063 7.63082 10.8684 7.09877C11.4304 6.56672 12.1928 6.26782 12.9877 6.26782H18.982C19.7769 6.26782 20.5392 6.56672 21.1013 7.09877C21.6634 7.63082 21.9791 8.35243 21.9791 9.10486V10.9962H9.99051V9.10486ZM4.99526 9.57769C4.99526 9.29714 5.08315 9.02288 5.24781 8.78961C5.41248 8.55633 5.64652 8.37452 5.92035 8.26715C6.19418 8.15979 6.49549 8.1317 6.78619 8.18643C7.07689 8.24117 7.34391 8.37627 7.55349 8.57465C7.76307 8.77303 7.90579 9.02579 7.96361 9.30095C8.02144 9.57612 7.99176 9.86134 7.87834 10.1205C7.76491 10.3797 7.57284 10.6013 7.3264 10.7571C7.07996 10.913 6.79022 10.9962 6.49383 10.9962C6.09639 10.9962 5.71522 10.8468 5.43418 10.5807C5.15314 10.3147 4.99526 9.95391 4.99526 9.57769ZM1.9981 14.7789V12.8876H21.9791V14.7789H1.9981Z" fill="#6B9EFF"/>
</g>
<defs>
<clipPath id="clip0_617_1639">
<rect width="23.9772" height="19.3339" fill="white" transform="translate(0 0.383545)"/>
</clipPath>
</defs>
</svg>
