<svg width="32" height="28" viewBox="0 0 32 28" fill="none" xmlns="http://www.w3.org/2000/svg">
<path d="M8.02678 10.3949V13.7666C8.02678 14.4782 7.68012 15.5632 7.26678 16.1699L5.73345 18.3982C4.78678 19.7749 5.44012 21.3032 7.17345 21.8166C12.9201 23.4966 19.1201 23.4966 24.8668 21.8166C26.4801 21.3499 27.1868 19.6816 26.3068 18.3982L24.7734 16.1699C24.3734 15.5632 24.0268 14.4782 24.0268 13.7666V10.3949C24.0268 6.5449 20.4268 3.3949 16.0268 3.3949C11.6135 3.3949 8.02678 6.53323 8.02678 10.3949Z" stroke="#292931" stroke-width="1.5" stroke-linecap="round"/>
<path d="M17.2139 3.49994C15.9339 3.35994 14.7072 3.44161 13.5605 3.73328C13.9472 2.86994 14.9072 2.26328 16.0272 2.26328C17.1472 2.26328 18.1072 2.86994 18.4939 3.73328C18.0805 3.62828 17.6539 3.54661 17.2139 3.49994Z" stroke="#292931" stroke-width="1.5" stroke-linecap="round" stroke-linejoin="round"/>
<path d="M20.0264 22.2367C20.0264 24.1617 18.2264 25.7367 16.0264 25.7367C14.933 25.7367 13.9197 25.3401 13.1997 24.7101C12.4797 24.0801 12.0264 23.1934 12.0264 22.2367" stroke="#292931" stroke-width="1.5"/>
</svg>
