<svg width="20" height="20" viewBox="0 0 24 24" fill="none" xmlns="http://www.w3.org/2000/svg">
<path d="M12.1698 0.544922C9.89183 0.544922 7.66506 1.20602 5.77103 2.44461C3.877 3.6832 2.40079 5.44365 1.52906 7.50335C0.657334 9.56305 0.429251 11.8295 0.873653 14.0161C1.31805 16.2026 2.41498 18.2111 4.02572 19.7875C5.63646 21.364 7.68867 22.4375 9.92283 22.8725C12.157 23.3074 14.4728 23.0842 16.5773 22.231C18.6818 21.3779 20.4806 19.9331 21.7461 18.0794C23.0117 16.2257 23.6872 14.0464 23.6872 11.817C23.6872 10.3367 23.3893 8.87094 22.8105 7.50335C22.2317 6.13576 21.3833 4.89314 20.3138 3.84643C19.2443 2.79973 17.9746 1.96943 16.5773 1.40296C15.1799 0.836482 13.6822 0.544922 12.1698 0.544922ZM12.1698 20.8346C9.72607 20.8346 7.38248 19.8846 5.65453 18.1934C3.92658 16.5023 2.95583 14.2086 2.95583 11.817C2.95329 9.81433 3.63883 7.869 4.90227 6.29367L17.8133 18.9297C16.2037 20.1662 14.216 20.8371 12.1698 20.8346ZM19.4372 17.3403L6.52623 4.70431C8.13584 3.46779 10.1235 2.79684 12.1698 2.79933C14.6134 2.79933 16.957 3.74941 18.685 5.44054C20.4129 7.13168 21.3837 9.42536 21.3837 11.817C21.3862 13.8196 20.7007 15.765 19.4372 17.3403Z" fill="#292931"/>
</svg>
