<svg width="20" height="19" viewBox="0 0 23 22" fill="none" xmlns="http://www.w3.org/2000/svg">
<g clip-path="url(#clip0_2669_2736)">
<path d="M2.53206 21.7993C2.10157 21.6532 1.67925 21.4935 1.33184 21.1931C0.714509 20.6581 0.38475 19.9996 0.38475 19.2012C0.382167 15.1206 0.382167 11.0398 0.38475 6.95892C0.38475 5.48764 1.59014 4.3172 3.13045 4.31062C5.55801 4.29992 7.98513 4.30609 10.4127 4.31062C10.9797 4.31062 11.3878 4.69171 11.3822 5.19832C11.377 5.69547 10.9702 6.06257 10.4136 6.06463C8.03579 6.06655 5.65845 6.06655 3.28155 6.06463C2.57296 6.06463 2.22082 6.39592 2.22082 7.06633C2.22082 11.0721 2.22082 15.0778 2.22082 19.0835C2.22082 19.7498 2.5652 20.0856 3.25787 20.0856C7.45376 20.0856 11.6498 20.0856 15.846 20.0856C16.5305 20.0856 16.8826 19.742 16.8826 19.0794C16.8826 16.7994 16.8826 14.5194 16.8826 12.2395C16.8826 11.5979 17.4819 11.1736 18.0944 11.3715C18.4819 11.495 18.7152 11.8242 18.7174 12.2629C18.7208 13.0296 18.7174 13.7968 18.7174 14.5635V18.9983C18.7174 20.4387 18.0144 21.3491 16.5714 21.7758C16.5587 21.782 16.5471 21.7899 16.5369 21.7993H2.53206Z" fill="#586ADA"/>
<path d="M22.3823 3.2717C22.2639 3.97133 21.8253 4.48206 21.2992 4.94464C21.0103 5.19857 20.7426 5.47471 20.4856 5.72205L17.2461 2.62434C17.2693 2.6013 17.3253 2.54203 17.3839 2.4873C17.7326 2.15312 18.0791 1.81648 18.4321 1.486C19.0899 0.868683 19.8738 0.648505 20.7568 0.907368C21.6397 1.16623 22.1662 1.75721 22.347 2.62599C22.3558 2.65085 22.368 2.67451 22.3832 2.69636L22.3823 3.2717Z" fill="#586ADA"/>
<path d="M16.2166 3.60938L19.4453 6.69803C19.4079 6.73713 19.3631 6.78734 19.3162 6.83385C16.9875 9.06114 14.6568 11.2866 12.3241 13.5104C12.181 13.6403 12.0036 13.7305 11.8109 13.7713C10.8208 13.9771 9.82119 14.1569 8.82545 14.3475C8.39883 14.4298 8.13063 14.1828 8.21457 13.7795C8.42164 12.7873 8.62872 11.795 8.84568 10.8049C8.87248 10.6858 8.93311 10.5762 9.0209 10.488C11.3964 8.20855 13.775 5.93215 16.1568 3.65876C16.1762 3.6386 16.199 3.62213 16.2166 3.60938Z" fill="#586ADA"/>
</g>
<defs>
<clipPath id="clip0_2669_2736">
<rect width="22" height="21" fill="white" transform="translate(0.382812 0.800781)"/>
</clipPath>
</defs>
</svg>
