<svg width="16" height="20" viewBox="0 0 25 30" fill="none" xmlns="http://www.w3.org/2000/svg">
<path d="M6.54164 3.30034C6.54164 2.9294 6.53737 2.61047 6.54164 2.29154C6.55229 1.69463 6.92466 1.25205 7.40077 1.25887C7.62472 1.2629 7.83834 1.37249 7.9955 1.56396C8.15267 1.75543 8.24075 2.0134 8.24073 2.28216C8.24712 2.60961 8.24073 2.93708 8.24073 3.28159H16.7547C16.7547 2.98397 16.7547 2.68465 16.7547 2.37683C16.7582 1.72105 17.1022 1.26314 17.5953 1.25717C18.0885 1.2512 18.4531 1.71509 18.4566 2.38619C18.4566 2.67358 18.4566 2.96009 18.4566 3.29863H18.7408C19.7514 3.29863 20.7618 3.29863 21.7724 3.29863C23.3044 3.30376 24.4094 4.61953 24.4101 6.45379C24.413 13.1979 24.413 19.9422 24.4101 26.6868C24.4101 28.5228 23.3059 29.8488 21.7809 29.8496C15.5928 29.8496 9.40495 29.8496 3.21736 29.8496C1.69024 29.8496 0.588069 28.5202 0.588069 26.6868C0.585227 19.9417 0.585227 13.197 0.588069 6.45293C0.588069 4.62294 1.69734 3.3029 3.2266 3.29779C4.22857 3.29779 5.23055 3.29779 6.23181 3.29779L6.54164 3.30034ZM2.28645 11.4867V11.8371C2.28645 16.7626 2.28645 21.6874 2.28645 26.6118C2.28645 27.4338 2.60765 27.8159 3.29908 27.8159H21.7041C22.3956 27.8159 22.7147 27.4347 22.7147 26.61C22.7147 21.6847 22.7147 16.7595 22.7147 11.8346V11.4867H2.28645ZM22.7118 9.42047C22.7118 8.39718 22.7153 7.41141 22.7118 6.42394C22.7075 5.77329 22.3515 5.34692 21.8065 5.34692C15.6003 5.34692 9.39549 5.34692 3.19177 5.34692C2.63252 5.34692 2.2893 5.77329 2.28716 6.45549C2.28716 7.3594 2.28716 8.2633 2.28716 9.16722C2.28716 9.25249 2.2964 9.33009 2.30208 9.42304L22.7118 9.42047Z" fill="black"/>
<path d="M11.688 19.6932L13.6042 17.5518C14.5637 16.4815 15.5237 15.4112 16.4842 14.3409C16.8472 13.9375 17.3156 13.8896 17.6771 14.2107C17.8503 14.3628 17.9634 14.5842 17.9926 14.8279C18.0217 15.0716 17.9646 15.3184 17.8333 15.5158C17.7769 15.5973 17.7154 15.6741 17.6492 15.7458C15.8997 17.699 14.1498 19.65 12.3998 21.5989C11.9207 22.1333 11.4553 22.1341 10.977 21.5989C10.0867 20.6096 9.19662 19.6178 8.30679 18.6237C7.89148 18.1588 7.90007 17.531 8.31896 17.1476C8.46606 17.0097 8.65142 16.9329 8.84355 16.9301C9.03569 16.9273 9.22276 16.9988 9.37301 17.1324C9.49972 17.2517 9.62043 17.3786 9.73462 17.5126C10.3819 18.2339 11.0278 18.9559 11.688 19.6932Z" fill="#292931"/>
</svg>
