<svg width="40" height="25" viewBox="0 0 46 39" fill="none" xmlns="http://www.w3.org/2000/svg">
<path d="M7.51687 24.7852C7.895 24.6155 8.23443 24.3736 8.51513 24.0737C8.79583 23.7738 9.01212 23.4221 9.1512 23.0394C9.22795 22.773 9.26949 22.4982 9.27481 22.2216C9.29423 21.7841 9.20715 21.3483 9.02068 20.95C8.83421 20.5516 8.55366 20.2021 8.20203 19.9299C7.48753 19.3677 6.53836 19.0938 5.35662 19.0938H0.705078V30.9776H5.51168C8.32566 30.9776 9.83635 29.657 9.83635 27.6535C9.83395 27.0583 9.64936 26.4774 9.30625 25.9853C8.94795 25.4537 8.35709 25.0428 7.51687 24.7852ZM2.60341 20.7783H5.10729C6.66199 20.7783 7.36181 21.4325 7.36181 22.4138C7.36181 23.3951 6.5698 24.1127 4.99833 24.1127H2.60341V20.7783ZM5.53682 29.2931H2.60341V25.7481H5.41739C7.09362 25.7481 7.93174 26.4616 7.93174 27.494C7.92126 28.5796 7.08314 29.2931 5.5431 29.2931H5.53682Z" fill="#1E2339"/>
<path d="M10.7207 22.8774V30.9813H12.5729V26.868C12.5729 25.4574 13.3189 24.6519 14.7353 24.6519C14.9125 24.6503 15.0894 24.666 15.2633 24.699V22.8468C15.116 22.8117 14.9644 22.7966 14.8128 22.8018C13.8001 22.8018 13.0381 23.257 12.5268 24.1674V22.8774H10.7207Z" fill="#1E2339"/>
<path d="M17.5963 22.8789H15.7461V30.9828H17.5963V22.8789Z" fill="#1E2339"/>
<path d="M17.515 19.4143C17.4058 19.2996 17.2735 19.2081 17.1264 19.1456C16.9793 19.0831 16.8206 19.0508 16.6602 19.0508C16.4997 19.0508 16.341 19.0831 16.1939 19.1456C16.0468 19.2081 15.9145 19.2996 15.8053 19.4143C15.6362 19.5793 15.5211 19.7894 15.4744 20.0183C15.4278 20.2471 15.4517 20.4843 15.5432 20.6998C15.6347 20.9153 15.7897 21.0996 15.9885 21.2292C16.1873 21.3588 16.421 21.428 16.6602 21.428C16.8993 21.428 17.133 21.3588 17.3318 21.2292C17.5307 21.0996 17.6856 20.9153 17.7771 20.6998C17.8686 20.4843 17.8926 20.2471 17.8459 20.0183C17.7993 19.7894 17.6841 19.5793 17.515 19.4143Z" fill="#1E2339"/>
<path d="M25.2816 29.7197V30.9791H27.0857V18.625H25.2335V24.0282C24.945 23.5814 24.5134 23.24 24.0056 23.0572C23.5459 22.8474 23.0463 22.7339 22.5389 22.7239C21.9729 22.7052 21.4097 22.8098 20.8903 23.0302C20.3709 23.2505 19.9084 23.581 19.5364 23.9976C18.7971 24.7955 18.3918 25.8352 18.4007 26.9108C18.3875 28.0026 18.8054 29.0575 19.5678 29.8567C19.9343 30.2601 20.3867 30.5803 20.8935 30.795C21.4002 31.0097 21.9489 31.1137 22.5012 31.0997C23.016 31.085 23.5229 30.9718 23.993 30.7664C24.5288 30.5653 24.9817 30.1974 25.2816 29.7197ZM20.9716 28.7323C20.5305 28.2234 20.2884 27.5784 20.2884 26.9118C20.2884 26.2452 20.5305 25.6003 20.9716 25.0913C21.1989 24.8468 21.478 24.6536 21.7895 24.5251C22.1011 24.3966 22.4376 24.3359 22.7757 24.3472C23.1115 24.3364 23.4457 24.3975 23.7548 24.526C24.0639 24.6546 24.3404 24.8475 24.5651 25.0913C25.0163 25.5956 25.265 26.2424 25.265 26.9118C25.265 27.5813 25.0163 28.228 24.5651 28.7323C24.3391 28.9735 24.0619 29.1638 23.7529 29.2898C23.4438 29.4158 23.1104 29.4747 22.7757 29.4621C22.4391 29.4727 22.104 29.413 21.7929 29.2872C21.4818 29.1613 21.2018 28.9722 20.9716 28.7323Z" fill="#1E2339"/>
<path d="M34.7191 24.1162C34.4206 23.6597 33.9864 23.3031 33.4745 23.094C33.0162 22.8782 32.5164 22.7591 32.0078 22.7444C31.4436 22.7253 30.8823 22.83 30.3652 23.0508C29.8481 23.2716 29.3883 23.6028 29.0199 24.0201C28.2941 24.8127 27.8954 25.8398 27.901 26.9026C27.8824 27.9791 28.2899 29.021 29.0387 29.8117C29.4033 30.2098 29.8523 30.5257 30.3545 30.7375C30.8567 30.9493 31.4001 31.052 31.947 31.0384C32.4543 31.0256 32.9534 30.9115 33.4137 30.7031C33.9336 30.5016 34.374 30.1435 34.6709 29.6809V30.9546C34.6709 32.5778 33.5981 33.4282 32.1565 33.4282C30.9895 33.4282 30.1178 32.8517 29.5416 31.713L27.9911 32.5737C28.7538 34.2092 30.1534 35.0269 32.1817 35.0269C33.4891 35.0269 34.5305 34.6467 35.3246 33.9046C36.1187 33.1625 36.521 32.1423 36.521 30.8687V22.8773H34.717L34.7191 24.1162ZM34.0046 28.6996C33.7816 28.9399 33.5073 29.1297 33.201 29.2554C32.8948 29.3811 32.564 29.4399 32.232 29.4274C31.8977 29.4383 31.5649 29.3789 31.2562 29.2533C30.9475 29.1278 30.67 28.9389 30.4426 28.6996C29.9885 28.1976 29.744 27.5476 29.7574 26.8781C29.7384 26.2169 29.9842 25.5745 30.4426 25.0872C30.6764 24.8564 30.9549 24.6731 31.2619 24.548C31.5689 24.4229 31.8982 24.3585 32.2309 24.3585C32.5636 24.3585 32.893 24.4229 33.1999 24.548C33.5069 24.6731 33.7854 24.8564 34.0193 25.0872C34.4759 25.5756 34.7214 26.2172 34.7044 26.8781C34.7179 27.5471 34.4673 28.1955 34.0046 28.6894V28.6996Z" fill="#1E2339"/>
<path d="M45.2655 29.1746L43.9287 28.3078C43.4782 29.1439 42.7302 29.5692 41.6888 29.5692C41.0749 29.5761 40.4793 29.3654 40.0126 28.9763C39.7824 28.7918 39.5964 28.5604 39.4676 28.2984C39.3387 28.0364 39.2701 27.75 39.2667 27.4594H45.5651C45.5871 27.2728 45.5976 27.085 45.5966 26.8972C45.5966 25.6378 45.2383 24.6361 44.5238 23.8613C43.8093 23.0865 42.8119 22.7083 41.5526 22.7083C40.9943 22.6944 40.4392 22.7966 39.9244 23.0081C39.4097 23.2195 38.9469 23.5355 38.5668 23.9349C38.1765 24.3295 37.8698 24.7954 37.6641 25.3058C37.4585 25.8162 37.358 26.3611 37.3683 26.9094C37.3549 27.4691 37.4584 28.0256 37.6723 28.545C37.8863 29.0645 38.2063 29.536 38.6129 29.931C39.0223 30.3246 39.5089 30.6336 40.0435 30.8395C40.5782 31.0453 41.1499 31.1438 41.7244 31.129C43.2121 31.131 44.5657 30.4339 45.2655 29.1746ZM41.5485 24.2559C42.7302 24.2559 43.6437 24.955 43.7108 26.0958H39.3547C39.4202 25.5778 39.6813 25.1022 40.0869 24.7619C40.4926 24.4217 41.0137 24.2413 41.5485 24.2559Z" fill="#1E2339"/>
<path d="M38.8334 14.5184C39.358 14.5178 39.8675 14.6895 40.2799 15.0059C40.6923 15.3222 40.9836 15.7647 41.1068 16.2622H42.783C41.3 14.0448 39.454 12.0799 37.3185 10.446C37.7887 10.4416 38.247 10.3015 38.6357 10.0434C39.0245 9.78529 39.3262 9.42073 39.503 8.99562C39.6798 8.57052 39.7237 8.10387 39.6292 7.65447C39.5347 7.20506 39.306 6.79299 38.9719 6.47016C38.6378 6.14733 38.2133 5.92817 37.7518 5.84029C37.2903 5.7524 36.8125 5.79973 36.3785 5.97631C35.9446 6.15288 35.5739 6.4508 35.3131 6.83255C35.0523 7.2143 34.9132 7.6628 34.9131 8.12157C34.9136 8.39084 34.9625 8.65795 35.0577 8.91069C31.6154 6.83745 27.6996 5.62996 23.6614 5.39644C24.1035 5.09979 24.4367 4.67295 24.6124 4.17831C24.788 3.68367 24.7969 3.14717 24.6377 2.64725C24.4786 2.14732 24.1596 1.7102 23.7276 1.39976C23.2956 1.08933 22.7731 0.921875 22.2366 0.921875C21.7001 0.921875 21.1776 1.08933 20.7456 1.39976C20.3136 1.7102 19.9947 2.14732 19.8355 2.64725C19.6763 3.14717 19.6852 3.68367 19.8608 4.17831C20.0365 4.67295 20.3697 5.09979 20.8118 5.39644C16.729 5.61038 12.7666 6.82083 9.2877 8.91683C9.38291 8.66408 9.43184 8.39698 9.43227 8.1277C9.43225 7.66844 9.29293 7.21946 9.03183 6.83733C8.77074 6.4552 8.39958 6.15701 7.9651 5.98034C7.53061 5.80367 7.05226 5.75642 6.5903 5.84454C6.12835 5.93266 5.70345 6.15222 5.36917 6.47554C5.03488 6.79886 4.80615 7.21149 4.71179 7.66142C4.61743 8.11136 4.66167 8.57849 4.83894 9.00393C5.0162 9.42938 5.31856 9.79413 5.70791 10.0522C6.09726 10.3103 6.5562 10.4501 7.02688 10.4542C4.89114 12.0864 3.04562 14.0507 1.56445 16.2683H3.31193C3.409 15.8728 3.61246 15.5098 3.90134 15.2166C4.19021 14.9234 4.55401 14.7107 4.95524 14.6005C5.35646 14.4903 5.78056 14.4866 6.18376 14.5896C6.58697 14.6927 6.95469 14.8989 7.24898 15.1869C7.55322 15.4825 7.76723 15.8548 7.8671 16.2622H12.6234V11.368C12.6234 10.4772 12.9861 9.62284 13.6317 8.99292C14.2773 8.36301 15.153 8.00913 16.066 8.00913C16.979 8.00913 17.8546 8.36301 18.5002 8.99292C19.1458 9.62284 19.5085 10.4772 19.5085 11.368V16.2622H24.8976V11.368C24.8976 10.4772 25.2603 9.62284 25.9059 8.99292C26.5515 8.36301 27.4272 8.00913 28.3402 8.00913C29.2532 8.00913 30.1288 8.36301 30.7745 8.99292C31.4201 9.62284 31.7828 10.4772 31.7828 11.368V16.2622H36.5663C36.6897 15.7659 36.9801 15.3243 37.3911 15.0082C37.8022 14.692 38.31 14.5195 38.8334 14.5184Z" fill="#E40968"/>
</svg>
