<svg width="46" height="39" viewBox="0 0 46 39" fill="none" xmlns="http://www.w3.org/2000/svg">
<path d="M34.2405 15.3687V37.4195C34.2405 38.5007 33.9854 38.7555 32.9072 38.7555H4.15593C1.72757 38.7555 0.253363 37.2829 0.251953 34.8502C0.251953 29.0546 0.251953 23.2591 0.251953 17.4635C0.251953 15.0435 1.73885 13.5751 4.17284 13.5737C5.05229 13.5737 5.93174 13.5737 6.81119 13.5737C7.48347 13.5737 7.8795 13.913 7.88232 14.4677C7.88514 15.0224 7.49897 15.3617 6.82247 15.3659C5.87255 15.3659 4.92404 15.3659 3.97412 15.3659C2.79729 15.3757 2.05596 16.1008 2.05455 17.2707C2.04891 23.2061 2.04891 29.1419 2.05455 35.0782C2.05455 36.1482 2.75924 36.9338 3.78949 36.945C6.25026 36.969 8.71103 36.9521 11.2592 36.9521V36.2847C11.2592 25.7298 11.2592 15.1749 11.2592 4.61996C11.2592 2.73207 12.2768 1.32284 13.9736 0.889226C14.3668 0.798843 14.7696 0.756768 15.173 0.763932C20.2205 0.756424 25.2665 0.756424 30.3111 0.763932C32.7353 0.763932 34.2264 2.25904 34.2306 4.67065C34.2306 6.18124 34.2306 7.69184 34.2306 9.20102C34.2306 9.80498 33.9487 10.1598 33.4667 10.2386C32.8889 10.3329 32.4421 9.93027 32.4379 9.27282C32.428 7.76222 32.4379 6.25163 32.4379 4.74244C32.4379 3.23325 31.7755 2.56735 30.2477 2.56735H15.2703C13.72 2.56735 13.0688 3.21777 13.0688 4.78186C13.0688 15.2842 13.0688 25.7861 13.0688 36.2876V36.9338H17.8015V36.3566C17.8015 33.5465 17.8015 30.737 17.8015 27.9279C17.8015 27.0227 18.0918 26.7383 19.0051 26.7369C21.5195 26.7369 24.0338 26.7369 26.5481 26.7369C27.4135 26.7369 27.7094 27.0367 27.7094 27.9152C27.7094 30.7252 27.7094 33.5353 27.7094 36.3453V36.9352H32.4407V14.9055C32.4407 13.8131 32.6789 13.5737 33.7641 13.5737C36.3132 13.5737 38.8628 13.5737 41.4128 13.5737C43.7383 13.5737 45.2477 15.0674 45.2505 17.3889C45.2562 23.237 45.2562 29.0851 45.2505 34.9332C45.2505 37.2576 43.7425 38.7513 41.4227 38.7555C40.2952 38.7555 39.1677 38.7555 38.0402 38.7555C37.3355 38.7555 36.9211 38.4035 36.931 37.8404C36.9409 37.2773 37.3538 36.9647 38.0204 36.9633C39.1818 36.9633 40.3417 36.9633 41.5016 36.9633C42.708 36.9633 43.4409 36.2341 43.4423 35.0276C43.4423 29.126 43.4423 23.2248 43.4423 17.3242C43.4423 16.1134 42.7137 15.38 41.5129 15.3757C39.2283 15.3757 36.9423 15.3757 34.6563 15.3757L34.2405 15.3687ZM19.6112 36.9169H25.8815V28.5727H19.6112V36.9169Z" fill="black"/>
</svg>
