<svg width="45" height="39" viewBox="0 0 45 39" fill="none" xmlns="http://www.w3.org/2000/svg">
<g clip-path="url(#clip0_1275_1885)">
<path d="M11.3828 20.5522C11.3828 15.2289 11.3828 9.90617 11.3828 4.58387C11.3828 2.13841 12.8349 0.684979 15.2831 0.683594C20.2091 0.683594 25.1347 0.683594 30.0598 0.683594C32.515 0.683594 33.9642 2.13148 33.9656 4.57833V36.7781C33.9656 37.8145 33.7065 38.0778 32.6923 38.0778C31.3437 38.0778 29.9956 38.0778 28.6479 38.0778C27.8568 38.0778 27.5395 37.7688 27.5395 36.9818C27.5395 33.8182 27.5395 30.6555 27.5395 27.4937C27.5395 26.5044 27.279 26.2467 26.2745 26.2467H19.0213C18.0666 26.2467 17.8048 26.5141 17.8048 27.4937C17.8048 30.6222 17.8048 33.7507 17.8048 36.8793C17.8048 37.8062 17.5277 38.0833 16.6021 38.0833C15.2535 38.0833 13.9054 38.0833 12.5577 38.0833C11.6793 38.0833 11.3856 37.7854 11.3856 36.8918C11.3837 31.4438 11.3828 25.9973 11.3828 20.5522ZM22.6791 11.4229C24.3417 11.4229 25.9919 11.4229 27.6476 11.4229C28.2531 11.4229 28.6466 11.0529 28.6438 10.5334C28.641 10.0138 28.2489 9.66185 27.6393 9.66047C24.326 9.66047 21.0132 9.66047 17.7008 9.66047C17.4796 9.66016 17.2625 9.72055 17.0732 9.83505C16.9163 9.93132 16.7984 10.0798 16.7401 10.2544C16.6818 10.4289 16.6869 10.6185 16.7545 10.7897C16.8931 11.2524 17.2519 11.4201 17.7105 11.4201L22.6791 11.4229ZM22.6791 18.169C21.5568 18.169 20.4345 18.169 19.3122 18.169C18.6652 18.169 18.2537 18.5223 18.2551 19.0516C18.2564 19.5809 18.6707 19.9314 19.3136 19.9328C21.5582 19.9328 23.8032 19.9328 26.0487 19.9328C26.6957 19.9328 27.1058 19.5795 27.1058 19.0502C27.1058 18.521 26.6902 18.1718 26.0459 18.169C24.9181 18.1607 23.8 18.1649 22.6735 18.1649L22.6791 18.169Z" fill="#586ADA"/>
<path d="M35.736 25.6301V14.5458C35.736 13.5565 35.9965 13.2988 37.001 13.2988C38.3865 13.2988 39.7721 13.2988 41.1479 13.2988C43.2664 13.3113 44.7822 14.7938 44.7877 16.9192C44.8025 22.7579 44.8025 28.597 44.7877 34.4365C44.7877 36.5924 43.2733 38.0708 41.1202 38.0805C39.6862 38.0805 38.2521 38.0805 36.825 38.0805C36.0297 38.0805 35.7305 37.7757 35.7305 36.9845C35.7305 33.1974 35.7305 29.4135 35.7305 25.6328L35.736 25.6301ZM38.726 23.9854C38.726 24.5882 38.726 25.1922 38.726 25.7963C38.7371 26.424 39.0696 26.787 39.6086 26.7815C40.1171 26.7815 40.4787 26.4143 40.487 25.831C40.5036 24.6228 40.5036 23.4151 40.487 22.2078C40.4787 21.63 40.1018 21.2684 39.592 21.2726C39.0821 21.2767 38.7412 21.6342 38.7288 22.2244C38.7163 22.8147 38.7274 23.398 38.726 23.9854Z" fill="#586ADA"/>
<path d="M9.62855 25.7398C9.62855 29.4706 9.62855 33.2023 9.62855 36.9349C9.62855 37.7898 9.34313 38.0752 8.47578 38.0766C7.05838 38.0766 5.64237 38.0766 4.22497 38.0766C2.076 38.0669 0.568543 36.5844 0.563001 34.4271C0.551916 28.6078 0.551916 22.7858 0.563001 16.961C0.563001 14.7774 2.07323 13.3018 4.26099 13.2949C5.66038 13.2949 7.05977 13.2949 8.45916 13.2949C9.31957 13.2949 9.61469 13.5873 9.61607 14.4408C9.61607 18.2066 9.61607 21.973 9.61607 25.7398H9.62855ZM6.62194 24.0467C6.62194 23.4426 6.63025 22.8385 6.62194 22.2358C6.61362 21.6331 6.28387 21.2825 5.76845 21.2728C5.25303 21.2631 4.87201 21.622 4.86231 22.1956C4.84383 23.4204 4.84383 24.6452 4.86231 25.87C4.87201 26.4409 5.26273 26.797 5.77814 26.7803C6.29356 26.7637 6.60947 26.4187 6.61916 25.8589C6.63856 25.2548 6.62194 24.6508 6.62194 24.0467Z" fill="#586ADA"/>
<path d="M25.7786 33.0069C25.7786 34.319 25.7786 35.6311 25.7786 36.9432C25.7786 37.7634 25.4669 38.0738 24.655 38.0766C23.3267 38.0766 21.9975 38.0766 20.6674 38.0766C19.8915 38.0766 19.5756 37.7551 19.5742 36.9681C19.5742 34.3439 19.5742 31.7197 19.5742 29.0955C19.5742 28.339 19.8943 28.0203 20.6438 28.0176C22.0072 28.0176 23.371 28.0176 24.7353 28.0176C25.4503 28.0176 25.7717 28.3459 25.7759 29.0734C25.7842 30.3827 25.7786 31.6948 25.7786 33.0069Z" fill="#586ADA"/>
</g>
<defs>
<clipPath id="clip0_1275_1885">
<rect width="44.2442" height="37.3983" fill="white" transform="translate(0.554688 0.681641)"/>
</clipPath>
</defs>
</svg>
