<svg width="22" height="23" viewBox="0 0 22 23" fill="none" xmlns="http://www.w3.org/2000/svg">
<path fill-rule="evenodd" clip-rule="evenodd" d="M7.41111 1.3C7.41111 0.58203 6.82908 0 6.11111 0C5.39314 0 4.81111 0.58203 4.81111 1.3V2.52571C2.13721 2.62503 0 4.82404 0 7.52221V17.0778C0 19.8392 2.23858 22.0778 5 22.0778H17C19.7614 22.0778 22 19.8392 22 17.0778V7.52221C22 4.82403 19.8628 2.62502 17.1889 2.52571V1.3C17.1889 0.58203 16.6069 0 15.8889 0C15.1709 0 14.5889 0.58203 14.5889 1.3V2.52221H7.41111V1.3ZM5 5.02221H17C18.3807 5.02221 19.5 6.1415 19.5 7.52221V17.0778C19.5 18.4585 18.3807 19.5778 17 19.5778H5C3.61929 19.5778 2.5 18.4585 2.5 17.0778V7.52221C2.5 6.1415 3.61929 5.02221 5 5.02221Z" fill="55505C"/>
<rect x="7" y="9" width="2.76923" height="2.76923" rx="1.38462" fill="55505C"/>
<rect x="12.6154" y="9" width="2.76923" height="2.76923" rx="1.38462" fill="55505C"/>
<rect x="7" y="13.6154" width="2.76923" height="2.76923" rx="1.38462" fill="55505C"/>
<rect x="12.6154" y="13.6154" width="2.76923" height="2.76923" rx="1.38462" fill="55505C"/>
</svg>
