<svg width="10" height="11" viewBox="0 0 13 14" fill="none" xmlns="http://www.w3.org/2000/svg">
<path d="M2.45833 1.9707H3.625V1.3457C3.625 1.17994 3.68646 1.02097 3.79585 0.903761C3.90525 0.786551 4.05362 0.720703 4.20833 0.720703C4.36304 0.720703 4.51142 0.786551 4.62081 0.903761C4.73021 1.02097 4.79167 1.17994 4.79167 1.3457V1.9707H8.29167V1.3457C8.29167 1.17994 8.35313 1.02097 8.46252 0.903761C8.57192 0.786551 8.72029 0.720703 8.875 0.720703C9.02971 0.720703 9.17808 0.786551 9.28748 0.903761C9.39688 1.02097 9.45833 1.17994 9.45833 1.3457V1.9707H10.625C11.0891 1.9707 11.5342 2.16825 11.8624 2.51988C12.1906 2.87151 12.375 3.34842 12.375 3.8457V11.3457C12.375 11.843 12.1906 12.3199 11.8624 12.6715C11.5342 13.0232 11.0891 13.2207 10.625 13.2207H2.45833C1.9942 13.2207 1.54909 13.0232 1.2209 12.6715C0.892708 12.3199 0.708334 11.843 0.708334 11.3457V3.8457C0.708334 3.34842 0.892708 2.87151 1.2209 2.51988C1.54909 2.16825 1.9942 1.9707 2.45833 1.9707ZM1.875 11.3457C1.875 11.5115 1.93646 11.6704 2.04585 11.7876C2.15525 11.9049 2.30362 11.9707 2.45833 11.9707H10.625C10.7797 11.9707 10.9281 11.9049 11.0375 11.7876C11.1469 11.6704 11.2083 11.5115 11.2083 11.3457V6.9707H1.875V11.3457ZM1.875 5.7207H11.2083V3.8457C11.2083 3.67994 11.1469 3.52097 11.0375 3.40376C10.9281 3.28655 10.7797 3.2207 10.625 3.2207H9.45833V3.8457C9.45833 4.01146 9.39688 4.17043 9.28748 4.28764C9.17808 4.40485 9.02971 4.4707 8.875 4.4707C8.72029 4.4707 8.57192 4.40485 8.46252 4.28764C8.35313 4.17043 8.29167 4.01146 8.29167 3.8457V3.2207H4.79167V3.8457C4.79167 4.01146 4.73021 4.17043 4.62081 4.28764C4.51142 4.40485 4.36304 4.4707 4.20833 4.4707C4.05362 4.4707 3.90525 4.40485 3.79585 4.28764C3.68646 4.17043 3.625 4.01146 3.625 3.8457V3.2207H2.45833C2.30362 3.2207 2.15525 3.28655 2.04585 3.40376C1.93646 3.52097 1.875 3.67994 1.875 3.8457V5.7207Z" fill="#E40968"/>
</svg>
