<?xml version="1.0" encoding="UTF-8" standalone="no"?>
<!DOCTYPE svg PUBLIC "-//W3C//DTD SVG 1.1//EN" "http://www.w3.org/Graphics/SVG/1.1/DTD/svg11.dtd">
<svg width="100%" height="100%" viewBox="0 0 24 24" version="1.1" xmlns="http://www.w3.org/2000/svg" xmlns:xlink="http://www.w3.org/1999/xlink" xml:space="preserve" xmlns:serif="http://www.serif.com/" style="fill-rule:evenodd;clip-rule:evenodd;stroke-linejoin:round;stroke-miterlimit:2;">
    <g transform="matrix(1.22599,0,0,1.22599,-7413.37,-117.411)">
        <path d="M6056.52,95.768C6061.87,95.768 6066.21,100.109 6066.21,105.457C6066.21,110.804 6061.87,115.145 6056.52,115.145C6051.17,115.145 6046.83,110.804 6046.83,105.457C6046.83,100.109 6051.17,95.768 6056.52,95.768ZM6054.82,101.34L6055.28,103.367C6055.28,103.367 6055.38,103.755 6054.98,103.987L6054.15,104.485C6054.15,104.485 6053.95,104.682 6054.15,105.048C6054.15,105.048 6055.31,106.955 6057.05,107.926C6057.05,107.926 6057.41,108.042 6057.63,107.723L6058.09,106.962C6058.09,106.962 6058.21,106.694 6058.64,106.759L6060.46,107.157C6060.46,107.157 6060.93,107.223 6060.93,107.723L6060.93,109.143C6060.93,109.143 6060.88,109.44 6060.37,109.81C6060.37,109.81 6057.65,110.296 6054.45,107.157C6054.45,107.157 6052.24,105.036 6052.12,101.781C6052.12,101.781 6052.2,101.229 6052.86,101.132L6054.3,101.079C6054.3,101.079 6054.7,101.027 6054.82,101.34Z" style="fill:rgb(131,139,199);"/>
    </g>
</svg>
