<svg width="30" height="30" viewBox="0 0 30 30" fill="none" xmlns="http://www.w3.org/2000/svg">
<path d="M9.67969 23.6458C4.84635 23.6458 2.42969 22.4375 2.42969 16.3958V10.3542C2.42969 5.52084 4.84635 3.10417 9.67969 3.10417H19.3464C24.1797 3.10417 26.5964 5.52084 26.5964 10.3542V16.3958C26.5964 21.2292 24.1797 23.6458 19.3464 23.6458H18.7422C18.3676 23.6458 18.0051 23.8271 17.7755 24.1292L15.963 26.5458C15.1655 27.6092 13.8605 27.6092 13.063 26.5458L11.2505 24.1292C11.0572 23.8633 10.6101 23.6458 10.2839 23.6458H9.67969Z" stroke="#292931" stroke-width="1.5" stroke-linecap="round" stroke-linejoin="round"/>
<path d="M8.4707 10.3542H20.554" stroke="#292931" stroke-width="1.5" stroke-linecap="round" stroke-linejoin="round"/>
<path d="M8.4707 16.3958H15.7207" stroke="#292931" stroke-width="1.5" stroke-linecap="round" stroke-linejoin="round"/>
</svg>
