<svg width="14" height="21" viewBox="0 0 14 21" fill="none" xmlns="http://www.w3.org/2000/svg">
<g clip-path="url(#clip0_617_1587)">
<path d="M5.92658 18.6217C6.01482 18.7138 6.08483 18.8232 6.13261 18.9436C6.1804 19.064 6.20502 19.193 6.20507 19.3233C6.20513 19.4536 6.18061 19.5827 6.13293 19.7031C6.08525 19.8235 6.01533 19.9329 5.92717 20.0251C5.83901 20.1173 5.73434 20.1905 5.61912 20.2404C5.5039 20.2903 5.3804 20.316 5.25567 20.3161C5.13094 20.3161 5.00742 20.2905 4.89216 20.2407C4.7769 20.1909 4.67216 20.1179 4.58392 20.0257L2.76025 18.1195C2.71359 18.0703 2.67199 18.0162 2.63614 17.9579L2.11306 17.4124C1.97637 17.2696 1.86795 17.1002 1.79397 16.9136C1.71999 16.7271 1.68192 16.5272 1.68192 16.3252C1.68192 16.1233 1.71999 15.9234 1.79397 15.7369C1.86795 15.5503 1.97637 15.3809 2.11306 15.2381L3.92578 13.3439C3.94779 13.3208 3.97397 13.3025 4.00279 13.29C4.03161 13.2774 4.06251 13.271 4.09372 13.271C4.12493 13.271 4.15583 13.2774 4.18465 13.29C4.21347 13.3025 4.23965 13.3208 4.26166 13.3439L5.92717 15.084C5.94929 15.107 5.96685 15.1343 5.97882 15.1645C5.9908 15.1946 5.99697 15.2269 5.99697 15.2595C5.99697 15.2921 5.9908 15.3244 5.97882 15.3545C5.96685 15.3846 5.94929 15.4119 5.92717 15.4349L4.40176 17.0286L5.92658 18.6217Z" fill="#6C6C6C"/>
<path d="M14 11.8108C14.0002 11.9946 13.9483 12.1744 13.8506 12.3273C13.753 12.4802 13.6141 12.5994 13.4515 12.6698C13.289 12.7402 13.1101 12.7585 12.9375 12.7226C12.765 12.6866 12.6065 12.5979 12.4823 12.4678L10.0256 9.90111V12.0054C10.0256 12.0798 9.99736 12.1511 9.94704 12.2037C9.89671 12.2563 9.82845 12.2858 9.75728 12.2858H4.31291C4.24173 12.2858 4.17348 12.2563 4.12315 12.2037C4.07282 12.1511 4.04455 12.0798 4.04455 12.0054V9.82808L1.518 12.4678C1.35123 12.642 1.12503 12.7399 0.889177 12.7399C0.653322 12.7399 0.427127 12.642 0.260353 12.4678C0.0935785 12.2935 -0.000114437 12.0572 -0.000114441 11.8108C-0.000114444 11.5644 0.0935785 11.328 0.260353 11.1538L3.82241 7.43256C3.92805 7.32235 4.05857 7.24172 4.20192 7.19813C4.34527 7.15453 4.49681 7.14938 4.64257 7.18314H9.7407C9.80746 7.19821 9.87228 7.22147 9.93382 7.25245C10.0244 7.29772 10.107 7.35884 10.1779 7.43318L13.7396 11.1538C13.8222 11.2401 13.8877 11.3425 13.9324 11.4552C13.9771 11.5679 14 11.6888 14 11.8108Z" fill="#6C6C6C"/>
<path d="M4.04456 3.51421C4.04456 2.90553 4.21732 2.31051 4.54099 1.80441C4.86466 1.29831 5.32472 0.903847 5.86297 0.670913C6.40122 0.437979 6.99349 0.377033 7.5649 0.495781C8.1363 0.61453 8.66117 0.90764 9.07313 1.33805C9.48509 1.76845 9.76563 2.31682 9.87929 2.91381C9.99295 3.5108 9.93462 4.1296 9.71167 4.69195C9.48872 5.2543 9.11116 5.73495 8.62675 6.07312C8.14234 6.41129 7.57282 6.59178 6.99022 6.59178C6.60338 6.59182 6.22032 6.51225 5.86292 6.3576C5.50552 6.20295 5.18077 5.97626 4.90724 5.69047C4.6337 5.40469 4.41672 5.0654 4.2687 4.692C4.12068 4.31859 4.04452 3.91838 4.04456 3.51421Z" fill="#6C6C6C"/>
<path d="M11.9465 15.2381C12.0832 15.3808 12.1916 15.5503 12.2656 15.7368C12.3395 15.9234 12.3776 16.1233 12.3776 16.3252C12.3776 16.5271 12.3395 16.7271 12.2656 16.9136C12.1916 17.1001 12.0832 17.2696 11.9465 17.4124L11.4246 17.9579C11.3884 18.0162 11.3464 18.0704 11.2993 18.1195L9.4756 20.0257C9.38744 20.1178 9.28278 20.1909 9.16759 20.2408C9.05241 20.2906 8.92895 20.3163 8.80427 20.3163C8.6796 20.3163 8.55614 20.2906 8.44095 20.2408C8.32577 20.1909 8.22111 20.1178 8.13295 20.0257C8.04479 19.9336 7.97485 19.8243 7.92714 19.7039C7.87943 19.5836 7.85487 19.4546 7.85487 19.3243C7.85487 19.1941 7.87943 19.0651 7.92714 18.9448C7.97485 18.8244 8.04479 18.7151 8.13295 18.623L9.65776 17.0299L8.13235 15.4361C8.11023 15.4131 8.09268 15.3858 8.0807 15.3557C8.06873 15.3256 8.06256 15.2933 8.06256 15.2607C8.06256 15.2281 8.06873 15.1958 8.0807 15.1657C8.09268 15.1356 8.11023 15.1082 8.13235 15.0852L9.79786 13.3451C9.81988 13.322 9.84605 13.3037 9.87487 13.2912C9.90369 13.2787 9.9346 13.2722 9.96581 13.2722C9.99702 13.2722 10.0279 13.2787 10.0567 13.2912C10.0856 13.3037 10.1117 13.322 10.1338 13.3451L11.9465 15.2381Z" fill="#6C6C6C"/>
</g>
<defs>
<clipPath id="clip0_617_1587">
<rect width="14" height="19.8781" fill="white" transform="translate(0 0.437012)"/>
</clipPath>
</defs>
</svg>
