<svg width="12" height="12" viewBox="0 0 14 14" fill="none" xmlns="http://www.w3.org/2000/svg">
<path d="M7.34766 0.300781C3.76359 0.300781 0.847656 3.21672 0.847656 6.80078C0.847656 10.3848 3.76359 13.3008 7.34766 13.3008C10.9317 13.3008 13.8477 10.3848 13.8477 6.80078C13.8477 3.21672 10.9317 0.300781 7.34766 0.300781ZM7.34766 10.298C7.22404 10.298 7.10321 10.2613 7.00042 10.1926C6.89764 10.124 6.81754 10.0263 6.77023 9.91215C6.72293 9.79794 6.71055 9.67227 6.73467 9.55104C6.75878 9.4298 6.81831 9.31843 6.90571 9.23103C6.99312 9.14362 7.10449 9.08409 7.22572 9.05998C7.34696 9.03586 7.47263 9.04824 7.58683 9.09554C7.70104 9.14285 7.79865 9.22296 7.86732 9.32574C7.936 9.42852 7.97266 9.54936 7.97266 9.67297C7.97266 9.83873 7.90681 9.9977 7.7896 10.1149C7.67239 10.2321 7.51342 10.298 7.34766 10.298ZM8.02641 4.01203L7.84703 7.82453C7.84703 7.95714 7.79435 8.08432 7.70058 8.17808C7.60682 8.27185 7.47964 8.32453 7.34703 8.32453C7.21442 8.32453 7.08725 8.27185 6.99348 8.17808C6.89971 8.08432 6.84703 7.95714 6.84703 7.82453L6.66766 4.01391V4.01234C6.66373 3.92076 6.67837 3.82932 6.71071 3.74355C6.74305 3.65777 6.79241 3.57943 6.85582 3.51323C6.91924 3.44704 6.99539 3.39436 7.0797 3.35837C7.16401 3.32239 7.25474 3.30383 7.34641 3.30383C7.43808 3.30383 7.5288 3.32239 7.61311 3.35837C7.69742 3.39436 7.77357 3.44704 7.83699 3.51323C7.9004 3.57943 7.94977 3.65777 7.98211 3.74355C8.01444 3.82932 8.02909 3.92076 8.02516 4.01234L8.02641 4.01203Z" fill="#E40968"/>
</svg>
