<svg width="76" height="64" viewBox="0 0 141 134" fill="none" xmlns="http://www.w3.org/2000/svg">
<g clip-path="url(#clip0_5_499)">
<path d="M93.3841 10.1022H126.209C126.209 10.1022 125.057 6.37496 120.59 6.07474C116.123 5.77451 115.606 7.66374 109.789 4.22212C103.972 0.780501 94.9171 4.36491 93.3841 10.1022Z" fill="#F0E2FF"/>
<path d="M9.77263 39.1717C9.77263 39.1717 9.45355 33.9397 16.1395 33.5735C16.1395 33.5735 19.0039 33.5735 20.9074 35.3493C22.8109 37.125 23.9845 35.4408 26.2144 36.3781C28.4443 37.3154 28.4406 39.1827 28.4406 39.1827L9.77263 39.1717Z" fill="#F0E2FF"/>
<path d="M116.8 61.95H126.134C126.134 61.95 125.033 58.545 121.469 58.545C117.904 58.545 116.8 61.95 116.8 61.95Z" fill="#F9F9F9"/>
<path d="M129.266 40.0869C130.953 40.1162 132.658 40.1381 134.206 40.032C134.697 39.9953 135.123 39.2192 134.525 38.9738C134.792 38.8811 135.012 38.6898 135.141 38.4393C135.168 38.3742 135.182 38.3045 135.181 38.2341C135.181 38.1637 135.166 38.0941 135.138 38.0294C135.111 37.9647 135.071 37.9061 135.02 37.857C134.97 37.808 134.91 37.7694 134.844 37.7436C135.427 37.8901 135.658 36.9638 135.211 36.6453C135.461 36.4475 135.635 36.1693 135.702 35.8581C135.731 35.7009 135.712 35.5386 135.646 35.3928C135.581 35.2469 135.473 35.1244 135.336 35.0416C135.144 34.9584 134.935 34.922 134.727 34.9354H132.625C132.816 33.837 132.871 32.6471 132.314 31.6842C132.145 31.395 131.694 31.0471 131.338 31.2705C130.982 31.4938 131.096 32.0027 131.111 32.3286C131.136 33.0122 130.971 33.6896 130.634 34.285C130.297 34.8805 129.8 35.3706 129.2 35.7006C129.2 35.7006 129.284 38.6077 129.266 40.0869Z" fill="#F9F9F9"/>
<path d="M128.651 35.7113H126.102V40.0902H128.651V35.7113Z" fill="#F9F9F9"/>
<path d="M44.1902 0H1.85534C0.83041 0 -0.000457764 0.829445 -0.000457764 1.85262V18.42C-0.000457764 19.4432 0.83041 20.2726 1.85534 20.2726H44.1902C45.2152 20.2726 46.046 19.4432 46.046 18.42V1.85262C46.046 0.829445 45.2152 0 44.1902 0Z" fill="#E40967"/>
<path d="M21.6196 5.79418L21.902 6.66923C21.9127 6.69847 21.9321 6.7237 21.9578 6.74141C21.9834 6.75912 22.0139 6.76844 22.0451 6.76809H22.9656C22.9963 6.76928 23.0258 6.77979 23.0503 6.79822C23.0748 6.81665 23.093 6.84212 23.1026 6.8712C23.1122 6.90029 23.1126 6.9316 23.1039 6.96094C23.0951 6.99028 23.0776 7.01625 23.0536 7.03536L22.3201 7.57723C22.2947 7.59535 22.276 7.62125 22.2667 7.651C22.2574 7.68074 22.2582 7.7127 22.2688 7.74199L22.5512 8.61704C22.5616 8.64676 22.5621 8.67903 22.5527 8.70907C22.5432 8.73911 22.5244 8.76532 22.4988 8.78381C22.4733 8.8023 22.4425 8.81209 22.411 8.81172C22.3795 8.81136 22.3489 8.80087 22.3238 8.7818L21.5903 8.23993C21.565 8.22229 21.5349 8.21282 21.5041 8.21282C21.4733 8.21282 21.4432 8.22229 21.4179 8.23993L20.6844 8.7818C20.6593 8.80087 20.6287 8.81136 20.5972 8.81172C20.5657 8.81209 20.5349 8.8023 20.5093 8.78381C20.4838 8.76532 20.465 8.73911 20.4555 8.70907C20.4461 8.67903 20.4466 8.64676 20.457 8.61704L20.7394 7.74199C20.7474 7.71123 20.7449 7.67868 20.7323 7.6495C20.7196 7.62032 20.6976 7.59617 20.6697 7.5809L19.9362 7.03902C19.9102 7.02128 19.8907 6.99568 19.8804 6.966C19.8702 6.93632 19.8697 6.90413 19.8792 6.87418C19.8886 6.84423 19.9075 6.81811 19.9329 6.79967C19.9584 6.78122 19.9891 6.77144 20.0206 6.77175H20.9411C20.9723 6.7721 21.0028 6.76278 21.0284 6.74507C21.054 6.72736 21.0735 6.70214 21.0842 6.67289L21.3666 5.79784C21.3799 5.77648 21.3983 5.7588 21.4203 5.74642C21.4422 5.73404 21.4669 5.72736 21.4921 5.72699C21.5173 5.72663 21.5422 5.73259 21.5644 5.74433C21.5867 5.75607 21.6057 5.77321 21.6196 5.79418Z" fill="#F9F9F9"/>
<path d="M26.3578 5.79483L26.6438 6.66988C26.6538 6.69884 26.6726 6.72394 26.6976 6.74168C26.7226 6.75941 26.7525 6.76887 26.7832 6.76874H27.7038C27.7355 6.7676 27.7668 6.7768 27.7929 6.79495C27.819 6.8131 27.8384 6.83921 27.8484 6.86936C27.8583 6.89951 27.8582 6.93206 27.848 6.96212C27.8377 6.99218 27.818 7.01811 27.7918 7.03601L27.0583 7.57789C27.0331 7.59627 27.0143 7.622 27.0045 7.65152C26.9946 7.68103 26.9942 7.71288 27.0033 7.74265L27.2893 8.6177C27.2997 8.64742 27.3002 8.67969 27.2908 8.70973C27.2814 8.73976 27.2625 8.76597 27.237 8.78446C27.2115 8.80295 27.1807 8.81274 27.1491 8.81238C27.1176 8.81202 27.087 8.80152 27.0619 8.78245L26.3284 8.24058C26.3026 8.22263 26.2719 8.213 26.2404 8.213C26.2089 8.213 26.1782 8.22263 26.1524 8.24058L25.4189 8.78245C25.3938 8.80152 25.3632 8.81202 25.3317 8.81238C25.3001 8.81274 25.2693 8.80295 25.2438 8.78446C25.2183 8.76597 25.1994 8.73976 25.19 8.70973C25.1806 8.67969 25.1811 8.64742 25.1915 8.6177L25.4775 7.74265C25.4866 7.71288 25.4862 7.68103 25.4763 7.65152C25.4665 7.622 25.4477 7.59627 25.4225 7.57789L24.689 7.03601C24.6651 7.0169 24.6475 6.99094 24.6388 6.9616C24.63 6.93225 24.6305 6.90094 24.64 6.87186C24.6496 6.84277 24.6679 6.81731 24.6924 6.79888C24.7168 6.78045 24.7464 6.76993 24.777 6.76874H25.6976C25.7283 6.76887 25.7582 6.75941 25.7832 6.74168C25.8082 6.72394 25.827 6.69884 25.837 6.66988L26.123 5.79483C26.1367 5.77665 26.1544 5.76188 26.1748 5.75171C26.1952 5.74155 26.2176 5.73625 26.2404 5.73625C26.2632 5.73625 26.2856 5.74155 26.306 5.75171C26.3264 5.76188 26.3441 5.77665 26.3578 5.79483Z" fill="#F9F9F9"/>
<path d="M31.1016 5.79492L31.3877 6.66997C31.3972 6.69923 31.4158 6.72466 31.441 6.74247C31.4661 6.76028 31.4963 6.76952 31.5271 6.76882H32.4476C32.4783 6.77001 32.5078 6.78053 32.5323 6.79896C32.5568 6.81739 32.5751 6.84285 32.5846 6.87194C32.5942 6.90102 32.5946 6.93234 32.5859 6.96168C32.5771 6.99102 32.5596 7.01699 32.5357 7.0361L31.8021 7.57797C31.7767 7.59608 31.758 7.62198 31.7487 7.65173C31.7394 7.68148 31.7402 7.71343 31.7508 7.74273L32.0332 8.61778C32.0426 8.64696 32.0425 8.67835 32.0331 8.70751C32.0236 8.73667 32.0053 8.76214 31.9806 8.78034C31.9559 8.79853 31.9261 8.80853 31.8954 8.80892C31.8647 8.80932 31.8346 8.80009 31.8095 8.78254L31.0759 8.24066C31.0507 8.22302 31.0206 8.21356 30.9898 8.21356C30.9589 8.21356 30.9288 8.22302 30.9036 8.24066L30.1701 8.78254C30.145 8.80161 30.1144 8.8121 30.0829 8.81246C30.0513 8.81282 30.0205 8.80303 29.995 8.78454C29.9695 8.76605 29.9506 8.73984 29.9412 8.70981C29.9318 8.67977 29.9323 8.6475 29.9427 8.61778L30.2251 7.74273C30.2357 7.71343 30.2364 7.68148 30.2271 7.65173C30.2179 7.62198 30.1991 7.59608 30.1737 7.57797L29.4402 7.0361C29.4143 7.01835 29.3947 6.99275 29.3844 6.96307C29.3742 6.93339 29.3737 6.90121 29.3832 6.87126C29.3926 6.84131 29.4115 6.81519 29.4369 6.79674C29.4624 6.7783 29.4931 6.76851 29.5246 6.76882H30.4451C30.4763 6.76917 30.5068 6.75985 30.5324 6.74214C30.558 6.72443 30.5775 6.69921 30.5882 6.66997L30.8706 5.79492C30.8847 5.77801 30.9023 5.7644 30.9223 5.75507C30.9423 5.74573 30.964 5.74089 30.9861 5.74089C31.0081 5.74089 31.0299 5.74573 31.0499 5.75507C31.0698 5.7644 31.0875 5.77801 31.1016 5.79492Z" fill="#F9F9F9"/>
<path d="M35.838 5.7934L36.1241 6.66845C36.134 6.6974 36.1528 6.72251 36.1778 6.74024C36.2028 6.75798 36.2328 6.76744 36.2634 6.76731H37.173C37.2044 6.767 37.2352 6.77678 37.2606 6.79523C37.2861 6.81367 37.3049 6.83979 37.3144 6.86974C37.3238 6.89969 37.3234 6.93188 37.3131 6.96156C37.3028 6.99124 37.2833 7.01684 37.2573 7.03458L36.5238 7.57646C36.4987 7.59484 36.4799 7.62057 36.47 7.65009C36.4602 7.6796 36.4597 7.71145 36.4688 7.74121L36.7549 8.61627C36.7653 8.64599 36.7658 8.67826 36.7564 8.70829C36.7469 8.73833 36.7281 8.76454 36.7025 8.78303C36.677 8.80152 36.6462 8.81131 36.6147 8.81095C36.5832 8.81059 36.5526 8.80009 36.5275 8.78102L35.794 8.23915C35.7687 8.22151 35.7386 8.21205 35.7078 8.21205C35.677 8.21205 35.6469 8.22151 35.6216 8.23915L34.8881 8.78102C34.863 8.80009 34.8324 8.81059 34.8009 8.81095C34.7694 8.81131 34.7386 8.80152 34.713 8.78303C34.6875 8.76454 34.6687 8.73833 34.6592 8.70829C34.6498 8.67826 34.6503 8.64599 34.6607 8.61627L34.9468 7.74121C34.9558 7.71145 34.9554 7.6796 34.9456 7.65009C34.9357 7.62057 34.9169 7.59484 34.8918 7.57646L34.1582 7.03458C34.1343 7.01547 34.1167 6.98951 34.108 6.96016C34.0992 6.93082 34.0997 6.89951 34.1093 6.87042C34.1188 6.84134 34.1371 6.81588 34.1616 6.79744C34.1861 6.77901 34.2156 6.7685 34.2463 6.76731H35.1668C35.1975 6.76744 35.2274 6.75798 35.2524 6.74024C35.2774 6.72251 35.2962 6.6974 35.3062 6.66845L35.5923 5.7934C35.6056 5.77301 35.6238 5.75625 35.6453 5.74465C35.6667 5.73305 35.6907 5.72698 35.7151 5.72698C35.7395 5.72698 35.7635 5.73305 35.785 5.74465C35.8064 5.75625 35.8247 5.77301 35.838 5.7934Z" fill="#F9F9F9"/>
<path d="M40.5807 5.79332L40.8668 6.66837C40.8762 6.69763 40.8949 6.72306 40.92 6.74088C40.9451 6.75869 40.9753 6.76793 41.0061 6.76723H41.9414C41.972 6.76842 42.0016 6.77893 42.0261 6.79736C42.0505 6.81579 42.0688 6.84126 42.0784 6.87034C42.088 6.89943 42.0884 6.93074 42.0796 6.96008C42.0709 6.98942 42.0534 7.01539 42.0294 7.0345L41.2959 7.57638C41.2698 7.59398 41.2503 7.61966 41.2404 7.64945C41.2305 7.67923 41.2306 7.71145 41.2409 7.74113L41.5269 8.61618C41.5373 8.64591 41.5378 8.67818 41.5284 8.70821C41.519 8.73825 41.5001 8.76446 41.4746 8.78295C41.4491 8.80144 41.4183 8.81123 41.3867 8.81087C41.3552 8.8105 41.3246 8.80001 41.2996 8.78094L40.566 8.23907C40.5408 8.22143 40.5107 8.21196 40.4798 8.21196C40.449 8.21196 40.4189 8.22143 40.3937 8.23907L39.6601 8.78094C39.6351 8.80001 39.6045 8.8105 39.573 8.81087C39.5414 8.81123 39.5106 8.80144 39.4851 8.78295C39.4596 8.76446 39.4407 8.73825 39.4313 8.70821C39.4218 8.67818 39.4224 8.64591 39.4328 8.61618L39.7188 7.74113C39.7279 7.71137 39.7275 7.67952 39.7176 7.65001C39.7077 7.62049 39.6889 7.59476 39.6638 7.57638L38.9303 7.0345C38.9043 7.01676 38.8848 6.99116 38.8745 6.96148C38.8643 6.9318 38.8638 6.89961 38.8733 6.86966C38.8827 6.83971 38.9016 6.81359 38.927 6.79515C38.9525 6.7767 38.9832 6.76692 39.0146 6.76723H39.9389C39.9694 6.76683 39.9991 6.75716 40.024 6.7395C40.0489 6.72184 40.0678 6.69703 40.0782 6.66837L40.3607 5.79332C40.3747 5.77824 40.3918 5.76622 40.4107 5.75799C40.4296 5.74977 40.45 5.74553 40.4707 5.74553C40.4913 5.74553 40.5117 5.74977 40.5307 5.75799C40.5496 5.76622 40.5666 5.77824 40.5807 5.79332Z" fill="#F9F9F9"/>
<path d="M20.0556 11.4215H42.0721" stroke="#FBF7F4" stroke-width="0.32322" stroke-miterlimit="10"/>
<path d="M20.0556 14.1575H31.9385" stroke="#FBF7F4" stroke-width="0.32322" stroke-miterlimit="10"/>
<path d="M16.8935 11.1269C17.4863 7.46549 14.9936 4.01764 11.3259 3.4259C7.65822 2.83416 4.20446 5.3226 3.6117 8.984C3.01895 12.6454 5.51166 16.0933 9.17934 16.685C12.847 17.2767 16.3008 14.7883 16.8935 11.1269Z" fill="#F9F9F9"/>
<path d="M36.0587 18.8272L39.1651 22.9901L42.4329 18.8272H36.0587Z" fill="#E40967"/>
<path d="M11.8654 8.02597C11.8661 8.34764 11.7712 8.6623 11.5927 8.93011C11.4142 9.19792 11.1602 9.40685 10.8627 9.53045C10.5652 9.65405 10.2376 9.68677 9.92152 9.62446C9.6054 9.56215 9.3149 9.40761 9.0868 9.18041C8.8587 8.95321 8.70324 8.66356 8.64011 8.34812C8.57698 8.03268 8.60902 7.70564 8.73216 7.40838C8.8553 7.11113 9.06401 6.85702 9.33188 6.67824C9.59975 6.49945 9.91473 6.40402 10.237 6.40401C10.6682 6.40401 11.0818 6.57478 11.3871 6.87885C11.6924 7.18292 11.8644 7.59546 11.8654 8.02597Z" fill="#FFA4CB"/>
<path d="M12.7801 13.4619C12.8526 13.462 12.9243 13.4462 12.99 13.4156C13.0557 13.385 13.1139 13.3403 13.1604 13.2848C13.207 13.2293 13.2407 13.1642 13.2593 13.0942C13.2779 13.0242 13.2808 12.951 13.2679 12.8798C12.9635 11.2944 11.7239 10.1045 10.2385 10.1045C8.75311 10.1045 7.51347 11.2944 7.20906 12.8798C7.19617 12.951 7.19911 13.0242 7.21768 13.0942C7.23625 13.1642 7.26999 13.2293 7.31652 13.2848C7.36305 13.3403 7.42123 13.385 7.48695 13.4156C7.55267 13.4462 7.62433 13.462 7.69685 13.4619H12.7801Z" fill="#FFA4CB"/>
<path d="M30.8903 73.0225V75.4133H33.1496V94.1079H24.021V85.0901H9.68439V132.925H21.8644H24.021H33.1496H37.2976H48.5827V75.4133V73.8243V73.0225H30.8903Z" fill="#E5CBFF"/>
<path d="M127.928 97.7215V76.2407H107.859V88.301H96.5884V132.925H107.859H111.75H120.347H127.928H135.509V100.068H137.376V97.7215H127.928Z" fill="#E5CBFF"/>
<path d="M103.661 45.3892H41.9572V133.187H103.661V45.3892Z" fill="#9F66DB"/>
<path d="M103.661 37.4688H41.9572V45.3882H103.661V37.4688Z" fill="#B873FF"/>
<path d="M105.333 40.3068H40.1417V43.4628H105.333V40.3068Z" fill="#E5CBFF"/>
<path d="M105.987 37.4715H39.9157L39.5783 34.3155H106.325L105.987 37.4715Z" fill="#000055"/>
<path d="M41.9572 69.6466H103.661" stroke="#B873FF" stroke-width="0.606861" stroke-miterlimit="10"/>
<path d="M41.9572 93.3614H103.661" stroke="#B873FF" stroke-width="0.606861" stroke-miterlimit="10"/>
<path d="M103.661 126.601H41.9572V133.18H103.661V126.601Z" fill="#B873FF"/>
<path d="M56.6502 48.9923C56.088 48.9919 55.5312 49.102 55.0117 49.3166C54.4922 49.5312 54.0202 49.8459 53.6226 50.2427C53.2251 50.6396 52.9098 51.1108 52.6949 51.6294C52.48 52.148 52.3696 52.7038 52.3701 53.2651V64.8165H61.0329V53.3713C61.0291 52.2117 60.5662 51.1007 59.7452 50.2804C58.9242 49.4602 57.8117 48.9972 56.6502 48.9923Z" fill="#F9F9F9"/>
<path d="M56.6972 50.2119C55.9093 50.2119 55.1537 50.5244 54.5966 51.0805C54.0395 51.6367 53.7265 52.391 53.7265 53.1776V64.8169H59.668V53.1776C59.668 52.391 59.355 51.6367 58.7979 51.0805C58.2407 50.5244 57.4851 50.2119 56.6972 50.2119Z" fill="#D5ADFF"/>
<path d="M59.668 54.7193H53.7265V55.4443H59.668V54.7193Z" fill="#E5CBFF"/>
<path d="M61.5683 64.8192H51.8345V65.9908H61.5683V64.8192Z" fill="#000055"/>
<g opacity="0.6">
<path opacity="0.72" d="M53.9603 63.6085L53.5349 62.5687L59.326 58.0909L60.0265 58.9147L53.9603 63.6085Z" fill="#F9F9F9"/>
<path opacity="0.72" d="M53.6926 61.8701L53.5349 60.9657L59.6634 56.1804V57.2129L53.6926 61.8701Z" fill="#F9F9F9"/>
</g>
<path d="M60.0332 64.813H59.2997V53.1737C59.2997 52.4833 59.025 51.8212 58.5359 51.333C58.0469 50.8448 57.3836 50.5705 56.692 50.5705C56.0005 50.5705 55.3372 50.8448 54.8482 51.333C54.3591 51.8212 54.0844 52.4833 54.0844 53.1737V64.813H53.3509V53.1737C53.3509 52.7367 53.4371 52.3039 53.6047 51.9001C53.7722 51.4963 54.0178 51.1294 54.3273 50.8204C54.6369 50.5113 55.0044 50.2662 55.4089 50.0989C55.8134 49.9317 56.2469 49.8456 56.6847 49.8456C57.1225 49.8456 57.556 49.9317 57.9605 50.0989C58.365 50.2662 58.7325 50.5113 59.0421 50.8204C59.3517 51.1294 59.5972 51.4963 59.7648 51.9001C59.9323 52.3039 60.0185 52.7367 60.0185 53.1737L60.0332 64.813Z" fill="#E5CBFF"/>
<path d="M73.3197 48.9923C74.4869 48.9923 75.6064 49.4552 76.4317 50.2792C77.2571 51.1031 77.7208 52.2207 77.7208 53.3859V64.8055H69.0433V53.2651C69.0428 52.7041 69.153 52.1486 69.3677 51.6302C69.5824 51.1119 69.8974 50.6408 70.2945 50.244C70.6917 49.8472 71.1632 49.5324 71.6823 49.3176C72.2014 49.1029 72.7578 48.9923 73.3197 48.9923Z" fill="#F9F9F9"/>
<path d="M73.3691 50.2119C72.9791 50.2119 72.593 50.2887 72.2328 50.4377C71.8725 50.5868 71.5453 50.8053 71.2697 51.0808C70.9942 51.3562 70.7757 51.6832 70.6268 52.043C70.4779 52.4027 70.4015 52.7883 70.402 53.1776V64.8169H76.3398V53.1776C76.3403 52.788 76.2638 52.4021 76.1146 52.0421C75.9655 51.6821 75.7467 51.355 75.4708 51.0795C75.1948 50.804 74.8671 50.5856 74.5065 50.4367C74.1458 50.2878 73.7593 50.2114 73.3691 50.2119Z" fill="#D5ADFF"/>
<path d="M76.3435 54.7193H70.402V55.4443H76.3435V54.7193Z" fill="#E5CBFF"/>
<path d="M78.2391 64.8192H68.5053V65.9908H78.2391V64.8192Z" fill="#000055"/>
<g opacity="0.6">
<path opacity="0.72" d="M70.6382 63.6085L70.2128 62.5687L76.0075 58.0909L76.708 58.9147L70.6382 63.6085Z" fill="#F9F9F9"/>
<path opacity="0.72" d="M70.3705 61.8701L70.2128 60.9657L76.3449 56.1804V57.2129L70.3705 61.8701Z" fill="#F9F9F9"/>
</g>
<path d="M76.7059 64.8167H75.9724V53.1774C75.9724 52.487 75.6976 51.8249 75.2086 51.3367C74.7196 50.8485 74.0563 50.5742 73.3647 50.5742C72.6731 50.5742 72.0099 50.8485 71.5208 51.3367C71.0318 51.8249 70.7571 52.487 70.7571 53.1774V64.8167H70.0236V53.1774C70.0087 52.7313 70.0839 52.2868 70.2447 51.8703C70.4055 51.4538 70.6485 51.0739 70.9594 50.7531C71.2703 50.4323 71.6426 50.1772 72.0543 50.0029C72.4659 49.8287 72.9084 49.7389 73.3556 49.7389C73.8027 49.7389 74.2452 49.8287 74.6569 50.0029C75.0685 50.1772 75.4408 50.4323 75.7517 50.7531C76.0626 51.0739 76.3056 51.4538 76.4664 51.8703C76.6272 52.2868 76.7024 52.7313 76.6876 53.1774L76.7059 64.8167Z" fill="#E5CBFF"/>
<path d="M89.9836 48.9923C89.4217 48.9923 88.8653 49.1029 88.3462 49.3176C87.8271 49.5324 87.3555 49.8472 86.9584 50.244C86.5612 50.6408 86.2463 51.1119 86.0316 51.6302C85.8169 52.1486 85.7067 52.7041 85.7072 53.2651V64.8165H94.3847V53.3713C94.3808 52.2085 93.9154 51.0948 93.0904 50.274C92.2655 49.4532 91.1483 48.9923 89.9836 48.9923Z" fill="#F9F9F9"/>
<path d="M90.0528 50.2119C89.2649 50.2119 88.5093 50.5244 87.9522 51.0805C87.3951 51.6367 87.0821 52.391 87.0821 53.1776V64.8169H93.0236V53.1776C93.0236 52.391 92.7106 51.6367 92.1535 51.0805C91.5963 50.5244 90.8407 50.2119 90.0528 50.2119Z" fill="#D5ADFF"/>
<path d="M93.0236 54.7193H87.0821V55.4443H93.0236V54.7193Z" fill="#E5CBFF"/>
<path d="M94.9123 64.8192H85.1785V65.9908H94.9123V64.8192Z" fill="#000055"/>
<g opacity="0.6">
<path opacity="0.72" d="M87.3117 63.6085L86.8826 62.5687L92.6773 58.0909L93.3779 58.9147L87.3117 63.6085Z" fill="#F9F9F9"/>
<path opacity="0.72" d="M87.0439 61.8701L86.8826 60.9657L93.0148 56.1804V57.2129L87.0439 61.8701Z" fill="#F9F9F9"/>
</g>
<path d="M93.3791 64.8167H92.6455V53.1774C92.6455 52.487 92.3708 51.8249 91.8818 51.3367C91.3927 50.8485 90.7295 50.5742 90.0379 50.5742C89.3463 50.5742 88.683 50.8485 88.194 51.3367C87.705 51.8249 87.4302 52.487 87.4302 53.1774V64.8167H86.6967V53.1774C86.6819 52.7313 86.7571 52.2868 86.9179 51.8703C87.0786 51.4538 87.3217 51.0739 87.6326 50.7531C87.9434 50.4323 88.3158 50.1772 88.7274 50.0029C89.1391 49.8287 89.5816 49.7389 90.0287 49.7389C90.4758 49.7389 90.9184 49.8287 91.33 50.0029C91.7417 50.1772 92.114 50.4323 92.4249 50.7531C92.7357 51.0739 92.9788 51.4538 93.1396 51.8703C93.3003 52.2868 93.3755 52.7313 93.3607 53.1774L93.3791 64.8167Z" fill="#E5CBFF"/>
<path d="M56.6502 72.9065C56.0883 72.9061 55.5318 73.0161 55.0125 73.2305C54.4933 73.4448 54.0214 73.7592 53.6239 74.1556C53.2264 74.5521 52.9111 75.0229 52.696 75.5411C52.4808 76.0592 52.3701 76.6147 52.3701 77.1756V88.7307H61.0329V77.2818C61.0281 76.1229 60.5648 75.0128 59.7439 74.1933C58.923 73.3739 57.8111 72.9114 56.6502 72.9065Z" fill="#F9F9F9"/>
<path d="M56.6972 74.1215C55.9093 74.1215 55.1537 74.4339 54.5966 74.9901C54.0395 75.5463 53.7265 76.3006 53.7265 77.0871V88.7301H59.668V77.0871C59.668 76.3006 59.355 75.5463 58.7979 74.9901C58.2407 74.4339 57.4851 74.1215 56.6972 74.1215Z" fill="#D5ADFF"/>
<path d="M59.668 78.6335H53.7265V79.3585H59.668V78.6335Z" fill="#E5CBFF"/>
<path d="M61.5683 88.7334H51.8345V89.905H61.5683V88.7334Z" fill="#000055"/>
<g opacity="0.6">
<path opacity="0.72" d="M53.9603 87.526L53.5349 86.4899L59.326 82.0121L60.0265 82.8359L53.9603 87.526Z" fill="#F9F9F9"/>
<path opacity="0.72" d="M53.6926 85.7912L53.5349 84.8869L59.6634 80.1016V81.1304L53.6926 85.7912Z" fill="#F9F9F9"/>
</g>
<path d="M60.0332 88.7355H59.2997V77.0925C59.2997 76.4021 59.025 75.74 58.5359 75.2518C58.0469 74.7636 57.3836 74.4894 56.692 74.4894C56.0005 74.4894 55.3372 74.7636 54.8482 75.2518C54.3591 75.74 54.0844 76.4021 54.0844 77.0925V88.7355H53.3509V77.0925C53.3509 76.2099 53.7021 75.3633 54.3273 74.7392C54.9525 74.1151 55.8005 73.7644 56.6847 73.7644C57.5689 73.7644 58.4169 74.1151 59.0421 74.7392C59.6673 75.3633 60.0185 76.2099 60.0185 77.0925L60.0332 88.7355Z" fill="#E5CBFF"/>
<path d="M73.3197 72.9065C74.4869 72.9065 75.6064 73.3694 76.4317 74.1934C77.2571 75.0173 77.7208 76.1348 77.7208 77.3001V88.7453H69.0433V77.1756C69.0433 76.0434 69.4938 74.9575 70.2958 74.1569C71.0978 73.3563 72.1855 72.9065 73.3197 72.9065Z" fill="#F9F9F9"/>
<path d="M73.3691 74.1215C72.5818 74.1225 71.8271 74.4353 71.2708 74.9914C70.7145 75.5475 70.402 76.3012 70.402 77.0871V88.7301H76.3398V77.0871C76.3398 76.6977 76.263 76.312 76.1137 75.9522C75.9644 75.5924 75.7455 75.2655 75.4697 74.9901C75.1938 74.7147 74.8663 74.4963 74.5059 74.3472C74.1455 74.1982 73.7592 74.1215 73.3691 74.1215Z" fill="#D5ADFF"/>
<path d="M76.3435 78.6335H70.402V79.3585H76.3435V78.6335Z" fill="#E5CBFF"/>
<path d="M78.2391 88.7334H68.5053V89.905H78.2391V88.7334Z" fill="#000055"/>
<g opacity="0.6">
<path opacity="0.72" d="M70.6382 87.526L70.2128 86.4899L76.0075 82.0121L76.708 82.8359L70.6382 87.526Z" fill="#F9F9F9"/>
<path opacity="0.72" d="M70.3705 85.7912L70.2128 84.8869L76.3449 80.1016V81.1304L70.3705 85.7912Z" fill="#F9F9F9"/>
</g>
<path d="M76.7041 88.7364H75.9705V77.0935C75.9705 76.4031 75.6958 75.7409 75.2068 75.2527C74.7177 74.7645 74.0545 74.4903 73.3629 74.4903C72.6713 74.4903 72.008 74.7645 71.519 75.2527C71.03 75.7409 70.7552 76.4031 70.7552 77.0935V88.7364H70.0217V77.0935C70.0504 76.2304 70.414 75.4122 71.0358 74.8118C71.6575 74.2114 72.4887 73.8757 73.3537 73.8757C74.2188 73.8757 75.0499 74.2114 75.6717 74.8118C76.2934 75.4122 76.657 76.2304 76.6857 77.0935L76.7041 88.7364Z" fill="#E5CBFF"/>
<path d="M89.9836 72.9065C88.8494 72.9065 87.7617 73.3563 86.9597 74.1569C86.1577 74.9575 85.7072 76.0434 85.7072 77.1756V88.7307H94.3847V77.2818C94.3798 76.1197 93.914 75.0069 93.0891 74.1869C92.2643 73.3669 91.1476 72.9065 89.9836 72.9065Z" fill="#F9F9F9"/>
<path d="M90.0528 74.1215C89.2649 74.1215 88.5093 74.4339 87.9522 74.9901C87.3951 75.5463 87.0821 76.3006 87.0821 77.0871V88.7301H93.0236V77.0871C93.0236 76.3006 92.7106 75.5463 92.1535 74.9901C91.5963 74.4339 90.8407 74.1215 90.0528 74.1215Z" fill="#D5ADFF"/>
<path d="M93.0236 78.6335H87.0821V79.3585H93.0236V78.6335Z" fill="#E5CBFF"/>
<path d="M94.9123 88.7334H85.1785V89.905H94.9123V88.7334Z" fill="#000055"/>
<g opacity="0.6">
<path opacity="0.72" d="M87.3117 87.526L86.8826 86.4899L92.6773 82.0121L93.3779 82.8359L87.3117 87.526Z" fill="#F9F9F9"/>
<path opacity="0.72" d="M87.0439 85.7912L86.8826 84.8869L93.0148 80.1016V81.1304L87.0439 85.7912Z" fill="#F9F9F9"/>
</g>
<path d="M93.3795 88.7364H92.646V77.0935C92.646 76.4031 92.3713 75.7409 91.8823 75.2527C91.3932 74.7645 90.73 74.4903 90.0384 74.4903C89.3468 74.4903 88.6835 74.7645 88.1945 75.2527C87.7055 75.7409 87.4307 76.4031 87.4307 77.0935V88.7364H86.6972V77.0935C86.7259 76.2304 87.0895 75.4122 87.7113 74.8118C88.333 74.2114 89.1642 73.8757 90.0292 73.8757C90.8942 73.8757 91.7254 74.2114 92.3472 74.8118C92.9689 75.4122 93.3325 76.2304 93.3612 77.0935L93.3795 88.7364Z" fill="#E5CBFF"/>
<path d="M73.3197 96.8254C74.4869 96.8254 75.6064 97.2883 76.4317 98.1122C77.2571 98.9362 77.7208 100.054 77.7208 101.219V112.664H69.0433V101.094C69.0433 100.534 69.1539 99.9787 69.3688 99.4607C69.5837 98.9428 69.8987 98.4722 70.2958 98.0758C70.6929 97.6793 71.1643 97.3649 71.6832 97.1503C72.202 96.9358 72.7581 96.8254 73.3197 96.8254Z" fill="#F9F9F9"/>
<path d="M73.3691 98.0403C72.5818 98.0413 71.8271 98.3542 71.2708 98.9102C70.7145 99.4663 70.402 100.22 70.402 101.006V112.66H76.3398V101.017C76.3412 100.627 76.2655 100.24 76.1168 99.8787C75.9682 99.5176 75.7496 99.1894 75.4736 98.9128C75.1976 98.6363 74.8696 98.4168 74.5085 98.2671C74.1473 98.1174 73.7601 98.0403 73.3691 98.0403Z" fill="#D5ADFF"/>
<path d="M76.3435 102.552H70.402V103.277H76.3435V102.552Z" fill="#E5CBFF"/>
<path d="M78.2391 112.652H68.5053V113.824H78.2391V112.652Z" fill="#000055"/>
<g opacity="0.6">
<path opacity="0.72" d="M70.6382 111.444L70.2128 110.408L76.0075 105.926L76.708 106.754L70.6382 111.444Z" fill="#F9F9F9"/>
<path opacity="0.72" d="M70.3705 109.706L70.2128 108.798L76.3449 104.016V105.045L70.3705 109.706Z" fill="#F9F9F9"/>
</g>
<path d="M76.7059 112.658H75.9724V101.015C75.9724 100.325 75.6976 99.6626 75.2086 99.1744C74.7196 98.6862 74.0563 98.4119 73.3647 98.4119C72.6731 98.4119 72.0099 98.6862 71.5208 99.1744C71.0318 99.6626 70.7571 100.325 70.7571 101.015V112.658H70.0236V101.015C70.0087 100.569 70.0839 100.124 70.2447 99.708C70.4055 99.2915 70.6485 98.9115 70.9594 98.5907C71.2703 98.2699 71.6426 98.0148 72.0543 97.8406C72.4659 97.6664 72.9084 97.5766 73.3556 97.5766C73.8027 97.5766 74.2452 97.6664 74.6569 97.8406C75.0685 98.0148 75.4408 98.2699 75.7517 98.5907C76.0626 98.9115 76.3056 99.2915 76.4664 99.708C76.6272 100.124 76.7024 100.569 76.6876 101.015L76.7059 112.658Z" fill="#E5CBFF"/>
<path d="M89.9836 96.8254C88.8494 96.8254 87.7617 97.2751 86.9597 98.0758C86.1577 98.8764 85.7072 99.9622 85.7072 101.094V112.66H94.3847V101.201C94.3798 100.039 93.914 98.9257 93.0891 98.1057C92.2643 97.2857 91.1476 96.8254 89.9836 96.8254Z" fill="#F9F9F9"/>
<path d="M90.0528 98.0403C89.2649 98.0403 88.5093 98.3528 87.9522 98.9089C87.3951 99.4651 87.0821 100.219 87.0821 101.006V112.66H93.0236V101.017C93.025 100.627 92.9492 100.24 92.8006 99.8787C92.652 99.5176 92.4334 99.1894 92.1574 98.9128C91.8814 98.6363 91.5534 98.4168 91.1922 98.2671C90.8311 98.1174 90.4439 98.0403 90.0528 98.0403Z" fill="#D5ADFF"/>
<path d="M93.0236 102.552H87.0821V103.277H93.0236V102.552Z" fill="#E5CBFF"/>
<path d="M94.9123 112.652H85.1785V113.824H94.9123V112.652Z" fill="#000055"/>
<g opacity="0.6">
<path opacity="0.72" d="M87.3117 111.444L86.8826 110.408L92.6773 105.926L93.3779 106.754L87.3117 111.444Z" fill="#F9F9F9"/>
<path opacity="0.72" d="M87.0439 109.706L86.8826 108.798L93.0148 104.016V105.045L87.0439 109.706Z" fill="#F9F9F9"/>
</g>
<path d="M93.3791 112.658H92.6455V101.015C92.6455 100.325 92.3708 99.6626 91.8818 99.1744C91.3927 98.6862 90.7295 98.4119 90.0379 98.4119C89.3463 98.4119 88.683 98.6862 88.194 99.1744C87.705 99.6626 87.4302 100.325 87.4302 101.015V112.658H86.6967V101.015C86.6819 100.569 86.7571 100.124 86.9179 99.708C87.0786 99.2915 87.3217 98.9115 87.6326 98.5907C87.9434 98.2699 88.3158 98.0148 88.7274 97.8406C89.1391 97.6664 89.5816 97.5766 90.0287 97.5766C90.4758 97.5766 90.9184 97.6664 91.33 97.8406C91.7417 98.0148 92.114 98.2699 92.4249 98.5907C92.7357 98.9115 92.9788 99.2915 93.1396 99.708C93.3003 100.124 93.3755 100.569 93.3607 101.015L93.3791 112.658Z" fill="#E5CBFF"/>
<path d="M61.7495 126.172H51.4032V102.41C51.4032 101.041 51.9481 99.7275 52.9179 98.7594C53.8877 97.7913 55.203 97.2474 56.5745 97.2474C57.2541 97.2464 57.9271 97.3792 58.5552 97.6383C59.1833 97.8973 59.754 98.2775 60.2346 98.757C60.7153 99.2365 61.0965 99.806 61.3565 100.433C61.6164 101.06 61.75 101.731 61.7495 102.41V126.172Z" fill="#E5CBFF"/>
<path d="M62.1795 126.602H50.9604V102.405C50.9978 100.944 51.6052 99.5561 52.6531 98.5363C53.7011 97.5166 55.1066 96.9459 56.57 96.9459C58.0334 96.9459 59.4388 97.5166 60.4868 98.5363C61.5347 99.5561 62.1421 100.944 62.1795 102.405V126.602ZM51.8443 125.731H61.3103V102.405C61.3279 101.773 61.2185 101.144 60.9886 100.556C60.7586 99.9671 60.4128 99.4304 59.9716 98.9775C59.5304 98.5246 59.0026 98.1646 58.4196 97.9187C57.8366 97.6729 57.2102 97.5463 56.5773 97.5463C55.9444 97.5463 55.318 97.6729 54.7349 97.9187C54.1519 98.1646 53.6242 98.5246 53.183 98.9775C52.7417 99.4304 52.3959 99.9671 52.166 100.556C51.9361 101.144 51.8267 101.773 51.8443 102.405V125.731Z" fill="#000055"/>
<path d="M51.8479 125.729H61.314V102.402C61.3316 101.771 61.2222 101.142 60.9922 100.554C60.7623 99.9649 60.4165 99.4283 59.9753 98.9754C59.534 98.5225 59.0063 98.1625 58.4233 97.9166C57.8403 97.6708 57.2138 97.5441 56.5809 97.5441C55.9481 97.5441 55.3216 97.6708 54.7386 97.9166C54.1556 98.1625 53.6279 98.5225 53.1866 98.9754C52.7454 99.4283 52.3996 99.9649 52.1697 100.554C51.9397 101.142 51.8303 101.771 51.8479 102.402V125.729Z" fill="#E5CBFF"/>
<path d="M51.4056 104.498V103.627C61.8362 103.528 61.8875 103.58 62.0415 103.752L62.1736 104.063H61.7481L61.6601 104.488C61.2163 104.429 55.2859 104.462 51.4056 104.498Z" fill="#000055"/>
<path d="M60.0101 105.924H53.2581V123.838H60.0101V105.924Z" stroke="#E5CBFF" stroke-width="0.303431" stroke-miterlimit="10"/>
<path d="M58.1265 100.94C58.1265 101.249 58.0349 101.55 57.8632 101.807C57.6915 102.063 57.4475 102.263 57.162 102.381C56.8765 102.499 56.5624 102.53 56.2593 102.47C55.9562 102.41 55.6779 102.261 55.4594 102.043C55.2409 101.825 55.092 101.547 55.0318 101.244C54.9715 100.942 55.0024 100.628 55.1207 100.343C55.2389 100.058 55.4392 99.8147 55.6961 99.6434C55.953 99.472 56.2551 99.3805 56.5641 99.3805C56.9785 99.3805 57.3759 99.5448 57.6689 99.8373C57.9619 100.13 58.1265 100.527 58.1265 100.94Z" stroke="#E5CBFF" stroke-width="0.303431" stroke-miterlimit="10"/>
<path d="M64.6643 126.601H48.4609V133.243H64.6643V126.601Z" fill="#F9F9F9"/>
<path d="M64.6643 128.535H48.4609V129.011H64.6643V128.535Z" fill="#B873FF"/>
<path d="M64.6643 130.696H48.4609V131.172H64.6643V130.696Z" fill="#B873FF"/>
<path d="M61.0956 30.8793H60.0981V34.6065H61.0956V30.8793Z" fill="#000055"/>
<path d="M83.7879 30.8793H82.7903V34.6065H83.7879V30.8793Z" fill="#000055"/>
<path d="M89.9382 22.5416H53.6732V31.541H89.9382V22.5416Z" fill="#9F66DB"/>
<path d="M90.4442 32.0454H53.1816V22.05H90.4442V32.0454ZM54.1792 31.0495H89.4467V23.0459H54.1792V31.0495Z" fill="#E5CBFF"/>
<path d="M63.2235 26.53H64.8246V28.214H65.9178V23.8909H64.8246V25.5252H63.2235V23.8909H62.1358V28.214H63.2235V26.53ZM66.5621 26.0497C66.5621 26.6736 66.783 27.2036 67.2191 27.6343C67.6608 28.0649 68.1964 28.2802 68.8203 28.2802C69.4441 28.2802 69.9797 28.0649 70.4159 27.6287C70.8576 27.1926 71.0784 26.657 71.0784 26.0331C71.0784 25.4092 70.8576 24.8847 70.4214 24.4596C69.9852 24.0345 69.4552 23.8192 68.8313 23.8192C68.2074 23.8192 67.6719 24.0345 67.2247 24.4707C66.783 24.9013 66.5621 25.4258 66.5621 26.0497ZM68.0031 25.1939C68.224 24.9565 68.4945 24.835 68.8203 24.835C69.146 24.835 69.4165 24.9565 69.6374 25.1939C69.8582 25.4313 69.9687 25.7184 69.9687 26.0442C69.9687 26.3699 69.8582 26.657 69.6374 26.8999C69.4165 27.1374 69.146 27.2588 68.8203 27.2588C68.4945 27.2588 68.224 27.1374 68.0031 26.8999C67.7823 26.657 67.6719 26.3699 67.6719 26.0442C67.6719 25.7184 67.7823 25.4313 68.0031 25.1939ZM72.6055 28.214H73.6932V24.8792H74.9134V23.8909H71.3799V24.8792H72.6055V28.214ZM78.4788 23.8909H75.4588V28.214H78.4954V27.2423H76.5354V26.4969H78.3021V25.5638H76.5354V24.8571H78.4788V23.8909ZM79.233 23.8909V28.214H82.1371V27.2202H80.3206V23.8909H79.233Z" fill="#FBF7F4"/>
<path d="M31.8113 108.438C32.6898 107.459 33.2657 106.248 33.4695 104.95C33.6732 103.652 33.496 102.323 32.9594 101.123C32.4228 99.9236 31.5496 98.9047 30.4455 98.1898C29.3413 97.4748 28.0533 97.0943 26.7372 97.0943C25.4211 97.0943 24.1332 97.4748 23.029 98.1898C21.9248 98.9047 21.0517 99.9236 20.5151 101.123C19.9784 102.323 19.8013 103.652 20.005 104.95C20.2088 106.248 20.7847 107.459 21.6631 108.438C20.0882 109.519 18.9009 111.074 18.275 112.877C17.649 114.68 17.6172 116.635 18.1841 118.457C18.751 120.28 19.887 121.873 21.4259 123.004C22.9648 124.136 24.826 124.746 26.7372 124.746C28.6485 124.746 30.5097 124.136 32.0486 123.004C33.5875 121.873 34.7235 120.28 35.2904 118.457C35.8573 116.635 35.8255 114.68 35.1995 112.877C34.5735 111.074 33.3863 109.519 31.8113 108.438Z" fill="#9F66DB"/>
<path d="M26.448 106.081V133.186" stroke="#000055" stroke-width="0.369394" stroke-miterlimit="10"/>
<path d="M22.7985 113.204L26.4514 116.917" stroke="#000055" stroke-width="0.369394" stroke-miterlimit="10"/>
<path d="M32.2061 114.387L26.448 120.743" stroke="#000055" stroke-width="0.369394" stroke-miterlimit="10"/>
<path d="M123.579 108.438C124.457 107.459 125.033 106.248 125.237 104.95C125.441 103.652 125.264 102.323 124.727 101.123C124.19 99.9236 123.317 98.9047 122.213 98.1898C121.109 97.4748 119.821 97.0943 118.505 97.0943C117.189 97.0943 115.901 97.4748 114.797 98.1898C113.692 98.9047 112.819 99.9236 112.283 101.123C111.746 102.323 111.569 103.652 111.773 104.95C111.976 106.248 112.552 107.459 113.431 108.438C111.855 109.519 110.666 111.075 110.04 112.879C109.413 114.682 109.381 116.639 109.948 118.462C110.515 120.285 111.651 121.879 113.191 123.011C114.73 124.144 116.592 124.754 118.505 124.754C120.417 124.754 122.279 124.144 123.819 123.011C125.358 121.879 126.495 120.285 127.062 118.462C127.629 116.639 127.597 114.682 126.97 112.879C126.343 111.075 125.155 109.519 123.579 108.438Z" fill="#9F66DB"/>
<path d="M118.216 106.081V133.186" stroke="#000055" stroke-width="0.369394" stroke-miterlimit="10"/>
<path d="M114.565 113.204L118.214 116.917" stroke="#000055" stroke-width="0.369394" stroke-miterlimit="10"/>
<path d="M123.975 114.387L118.216 120.743" stroke="#000055" stroke-width="0.369394" stroke-miterlimit="10"/>
<path d="M140.558 58H78.4415C73.2271 58 69 62.2887 69 67.579V78.421C69 83.7113 73.2271 88 78.4415 88H140.558C145.773 88 150 83.7113 150 78.421V67.579C150 62.2887 145.773 58 140.558 58Z" fill="white"/>
<path d="M138.915 67.3567H100.342C99.3852 67.3567 98.6094 68.1438 98.6094 69.1149C98.6094 70.0859 99.3852 70.873 100.342 70.873H138.915C139.872 70.873 140.648 70.0859 140.648 69.1149C140.648 68.1438 139.872 67.3567 138.915 67.3567Z" fill="#ECB6CD"/>
<path d="M120.032 78.6433H100.342C100.115 78.6433 99.8894 78.5978 99.6791 78.5095C99.4689 78.4211 99.2779 78.2916 99.117 78.1284C98.956 77.9651 98.8284 77.7713 98.7413 77.558C98.6542 77.3447 98.6094 77.116 98.6094 76.8851C98.6094 76.4189 98.792 75.9716 99.117 75.6419C99.4419 75.3122 99.8827 75.127 100.342 75.127H120.032C120.259 75.127 120.484 75.1725 120.694 75.261C120.903 75.3495 121.094 75.4791 121.254 75.6425C121.414 75.8059 121.541 75.9998 121.627 76.2131C121.713 76.4264 121.756 76.6547 121.755 76.8851C121.756 77.1156 121.713 77.3439 121.627 77.5572C121.541 77.7704 121.414 77.9644 121.254 78.1278C121.094 78.2911 120.903 78.4208 120.694 78.5093C120.484 78.5978 120.259 78.6433 120.032 78.6433Z" fill="#ECB6CD"/>
<path d="M85.8812 63.0522C83.9098 63.0522 82.019 63.8461 80.6241 65.2594C79.2292 66.6727 78.4442 68.59 78.4415 70.5901C78.4415 77.7844 85.8812 82.9579 85.8812 82.9579C85.8812 82.9579 93.311 77.7844 93.311 70.5901C93.311 68.5909 92.5282 66.6736 91.1348 65.26C89.7415 63.8464 87.8517 63.0522 85.8812 63.0522Z" fill="#E40967"/>
<path d="M89.7754 70.772C89.7754 71.5534 89.547 72.3172 89.1191 72.9669C88.6912 73.6167 88.083 74.123 87.3715 74.4221C86.6599 74.7211 85.8769 74.7993 85.1215 74.6469C84.3662 74.4945 83.6723 74.1182 83.1277 73.5656C82.583 73.0131 82.2122 72.3091 82.0619 71.5427C81.9117 70.7764 81.9888 69.982 82.2835 69.2601C82.5782 68.5381 83.0774 67.9211 83.7178 67.487C84.3582 67.0529 85.111 66.8212 85.8812 66.8212C86.914 66.8212 87.9045 67.2374 88.6348 67.9783C89.3651 68.7192 89.7754 69.7242 89.7754 70.772Z" fill="white"/>
</g>
<defs>
<clipPath id="clip0_5_499">
<rect width="140.831" height="133.246" fill="white"/>
</clipPath>
</defs>
</svg>
