<svg width="18" height="24" viewBox="0 0 28 34" fill="none" xmlns="http://www.w3.org/2000/svg">
<g clip-path="url(#clip0_1276_1876)">
<path d="M16.4843 0.115234C16.6915 0.180293 16.9012 0.23656 17.1039 0.31041C17.7049 0.525975 18.2262 0.916952 18.5994 1.43204C18.9727 1.94712 19.1805 2.56225 19.1955 3.19672C19.2034 3.55717 19.1955 3.91851 19.1955 4.32733H19.5637C21.3416 4.32733 23.1192 4.32733 24.8965 4.32733C26.5526 4.32733 27.6758 5.45002 27.6802 7.09934C27.6802 7.73586 27.6847 8.3715 27.6802 9.00801C27.674 9.68058 27.2377 10.1166 26.5535 10.1166C18.1153 10.1166 9.68013 10.1166 1.24789 10.1166C0.568114 10.1166 0.120246 9.67706 0.122902 9.00801C0.122902 8.17544 0.0724537 7.3376 0.182209 6.51294C0.359233 5.22144 1.4559 4.337 2.7703 4.32996C4.58125 4.32029 6.39221 4.32996 8.20228 4.32996H8.60058C8.60058 4.00291 8.60058 3.70048 8.60058 3.39717C8.60678 1.74345 9.57422 0.545149 11.2037 0.17414C11.2435 0.159664 11.2815 0.140788 11.317 0.117872L16.4843 0.115234ZM10.7222 4.30359H17.0774C17.0774 3.92027 17.0933 3.55893 17.0774 3.19935C17.0638 2.93762 16.95 2.69094 16.7593 2.50983C16.5686 2.32873 16.3154 2.22691 16.0515 2.22524C14.6176 2.2141 13.1831 2.2141 11.7481 2.22524C11.4853 2.22864 11.2337 2.33103 11.0441 2.51171C10.8544 2.69239 10.741 2.93787 10.7266 3.19848C10.7063 3.55893 10.7222 3.92027 10.7222 4.30359Z" fill="#E40967"/>
<path d="M13.9033 12.2256H25.4302C25.9454 12.2256 26.0144 12.3135 25.9888 12.8252C25.8666 15.3331 25.7468 17.8414 25.6294 20.35C25.4577 23.8763 25.3028 27.4035 25.0983 30.9281C25.0054 32.5528 23.6414 33.7854 21.996 33.8065C20.6276 33.8232 19.2583 33.8065 17.889 33.8065C13.903 33.8065 9.91733 33.8065 5.93193 33.8065C4.30773 33.8065 2.99334 32.7621 2.73311 31.2156C2.61982 30.5386 2.62424 29.8397 2.59149 29.1504C2.44751 26.1613 2.30589 23.1721 2.16664 20.1829C2.04862 17.7072 1.92883 15.232 1.80727 12.7575C1.78691 12.3346 1.88074 12.23 2.30737 12.23L13.9033 12.2256ZM7.54197 21.6687V24.4698C7.54197 25.8298 7.53754 27.189 7.54197 28.5491C7.54135 28.8095 7.63819 29.0608 7.81369 29.2543C7.98918 29.4477 8.2308 29.5695 8.49162 29.5959C8.75243 29.6223 9.01382 29.5515 9.22501 29.3972C9.43619 29.2429 9.5821 29.0161 9.6344 28.761C9.65656 28.6203 9.66456 28.4777 9.6583 28.3354C9.6583 23.9162 9.6583 19.4966 9.6583 15.0767C9.66405 14.978 9.66405 14.8791 9.6583 14.7804C9.645 14.5818 9.57393 14.3912 9.45374 14.2319C9.33355 14.0726 9.16939 13.9513 8.98118 13.8828C8.266 13.6015 7.5464 14.1237 7.54463 14.929C7.5405 17.1744 7.5402 19.421 7.54374 21.6687H7.54197ZM14.9628 21.7355C14.9628 19.4761 14.9628 17.2169 14.9628 14.958C14.9628 14.4305 14.7221 14.0499 14.2999 13.8811C13.5749 13.5918 12.8456 14.1167 12.8447 14.9361C12.8412 17.6011 12.8412 20.2662 12.8447 22.9312C12.8447 24.7625 12.8447 26.5938 12.8447 28.4251C12.8447 28.7768 12.927 29.0783 13.1935 29.3122C13.5298 29.6085 13.9184 29.6885 14.33 29.5021C14.7646 29.3061 14.9681 28.9517 14.9681 28.4761C14.9664 26.2301 14.9655 23.9833 14.9655 21.7355H14.9628ZM18.143 21.6828V22.0441C18.143 24.194 18.143 26.3436 18.143 28.4928C18.143 29.0783 18.5316 29.5267 19.0751 29.5927C19.3355 29.6222 19.5977 29.555 19.8113 29.4041C20.0248 29.2531 20.1747 29.0291 20.2319 28.775C20.2578 28.6238 20.2673 28.4702 20.2603 28.317C20.2603 24.424 20.2603 20.5308 20.2603 16.6372C20.2603 16.0456 20.2665 15.453 20.2603 14.8613C20.2612 14.6459 20.1954 14.4354 20.0717 14.2585C19.9481 14.0815 19.7725 13.9467 19.569 13.8723C18.8458 13.6085 18.1457 14.1255 18.1439 14.9378C18.1416 17.1897 18.1419 19.438 18.1448 21.6828H18.143Z" fill="#E40967"/>
</g>
<defs>
<clipPath id="clip0_1276_1876">
<rect width="27.5715" height="33.6985" fill="white" transform="translate(0.111328 0.115234)"/>
</clipPath>
</defs>
</svg>
