<svg width="29" height="34" viewBox="0 0 29 34" fill="none" xmlns="http://www.w3.org/2000/svg">
<g clip-path="url(#clip0_595_2624)">
<path d="M17.3691 0C17.5762 0.0650584 17.786 0.121325 17.9887 0.195175C18.5896 0.410741 19.1109 0.801718 19.4842 1.3168C19.8574 1.83189 20.0652 2.44702 20.0802 3.08148C20.0882 3.44194 20.0802 3.80328 20.0802 4.21209H20.4484C22.2264 4.21209 24.004 4.21209 25.7813 4.21209C27.4374 4.21209 28.5606 5.33479 28.565 6.98411C28.565 7.62063 28.5694 8.25626 28.565 8.89278C28.5588 9.56534 28.1224 10.0014 27.4382 10.0014C19.0001 10.0014 10.5649 10.0014 2.13265 10.0014C1.45288 10.0014 1.00501 9.56183 1.00767 8.89278C1.00767 8.06021 0.957219 7.22236 1.06697 6.3977C1.244 5.1062 2.34066 4.22176 3.65506 4.21473C5.46602 4.20506 7.27698 4.21473 9.08705 4.21473H9.48535C9.48535 3.88768 9.48535 3.58524 9.48535 3.28193C9.49155 1.62822 10.459 0.429914 12.0885 0.0589054C12.1283 0.0444295 12.1663 0.025554 12.2018 0.0026374L17.3691 0ZM11.607 4.18836H17.9621C17.9621 3.80504 17.9781 3.4437 17.9621 3.08412C17.9486 2.82238 17.8348 2.5757 17.6441 2.3946C17.4534 2.21349 17.2001 2.11168 16.9363 2.11C15.5024 2.09887 14.0679 2.09887 12.6328 2.11C12.3701 2.1134 12.1184 2.2158 11.9288 2.39648C11.7392 2.57716 11.6257 2.82263 11.6114 3.08324C11.591 3.4437 11.607 3.80504 11.607 4.18836Z" fill="#E40967"/>
<path d="M14.7881 12.1094H26.315C26.8302 12.1094 26.8992 12.1973 26.8735 12.709C26.7514 15.2169 26.6316 17.7252 26.5142 20.2338C26.3425 23.7601 26.1876 27.2873 25.9831 30.8119C25.8902 32.4366 24.5262 33.6692 22.8807 33.6903C21.5123 33.707 20.1431 33.6903 18.7738 33.6903C14.7878 33.6903 10.8021 33.6903 6.8167 33.6903C5.1925 33.6903 3.87811 32.6458 3.61788 31.0994C3.50459 30.4224 3.509 29.7235 3.47625 29.0342C3.33227 26.0451 3.19066 23.0559 3.0514 20.0667C2.93339 17.591 2.81359 15.1158 2.69204 12.6413C2.67168 12.2184 2.7655 12.1138 3.19213 12.1138L14.7881 12.1094ZM8.42673 21.5525V24.3535C8.42673 25.7136 8.42231 27.0728 8.42673 28.4329C8.42612 28.6933 8.52296 28.9446 8.69845 29.1381C8.87395 29.3315 9.11557 29.4533 9.37638 29.4797C9.63719 29.5061 9.89858 29.4353 10.1098 29.281C10.321 29.1267 10.4669 28.8999 10.5192 28.6448C10.5413 28.5041 10.5493 28.3615 10.5431 28.2192C10.5431 23.8 10.5431 19.3804 10.5431 14.9605C10.5488 14.8618 10.5488 14.7629 10.5431 14.6642C10.5298 14.4656 10.4587 14.275 10.3385 14.1157C10.2183 13.9563 10.0542 13.8351 9.86594 13.7666C9.15076 13.4853 8.43116 14.0075 8.42939 14.8128C8.42526 17.0582 8.42497 19.3048 8.42851 21.5525H8.42673ZM15.8476 21.6193C15.8476 19.3599 15.8476 17.1007 15.8476 14.8418C15.8476 14.3143 15.6068 13.9336 15.1846 13.7648C14.4597 13.4756 13.7304 14.0005 13.7295 14.8198C13.726 17.4849 13.726 20.1499 13.7295 22.815C13.7295 24.6463 13.7295 26.4776 13.7295 28.3089C13.7295 28.6606 13.8118 28.9621 14.0782 29.196C14.4146 29.4923 14.8031 29.5723 15.2147 29.3859C15.6493 29.1898 15.8529 28.8355 15.8529 28.3599C15.8511 26.1139 15.8502 23.8671 15.8502 21.6193H15.8476ZM19.0278 21.5666V21.9279C19.0278 24.0778 19.0278 26.2273 19.0278 28.3766C19.0278 28.9621 19.4164 29.4105 19.9598 29.4765C20.2203 29.506 20.4825 29.4388 20.696 29.2878C20.9096 29.1369 21.0594 28.9129 21.1167 28.6588C21.1426 28.5076 21.1521 28.354 21.145 28.2008C21.145 24.3078 21.145 20.4146 21.145 16.521C21.145 15.9294 21.1512 15.3368 21.145 14.7451C21.146 14.5297 21.0802 14.3192 20.9565 14.1422C20.8328 13.9653 20.6573 13.8304 20.4537 13.7561C19.7306 13.4923 19.0305 14.0093 19.0287 14.8216C19.0263 17.0734 19.0266 19.3218 19.0296 21.5666H19.0278Z" fill="#E40967"/>
</g>
<defs>
<clipPath id="clip0_595_2624">
<rect width="27.5715" height="33.6985" fill="white" transform="translate(0.996094)"/>
</clipPath>
</defs>
</svg>
