<svg width="37" height="35" viewBox="0 0 37 35" fill="none" xmlns="http://www.w3.org/2000/svg">
<g clip-path="url(#clip0_595_2616)">
<path d="M4.29976 34.257C3.59892 34.0187 2.91138 33.7582 2.3458 33.268C1.34078 32.3952 0.803935 31.321 0.803935 30.0185C0.79973 23.3615 0.79973 16.7043 0.803935 10.0468C0.803935 7.64663 2.7663 5.73721 5.27393 5.72647C9.226 5.70901 13.1774 5.71908 17.1294 5.72647C18.0524 5.72647 18.7168 6.34817 18.7077 7.17465C18.6993 7.98568 18.037 8.58456 17.1308 8.58791C13.2598 8.59105 9.38953 8.59105 5.51993 8.58791C4.36634 8.58791 3.79305 9.12838 3.79305 10.2221C3.79305 16.7569 3.79305 23.2917 3.79305 29.8265C3.79305 30.9135 4.35372 31.4614 5.48138 31.4614C12.3123 31.4614 19.1434 31.4614 25.9748 31.4614C27.0892 31.4614 27.6624 30.9007 27.6624 29.8198C27.6624 26.1003 27.6624 22.3809 27.6624 18.6614C27.6624 17.6147 28.638 16.9225 29.6353 17.2454C30.2661 17.4468 30.6459 17.984 30.6494 18.6997C30.6551 19.9504 30.6494 21.2019 30.6494 22.4527V29.6875C30.6494 32.0374 29.505 33.5225 27.1557 34.2187C27.1352 34.2288 27.1163 34.2417 27.0997 34.257H4.29976Z" fill="#586ADA"/>
<path d="M36.6177 4.03099C36.4249 5.17235 35.7108 6.00554 34.8543 6.76017C34.3841 7.17442 33.9481 7.62492 33.5297 8.02842L28.2559 2.9749C28.2937 2.93731 28.3848 2.84063 28.4801 2.75133C29.0478 2.20617 29.612 1.65697 30.1867 1.11785C31.2576 0.110772 32.5338 -0.248419 33.9713 0.173883C35.4087 0.596184 36.2658 1.56029 36.5602 2.97759C36.5745 3.01815 36.5943 3.05674 36.6191 3.0924L36.6177 4.03099Z" fill="#586ADA"/>
<path d="M26.5797 4.58594L31.836 9.62469C31.775 9.68847 31.7021 9.77038 31.6258 9.84624C27.8346 13.4798 24.0403 17.1104 20.2426 20.7381C20.0097 20.9501 19.7209 21.0972 19.4072 21.1638C17.7953 21.4995 16.1679 21.7929 14.5469 22.1037C13.8523 22.238 13.4157 21.8352 13.5523 21.1772C13.8894 19.5585 14.2266 17.9398 14.5798 16.3244C14.6234 16.1303 14.7221 15.9514 14.865 15.8075C18.7323 12.0889 22.6047 8.37524 26.4823 4.6665C26.5138 4.63361 26.5509 4.60675 26.5797 4.58594Z" fill="#586ADA"/>
</g>
<defs>
<clipPath id="clip0_595_2616">
<rect width="35.816" height="34.2588" fill="white" transform="translate(0.800781)"/>
</clipPath>
</defs>
</svg>
