<svg width="12" height="12" viewBox="0 0 23 23" fill="none" xmlns="http://www.w3.org/2000/svg">
<g clip-path="url(#clip0_2367_3628)">
<path d="M2.24704 22.4125C1.79696 22.2594 1.35542 22.0921 0.992207 21.7774C0.346789 21.2169 0.00202537 20.527 0.00202537 19.6906C-0.000675124 15.4154 -0.000675124 11.1402 0.00202537 6.86473C0.00202537 5.32332 1.26226 4.09709 2.87265 4.0902C5.41067 4.07899 7.94823 4.08545 10.4862 4.0902C11.079 4.0902 11.5057 4.48945 11.4998 5.02022C11.4944 5.54106 11.0691 5.92566 10.4871 5.92781C8.00119 5.92983 5.51569 5.92983 3.03063 5.92781C2.2898 5.92781 1.92163 6.2749 1.92163 6.97727C1.92163 11.1739 1.92163 15.3706 1.92163 19.5672C1.92163 20.2653 2.28169 20.6171 3.00588 20.6171C7.39268 20.6171 11.7796 20.6171 16.1667 20.6171C16.8824 20.6171 17.2505 20.2571 17.2505 19.5629C17.2505 17.1743 17.2505 14.7856 17.2505 12.397C17.2505 11.7248 17.8771 11.2803 18.5175 11.4877C18.9226 11.617 19.1665 11.9619 19.1688 12.4216C19.1724 13.2248 19.1688 14.0285 19.1688 14.8318V19.478C19.1688 20.9871 18.4338 21.9408 16.9251 22.3879C16.9119 22.3944 16.8998 22.4026 16.8891 22.4125H2.24704Z" fill="white"/>
<path d="M23.0028 3.00081C22.879 3.73379 22.4203 4.26886 21.8703 4.75349C21.5683 5.01952 21.2884 5.30883 21.0197 5.56796L17.6328 2.32259C17.6571 2.29845 17.7156 2.23636 17.7768 2.17901C18.1414 1.82891 18.5037 1.47622 18.8728 1.12999C19.5605 0.483247 20.3801 0.252575 21.3032 0.523777C22.2264 0.794979 22.7768 1.41413 22.9659 2.32431C22.9751 2.35036 22.9878 2.37515 23.0037 2.39804L23.0028 3.00081Z" fill="white"/>
<path d="M16.5541 3.35742L19.9297 6.5933C19.8905 6.63426 19.8437 6.68687 19.7947 6.73559C17.36 9.06904 14.9233 11.4006 12.4844 13.7304C12.3348 13.8665 12.1494 13.961 11.9479 14.0037C10.9127 14.2193 9.86764 14.4077 8.8266 14.6073C8.38057 14.6936 8.10016 14.4349 8.18793 14.0123C8.40442 12.9728 8.62091 11.9333 8.84776 10.8959C8.87577 10.7712 8.93916 10.6563 9.03094 10.5639C11.5145 8.17582 14.0014 5.79091 16.4915 3.40916C16.5118 3.38804 16.5356 3.37079 16.5541 3.35742Z" fill="white"/>
</g>
<defs>
<clipPath id="clip0_2367_3628">
<rect width="23.001" height="22.001" fill="white" transform="translate(0 0.412109)"/>
</clipPath>
</defs>
</svg>
