<svg width="24" height="23" viewBox="0 0 37 35" fill="none" xmlns="http://www.w3.org/2000/svg">
<g clip-path="url(#clip0_1276_1872)">
<path d="M4.415 34.3722C3.71415 34.1339 3.02661 33.8734 2.46103 33.3833C1.45602 32.5105 0.919169 31.4363 0.919169 30.1338C0.914964 23.4768 0.914964 16.8195 0.919169 10.1621C0.919169 7.76187 2.88154 5.85244 5.38916 5.8417C9.34123 5.82425 13.2926 5.83432 17.2447 5.8417C18.1677 5.8417 18.8321 6.46341 18.823 7.28988C18.8146 8.10092 18.1523 8.69979 17.2461 8.70315C13.3751 8.70628 9.50476 8.70628 5.63516 8.70315C4.48157 8.70315 3.90829 9.24361 3.90829 10.3373C3.90829 16.8721 3.90829 23.4069 3.90829 29.9418C3.90829 31.0287 4.46895 31.5766 5.59661 31.5766C12.4275 31.5766 19.2587 31.5766 26.09 31.5766C27.2044 31.5766 27.7777 31.016 27.7777 29.935C27.7777 26.2156 27.7777 22.4961 27.7777 18.7766C27.7777 17.7299 28.7533 17.0377 29.7506 17.3607C30.3813 17.5621 30.7612 18.0992 30.7647 18.8149C30.7703 20.0657 30.7647 21.3171 30.7647 22.5679V29.8028C30.7647 32.1526 29.6202 33.6377 27.271 34.334C27.2504 34.344 27.2315 34.3569 27.2149 34.3722H4.415Z" fill="#586ADA"/>
<path d="M36.7329 4.14623C36.5402 5.28758 35.826 6.12077 34.9696 6.87541C34.4993 7.28965 34.0634 7.74015 33.645 8.14366L28.3711 3.09014C28.4089 3.05254 28.5001 2.95586 28.5954 2.86657C29.1631 2.3214 29.7272 1.77221 30.3019 1.23309C31.3728 0.226007 32.6491 -0.133184 34.0865 0.289117C35.5239 0.711419 36.3811 1.67553 36.6754 3.09282C36.6898 3.13338 36.7095 3.17198 36.7343 3.20763L36.7329 4.14623Z" fill="#586ADA"/>
<path d="M26.6949 4.7002L31.9512 9.73894C31.8903 9.80273 31.8174 9.88464 31.741 9.9605C27.9499 13.594 24.1555 17.2247 20.3579 20.8524C20.1249 21.0643 19.8361 21.2115 19.5224 21.278C17.9105 21.6137 16.2831 21.9071 14.6621 22.218C13.9675 22.3523 13.5309 21.9494 13.6676 21.2915C14.0047 19.6728 14.3418 18.0541 14.695 16.4387C14.7387 16.2445 14.8374 16.0656 14.9803 15.9217C18.8475 12.2032 22.7199 8.4895 26.5975 4.78076C26.629 4.74786 26.6662 4.72101 26.6949 4.7002Z" fill="#586ADA"/>
</g>
<defs>
<clipPath id="clip0_1276_1872">
<rect width="35.816" height="34.2588" fill="white" transform="translate(0.916016 0.115234)"/>
</clipPath>
</defs>
</svg>
