<svg width="23" height="24" viewBox="0 0 32 35" fill="none" xmlns="http://www.w3.org/2000/svg">
<g clip-path="url(#clip0_2367_3225)">
<path d="M4.8297 34.7399C4.67826 34.7052 4.52682 34.6688 4.37453 34.6375C1.79237 34.1096 0.0207283 31.9674 0.0139599 29.2549C-0.0046533 21.3866 -0.0046533 13.5183 0.0139599 5.65C0.0198823 2.93671 1.78222 0.786038 4.36522 0.264023C4.74063 0.190861 5.12238 0.155151 5.50485 0.15742C10.976 0.150652 16.4472 0.150652 21.9183 0.15742C24.558 0.15742 26.663 1.81146 27.2806 4.37331C27.3773 4.81276 27.4236 5.26182 27.4185 5.71176C27.4312 8.36753 27.4261 11.0241 27.4236 13.6807C27.4236 14.487 27.0767 14.9887 26.4151 15.1673C26.233 15.2171 26.0423 15.2274 25.8559 15.1976C25.6695 15.1677 25.4916 15.0984 25.3341 14.9943C25.1767 14.8902 25.0432 14.7536 24.9428 14.5938C24.8424 14.4339 24.7772 14.2545 24.7517 14.0674C24.7307 13.8885 24.7211 13.7085 24.723 13.5285C24.723 10.9395 24.723 8.35061 24.723 5.76168C24.723 4.5899 24.2695 3.67362 23.2001 3.15753C22.8026 2.97163 22.3697 2.8738 21.931 2.87072C16.4486 2.8521 10.9667 2.849 5.48539 2.86141C3.93542 2.86141 2.83048 3.9249 2.72049 5.46895C2.71203 5.59162 2.70949 5.71599 2.70949 5.83952C2.70949 13.5843 2.7078 21.3288 2.70442 29.073C2.70442 30.2702 3.13337 31.2161 4.23324 31.7423C4.6532 31.9277 5.10672 32.025 5.56577 32.0283C7.00406 32.063 8.44743 32.0376 9.88826 32.0427C10.4551 32.0427 10.89 32.2965 11.1353 32.8134C11.3663 33.3007 11.3342 33.7974 10.9814 34.2052C10.7859 34.4311 10.4856 34.5664 10.2334 34.7433L4.8297 34.7399Z" fill="#586ADA"/>
<path d="M15.7042 34.7387C15.6709 34.7122 15.6349 34.6892 15.5968 34.6702C14.8548 34.3732 14.5028 33.726 14.727 32.9646C15.2443 31.2065 15.7778 29.4546 16.3278 27.7089C16.423 27.4452 16.5775 27.207 16.7796 27.0126C19.1931 24.5872 21.6142 22.1695 24.0429 19.7594C25.2046 18.6113 26.6056 18.2365 28.1691 18.7306C29.7056 19.217 30.6379 20.3042 30.9298 21.8855C31.1557 23.1131 30.8452 24.2299 30.0372 25.1936C29.868 25.4008 29.67 25.5904 29.4788 25.7807C27.1933 28.0634 24.909 30.3463 22.6258 32.6295C22.3259 32.9343 21.9495 33.1526 21.5361 33.2615C19.7712 33.7446 18.0106 34.2446 16.2482 34.7387H15.7042ZM18.0106 31.4273C18.8828 31.1862 19.6756 30.9763 20.4641 30.742C20.6544 30.685 20.8285 30.5835 20.9718 30.4459C22.4845 28.95 23.9913 27.448 25.4922 25.9398C25.5684 25.8628 25.6377 25.7799 25.6936 25.719L23.8052 23.8297C23.7688 23.861 23.7147 23.8999 23.6681 23.9456C22.0973 25.5114 20.527 27.0777 18.9573 28.6446C18.8963 28.694 18.8471 28.7564 18.8135 28.8274C18.5487 29.6717 18.2948 30.5178 18.0106 31.4273ZM27.6556 23.7561C28.1632 23.3585 28.4086 22.8542 28.2394 22.2171C28.0938 21.6672 27.7046 21.3364 27.1454 21.2467C26.5532 21.152 26.1149 21.4303 25.7706 21.866L27.6556 23.7561Z" fill="#586ADA"/>
<path d="M13.7144 8.25738C16.0106 8.25738 18.3059 8.25146 20.6021 8.25738C21.6174 8.25738 22.273 9.17535 21.9245 10.0781C21.7189 10.6111 21.3145 10.8979 20.7476 10.9495C20.5784 10.9648 20.4092 10.9563 20.24 10.9563C15.7948 10.9563 11.3494 10.9563 6.90363 10.9563C5.99074 10.9563 5.37143 10.3641 5.41204 9.54423C5.44927 8.79209 6.02289 8.25908 6.82495 8.25654C8.62536 8.25062 10.4266 8.25654 12.227 8.25654L13.7144 8.25738Z" fill="#586ADA"/>
<path d="M13.7021 16.3683C11.4177 16.3683 9.13339 16.3683 6.84904 16.3683C5.92853 16.3683 5.32022 15.7025 5.42598 14.8353C5.46378 14.5371 5.60142 14.2604 5.8165 14.0504C6.03158 13.8404 6.31142 13.7094 6.61045 13.6787C6.71116 13.6698 6.81227 13.6665 6.91334 13.6686C11.4488 13.6686 15.9844 13.6686 20.5204 13.6686C21.4198 13.6686 22.0289 14.2388 22.0095 15.051C21.9926 15.7998 21.4172 16.3599 20.6245 16.3675C19.6456 16.3768 18.6667 16.3675 17.687 16.3675L13.7021 16.3683Z" fill="#586ADA"/>
<path d="M10.974 21.7678C9.59068 21.7678 8.20738 21.772 6.82831 21.7678C6.09478 21.7678 5.53385 21.305 5.43571 20.6484C5.30541 19.7821 5.90611 19.0765 6.80462 19.0705C8.46881 19.0612 10.133 19.0705 11.7963 19.0705C12.9326 19.0705 14.068 19.0629 15.2042 19.0748C15.5104 19.0718 15.8083 19.1742 16.048 19.3647C16.2877 19.5553 16.4546 19.8224 16.5207 20.1213C16.6527 20.7677 16.3447 21.4023 15.7474 21.6442C15.5271 21.726 15.2937 21.767 15.0587 21.7652C13.6949 21.7737 12.3344 21.7686 10.974 21.7678Z" fill="#586ADA"/>
</g>
<defs>
<clipPath id="clip0_2367_3225">
<rect width="31.002" height="34.5884" fill="white" transform="translate(0 0.150391)"/>
</clipPath>
</defs>
</svg>
