<svg width="25" height="20" viewBox="0 0 39 25" fill="none" xmlns="http://www.w3.org/2000/svg">
<path d="M0.574219 12.9042C0.757523 13.2094 0.908261 13.5406 1.12785 13.816C3.80764 17.1751 6.91637 20.054 10.6532 22.2071C13.1134 23.6252 15.7392 24.577 18.5957 24.7687C21.2123 24.9446 23.7162 24.431 26.1168 23.4037C29.5568 21.9326 32.499 19.7339 35.1155 17.0951C36.2023 15.9989 37.1951 14.807 38.1991 13.6318C38.7695 12.9647 38.749 12.4157 38.2047 11.7262C35.5035 8.30388 32.365 5.36729 28.5723 3.18066C25.5948 1.463 22.4172 0.425512 18.9298 0.579971C16.5357 0.686047 14.2765 1.3318 12.1326 2.38417C7.63191 4.59499 4.02909 7.88144 0.946411 11.7811C0.78916 11.9802 0.697042 12.2314 0.574219 12.4585C0.574219 12.6074 0.574219 12.7553 0.574219 12.9042ZM3.41032 12.7078C3.54989 12.5422 3.6448 12.4138 3.75553 12.3003C4.91211 11.1139 6.01939 9.87174 7.24204 8.75702C9.59987 6.60669 12.2229 4.85459 15.2749 3.81711C17.1023 3.19555 18.9754 2.93222 20.9024 3.14344C23.371 3.41421 25.6116 4.3298 27.7219 5.59432C30.4649 7.23755 32.8098 9.35346 34.9368 11.7234C35.215 12.0332 35.4802 12.3552 35.7789 12.7041C35.0485 13.4941 34.3637 14.2757 33.6351 15.0145C31.1851 17.5007 28.4737 19.6343 25.2459 21.0347C23.6371 21.7326 21.9622 22.1913 20.1962 22.2741C17.4969 22.4016 15.0143 21.6479 12.65 20.4262C10.0074 19.0602 7.72216 17.216 5.64161 15.1103C4.87769 14.339 4.16122 13.5202 3.41032 12.7078Z" fill="#292931"/>
<path d="M27.1132 12.6486C27.0825 8.4801 23.6844 5.11828 19.5475 5.1648C15.3845 5.21225 12.0525 8.58059 12.0822 12.711C12.1129 16.8814 15.5092 20.2414 19.647 20.1948C23.8091 20.1483 27.143 16.7781 27.1132 12.6486ZM24.6065 12.6663C24.6214 15.4205 22.3975 17.663 19.62 17.6937C16.8695 17.7244 14.5768 15.4401 14.5843 12.6756C14.5917 9.91397 16.8305 7.6743 19.5931 7.66686C22.3482 7.65942 24.5916 9.89629 24.6065 12.6663Z" fill="#292931"/>
</svg>
