<svg width="16" height="15" viewBox="0 0 21 19" fill="none" xmlns="http://www.w3.org/2000/svg">
<path d="M18.504 2.77751C17.444 1.71472 16.0388 1.06605 14.5424 0.948679C13.0459 0.831309 11.5568 1.25298 10.344 2.13751C9.07168 1.19115 7.48802 0.76202 5.91195 0.936547C4.33587 1.11107 2.88447 1.87629 1.85 3.07809C0.815532 4.2799 0.274848 5.82903 0.336827 7.41352C0.398805 8.99802 1.05884 10.5002 2.18403 11.6175L8.39403 17.8375C8.91404 18.3493 9.61441 18.6361 10.344 18.6361C11.0736 18.6361 11.774 18.3493 12.294 17.8375L18.504 11.6175C19.6716 10.4428 20.3269 8.85378 20.3269 7.19751C20.3269 5.54124 19.6716 3.95224 18.504 2.77751ZM17.094 10.2375L10.884 16.4475C10.8134 16.5189 10.7293 16.5755 10.6366 16.6142C10.5439 16.6528 10.4445 16.6727 10.344 16.6727C10.2436 16.6727 10.1442 16.6528 10.0515 16.6142C9.9588 16.5755 9.87469 16.5189 9.80403 16.4475L3.59403 10.2075C2.80978 9.40585 2.37064 8.32898 2.37064 7.20751C2.37064 6.08604 2.80978 5.00916 3.59403 4.20751C4.39318 3.4185 5.471 2.97608 6.59403 2.97608C7.71705 2.97608 8.79487 3.4185 9.59403 4.20751C9.68699 4.30124 9.79759 4.37563 9.91945 4.4264C10.0413 4.47717 10.172 4.50331 10.304 4.50331C10.436 4.50331 10.5667 4.47717 10.6886 4.4264C10.8105 4.37563 10.9211 4.30124 11.014 4.20751C11.8132 3.4185 12.891 2.97608 14.014 2.97608C15.1371 2.97608 16.2149 3.4185 17.014 4.20751C17.809 4.99866 18.2626 6.0697 18.2776 7.1912C18.2925 8.31269 17.8677 9.39544 17.094 10.2075V10.2375Z" fill="grey"/>
</svg>
