<svg width="34" height="33" viewBox="0 0 34 33" fill="none" xmlns="http://www.w3.org/2000/svg">
<path d="M17 6.8735L16.1817 5.70875C15.5942 4.87241 14.9348 4.16603 14.2172 3.59475L14.2171 3.59471C12.8062 2.47142 11.2269 1.91406 9.49791 1.91406C7.15819 1.91406 5.01332 2.87411 3.44196 4.62848L17 6.8735ZM17 6.8735L17.8182 5.70879M17 6.8735L17.8182 5.70879M17.8182 5.70879C18.406 4.87218 19.0651 4.16606 19.7826 3.59475L17.8182 5.70879ZM12.473 27.3643L12.4731 27.3643L12.477 27.3678C13.6452 28.3927 14.9741 29.5587 16.3546 30.8011L16.3553 30.8017C16.5376 30.9661 16.7665 31.0528 17 31.0528C17.2335 31.0528 17.4626 30.9659 17.6443 30.8022L17.6448 30.8017C19.0149 29.5683 20.3351 28.41 21.4973 27.3902L21.5277 27.3635L21.5278 27.3635C24.9747 24.3398 27.8572 21.8069 29.8491 19.3325L29.8491 19.3325C32.0418 16.6091 33 14.1141 33 11.4323C33 8.77554 32.1155 6.36783 30.5578 4.62853C28.9864 2.8741 26.8418 1.91406 24.5021 1.91406C22.7732 1.91406 21.1939 2.47137 19.7827 3.59465L12.473 27.3643ZM12.473 27.3643C9.0256 24.3401 6.14309 21.8069 4.15114 19.3328M12.473 27.3643L3.44188 4.62857C1.8845 6.36787 1 8.77557 1 11.4326C1 14.1141 1.95839 16.609 4.15114 19.3328M4.15114 19.3328L3.37219 19.9599L4.15114 19.3328Z" stroke="55505C" stroke-width="2"/>
</svg>
