<svg width="18" height="24" viewBox="0 0 21 30" fill="none" xmlns="http://www.w3.org/2000/svg">
<path d="M10.5987 28.043L11.4882 28.9213L10.5987 29.822L9.7093 28.9213L10.5987 28.043ZM18.4506 18.3127C18.9357 17.8215 19.7271 17.8165 20.2183 18.3016C20.7096 18.7867 20.7145 19.5781 20.2295 20.0693L18.4506 18.3127ZM0.967997 20.0693C0.482921 19.5781 0.487899 18.7867 0.979115 18.3016C1.47033 17.8165 2.26177 17.8215 2.74685 18.3127L0.967997 20.0693ZM9.7093 27.1647L18.4506 18.3127L20.2295 20.0693L11.4882 28.9213L9.7093 27.1647ZM2.74685 18.3127L11.4882 27.1647L9.7093 28.9213L0.967997 20.0693L2.74685 18.3127Z" fill="#E40967"/>
<path d="M10.5987 2.39453L11.4882 1.51622L10.5987 0.61554L9.7093 1.51622L10.5987 2.39453ZM18.4506 12.1248C18.9357 12.616 19.7271 12.621 20.2183 12.1359C20.7096 11.6508 20.7145 10.8594 20.2295 10.3682L18.4506 12.1248ZM0.967997 10.3682C0.482921 10.8594 0.487899 11.6508 0.979115 12.1359C1.47033 12.621 2.26177 12.616 2.74685 12.1248L0.967997 10.3682ZM9.7093 3.27284L18.4506 12.1248L20.2295 10.3682L11.4882 1.51622L9.7093 3.27284ZM2.74685 12.1248L11.4882 3.27284L9.7093 1.51622L0.967997 10.3682L2.74685 12.1248Z" fill="#E40967"/>
</svg>
