<svg width="23" height="27" viewBox="0 0 31 31" fill="none" xmlns="http://www.w3.org/2000/svg">
<path d="M29.7543 27.7517L24.16 22.2027C26.3315 19.4951 27.3831 16.0584 27.0986 12.5992C26.8141 9.14011 25.215 5.92146 22.6302 3.60511C20.0454 1.28875 16.6714 0.0507697 13.2019 0.145708C9.73238 0.240646 6.4311 1.66129 3.97686 4.11553C1.52262 6.56977 0.101975 9.87105 0.00703622 13.3406C-0.0879022 16.8101 1.15008 20.1841 3.46643 22.7689C5.78279 25.3537 9.00144 26.9527 12.4606 27.2373C15.9197 27.5218 19.3564 26.4702 22.064 24.2986L27.6131 29.8477C27.7533 29.9891 27.92 30.1012 28.1038 30.1778C28.2875 30.2544 28.4846 30.2938 28.6837 30.2938C28.8827 30.2938 29.0798 30.2544 29.2636 30.1778C29.4473 30.1012 29.6141 29.9891 29.7543 29.8477C30.0261 29.5666 30.178 29.1908 30.178 28.7997C30.178 28.4087 30.0261 28.0329 29.7543 27.7517ZM13.6046 24.2986C11.517 24.2986 9.47621 23.6796 7.74039 22.5197C6.00457 21.3599 4.65167 19.7114 3.85276 17.7827C3.05385 15.8539 2.84482 13.7316 3.2521 11.6841C3.65938 9.63652 4.66468 7.75573 6.14087 6.27954C7.61706 4.80335 9.49784 3.79805 11.5454 3.39077C13.5929 2.98349 15.7152 3.19252 17.644 3.99143C19.5727 4.79034 21.2212 6.14324 22.3811 7.87906C23.5409 9.61488 24.16 11.6556 24.16 13.7433C24.16 16.5427 23.0479 19.2275 21.0684 21.2071C19.0889 23.1866 16.4041 24.2986 13.6046 24.2986Z" fill="#831BEE"/>
</svg>
