<svg width="22" height="30" viewBox="0 0 29 30" fill="none" xmlns="http://www.w3.org/2000/svg">
<path d="M28.127 0.722656C28.2696 0.793102 28.4236 0.847075 28.552 0.937973C28.686 1.02549 28.7958 1.1455 28.871 1.28686C28.9462 1.42821 28.9844 1.5863 28.982 1.7464C29.053 5.22154 27.66 8.02858 25.1001 10.3084C23.5435 11.695 21.9852 13.0799 20.4251 14.463C19.4758 15.3078 19.0077 16.3651 19.0111 17.6382C19.0162 19.7402 19.006 21.8457 19.0168 23.9488C19.0196 24.4811 18.8168 24.8618 18.3742 25.1543C16.2279 26.5746 14.0857 28.0015 11.9477 29.4351C11.5398 29.7083 11.1211 29.806 10.6729 29.5657C10.2184 29.3203 10.0633 28.9141 10.0645 28.4096C10.0707 24.8339 10.0645 21.2588 10.0701 17.6837C10.073 16.3679 9.58951 15.2874 8.60497 14.4159C6.88189 12.8899 5.13096 11.3924 3.45901 9.81416C1.26723 7.74226 0.163956 5.14656 0.0537418 2.13556C0.0236318 1.32316 0.216222 1.04307 0.953064 0.724362L28.127 0.722656ZM2.38471 3.00249C2.69262 5.08064 3.5607 6.84691 5.08779 8.24958C6.741 9.76814 8.43397 11.2435 10.1133 12.7331C11.6131 14.0642 12.3409 15.731 12.3346 17.7325C12.3255 20.5248 12.3346 23.3171 12.3346 26.1093V26.4383C12.4181 26.3911 12.459 26.3712 12.4965 26.3468C13.86 25.4378 15.2286 24.5289 16.587 23.6091C16.6779 23.5477 16.7438 23.3818 16.7443 23.2682C16.7542 21.4097 16.7561 19.5514 16.75 17.6933C16.7432 15.7106 17.4791 14.0612 18.9577 12.7451C20.2833 11.5679 21.6089 10.39 22.9345 9.21139C23.7031 8.52965 24.4894 7.86554 25.0933 7.01792C25.9503 5.83241 26.4994 4.45263 26.6914 3.00249H2.38471Z" fill="#FFC830"/>
</svg>
