<svg width="12" height="14" viewBox="0 0 12 14" fill="none" xmlns="http://www.w3.org/2000/svg">
<path d="M11.2561 5.97997C11.2561 10.6304 5.97573 13.7181 5.97573 13.7181C5.97573 13.7181 4.13961 12.5982 2.63273 10.7506C1.58804 9.46622 0.695312 7.83382 0.695312 5.97997C0.695312 3.06315 3.05694 0.703125 5.97573 0.703125C8.51463 0.703125 10.6357 2.49371 11.1422 4.87272C11.2182 5.22704 11.2561 5.60034 11.2561 5.97997Z" fill="#F05A22"/>
<path d="M5.97525 6.72559C6.89141 6.72559 7.6341 5.9834 7.6341 5.06787C7.6341 4.15234 6.89141 3.41016 5.97525 3.41016C5.0591 3.41016 4.31641 4.15234 4.31641 5.06787C4.31641 5.9834 5.0591 6.72559 5.97525 6.72559Z" fill="white"/>
<path d="M6.98884 6.39109L2.63281 10.7442C4.13969 12.5917 5.97581 13.7116 5.97581 13.7116C5.97581 13.7116 10.946 10.8074 11.2436 6.38477H6.98884V6.39109Z" fill="url(#paint0_linear_2389_2931)"/>
<path d="M7.71054 0.994173C7.16603 0.804359 6.58354 0.703125 5.97572 0.703125C3.05693 0.703125 0.695312 3.06315 0.695312 5.97996C0.695312 6.55573 0.783949 7.11252 0.929572 7.63767L4.47517 4.22734L7.71054 0.994173Z" fill="url(#paint1_linear_2389_2931)"/>
<defs>
<linearGradient id="paint0_linear_2389_2931" x1="7.27312" y1="9.67279" x2="2.5689" y2="8.33489" gradientUnits="userSpaceOnUse">
<stop stop-color="#F05A22"/>
<stop offset="1" stop-color="#F05A22"/>
</linearGradient>
<linearGradient id="paint1_linear_2389_2931" x1="2.49426" y1="3.92819" x2="8.32534" y2="5.08035" gradientUnits="userSpaceOnUse">
<stop stop-color="#E40968"/>
<stop offset="1" stop-color="#F05A22"/>
</linearGradient>
</defs>
</svg>
