<svg width="15" height="15" viewBox="0 0 15 15" fill="none" xmlns="http://www.w3.org/2000/svg">
<path d="M7.42828 3.83203C7.42828 3.59179 7.62304 3.39703 7.86328 3.39703C8.10353 3.39703 8.29828 3.59179 8.29828 3.83203L7.42828 3.83203ZM8.17087 10.7324C8.00099 10.9023 7.72557 10.9023 7.55569 10.7324L4.78737 7.96407C4.61749 7.79419 4.61749 7.51876 4.78737 7.34888C4.95725 7.17901 5.23267 7.17901 5.40255 7.34888L7.86328 9.80961L10.324 7.34888C10.4939 7.179 10.7693 7.179 10.9392 7.34888C11.1091 7.51876 11.1091 7.79419 10.9392 7.96407L8.17087 10.7324ZM8.29828 3.83203L8.29828 10.4248L7.42828 10.4248L7.42828 3.83203L8.29828 3.83203Z" fill="grey"/>
<circle r="6.1254" transform="matrix(1 0 0 -1 7.86368 7.1285)" stroke="grey" stroke-width="1.5"/>
</svg>
