<svg width="21" height="16" viewBox="0 0 21 16" fill="none" xmlns="http://www.w3.org/2000/svg">
<g clip-path="url(#clip0_1275_1883)">
<path d="M0.00219137 1.87173C0.0328699 1.76067 0.0569743 1.64461 0.0953225 1.53355C0.217325 1.15876 0.453098 0.832662 0.768937 0.601875C1.08478 0.371087 1.46451 0.247423 1.85386 0.248562C3.13852 0.243009 4.42319 0.248562 5.70785 0.248562H19.0536C19.9887 0.248562 20.7107 0.779993 20.9326 1.64239C20.9774 1.82397 20.9997 2.01052 20.9989 2.1977C21.0029 5.8979 21.0029 9.59774 20.9989 13.2972C20.9989 14.4428 20.2029 15.2469 19.0727 15.2469C13.3753 15.2469 7.67621 15.2469 1.97548 15.2469C0.948295 15.2469 0.279941 14.7132 0.0306784 13.6981C0.0223015 13.6721 0.0120479 13.6466 0 13.6221L0.00219137 1.87173ZM2.15352 1.50634C2.21598 1.57575 2.25871 1.62573 2.30418 1.67293L9.93327 9.44725C10.3058 9.82653 10.7002 9.82597 11.0755 9.44337C13.6229 6.84674 16.1705 4.25049 18.7183 1.6546C18.7588 1.61296 18.7944 1.56686 18.8465 1.50634H2.15352ZM2.13764 13.9764H18.8662L13.5868 8.6626C13.5473 8.70092 13.4925 8.75145 13.4405 8.80476C12.9288 9.32564 12.4193 9.8493 11.9066 10.368C11.1012 11.1815 9.90478 11.1809 9.10002 10.368C8.78995 10.0548 8.48316 9.73823 8.17418 9.42393C7.91944 9.1646 7.66361 8.90638 7.42201 8.66094C5.66238 10.4301 3.91535 12.1883 2.13764 13.9764ZM1.24412 2.4437V13.0462C2.98878 11.2918 4.74422 9.52611 6.51042 7.74912L1.24412 2.4437ZM19.7559 13.0556V2.47368L14.494 7.76356L19.7559 13.0556Z" fill="#586ADA"/>
</g>
<defs>
<clipPath id="clip0_1275_1883">
<rect width="21" height="15" fill="white" transform="translate(0 0.246094)"/>
</clipPath>
</defs>
</svg>
