<svg width="29" height="29" viewBox="0 0 39 39" fill="none" xmlns="http://www.w3.org/2000/svg">
<path d="M19.1296 3.38672C15.7701 3.38672 12.5483 4.72124 10.1729 7.0967C7.79741 9.47216 6.46289 12.694 6.46289 16.0534C6.46289 24.6034 17.6254 34.2617 18.1004 34.6734C18.3872 34.9187 18.7522 35.0535 19.1296 35.0535C19.5069 35.0535 19.8719 34.9187 20.1587 34.6734C20.7129 34.2617 31.7962 24.6034 31.7962 16.0534C31.7962 12.694 30.4617 9.47216 28.0862 7.0967C25.7108 4.72124 22.489 3.38672 19.1296 3.38672ZM19.1296 31.3326C15.7571 28.1659 9.62956 21.3417 9.62956 16.0534C9.62956 13.5338 10.6304 11.1175 12.412 9.33587C14.1936 7.55428 16.61 6.55339 19.1296 6.55339C21.6491 6.55339 24.0655 7.55428 25.8471 9.33587C27.6287 11.1175 28.6296 13.5338 28.6296 16.0534C28.6296 21.3417 22.5021 28.1817 19.1296 31.3326ZM19.1296 9.72005C17.8769 9.72005 16.6525 10.0915 15.6109 10.7874C14.5694 11.4833 13.7577 12.4725 13.2783 13.6297C12.799 14.787 12.6735 16.0604 12.9179 17.289C13.1623 18.5175 13.7655 19.646 14.6512 20.5317C15.5369 21.4175 16.6654 22.0207 17.894 22.265C19.1225 22.5094 20.396 22.384 21.5532 21.9046C22.7105 21.4253 23.6996 20.6135 24.3955 19.572C25.0914 18.5305 25.4629 17.306 25.4629 16.0534C25.4629 14.3737 24.7956 12.7628 23.6079 11.575C22.4202 10.3873 20.8093 9.72005 19.1296 9.72005ZM19.1296 19.2201C18.5033 19.2201 17.891 19.0343 17.3703 18.6864C16.8495 18.3384 16.4436 17.8438 16.2039 17.2652C15.9643 16.6866 15.9016 16.0499 16.0237 15.4356C16.1459 14.8213 16.4475 14.2571 16.8904 13.8142C17.3333 13.3713 17.8975 13.0698 18.5118 12.9476C19.126 12.8254 19.7628 12.8881 20.3414 13.1278C20.92 13.3674 21.4146 13.7733 21.7625 14.2941C22.1105 14.8148 22.2962 15.4271 22.2962 16.0534C22.2962 16.8932 21.9626 17.6987 21.3687 18.2926C20.7749 18.8864 19.9694 19.2201 19.1296 19.2201Z" fill="#F05A22"/>
</svg>
