<svg width="19" height="20" viewBox="0 0 19 20" fill="none" xmlns="http://www.w3.org/2000/svg">
<path d="M0.486855 16.6333L7.91125 8.96226L16.5854 0H17.2633L17.4017 0.363404C17.7671 1.3226 17.9231 2.30365 17.8531 3.20037C17.7732 4.22253 17.3974 5.10749 16.7661 5.75968L9.99463 12.7561L9.10147 11.8333L2.84122 19.0659C2.21847 19.7094 1.14659 19.7476 0.486855 19.0659C-0.162302 18.3952 -0.162302 17.304 0.486855 16.6333Z" fill="#6B9EFF"/>
<path d="M13.1325 11.1357L18.4359 16.6153C19.085 17.286 19.085 18.3772 18.4359 19.0479C17.8193 19.685 16.7526 19.7412 16.0816 19.0479L10.7781 13.5683L13.1325 11.1357Z" fill="#6B9EFF"/>
<path d="M0.798531 3.25751L3.80693 6.3658L4.59177 5.55493L1.58337 2.4466L2.36817 1.63574L5.37654 4.74402L6.16134 3.93316L3.15293 0.824868L3.9377 0.0140381L7.8617 4.06838C8.34175 4.56437 8.62838 5.22293 8.66891 5.92284C8.67916 6.10017 8.71806 6.27459 8.78259 6.4405L6.23356 9.07419C6.07299 9.00744 5.90414 8.96729 5.73255 8.9567C5.05514 8.91494 4.41774 8.6187 3.9377 8.12272L0.0136919 4.06842L0.798531 3.25751Z" fill="#6B9EFF"/>
</svg>
