<svg width="11" height="11" viewBox="0 0 13 13" fill="none" xmlns="http://www.w3.org/2000/svg">
<path d="M12.9987 11.5438C12.9214 11.8024 12.8737 12.0873 12.7605 12.3145C12.5207 12.7948 12.1563 12.9979 11.7269 12.9987C11.0752 13.0004 10.4237 13.0004 9.77237 12.9987C6.9462 12.9987 4.12002 12.9987 1.29384 12.9987C0.78278 12.9987 0.38684 12.727 0.139099 12.1153C-0.181787 11.3238 0.0732681 10.3009 0.690871 9.92407C0.78119 9.86896 0.811085 9.80961 0.814265 9.6765C0.87787 6.92783 1.77279 4.79342 3.50825 3.30251C4.04126 2.84468 4.63151 2.55175 5.25197 2.36989C5.29682 2.35675 5.34102 2.33895 5.38936 2.32199C5.16388 1.49111 5.28887 0.787414 5.83459 0.2749C6.24389 -0.109591 6.8033 -0.0794933 7.19383 0.294824C7.66896 0.749686 7.79394 1.35165 7.61076 2.31817C7.81302 2.39151 8.01751 2.45552 8.21723 2.53988C9.63149 3.13336 10.7077 4.29532 11.4468 6.00497C11.8582 6.95539 12.1031 8.01748 12.1633 9.11185C12.1754 9.31956 12.176 9.52856 12.1894 9.73585C12.1929 9.78672 12.2167 9.86303 12.2466 9.87914C12.6553 10.1254 12.9005 10.5392 12.9854 11.1246C12.9889 11.1404 12.9938 11.1556 13 11.17L12.9987 11.5438ZM11.3844 9.74221C11.3113 7.35938 10.5849 5.4543 9.05014 4.22749C7.28097 2.81331 5.47237 2.87732 3.75217 4.39706C2.3376 5.64549 1.67579 7.48783 1.6141 9.74391L11.3844 9.74221ZM6.48527 11.9182H11.6643C11.7149 11.9182 11.7661 11.9207 11.8163 11.9144C11.9102 11.9025 11.9981 11.8478 12.0652 11.7595C12.1323 11.6712 12.1745 11.5548 12.1846 11.4298C12.1946 11.3054 12.1714 11.1803 12.119 11.0765C12.0667 10.9727 11.9886 10.8968 11.8984 10.8622C11.833 10.8407 11.7657 10.8313 11.6983 10.8342C8.23313 10.8342 4.76794 10.8342 1.30275 10.8342C1.26459 10.8342 1.22642 10.8342 1.18858 10.8372C1.0862 10.8475 0.990573 10.9092 0.921026 11.0099C0.85148 11.1106 0.813202 11.2427 0.813929 11.3795C0.814656 11.5164 0.854334 11.6478 0.924942 11.7471C0.995551 11.8465 1.09183 11.9064 1.1943 11.9148C1.24074 11.9194 1.28748 11.9173 1.33392 11.9173L6.48527 11.9182ZM6.90538 1.63058C6.9062 1.52349 6.88313 1.41849 6.83911 1.3289C6.79508 1.23932 6.73208 1.16918 6.6581 1.1274C6.58413 1.08562 6.5025 1.07408 6.42359 1.09424C6.34469 1.1144 6.27205 1.16536 6.2149 1.24064C6.15776 1.31592 6.11868 1.41213 6.10262 1.51707C6.08656 1.622 6.09426 1.73093 6.12473 1.83003C6.15519 1.92913 6.20706 2.01393 6.27374 2.07367C6.34043 2.13341 6.41892 2.16539 6.49927 2.16556C6.60593 2.16459 6.70808 2.10812 6.78395 2.00818C6.85982 1.90823 6.90339 1.77274 6.90538 1.63058Z" fill="#E40968"/>
</svg>
