<svg width="27" height="22" viewBox="0 0 27 22" fill="none" xmlns="http://www.w3.org/2000/svg">
<path fill-rule="evenodd" clip-rule="evenodd" d="M7.57424 5.67264e-07H18.7311C19.7899 -1.62095e-05 20.6637 -3.00061e-05 21.3755 0.0581277C22.1148 0.118532 22.7944 0.24817 23.4328 0.573424C24.4227 1.07782 25.2276 1.88266 25.732 2.8726C26.0572 3.51095 26.1868 4.19055 26.2473 4.92986C26.3054 5.64167 26.3054 6.51547 26.3054 7.57421V13.4701C26.3054 14.5288 26.3054 15.4026 26.2473 16.1144C26.1868 16.8538 26.0572 17.5334 25.732 18.1717C25.2276 19.1616 24.4227 19.9665 23.4328 20.4709C22.7944 20.7961 22.1148 20.9258 21.3755 20.9862C20.6637 21.0443 19.7899 21.0443 18.7311 21.0443H7.57427C6.51551 21.0443 5.64168 21.0443 4.92986 20.9862C4.19055 20.9258 3.51095 20.7961 2.8726 20.4709C1.88266 19.9665 1.07782 19.1616 0.573424 18.1717C0.24817 17.5334 0.118532 16.8538 0.0581277 16.1144C-3.00061e-05 15.4026 -1.62095e-05 14.5288 5.67264e-07 13.4701V7.57424C-1.62095e-05 6.51549 -3.00061e-05 5.64168 0.0581277 4.92986C0.118532 4.19055 0.24817 3.51095 0.573424 2.8726C1.07782 1.88266 1.88266 1.07782 2.8726 0.573424C3.51095 0.24817 4.19055 0.118532 4.92986 0.0581277C5.64168 -3.00061e-05 6.51549 -1.62095e-05 7.57424 5.67264e-07ZM5.14407 2.67993C4.56743 2.72704 4.27254 2.81244 4.06684 2.91725C3.57187 3.16945 3.16945 3.57187 2.91725 4.06684C2.81244 4.27254 2.72704 4.56743 2.67993 5.14407C2.63156 5.73606 2.63054 6.50193 2.63054 7.62856V13.4157C2.63054 14.5424 2.63156 15.3082 2.67993 15.9002C2.72704 16.4769 2.81244 16.7718 2.91725 16.9775C3.16945 17.4724 3.57187 17.8749 4.06684 18.1271C4.27255 18.2319 4.56743 18.3173 5.14407 18.3644C5.73606 18.4127 6.50193 18.4138 7.62856 18.4138H18.6768C19.8035 18.4138 20.5693 18.4127 21.1613 18.3644C21.7379 18.3173 22.0328 18.2319 22.2385 18.1271C22.7335 17.8749 23.1359 17.4724 23.3881 16.9775C23.4929 16.7718 23.5783 16.4769 23.6254 15.9002C23.6738 15.3082 23.6748 14.5424 23.6748 13.4157V7.62856C23.6748 6.50193 23.6738 5.73606 23.6254 5.14407C23.5783 4.56743 23.4929 4.27254 23.3881 4.06684C23.1359 3.57187 22.7335 3.16945 22.2385 2.91725C22.0328 2.81244 21.7379 2.72704 21.1613 2.67993C20.5693 2.63156 19.8035 2.63054 18.6768 2.63054H7.62856C6.50193 2.63054 5.73606 2.63156 5.14407 2.67993Z" fill="#747474"/>
<path fill-rule="evenodd" clip-rule="evenodd" d="M5.49154 5.83229C5.90246 5.23328 6.72116 5.0808 7.32017 5.49172L12.4084 8.98228C12.8568 9.28985 13.4482 9.28985 13.8965 8.98228L18.9848 5.49172C19.5838 5.0808 20.4025 5.23328 20.8134 5.83229C21.2243 6.43129 21.0719 7.25 20.4729 7.66091L15.3846 11.1515C14.0395 12.0742 12.2654 12.0742 10.9204 11.1515L5.8321 7.66091C5.2331 7.25 5.08062 6.43129 5.49154 5.83229Z" fill="#747474"/>
</svg>
