<svg width="20" height="18" viewBox="0 0 24 22" fill="none" xmlns="http://www.w3.org/2000/svg">
<path d="M17.0154 7.32269C17.1239 7.43204 17.2529 7.51883 17.3951 7.57806C17.5372 7.63729 17.6897 7.66779 17.8438 7.66779C17.9978 7.66779 18.1503 7.63729 18.2924 7.57806C18.4346 7.51883 18.5636 7.43204 18.6721 7.32269L23.3387 2.65602C23.5584 2.43634 23.6819 2.13838 23.6819 1.82769C23.6819 1.51701 23.5584 1.21904 23.3387 0.999357C23.1191 0.779669 22.8211 0.65625 22.5104 0.65625C22.1997 0.65625 21.9018 0.779669 21.6821 0.999357L17.8438 4.84936L16.3387 3.33269C16.23 3.22391 16.1008 3.13762 15.9587 3.07875C15.8166 3.01988 15.6643 2.98958 15.5104 2.98958C15.1997 2.98958 14.9018 3.113 14.6821 3.33269C14.5733 3.44147 14.487 3.57061 14.4281 3.71273C14.3693 3.85486 14.339 4.00719 14.339 4.16102C14.339 4.47171 14.4624 4.76967 14.6821 4.98936L17.0154 7.32269ZM22.5104 6.49436C22.201 6.49436 21.9042 6.61727 21.6855 6.83607C21.4667 7.05486 21.3438 7.3516 21.3438 7.66102V18.161C21.3438 18.4704 21.2208 18.7672 21.002 18.986C20.7832 19.2048 20.4865 19.3277 20.1771 19.3277H3.84375C3.53433 19.3277 3.23758 19.2048 3.01879 18.986C2.8 18.7672 2.67708 18.4704 2.67708 18.161V6.97269L9.53708 13.8444C10.1919 14.4938 11.0765 14.8586 11.9987 14.8594C12.9442 14.8545 13.8496 14.4772 14.5187 13.8094L16.5254 11.8027C16.7451 11.583 16.8685 11.285 16.8685 10.9744C16.8685 10.6637 16.7451 10.3657 16.5254 10.146C16.3057 9.92634 16.0078 9.80292 15.6971 9.80292C15.3864 9.80292 15.0884 9.92634 14.8687 10.146L12.8271 12.1877C12.609 12.4015 12.3158 12.5212 12.0104 12.5212C11.705 12.5212 11.4118 12.4015 11.1937 12.1877L4.32208 5.32769H10.8438C11.1532 5.32769 11.4499 5.20477 11.6687 4.98598C11.8875 4.76719 12.0104 4.47044 12.0104 4.16102C12.0104 3.8516 11.8875 3.55486 11.6687 3.33607C11.4499 3.11727 11.1532 2.99436 10.8438 2.99436H3.84375C2.91549 2.99436 2.02525 3.36311 1.36888 4.01948C0.712499 4.67586 0.34375 5.5661 0.34375 6.49436V18.161C0.34375 19.0893 0.712499 19.9795 1.36888 20.6359C2.02525 21.2923 2.91549 21.661 3.84375 21.661H20.1771C21.1053 21.661 21.9956 21.2923 22.652 20.6359C23.3083 19.9795 23.6771 19.0893 23.6771 18.161V7.66102C23.6771 7.3516 23.5542 7.05486 23.3354 6.83607C23.1166 6.61727 22.8198 6.49436 22.5104 6.49436Z" fill="#292931"/>
</svg>
