<svg width="10" height="14" viewBox="0 0 14 18" fill="none" xmlns="http://www.w3.org/2000/svg">
<path d="M10.0904 15.5124C10.0904 15.8321 10.0904 16.1356 10.0904 16.4386C10.0904 17.0906 9.85253 17.2894 9.21615 17.1542C6.59185 16.5967 3.96804 16.0367 1.34422 15.4767C0.94282 15.3905 0.769531 15.1756 0.769531 14.7737C0.769531 10.3279 0.769531 5.88164 0.769531 1.43584C0.769531 0.957096 0.986387 0.738281 1.45926 0.738281C5.3005 0.738281 9.14175 0.738281 12.983 0.738281C13.4745 0.738281 13.6698 0.934088 13.6698 1.42703C13.6698 5.89143 13.6698 10.3553 13.6698 14.8197C13.6698 15.3239 13.4799 15.5119 12.9703 15.5124C12.0847 15.5129 11.1992 15.5124 10.3137 15.5124C10.2481 15.5124 10.1825 15.5124 10.0904 15.5124ZM1.94878 14.4017C4.27007 14.8892 6.58255 15.3753 8.90825 15.8639C8.91216 15.7909 8.91755 15.7435 8.91755 15.696C8.91804 11.6658 8.91755 7.63558 8.92 3.60587C8.92 3.48154 8.89258 3.42818 8.75797 3.40272C6.87724 3.0444 4.99798 2.67824 3.11824 2.31453C2.73201 2.23963 2.34529 2.16571 1.94878 2.08935C1.94878 6.20032 1.94878 10.2902 1.94878 14.4017ZM7.68152 1.91802C7.68201 1.92634 7.68299 1.93515 7.68347 1.94347C8.28118 2.059 8.87937 2.17159 9.47609 2.29054C9.96218 2.38795 10.0899 2.54705 10.0899 3.03999C10.0904 3.71797 10.0899 4.39547 10.0899 5.07345C10.0899 8.07761 10.0914 11.0818 10.0865 14.086C10.086 14.248 10.1291 14.292 10.2906 14.2901C10.9623 14.2808 11.6339 14.2862 12.3055 14.2862C12.3647 14.2862 12.4235 14.2862 12.4856 14.2862C12.4856 10.1497 12.4856 6.0378 12.4856 1.91802C10.8776 1.91802 9.27979 1.91802 7.68152 1.91802Z" fill="white"/>
<path d="M7.80637 8.94197C7.80637 9.3145 7.80833 9.68653 7.80588 10.0591C7.80344 10.4379 7.56406 10.7042 7.22874 10.7047C6.90419 10.7057 6.63447 10.4081 6.63398 10.0453C6.633 9.30079 6.63153 8.55574 6.63496 7.81119C6.63643 7.44209 6.88951 7.18363 7.23364 7.18754C7.57287 7.19146 7.8005 7.41762 7.80491 7.76958C7.81029 8.1607 7.80637 8.55134 7.80637 8.94197Z" fill="white"/>
</svg>
