<svg width="20" height="26" viewBox="0 0 20 26" fill="none" xmlns="http://www.w3.org/2000/svg">
<path d="M10.5651 0.160156C10.7256 0.198967 10.8869 0.230167 11.0444 0.277348C11.8168 0.505645 12.3757 0.994199 12.6923 1.76128C12.7497 1.90206 12.8182 1.95761 12.9684 1.95381C13.433 1.94391 13.8976 1.94772 14.3614 1.95381C14.4873 1.95089 14.6131 1.96341 14.7362 1.9911C15.0153 2.06263 15.1279 2.21939 15.1316 2.51542C15.1353 2.81144 15.1316 3.11203 15.1316 3.43469C15.8252 3.43469 16.493 3.4248 17.1593 3.43926C17.4338 3.43983 17.7072 3.47432 17.9737 3.54199C18.4739 3.68734 18.9152 3.99611 19.2316 4.42215C19.548 4.84818 19.7225 5.3686 19.729 5.90562C19.7334 11.5608 19.7334 17.2152 19.729 22.8688C19.729 23.9875 18.908 24.9273 17.7955 25.1084C17.6006 25.1401 17.4037 25.1561 17.2065 25.1563C12.5546 25.1594 7.90244 25.1594 3.25006 25.1563C2.70962 25.1563 2.20453 25.0369 1.7495 24.7294C1.08095 24.2782 0.729001 23.6488 0.730473 22.8117C0.733419 20.3056 0.733419 17.7999 0.730473 15.2947V6.04793C0.730473 4.52595 1.78484 3.43849 3.26037 3.43317C3.86634 3.43317 4.47304 3.43317 5.07901 3.43317C5.15264 3.43317 5.23216 3.42708 5.33156 3.42252C5.33156 3.13258 5.33156 2.85786 5.33156 2.58543C5.33156 2.15775 5.49207 1.97283 5.91176 1.96065C6.42274 1.94543 6.93446 1.95 7.44619 1.95609C7.50327 1.96332 7.561 1.94971 7.6094 1.91761C7.6578 1.88551 7.69383 1.83694 7.71125 1.7803C8.09486 0.913535 8.74206 0.389213 9.65064 0.205815C9.68735 0.194478 9.72306 0.179969 9.75741 0.162439L10.5651 0.160156ZM15.1603 4.64466C15.1502 4.66323 15.1427 4.68323 15.1382 4.70402C15.1353 5.10278 15.1333 5.50154 15.1323 5.90029C15.1323 6.48093 14.9114 6.70618 14.3438 6.70618H6.10246C5.54287 6.70618 5.33745 6.49234 5.33671 5.91019V4.64466C5.26308 4.63553 5.21449 4.62564 5.1681 4.62564C4.45979 4.62564 3.75 4.60433 3.0439 4.64466C2.35989 4.68423 1.88203 5.27172 1.8813 5.99922C1.8813 11.5879 1.8813 17.1766 1.8813 22.7653C1.8813 23.33 2.13753 23.712 2.66029 23.8771C2.8716 23.9397 3.09064 23.97 3.31044 23.9669C7.92453 23.9715 12.5372 23.9715 17.1483 23.9669C17.2661 23.9679 17.3839 23.9613 17.501 23.9471C18.2248 23.8528 18.5885 23.4266 18.5885 22.6763V6.10424C18.5885 6.03955 18.5885 5.97411 18.5885 5.90943C18.5642 5.26487 18.0959 4.68576 17.484 4.65151C16.7146 4.6127 15.943 4.64466 15.1603 4.64466ZM6.50447 5.50458H13.9587V3.13638H12.531C12.0429 3.13638 11.8735 3.00245 11.741 2.51618C11.5282 1.73464 10.8368 1.21565 10.0836 1.27348C9.4003 1.32599 8.83189 1.83661 8.62941 2.57401C8.51896 2.98038 8.32311 3.13486 7.91373 3.13638H6.50447V5.50458Z" fill="#292931" stroke="#292931" stroke-width="0.65"/>
</svg>
