<svg width="22" height="24" viewBox="0 0 22 24" fill="none" xmlns="http://www.w3.org/2000/svg">
<path d="M14.4935 17.9008H7.67884V19.0366C7.67884 20.9184 9.20434 22.4439 11.0861 22.4439C12.968 22.4439 14.4935 20.9184 14.4935 19.0366V17.9008Z" stroke="#747474" stroke-width="2.3" stroke-linecap="round" stroke-linejoin="round"/>
<path d="M3.13577 17.9008H19.0365C19.6638 17.9008 20.1723 17.3923 20.1723 16.765V16.0997C20.1723 15.7985 20.0527 15.5096 19.8397 15.2966L19.2595 14.7164C19.1167 14.5736 19.0365 14.38 19.0365 14.1782V9.95039C19.0365 5.5595 15.477 1.99999 11.0861 2C6.69527 2.00001 3.13577 5.55952 3.13577 9.95039V14.1782C3.13577 14.3801 3.05558 14.5737 2.91284 14.7164L2.33266 15.2966C2.11966 15.5096 2 15.7985 2 16.0997V16.765C2 17.3923 2.5085 17.9008 3.13577 17.9008Z" stroke="#747474" stroke-width="2.3" stroke-linecap="round" stroke-linejoin="round"/>
</svg>
