<svg width="35" height="15" viewBox="0 0 35 15" fill="none" xmlns="http://www.w3.org/2000/svg">
<g clip-path="url(#clip0_644_592)">
<path d="M13.7461 13.1505C13.7461 11.5784 14.8519 10.2394 16.3546 9.9916L16.49 9.96928C17.6933 9.77089 18.9195 9.77089 20.1228 9.96928L20.2582 9.9916C21.7609 10.2394 22.8667 11.5784 22.8667 13.1505C22.8667 13.83 22.3335 14.3808 21.6757 14.3808H14.9371C14.2793 14.3808 13.7461 13.83 13.7461 13.1505Z" stroke="#E40968" stroke-width="0.977208"/>
<path d="M20.9666 5.21947C20.9666 6.63617 19.7756 7.78464 18.3064 7.78464C16.8372 7.78464 15.6462 6.63617 15.6462 5.21947C15.6462 3.80276 16.8372 2.6543 18.3064 2.6543C19.7756 2.6543 20.9666 3.80276 20.9666 5.21947Z" stroke="#E40968" stroke-width="0.977208"/>
</g>
<g clip-path="url(#clip1_644_592)">
<path d="M23.5488 13.1505C23.5488 11.5784 24.6546 10.2394 26.1573 9.9916L26.2927 9.96928C27.496 9.77089 28.7222 9.77089 29.9256 9.96928L30.0609 9.9916C31.5637 10.2394 32.6694 11.5784 32.6694 13.1505C32.6694 13.83 32.1362 14.3808 31.4785 14.3808H24.7398C24.082 14.3808 23.5488 13.83 23.5488 13.1505Z" stroke="#E40968" stroke-width="0.977208"/>
<path d="M30.7693 5.21947C30.7693 6.63617 29.5783 7.78464 28.1091 7.78464C26.64 7.78464 25.449 6.63617 25.449 5.21947C25.449 3.80276 26.64 2.6543 28.1091 2.6543C29.5783 2.6543 30.7693 3.80276 30.7693 5.21947Z" stroke="#E40968" stroke-width="0.977208"/>
</g>
<g clip-path="url(#clip2_644_592)">
<path d="M3.94336 13.1505C3.94336 11.5784 5.04912 10.2394 6.55188 9.9916L6.68724 9.96928C7.89058 9.77089 9.11675 9.77089 10.3201 9.96928L10.4554 9.9916C11.9582 10.2394 13.064 11.5784 13.064 13.1505C13.064 13.83 12.5308 14.3808 11.873 14.3808H5.13433C4.47658 14.3808 3.94336 13.83 3.94336 13.1505Z" stroke="#E40968" stroke-width="0.977208"/>
<path d="M11.1639 5.21947C11.1639 6.63617 9.97285 7.78464 8.50368 7.78464C7.0345 7.78464 5.8435 6.63617 5.8435 5.21947C5.8435 3.80276 7.0345 2.6543 8.50368 2.6543C9.97285 2.6543 11.1639 3.80276 11.1639 5.21947Z" stroke="#E40968" stroke-width="0.977208"/>
</g>
<defs>
<clipPath id="clip0_644_592">
<rect width="13.9933" height="13.9933" fill="white" transform="translate(10.4883 0.699219)"/>
</clipPath>
<clipPath id="clip1_644_592">
<rect width="13.9933" height="13.9933" fill="white" transform="translate(20.291 0.699219)"/>
</clipPath>
<clipPath id="clip2_644_592">
<rect width="13.9933" height="13.9933" fill="white" transform="translate(0.685547 0.699219)"/>
</clipPath>
</defs>
</svg>
