<svg width="22" height="23" viewBox="0 0 22 23" fill="none" xmlns="http://www.w3.org/2000/svg">
<g clip-path="url(#clip0_1275_1914)">
<path d="M0.2536 6.44844C0.337596 5.99126 0.395194 5.52808 0.510389 5.0781C0.870375 3.67775 1.52675 2.4514 2.6523 1.50704C3.09033 1.12304 3.65832 0.920553 4.24048 0.940843C4.82264 0.961133 5.37515 1.20268 5.78538 1.61624C6.81494 2.6354 7.83929 3.65975 8.85845 4.68931C9.29337 5.10965 9.5444 5.68493 9.55676 6.28964C9.56913 6.89436 9.34182 7.47943 8.92445 7.91719C8.56447 8.30717 8.18168 8.67315 7.8037 9.04514C7.74781 9.09214 7.68659 9.13242 7.6213 9.16513C8.66886 11.1475 9.99841 12.8034 11.7755 14.0717C12.3539 14.4845 12.9755 14.8349 13.5755 15.2189C13.5949 15.236 13.6177 15.2487 13.6425 15.2561C13.6673 15.2636 13.6934 15.2656 13.719 15.2621C13.7446 15.2586 13.7692 15.2496 13.791 15.2357C13.8128 15.2218 13.8314 15.2034 13.8455 15.1817C14.1946 14.8217 14.551 14.4617 14.9086 14.1161C15.9058 13.131 17.2977 13.1334 18.2901 14.1221C19.256 15.0821 20.198 16.0733 21.1892 17.0092C22.2079 17.9692 22.1227 19.3011 21.4291 20.2719C20.4608 21.6314 19.1324 22.3442 17.4957 22.523C16.4086 22.643 15.355 22.4414 14.317 22.1522C12.1211 21.5402 10.17 20.4435 8.39647 19.0323C5.9543 17.11 3.81981 14.8262 2.06673 12.2598C1.27956 11.1007 0.675982 9.8515 0.398793 8.46556C0.337595 8.16197 0.299198 7.85479 0.25 7.5488L0.2536 6.44844ZM1.59274 7.02922C1.61794 7.28841 1.63234 7.592 1.67674 7.89198C1.86514 9.16033 2.38711 10.3003 3.08908 11.3538C4.83268 13.9528 6.98755 16.2507 9.46923 18.1576C11.0712 19.4031 12.8291 20.3691 14.8054 20.8923C15.8422 21.167 16.8861 21.3242 17.9649 21.0831C19.0196 20.8491 19.8092 20.2635 20.4008 19.3839C20.6564 19.0023 20.7608 18.4624 20.2676 17.9896C19.2836 17.0452 18.3333 16.0697 17.3685 15.1013C16.8609 14.5949 16.333 14.5973 15.8194 15.1085L14.611 16.3228C14.1934 16.7416 13.7123 16.8304 13.2047 16.5388C12.5675 16.1789 11.9291 15.8093 11.322 15.3977C9.17284 13.9433 7.58171 11.997 6.38415 9.71351C6.12736 9.22393 6.20536 8.75355 6.59534 8.35757C7.02853 7.92198 7.46891 7.4924 7.89849 7.05322C8.32807 6.61404 8.32327 6.05246 7.89849 5.62287C6.88973 4.61251 5.88017 3.60336 4.86981 2.5954C4.70625 2.41527 4.47926 2.30551 4.23649 2.28918C3.99373 2.27285 3.75409 2.35121 3.56787 2.5078C3.38402 2.65198 3.21372 2.81264 3.05909 2.98778C2.05593 4.13254 1.65154 5.49568 1.59274 7.02922Z" fill="#586ADA"/>
<path d="M20.0124 9.42571C20.0171 9.59486 19.9599 9.75991 19.8517 9.89C19.7435 10.0201 19.5916 10.1063 19.4244 10.1325C19.2586 10.1502 19.0921 10.1059 18.957 10.0082C18.8219 9.9105 18.7277 9.76629 18.6925 9.6033C18.5725 9.14132 18.5017 8.65654 18.3193 8.21976C17.4649 6.17024 15.9554 4.85989 13.7955 4.30311C13.6659 4.26951 13.5315 4.25871 13.3995 4.23592C13.2229 4.21166 13.0628 4.11946 12.9532 3.97894C12.8436 3.83842 12.7932 3.66068 12.8127 3.48355C12.8253 3.39403 12.8559 3.30799 12.9025 3.23059C12.9492 3.15318 13.0111 3.08601 13.0844 3.03311C13.1577 2.98021 13.2409 2.94267 13.3291 2.92275C13.4173 2.90282 13.5085 2.90092 13.5975 2.91717C16.1114 3.34315 17.9497 4.7171 19.1916 6.92261C19.608 7.65453 19.8805 8.45937 19.9944 9.29372C20.0124 9.34651 20.0124 9.40171 20.0124 9.42571Z" fill="#586ADA"/>
<path d="M12.9141 5.69336C13.2432 5.77182 13.5676 5.86836 13.8861 5.98254C15.632 6.70252 16.7659 7.97206 17.2339 9.81519C17.2709 9.95156 17.2867 10.0928 17.2807 10.234C17.2674 10.3961 17.1957 10.5479 17.0788 10.6611C16.962 10.7742 16.808 10.8411 16.6455 10.8492C16.483 10.8572 16.3231 10.806 16.1956 10.7049C16.0681 10.6039 15.9817 10.46 15.9524 10.3C15.6836 8.90323 14.8724 7.93247 13.6077 7.33009C13.3146 7.211 13.0119 7.11707 12.7029 7.0493C12.5684 7.01608 12.4471 6.94314 12.3546 6.83998C12.2622 6.73683 12.2029 6.60823 12.1845 6.47093C12.1681 6.33629 12.1939 6.19988 12.2584 6.08056C12.3229 5.96124 12.4229 5.86492 12.5445 5.80495C12.6644 5.75762 12.788 5.72029 12.9141 5.69336Z" fill="#586ADA"/>
<path d="M1.59375 7.02972C1.65735 5.49618 2.05693 4.13303 3.05049 2.98588C3.20513 2.81074 3.37543 2.65008 3.55927 2.5059C3.74549 2.3493 3.98514 2.27095 4.2279 2.28728C4.47066 2.30361 4.69766 2.41336 4.86122 2.59349C5.87158 3.60145 6.88114 4.61061 7.8899 5.62097C8.31828 6.05056 8.32188 6.61213 7.8899 7.05132C7.45791 7.4905 7.01993 7.92008 6.58675 8.35566C6.19677 8.74805 6.11877 9.22203 6.37556 9.71161C7.57551 11.9915 9.16425 13.9414 11.3134 15.3958C11.9205 15.8074 12.5589 16.1734 13.1961 16.5369C13.7037 16.8285 14.1848 16.7397 14.6024 16.3209L15.8168 15.1066C16.3304 14.5954 16.8583 14.593 17.3659 15.0994C18.3259 16.0594 19.2858 17.0433 20.265 17.9877C20.757 18.4605 20.6538 19.0004 20.3982 19.382C19.8066 20.2616 19.0171 20.8472 17.9623 21.0812C16.8823 21.3211 15.8396 21.1651 14.8028 20.8904C12.8277 20.3672 11.0686 19.4012 9.46663 18.1557C6.98729 16.2491 4.83448 13.952 3.09249 11.3543C2.39052 10.3008 1.86854 9.16083 1.68015 7.89248C1.63335 7.59249 1.61895 7.28891 1.59375 7.02972Z" fill="white"/>
</g>
<defs>
<clipPath id="clip0_1275_1914">
<rect width="21.7011" height="21.6159" fill="white" transform="translate(0.253906 0.939453)"/>
</clipPath>
</defs>
</svg>
