<svg width="10" height="12" viewBox="0 0 10 12" fill="none" xmlns="http://www.w3.org/2000/svg">
<path d="M4.69031 0.478748C4.84356 0.514533 4.99943 0.540051 5.14979 0.587568C6.07428 0.880883 6.79321 1.79515 6.89152 2.82527C7.00429 4.00968 6.60237 4.9213 5.69155 5.55017C5.67 5.56513 5.64897 5.58097 5.6169 5.60443C5.93795 5.71961 6.24335 5.88334 6.52456 6.09104C6.89232 6.3616 7.20863 6.71046 7.45536 7.11765C7.49689 7.18687 7.53842 7.20388 7.60835 7.19362C8.88007 7.00677 9.98857 8.17886 9.88999 9.60379C9.80298 10.8577 8.89295 11.7699 7.76659 11.7157C7.15885 11.6863 6.65626 11.3977 6.27037 10.8703C6.25046 10.8404 6.22404 10.8166 6.19359 10.8012C6.16314 10.7858 6.12968 10.7793 6.09636 10.7823C4.46346 10.7841 2.83038 10.7841 1.19713 10.7823C0.964232 10.7823 0.897728 10.7096 0.899043 10.45C0.901408 9.9892 0.879853 9.52577 0.914288 9.06761C1.0289 7.53415 1.72627 6.43862 2.96462 5.76957C3.08422 5.70504 3.21092 5.65782 3.34366 5.59827C3.29766 5.5663 3.25692 5.53756 3.21591 5.51028C2.34137 4.9125 1.8924 3.76564 2.10006 2.66043C2.31377 1.52207 3.12522 0.665884 4.14434 0.50368C4.1822 0.497521 4.21978 0.486961 4.25737 0.478455L4.69031 0.478748ZM5.97833 10.2987C5.64818 8.91127 5.96388 8.07268 7.08446 7.34027C7.07631 7.32531 7.06895 7.31094 7.05949 7.2951C6.76951 6.85375 6.38786 6.49754 5.94732 6.25706C5.27518 5.88719 4.56203 5.80477 3.83969 5.97078C2.57584 6.26117 1.76465 7.12029 1.42004 8.5109C1.27651 9.09049 1.33618 9.68767 1.33277 10.2787C1.33277 10.2843 1.33986 10.2899 1.34565 10.2987H5.97833ZM4.48186 0.982957C4.21983 0.982146 3.96023 1.03908 3.71796 1.1505C3.4757 1.26192 3.25554 1.42563 3.07012 1.63224C2.8847 1.83884 2.73767 2.08426 2.63747 2.35443C2.53726 2.6246 2.48586 2.91419 2.48621 3.20658C2.48384 4.43469 3.37994 5.43959 4.4766 5.43988C4.74425 5.45 5.01098 5.39997 5.26095 5.29276C5.51092 5.18556 5.73903 5.02336 5.9317 4.81583C6.12438 4.60829 6.27769 4.35965 6.38253 4.08467C6.48737 3.8097 6.5416 3.51402 6.54199 3.21519C6.54238 2.91637 6.48892 2.62051 6.38479 2.3452C6.28066 2.06989 6.128 1.82075 5.93586 1.61259C5.74372 1.40444 5.51604 1.24151 5.26635 1.13349C5.01666 1.02548 4.75005 0.974586 4.48238 0.983837L4.48186 0.982957ZM7.86884 11.2464C8.7447 11.2464 9.46889 10.4336 9.46678 9.45361C9.46494 8.46924 8.73655 7.65705 7.85701 7.65823C6.96013 7.65823 6.2575 8.45018 6.25986 9.45244C6.26228 9.92763 6.43261 10.3826 6.73387 10.7185C7.03513 11.0543 7.44298 11.244 7.86884 11.2464Z" fill="white" stroke="white" stroke-width="0.2"/>
<path d="M8.0895 9.19554C8.29979 9.19554 8.49773 9.19349 8.69671 9.19554C8.74807 9.1935 8.79842 9.21178 8.83888 9.24715C8.87933 9.28252 8.90727 9.3327 8.91778 9.38884C8.92895 9.44291 8.92285 9.49963 8.90054 9.54922C8.87822 9.59881 8.84109 9.63815 8.79555 9.66045C8.74945 9.6784 8.70085 9.68704 8.65203 9.68596C8.50114 9.68919 8.35026 9.68596 8.19964 9.68596H8.0895C8.0895 9.87779 8.0895 10.0594 8.0895 10.2409C8.09123 10.2956 8.08938 10.3504 8.08398 10.4049C8.07738 10.4658 8.05054 10.5216 8.00877 10.5615C7.96699 10.6013 7.91334 10.6222 7.85842 10.62C7.80351 10.6178 7.75134 10.5926 7.71226 10.5495C7.67317 10.5064 7.65001 10.4485 7.64737 10.3873C7.64001 10.282 7.64447 10.1755 7.64421 10.0693C7.64421 9.94584 7.64421 9.82206 7.64421 9.68596H7.18368C7.13794 9.68596 7.09194 9.68772 7.0462 9.68596C6.89979 9.67834 6.8112 9.5833 6.81251 9.43694C6.81383 9.29057 6.90793 9.19583 7.05198 9.19437C7.21575 9.19437 7.37977 9.19437 7.54353 9.19437H7.64395C7.64395 9.06032 7.64763 8.9339 7.64395 8.80749C7.62897 8.3725 7.67339 8.30328 7.86554 8.27952C8.03667 8.25811 8.09029 8.39684 8.09029 8.81394L8.0895 9.19554Z" fill="white"/>
</svg>
