<svg width="23" height="23" viewBox="0 0 23 23" fill="none" xmlns="http://www.w3.org/2000/svg">
<path d="M2.39069 20.6016C2.39069 20.4738 2.39069 20.38 2.39069 20.2863C2.39069 16.7206 2.39069 13.1554 2.39069 9.58969C2.39069 8.90882 2.60307 8.63 3.25871 8.43158C5.07981 7.88087 6.89975 7.32553 8.72258 6.77887C8.87767 6.73259 8.9176 6.65912 8.91702 6.50525C8.91181 4.91039 8.91297 3.31495 8.91413 1.72008C8.91471 1.05888 9.28506 0.6875 9.94649 0.6875C13.3549 0.6875 16.7633 0.6875 20.1717 0.6875C20.8899 0.6875 21.2538 1.04847 21.2538 1.76405C21.2544 7.93525 21.2538 14.1059 21.2538 20.2771C21.2538 20.3766 21.2538 20.4761 21.2538 20.6016C21.4437 20.6016 21.6149 20.5993 21.7857 20.6022C22.296 20.6103 22.6849 20.9655 22.7289 21.4629C22.7682 21.9043 22.4124 22.3393 21.9367 22.4267C21.8453 22.4435 21.7504 22.4516 21.6572 22.4516C15.555 22.4556 9.45345 22.4579 3.3513 22.4602C2.87447 22.4602 2.39822 22.4602 1.92139 22.451C1.36875 22.4412 0.953257 22.0339 0.959044 21.5185C0.964831 20.9967 1.37974 20.6068 1.93585 20.6022C2.07936 20.6004 2.2223 20.6016 2.39069 20.6016ZM10.7717 6.14428C10.8654 6.11883 10.9349 6.10147 11.0026 6.08123C11.8434 5.82554 12.6836 5.5658 13.5256 5.31474C13.9897 5.17649 14.4214 5.37838 14.6008 5.82959C14.6627 5.98462 14.6818 6.16568 14.6818 6.33518C14.6859 10.9966 14.6853 15.6573 14.6853 20.3187C14.6853 20.409 14.6853 20.4998 14.6853 20.5889C16.2732 20.5889 17.8292 20.5889 19.3899 20.5889C19.3899 14.5698 19.3899 8.56405 19.3899 2.54904C16.5127 2.54904 13.6494 2.54904 10.7717 2.54904C10.7717 3.74302 10.7717 4.93006 10.7717 6.14428ZM12.8746 7.44933C12.8034 7.46552 12.7606 7.47304 12.7195 7.48519C9.95112 8.31415 7.1833 9.14658 4.41317 9.96802C4.23667 10.0201 4.23957 10.1155 4.23957 10.2515C4.2413 13.6217 4.24073 16.9919 4.24073 20.3621C4.24073 20.4379 4.24073 20.5142 4.24073 20.59C5.39577 20.59 6.51956 20.59 7.66245 20.59C7.66245 20.5015 7.66245 20.424 7.66245 20.3465C7.66245 19.3145 7.66071 18.2825 7.6636 17.2505C7.66476 16.8282 7.90954 16.4863 8.29031 16.3561C8.91008 16.1438 9.50959 16.5991 9.51364 17.2956C9.51942 18.3062 9.51537 19.3162 9.51537 20.3268C9.51537 20.4113 9.51537 20.4957 9.51537 20.5906C10.6467 20.5906 11.7549 20.5906 12.8752 20.5906C12.8746 16.2109 12.8746 11.8411 12.8746 7.44933Z" fill="#292931"/>
</svg>
