<svg width="22" height="22" viewBox="0 0 22 22" fill="none" xmlns="http://www.w3.org/2000/svg">
<circle cx="11.4808" cy="10.5706" r="10.5003" fill="#E40968"/>
<path d="M12.5537 12.9445H10.572L10.5437 9.77373C10.723 9.82092 10.9447 9.84451 11.209 9.84451C11.7752 9.84451 12.214 9.72183 12.5254 9.47648C12.8368 9.22168 12.9925 8.87253 12.9925 8.429C12.9925 8.00435 12.8415 7.67878 12.5395 7.4523C12.2376 7.21638 11.8129 7.09842 11.2656 7.09842C10.5578 7.09842 9.78401 7.273 8.94414 7.62216V6.07925C9.77458 5.6546 10.6852 5.44227 11.6761 5.44227C12.7519 5.44227 13.5917 5.68763 14.1957 6.17834C14.8091 6.65961 15.1158 7.39096 15.1158 8.37238C15.1158 9.11788 14.8798 9.72655 14.408 10.1984C13.9456 10.6702 13.3322 10.9439 12.5678 11.0194L12.5537 12.9445ZM11.5487 16.2001C11.2184 16.2001 10.94 16.0916 10.7135 15.8746C10.4965 15.6481 10.388 15.365 10.388 15.0253C10.388 14.6855 10.4965 14.4072 10.7135 14.1901C10.94 13.9636 11.2184 13.8504 11.5487 13.8504C11.8978 13.8504 12.1809 13.9636 12.398 14.1901C12.6245 14.4072 12.7377 14.6855 12.7377 15.0253C12.7377 15.365 12.6245 15.6481 12.398 15.8746C12.1809 16.0916 11.8978 16.2001 11.5487 16.2001Z" fill="white"/>
</svg>
