<svg width="32" height="33" viewBox="0 0 32 33" fill="none" xmlns="http://www.w3.org/2000/svg">
<path d="M3.42866e-05 17.0095C-0.00549018 20.5846 1.18906 24.0581 3.39233 26.8736C5.5956 29.689 8.68008 31.6835 12.1517 32.5375C15.6232 33.3916 19.281 33.0557 22.539 31.5838C25.797 30.1118 28.4667 27.589 30.1204 24.4193C31.7741 21.2497 32.3161 17.6168 31.6597 14.1025C31.0032 10.5882 29.1862 7.39595 26.4997 5.0371C23.8133 2.67824 20.4128 1.28931 16.8432 1.09279C13.2735 0.896279 9.74115 1.90356 6.81201 3.95326L7.00714 3.3856C7.1577 2.92688 7.11986 2.42714 6.90195 1.99632C6.68404 1.5655 6.30392 1.23889 5.8452 1.08833C5.38648 0.93778 4.88674 0.975617 4.45592 1.19352C4.0251 1.41143 3.69849 1.79155 3.54794 2.25027L1.77399 7.57212C1.68602 7.8389 1.66266 8.12275 1.70584 8.40032C1.74901 8.67789 1.85749 8.94123 2.02234 9.16868C2.19407 9.41051 2.4237 9.60542 2.69021 9.73557C2.95673 9.86573 3.25163 9.92699 3.54794 9.91374H8.86979C9.34027 9.91374 9.79148 9.72684 10.1242 9.39416C10.4568 9.06148 10.6437 8.61027 10.6437 8.13979C10.6373 7.76431 10.5119 7.40055 10.2856 7.10089C10.0592 6.80123 9.74365 6.58113 9.38423 6.47227C11.7178 5.01379 14.4697 4.37177 17.2078 4.64705C19.9458 4.92233 22.5149 6.09931 24.5114 7.99314C26.5079 9.88696 27.8188 12.3903 28.2382 15.11C28.6576 17.8297 28.1616 20.6117 26.8283 23.019C25.495 25.4263 23.3998 27.3224 20.8719 28.4097C18.3439 29.497 15.5264 29.7138 12.8619 29.026C10.1974 28.3382 7.83684 26.7848 6.15099 24.6098C4.46514 22.4348 3.54951 19.7614 3.54794 17.0095C3.54794 16.5391 3.36104 16.0879 3.02836 15.7552C2.69568 15.4225 2.24447 15.2356 1.77399 15.2356C1.3035 15.2356 0.852291 15.4225 0.519611 15.7552C0.186931 16.0879 3.42866e-05 16.5391 3.42866e-05 17.0095V17.0095Z" fill="55505C"/>
</svg>
