<svg width="34" height="32" viewBox="0 0 34 32" fill="none" xmlns="http://www.w3.org/2000/svg">
<g clip-path="url(#clip0_2788_2649)">
<path d="M0.683594 15.3937C0.764661 14.8073 0.828704 14.2176 0.934901 13.6361C1.63775 9.77749 3.53714 6.62707 6.58282 4.17674C8.87627 2.31284 11.6684 1.1696 14.6084 0.890689C17.9322 0.556886 21.0654 1.21556 23.9635 2.89919C26.809 4.5544 28.9159 6.89671 30.3078 9.87739C30.6216 10.5482 30.834 11.267 31.0926 11.9647C31.1274 12.0597 31.1582 12.1563 31.215 12.322C31.433 11.7811 31.6203 11.3003 31.8189 10.8268C32.0435 10.2997 32.5445 10.0414 33.043 10.1771C33.6753 10.3517 33.9769 10.9624 33.724 11.6114C33.2789 12.7598 32.8152 13.9017 32.3596 15.0387C32.1432 15.5797 31.9348 16.123 31.7111 16.6631C31.3649 17.4883 30.551 17.6556 29.9203 17.0269C28.5811 15.6934 27.2462 14.356 25.9156 13.0148C25.4414 12.5381 25.4187 11.9176 25.8451 11.4871C26.2715 11.0567 26.899 11.081 27.3716 11.5464C27.9472 12.1149 28.5154 12.6932 29.0878 13.2658C29.1624 13.3413 29.2418 13.412 29.3188 13.4842L29.3999 13.4477C29.151 12.707 28.9467 11.9476 28.646 11.2288C27.314 8.05081 25.0855 5.69794 21.9928 4.19542C19.8656 3.16234 17.6039 2.75706 15.2416 2.92031C12.9393 3.07534 10.7185 3.83593 8.80324 5.12536C6.875 6.39832 5.30806 8.14919 4.25459 10.2079C3.11083 12.4212 2.60631 14.9103 2.79779 17.3951C2.98928 19.88 3.86917 22.262 5.33845 24.2732C7.36512 27.0402 10.0598 28.8213 13.4103 29.5523C15.911 30.1103 18.5203 29.9196 20.9138 29.0041C22.5566 28.3958 24.0639 27.4697 25.3498 26.2784C25.4844 26.1541 25.6132 26.0234 25.7551 25.9024C26.2058 25.5077 26.8187 25.5158 27.2143 25.9186C27.3126 26.0162 27.3898 26.133 27.4412 26.2617C27.4926 26.3904 27.5171 26.5283 27.5132 26.6668C27.5092 26.8054 27.4769 26.9417 27.4183 27.0673C27.3596 27.1928 27.2758 27.305 27.1722 27.3968C26.3939 28.0782 25.6205 28.7775 24.7661 29.3533C21.975 31.231 18.8685 32.0481 15.5164 31.9173C9.23938 31.6737 3.55903 27.4122 1.53966 21.4476C1.10883 20.2019 0.841234 18.9054 0.743584 17.5906C0.731502 17.5062 0.713075 17.4229 0.688458 17.3413L0.683594 15.3937Z" fill="#E40967"/>
<path d="M12.0768 13.2532C12.0768 12.51 12.0638 11.8091 12.0768 11.109C12.0861 10.5515 12.2075 10.0015 12.4338 9.49206C12.66 8.98258 12.9864 8.52401 13.3935 8.14375C13.8006 7.76349 14.2801 7.46934 14.8032 7.27887C15.3263 7.0884 15.8824 7.00551 16.4382 7.03517C18.5459 7.13344 20.2888 8.89748 20.3488 11.0059C20.3699 11.7368 20.3529 12.4727 20.3529 13.2532C20.6772 13.2532 20.9876 13.2532 21.2957 13.2532C22.0034 13.2605 22.4266 13.6747 22.4306 14.3805C22.4339 17.092 22.4339 19.8033 22.4306 22.5144C22.4306 23.2007 22.0034 23.6254 21.3168 23.6262C17.9201 23.6295 14.5236 23.6295 11.1275 23.6262C10.4263 23.6262 10.0071 23.199 10.0063 22.4892C10.0031 19.789 10.0031 17.0885 10.0063 14.3878C10.0063 13.6796 10.4271 13.2613 11.1315 13.2507C11.4307 13.2532 11.7314 13.2532 12.0768 13.2532ZM18.2541 13.2394C18.2541 12.4223 18.3173 11.6288 18.2379 10.8508C18.1349 9.84204 17.2261 9.11108 16.2209 9.11108C15.2335 9.11108 14.3142 9.8258 14.2056 10.8166C14.118 11.6126 14.1878 12.4256 14.1878 13.2442L18.2541 13.2394Z" fill="#E40967"/>
</g>
<defs>
<clipPath id="clip0_2788_2649">
<rect width="33.1304" height="31.1225" fill="white" transform="translate(0.683594 0.808594)"/>
</clipPath>
</defs>
</svg>
