<svg width="37" height="37" viewBox="0 0 37 37" fill="none" xmlns="http://www.w3.org/2000/svg">
<rect width="36.2174" height="36.9565" rx="6" fill="url(#paint0_linear_581_1970)"/>
<path fill-rule="evenodd" clip-rule="evenodd" d="M21.0838 20.4271C21.4997 20.0026 22.1742 20.0026 22.5902 20.4271L28.4489 26.4054C28.8649 26.8299 28.8649 27.5181 28.4489 27.9426C28.0329 28.3671 27.3584 28.3671 26.9424 27.9426L21.0838 21.9643C20.6678 21.5398 20.6678 20.8516 21.0838 20.4271Z" fill="white"/>
<path fill-rule="evenodd" clip-rule="evenodd" d="M17.0435 10.8696C14.102 10.8696 11.7174 13.3028 11.7174 16.3044C11.7174 19.3059 14.102 21.7392 17.0435 21.7392C19.985 21.7392 22.3696 19.3059 22.3696 16.3044C22.3696 13.3028 19.985 10.8696 17.0435 10.8696ZM9.58698 16.3044C9.58698 12.1022 12.9254 8.69568 17.0435 8.69568C21.1616 8.69568 24.5 12.1022 24.5 16.3044C24.5 20.5065 21.1616 23.9131 17.0435 23.9131C12.9254 23.9131 9.58698 20.5065 9.58698 16.3044Z" fill="white"/>
<defs>
<linearGradient id="paint0_linear_581_1970" x1="-0.532609" y1="19.0217" x2="36.2223" y2="16.9336" gradientUnits="userSpaceOnUse">
<stop stop-color="#F9A177"/>
<stop offset="1" stop-color="#E67A21"/>
</linearGradient>
</defs>
</svg>
