<svg width="23" height="23" viewBox="0 0 23 23" fill="none" xmlns="http://www.w3.org/2000/svg">
<path d="M22.5595 20.4278L17.9503 15.8513C19.2061 14.193 19.9557 12.1365 19.9557 9.90378C19.9557 4.44593 15.478 0 9.97456 0C4.47113 0 0 4.44593 0 9.90378C0 15.3616 4.4777 19.8076 9.97456 19.8076C12.1378 19.8076 14.1367 19.1221 15.7739 17.9534L20.4094 22.5561C20.7053 22.8498 21.0932 23 21.4811 23C21.8691 23 22.257 22.8498 22.5529 22.5561C23.1512 21.9685 23.1512 21.0153 22.5595 20.4278ZM3.03774 9.90378C3.03774 6.10417 6.15437 3.00965 9.98113 3.00965C13.8079 3.00965 16.9245 6.10417 16.9245 9.90378C16.9245 13.7034 13.8079 16.7979 9.98113 16.7979C6.1478 16.7979 3.03774 13.7099 3.03774 9.90378Z" fill="#292931"/>
</svg>
