<svg width="194" height="134" viewBox="0 0 194 134" fill="none" xmlns="http://www.w3.org/2000/svg">
<path d="M152.828 64.0238C139.748 23.6568 69.4648 21.9019 64.0675 67.1926C64.0675 67.1926 59.8973 68.021 56.2248 67.4568C36.1847 64.3779 1.11691 102.906 28.0303 132.35H178.326C194.587 104.233 182.907 75.4623 152.828 64.0238Z" fill="#F6F5F5"/>
<path d="M116.715 89.302L116.456 89.0494C133.232 71.7338 133.898 62.2637 134.907 47.9323C135.265 42.8534 135.67 37.1136 136.831 30.1829C128.886 33.8892 122.447 39.025 117.685 45.4491C113.827 50.6557 111.054 56.7174 109.448 63.4655C106.708 74.9651 108.327 84.5999 108.343 84.696L107.987 84.7584C107.97 84.6617 106.339 74.9644 109.092 63.3941C110.711 56.5953 113.502 50.4876 117.39 45.2391C122.25 38.6757 128.846 33.4506 136.992 29.7059L137.303 29.5625L137.245 29.9016C136.042 36.9667 135.631 42.8047 135.268 47.9522C134.254 62.3694 133.583 71.8924 116.715 89.302Z" fill="#DADADA"/>
<path d="M113.55 85.5853L113.199 85.4947C113.268 85.2346 119.947 59.3452 128.351 44.9727L128.664 45.1559C120.284 59.4846 113.616 85.3259 113.55 85.5853Z" fill="#DADADA"/>
<path d="M122.815 57.1364L122.454 57.1233C122.454 57.0718 122.607 51.8749 119.902 46.8729L120.22 46.6992C122.973 51.7918 122.817 57.0835 122.815 57.1364Z" fill="#DADADA"/>
<path d="M118.958 67.6644L118.703 67.407C122.547 63.5745 127.57 62.3906 127.62 62.3789L127.7 62.7331C127.651 62.744 122.726 63.9074 118.958 67.6644Z" fill="#DADADA"/>
<path d="M129.473 100.399L129.438 100.037C135.979 99.3863 141.285 94.9855 145.659 86.5847C149.534 79.14 152.196 69.6288 154.77 60.4305C156.439 54.4669 158.018 48.8266 159.861 43.9426C141.036 48.6653 133.233 63.6473 133.156 63.799L132.834 63.6336C132.912 63.4799 140.876 48.1759 160.111 43.5068L160.445 43.4258L160.322 43.7484C158.433 48.69 156.823 54.4408 155.12 60.5286C152.54 69.7448 149.873 79.2745 145.98 86.7529C141.544 95.271 136.145 99.735 129.473 100.399Z" fill="#DADADA"/>
<path d="M127.869 91.4785L127.539 91.3316C127.648 91.0824 138.645 66.3606 147.882 59.1719L148.104 59.4595C144.317 62.4052 139.62 68.8726 134.518 78.1615C130.657 85.1909 127.897 91.4167 127.869 91.4785Z" fill="#DADADA"/>
<path d="M140.02 68.804L139.664 68.7354C139.67 68.708 140.18 65.9084 140.634 59.1445L140.994 59.1692C140.538 65.9612 140.025 68.7766 140.02 68.804Z" fill="#DADADA"/>
<path d="M133.857 79.3328L133.652 79.0343C133.702 78.9993 138.726 75.56 145.32 74.0508L145.4 74.4049C138.873 75.8991 133.907 79.2978 133.857 79.3328Z" fill="#DADADA"/>
<path d="M46.271 124.127C30.0257 107.359 29.3797 98.1885 28.4028 84.306C28.0534 79.3458 27.6576 73.7247 26.4988 66.9211L26.4414 66.582L26.7525 66.7255C44.527 74.8929 51.174 88.877 53.6194 99.168C56.2705 110.311 54.7002 119.651 54.6845 119.744L54.3283 119.681C54.344 119.589 55.9006 110.312 53.2645 99.2393C50.8472 89.0918 44.3089 75.3253 26.9097 67.1997C28.0268 73.8682 28.4137 79.3946 28.7596 84.2799C29.7317 98.0829 30.3737 107.204 46.5273 123.874L46.271 124.127Z" fill="#DADADA"/>
<path d="M49.3117 120.544C49.2482 120.294 42.8261 95.4097 34.7578 81.6136L35.0695 81.4297C43.1638 95.2704 49.5982 120.203 49.6618 120.453L49.3117 120.544Z" fill="#DADADA"/>
<path d="M40.3922 93.1479C40.3922 93.0971 40.2398 88.0004 42.8916 83.0938L43.2095 83.2667C40.6069 88.082 40.7518 93.0848 40.7532 93.1349L40.3922 93.1479Z" fill="#DADADA"/>
<path d="M44.107 103.288C40.4796 99.672 35.7393 98.5526 35.6914 98.541L35.7721 98.1875C35.8199 98.1985 40.6587 99.3385 44.362 103.031L44.107 103.288Z" fill="#DADADA"/>
<path d="M35.1036 130.5C21.1465 129.196 15.5591 113.663 10.6294 99.9579C8.96272 95.3251 7.38899 90.9497 5.56369 87.1837L5.40234 86.8516L5.76262 86.9271C15.1913 88.8962 21.6913 93.0259 25.4814 96.1432C29.5949 99.5248 31.5049 102.486 31.5241 102.516L31.2192 102.712C31.1453 102.596 23.6828 91.1755 6.04906 87.3588C7.8149 91.065 9.34898 95.3285 10.9712 99.8343C15.8647 113.438 21.4104 128.856 35.1391 130.138L35.1036 130.5Z" fill="#DADADA"/>
<path d="M36.4946 123.746C36.3886 123.557 25.8462 104.761 17.1914 99.2482L17.3849 98.9414C26.117 104.501 36.7037 123.379 36.8104 123.569L36.4946 123.746Z" fill="#DADADA"/>
<path d="M24.8497 106.404C24.8449 106.383 24.3294 104.238 23.8242 99.0826L24.1838 99.0469C24.689 104.171 25.199 106.297 25.2038 106.317L24.8497 106.404Z" fill="#DADADA"/>
<path d="M30.7607 114.482C30.7136 114.455 26.0231 111.817 19.8984 110.606L19.9668 110.25C26.1503 111.473 30.8893 114.139 30.9364 114.162L30.7607 114.482Z" fill="#DADADA"/>
<path d="M164.867 132.104L164.782 131.752C180.149 127.984 183.046 111.411 185.848 95.3848C186.832 89.7568 187.848 83.9463 189.403 78.9127C174.106 81.855 165.441 92.4589 160.857 100.866C155.85 110.048 154.495 118.665 154.483 118.751L154.125 118.697C154.138 118.61 155.5 109.939 160.534 100.702C165.183 92.1679 174.009 81.389 189.633 78.5002L189.929 78.4453L189.837 78.7336C188.24 83.8077 187.205 89.7239 186.205 95.4459C183.382 111.589 180.464 128.28 164.867 132.104Z" fill="#DADADA"/>
<path d="M163.552 123.019L163.203 122.922C163.259 122.716 168.925 102.494 178.141 94.5078L178.376 94.7823C169.248 102.703 163.608 122.819 163.552 123.019Z" fill="#DADADA"/>
<path d="M170.065 106.065L169.711 105.992C169.719 105.95 170.546 101.83 170.258 95.7796L170.619 95.7617C170.907 101.859 170.07 106.022 170.065 106.065Z" fill="#DADADA"/>
<path d="M165.191 114.867L164.969 114.58C165.019 114.541 170.076 110.621 177.062 108.129L177.183 108.472C170.251 110.944 165.241 114.828 165.191 114.867Z" fill="#DADADA"/>
<path d="M129.411 57.8532C129.178 57.8533 128.951 57.7842 128.757 57.6546C128.564 57.5249 128.413 57.3406 128.324 57.1249C128.235 56.9092 128.212 56.6718 128.257 56.4428C128.302 56.2138 128.414 56.0034 128.579 55.8382C128.743 55.673 128.952 55.5605 129.181 55.5149C129.409 55.4693 129.645 55.4927 129.86 55.582C130.075 55.6713 130.259 55.8226 130.388 56.0168C130.517 56.2109 130.586 56.4392 130.586 56.6727C130.586 56.9855 130.462 57.2855 130.242 57.5068C130.021 57.7281 129.723 57.8526 129.411 57.8532V57.8532ZM129.411 55.8559C129.25 55.8558 129.092 55.9037 128.958 55.9934C128.824 56.0832 128.72 56.2108 128.658 56.3602C128.596 56.5096 128.58 56.674 128.612 56.8327C128.643 56.9913 128.721 57.137 128.835 57.2514C128.948 57.3657 129.094 57.4436 129.252 57.4751C129.41 57.5066 129.573 57.4904 129.722 57.4284C129.871 57.3665 129.998 57.2616 130.088 57.1271C130.177 56.9926 130.225 56.8344 130.224 56.6727C130.224 56.4562 130.138 56.2487 129.986 56.0956C129.833 55.9425 129.627 55.8563 129.411 55.8559V55.8559Z" fill="#DADADA"/>
<path d="M31.9415 76.0993C31.7089 76.0993 31.4816 76.03 31.2882 75.9003C31.0948 75.7706 30.9441 75.5862 30.8551 75.3705C30.7661 75.1548 30.7428 74.9175 30.7882 74.6885C30.8336 74.4595 30.9456 74.2491 31.11 74.084C31.2745 73.9189 31.484 73.8065 31.7121 73.761C31.9402 73.7154 32.1766 73.7388 32.3915 73.8281C32.6063 73.9175 32.79 74.0688 32.9192 74.2629C33.0484 74.4571 33.1173 74.6853 33.1173 74.9188C33.117 75.2318 32.993 75.5318 32.7725 75.7531C32.5521 75.9744 32.2532 76.0989 31.9415 76.0993V76.0993ZM31.9415 74.102C31.7806 74.102 31.6233 74.1499 31.4895 74.2397C31.3557 74.3294 31.2514 74.457 31.1899 74.6062C31.1283 74.7555 31.1122 74.9197 31.1436 75.0781C31.175 75.2365 31.2524 75.3821 31.3662 75.4963C31.48 75.6105 31.625 75.6883 31.7828 75.7198C31.9406 75.7513 32.1041 75.7352 32.2528 75.6734C32.4014 75.6115 32.5285 75.5069 32.6179 75.3725C32.7073 75.2382 32.755 75.0803 32.755 74.9188C32.7546 74.7023 32.6688 74.4947 32.5163 74.3417C32.3638 74.1886 32.1571 74.1024 31.9415 74.102V74.102Z" fill="#DADADA"/>
<path d="M140.984 102.395C140.751 102.395 140.524 102.326 140.331 102.196C140.138 102.066 139.987 101.882 139.898 101.666C139.809 101.451 139.786 101.214 139.831 100.985C139.877 100.756 139.988 100.546 140.153 100.381C140.317 100.216 140.527 100.103 140.754 100.058C140.982 100.012 141.219 100.036 141.433 100.125C141.648 100.214 141.832 100.365 141.961 100.56C142.09 100.754 142.159 100.982 142.159 101.215C142.159 101.528 142.035 101.828 141.814 102.049C141.594 102.27 141.295 102.394 140.984 102.395V102.395ZM140.984 100.398C140.823 100.398 140.665 100.446 140.531 100.536C140.397 100.626 140.293 100.754 140.231 100.903C140.17 101.052 140.154 101.217 140.185 101.375C140.217 101.534 140.294 101.68 140.408 101.794C140.522 101.908 140.667 101.986 140.825 102.017C140.983 102.049 141.147 102.033 141.296 101.971C141.445 101.909 141.572 101.804 141.661 101.669C141.75 101.535 141.798 101.377 141.798 101.215C141.798 100.998 141.712 100.791 141.559 100.638C141.406 100.484 141.2 100.398 140.984 100.398Z" fill="#DADADA"/>
<path d="M180.98 89.8049C180.747 89.8049 180.52 89.7357 180.327 89.6061C180.134 89.4765 179.983 89.2922 179.894 89.0766C179.805 88.861 179.782 88.6238 179.827 88.395C179.873 88.1661 179.985 87.9559 180.149 87.7909C180.313 87.6259 180.523 87.5135 180.751 87.468C180.979 87.4225 181.215 87.4458 181.43 87.5351C181.644 87.6244 181.828 87.7756 181.957 87.9697C182.086 88.1637 182.155 88.3918 182.155 88.6251C182.155 88.9379 182.031 89.2378 181.81 89.459C181.59 89.6802 181.291 89.8046 180.98 89.8049ZM180.98 87.8077C180.819 87.8077 180.661 87.8556 180.528 87.9455C180.394 88.0353 180.289 88.1629 180.228 88.3123C180.166 88.4617 180.15 88.626 180.181 88.7846C180.213 88.9432 180.29 89.0888 180.404 89.2031C180.518 89.3175 180.663 89.3953 180.821 89.4269C180.979 89.4584 181.143 89.4422 181.291 89.3803C181.44 89.3185 181.567 89.2137 181.657 89.0793C181.746 88.9448 181.794 88.7868 181.794 88.6251C181.794 88.4083 181.708 88.2003 181.556 88.0469C181.403 87.8935 181.196 87.8072 180.98 87.807V87.8077Z" fill="#DADADA"/>
<path d="M137.095 86.446C137.544 86.446 137.908 86.0803 137.908 85.6292C137.908 85.1782 137.544 84.8125 137.095 84.8125C136.645 84.8125 136.281 85.1782 136.281 85.6292C136.281 86.0803 136.645 86.446 137.095 86.446Z" fill="#DADADA"/>
<path d="M174.556 116.528C175.005 116.528 175.369 116.162 175.369 115.711C175.369 115.26 175.005 114.895 174.556 114.895C174.106 114.895 173.742 115.26 173.742 115.711C173.742 116.162 174.106 116.528 174.556 116.528Z" fill="#DADADA"/>
<path d="M115.484 62.2988C115.484 61.8478 115.121 61.4816 114.671 61.4809C114.222 61.4803 113.857 61.8455 113.857 62.2965C113.856 62.7476 114.22 63.1138 114.669 63.1144C115.118 63.1151 115.483 62.7499 115.484 62.2988Z" fill="#DADADA"/>
<path d="M24.8292 119.188C25.2784 119.188 25.6427 118.823 25.6427 118.371C25.6427 117.92 25.2784 117.555 24.8292 117.555C24.3799 117.555 24.0156 117.92 24.0156 118.371C24.0156 118.823 24.3799 119.188 24.8292 119.188Z" fill="#DADADA"/>
<path d="M48.0035 62.7813C47.897 62.7815 47.791 62.766 47.689 62.7353L45.4405 62.0606C45.3027 62.0194 45.1744 61.9512 45.0629 61.8601C44.9514 61.769 44.8588 61.6567 44.7906 61.5297C44.7223 61.4026 44.6797 61.2633 44.6651 61.1197C44.6505 60.9761 44.6643 60.831 44.7056 60.6928L45.4726 58.1375C44.5225 57.6312 43.6481 56.9933 42.8748 56.2426L40.6817 57.7292C40.4407 57.8919 40.1454 57.9524 39.8602 57.8973C39.575 57.8423 39.323 57.6762 39.1593 57.4354L37.8439 55.489C37.7635 55.3695 37.7072 55.2352 37.6785 55.0939C37.6497 54.9526 37.6489 54.8069 37.6762 54.6653C37.7035 54.5237 37.7584 54.3888 37.8376 54.2685C37.9168 54.1481 38.0188 54.0446 38.1379 53.9639L40.305 52.4951C39.845 51.406 39.5563 50.2518 39.4491 49.0738L36.8773 48.7779C36.7344 48.7617 36.5961 48.7174 36.4703 48.6475C36.3445 48.5776 36.2337 48.4835 36.1442 48.3705C36.0546 48.2575 35.9882 48.128 35.9486 47.9892C35.9089 47.8504 35.897 47.7052 35.9134 47.5618L36.182 45.2282C36.216 44.9386 36.3629 44.6742 36.5906 44.4931C36.8183 44.3119 37.1082 44.2288 37.3968 44.2619L39.9352 44.5542C40.2756 43.4842 40.7716 42.4705 41.4071 41.546L39.6535 39.721C39.5539 39.6171 39.4757 39.4944 39.4233 39.36C39.371 39.2257 39.3455 39.0823 39.3484 38.9381C39.3512 38.7938 39.3824 38.6516 39.44 38.5194C39.4976 38.3872 39.5807 38.2678 39.6843 38.1679L41.3749 36.5399C41.5849 36.3381 41.8658 36.2281 42.1564 36.2337C42.4469 36.2394 42.7234 36.3603 42.9254 36.5701L44.6625 38.3786C45.6462 37.7454 46.7212 37.268 47.8496 36.9633L47.6883 34.4706C47.679 34.3263 47.6982 34.1816 47.7448 34.0448C47.7914 33.908 47.8644 33.7818 47.9597 33.6734C48.0549 33.565 48.1706 33.4765 48.3 33.4131C48.4294 33.3497 48.57 33.3125 48.7138 33.3038L51.0573 33.1507C51.3466 33.1319 51.6316 33.2292 51.8495 33.4212C52.0674 33.6132 52.2005 33.8843 52.2194 34.1748L52.3815 36.6682C53.5393 36.8234 54.6664 37.1568 55.7231 37.6565L57.2127 35.6366C57.3859 35.4026 57.6442 35.2468 57.9314 35.2033C58.2186 35.1598 58.5112 35.2322 58.7454 35.4047L60.635 36.8C60.7507 36.8856 60.8484 36.9932 60.9226 37.1168C60.9968 37.2403 61.0461 37.3773 61.0675 37.5199C61.089 37.6626 61.0822 37.8081 61.0477 37.9481C61.0131 38.0881 60.9514 38.2199 60.8661 38.336L59.3621 40.3731C60.1105 41.2072 60.7324 42.1476 61.2079 43.1637L63.6874 42.546C63.9693 42.4758 64.2673 42.5205 64.5164 42.6703C64.7655 42.8202 64.9452 43.063 65.0164 43.3456L65.5845 45.6256C65.6193 45.7657 65.6262 45.9112 65.6049 46.054C65.5836 46.1968 65.5344 46.3339 65.4603 46.4576C65.3861 46.5812 65.2884 46.689 65.1727 46.7747C65.057 46.8604 64.9256 46.9224 64.786 46.9571L62.2744 47.5851C62.3203 48.7676 62.1819 49.95 61.8642 51.0895L64.2084 52.257C64.4677 52.3874 64.6649 52.616 64.7564 52.8923C64.8479 53.1686 64.8264 53.4702 64.6965 53.7306L63.6444 55.8314C63.5131 56.0916 63.2847 56.2891 63.0089 56.3807C62.7332 56.4724 62.4325 56.4509 62.1725 56.3208L59.8051 55.1327C59.1356 55.9782 58.3508 56.7247 57.4739 57.3503L58.5663 59.7868C58.6252 59.9186 58.6576 60.0607 58.6617 60.205C58.6658 60.3493 58.6415 60.4931 58.5902 60.628C58.5388 60.7629 58.4615 60.8863 58.3627 60.9911C58.2638 61.096 58.1453 61.1803 58.0139 61.2391L55.8714 62.2C55.6067 62.319 55.3058 62.3281 55.0344 62.2252C54.763 62.1223 54.5431 61.9159 54.4228 61.6509L53.329 59.2041C52.1808 59.4595 51.0003 59.5368 49.8288 59.4333L49.059 62.0016C48.9898 62.2282 48.8498 62.4263 48.6597 62.5668C48.4696 62.7072 48.2395 62.7824 48.0035 62.7813ZM42.9165 55.7752L43.0218 55.8802C43.8301 56.686 44.757 57.3621 45.77 57.885L45.9067 57.9536L45.0536 60.7978C45.0258 60.8903 45.0166 60.9874 45.0263 61.0835C45.0361 61.1796 45.0646 61.2729 45.1104 61.3579C45.1561 61.4429 45.2181 61.518 45.2928 61.5789C45.3676 61.6397 45.4535 61.6852 45.5458 61.7127L47.7956 62.3873C47.9821 62.4433 48.1831 62.4228 48.3545 62.3303C48.526 62.2378 48.6539 62.0809 48.7103 61.8939L49.5663 59.0401L49.7146 59.0552C50.9445 59.1797 52.1864 59.0986 53.3898 58.8149L53.5354 58.7806L54.753 61.4992C54.8333 61.6771 54.9805 61.8159 55.1624 61.8852C55.3443 61.9545 55.5461 61.9488 55.7238 61.8691L57.8663 60.9083C57.9543 60.8691 58.0337 60.8129 58.1 60.7428C58.1663 60.6727 58.2181 60.5902 58.2525 60.5C58.287 60.4097 58.3033 60.3136 58.3006 60.217C58.2979 60.1204 58.2762 60.0253 58.2368 59.9371L57.0234 57.2281L57.1471 57.1423C58.0835 56.492 58.9145 55.7008 59.6109 54.7964L59.7018 54.6784L62.3345 55.9996C62.5087 56.0872 62.7104 56.1019 62.8953 56.0404C63.0803 55.9789 63.2334 55.8462 63.321 55.6715L64.3731 53.5713C64.4163 53.4851 64.4422 53.3911 64.4491 53.2948C64.4561 53.1985 64.4441 53.1017 64.4137 53.0101C64.3833 52.9185 64.3353 52.8337 64.2722 52.7608C64.2092 52.6879 64.1324 52.6282 64.0463 52.5851L61.4376 51.2748L61.4807 51.1293C61.8292 49.9361 61.9739 48.6923 61.9086 47.4506L61.9004 47.301L64.7033 46.6009C64.7969 46.5778 64.885 46.5363 64.9626 46.4789C65.0403 46.4215 65.1058 46.3493 65.1555 46.2664C65.2053 46.1835 65.2382 46.0915 65.2525 45.9958C65.2667 45.9001 65.262 45.8025 65.2386 45.7086L64.6705 43.4279C64.6229 43.239 64.5027 43.0766 64.3361 42.9764C64.1695 42.8762 63.9702 42.8463 63.7818 42.8933L61.011 43.5858L60.9488 43.4485C60.4608 42.3694 59.8037 41.3758 59.0025 40.5055L58.9006 40.395L60.5755 38.1184C60.6331 38.0408 60.6748 37.9525 60.6982 37.8586C60.7217 37.7647 60.7263 37.6671 60.712 37.5714C60.6976 37.4757 60.6645 37.3837 60.6146 37.3009C60.5646 37.2181 60.4988 37.1461 60.421 37.0889L58.5308 35.6936C58.3739 35.5787 58.1781 35.5306 57.9861 35.5598C57.7941 35.5889 57.6213 35.693 57.5053 35.8494L55.8379 38.1109L55.7012 38.0423C54.5966 37.5016 53.4095 37.1506 52.1894 37.0038L52.041 36.9853L51.8599 34.1926C51.8465 33.9977 51.7568 33.816 51.6103 33.6874C51.4639 33.5588 51.2726 33.4936 51.0785 33.5063L48.7356 33.6593C48.5419 33.6725 48.3613 33.7622 48.2332 33.9086C48.1051 34.0551 48.04 34.2465 48.052 34.4411L48.2332 37.2338L48.0875 37.2708C46.8962 37.5758 45.764 38.0785 44.7377 38.7581L44.6119 38.8412L42.6649 36.8213C42.5294 36.6807 42.344 36.5998 42.1491 36.596C41.9543 36.5923 41.7659 36.6661 41.6251 36.8014L39.9325 38.43C39.863 38.4968 39.8073 38.5767 39.7686 38.6651C39.7299 38.7535 39.709 38.8486 39.707 38.9452C39.705 39.0417 39.7221 39.1377 39.7571 39.2276C39.7922 39.3175 39.8445 39.3996 39.9113 39.4692L41.8719 41.5096L41.7851 41.6325C41.1024 42.5992 40.5789 43.6698 40.2346 44.8034L40.1909 44.9482L37.3538 44.6215C37.258 44.61 37.1609 44.6177 37.0681 44.644C36.9752 44.6703 36.8885 44.7148 36.8128 44.7748C36.7372 44.8349 36.6741 44.9094 36.6272 44.9941C36.5803 45.0787 36.5505 45.1718 36.5396 45.268L36.2709 47.6016C36.2599 47.6975 36.2678 47.7948 36.2943 47.8877C36.3208 47.9805 36.3653 48.0672 36.4253 48.1428C36.4852 48.2184 36.5595 48.2813 36.6437 48.328C36.728 48.3747 36.8206 48.4042 36.9163 48.4149L39.7827 48.7443L39.7944 48.8933C39.8911 50.1331 40.1952 51.3478 40.694 52.4862L40.7549 52.6235L38.3382 54.2618C38.2584 54.3156 38.19 54.3848 38.1369 54.4652C38.0838 54.5457 38.047 54.6359 38.0287 54.7307C38.0104 54.8254 38.011 54.9229 38.0303 55.0175C38.0496 55.112 38.0873 55.2018 38.1413 55.2817L39.4566 57.2281C39.5664 57.3896 39.7354 57.5009 39.9266 57.5376C40.1179 57.5744 40.3159 57.5337 40.4773 57.4244L42.9165 55.7752ZM50.8412 54.6935C47.4073 54.6935 44.5087 52.0168 44.2838 48.5377C44.0486 44.9146 46.8023 41.7739 50.4215 41.5371C51.2844 41.4748 52.1511 41.5845 52.9716 41.8598C53.7921 42.1352 54.5502 42.5708 55.2024 43.1415C55.8545 43.7122 56.3878 44.4069 56.7714 45.1854C57.155 45.9639 57.3815 46.8109 57.4377 47.6776C57.4939 48.5443 57.3788 49.4136 57.099 50.2355C56.8191 51.0574 56.3801 51.8156 55.8072 52.4664C55.2343 53.1172 54.5389 53.6479 53.7608 54.0277C52.9828 54.4076 52.1376 54.6292 51.274 54.6798V54.6798C51.129 54.6894 50.9841 54.6935 50.8412 54.6935ZM50.8597 41.8864C50.723 41.8864 50.5849 41.8908 50.4454 41.8995C47.0272 42.1232 44.4226 45.0903 44.6441 48.5137C44.8656 51.9372 47.8332 54.5404 51.2514 54.316C52.8581 54.2142 54.3622 53.4887 55.4454 52.2931C56.5287 51.0976 57.106 49.5257 57.0551 47.9103C57.0043 46.2949 56.3294 44.7628 55.1732 43.6382C54.0169 42.5136 52.4702 41.8849 50.8604 41.8851L50.8597 41.8864Z" fill="#DADADA"/>
<path d="M106.154 46.457H52.3554C50.4936 46.457 48.9844 47.9722 48.9844 49.8414V128.788C48.9844 130.657 50.4936 132.172 52.3554 132.172H106.154C108.016 132.172 109.525 130.657 109.525 128.788V49.8414C109.525 47.9722 108.016 46.457 106.154 46.457Z" fill="#E40967"/>
<path d="M89.9243 50.2266H68.5859V53.823H89.9243V50.2266Z" fill="#FF88BB"/>
<path d="M103.486 59.3047H55.0234V70.0953H103.486V59.3047Z" fill="#FF88BB"/>
<path d="M101.362 60.7812H57.1406V68.6199H101.362V60.7812Z" fill="white"/>
<path d="M90.8439 75.1016H87.5515C86.563 75.1016 85.7617 75.906 85.7617 76.8984V77.6623C85.7617 78.6546 86.563 79.4591 87.5515 79.4591H90.8439C91.8323 79.4591 92.6336 78.6546 92.6336 77.6623V76.8984C92.6336 75.906 91.8323 75.1016 90.8439 75.1016Z" fill="#8B013D"/>
<path d="M101.695 75.1016H98.403C97.4146 75.1016 96.6133 75.906 96.6133 76.8984V77.6623C96.6133 78.6546 97.4146 79.4591 98.403 79.4591H101.695C102.684 79.4591 103.485 78.6546 103.485 77.6623V76.8984C103.485 75.906 102.684 75.1016 101.695 75.1016Z" fill="#8B013D"/>
<path d="M102.629 84.7227H96.0166C95.5457 84.7227 95.1641 85.1058 95.1641 85.5785V89.5558C95.1641 90.0285 95.5457 90.4117 96.0166 90.4117H102.629C103.1 90.4117 103.482 90.0285 103.482 89.5558V85.5785C103.482 85.1058 103.1 84.7227 102.629 84.7227Z" fill="#8B013D"/>
<path d="M89.3598 84.7227H82.747C82.2762 84.7227 81.8945 85.1058 81.8945 85.5785V89.5558C81.8945 90.0285 82.2762 90.4117 82.747 90.4117H89.3598C89.8307 90.4117 90.2123 90.0285 90.2123 89.5558V85.5785C90.2123 85.1058 89.8307 84.7227 89.3598 84.7227Z" fill="#8B013D"/>
<path d="M76.0903 84.7227H69.4775C69.0067 84.7227 68.625 85.1058 68.625 85.5785V89.5558C68.625 90.0285 69.0067 90.4117 69.4775 90.4117H76.0903C76.5611 90.4117 76.9428 90.0285 76.9428 89.5558V85.5785C76.9428 85.1058 76.5611 84.7227 76.0903 84.7227Z" fill="#8B013D"/>
<path d="M62.8169 84.7227H56.2041C55.7332 84.7227 55.3516 85.1058 55.3516 85.5785V89.5558C55.3516 90.0285 55.7332 90.4117 56.2041 90.4117H62.8169C63.2877 90.4117 63.6694 90.0285 63.6694 89.5558V85.5785C63.6694 85.1058 63.2877 84.7227 62.8169 84.7227Z" fill="#8B013D"/>
<path d="M102.629 95.0117H96.0166C95.5457 95.0117 95.1641 95.3949 95.1641 95.8676V99.8449C95.1641 100.318 95.5457 100.701 96.0166 100.701H102.629C103.1 100.701 103.482 100.318 103.482 99.8449V95.8676C103.482 95.3949 103.1 95.0117 102.629 95.0117Z" fill="#8B013D"/>
<path d="M89.3598 95.0117H82.747C82.2762 95.0117 81.8945 95.3949 81.8945 95.8676V99.8449C81.8945 100.318 82.2762 100.701 82.747 100.701H89.3598C89.8307 100.701 90.2123 100.318 90.2123 99.8449V95.8676C90.2123 95.3949 89.8307 95.0117 89.3598 95.0117Z" fill="#FF88BB"/>
<path d="M76.0903 95.0117H69.4775C69.0067 95.0117 68.625 95.3949 68.625 95.8676V99.8449C68.625 100.318 69.0067 100.701 69.4775 100.701H76.0903C76.5611 100.701 76.9428 100.318 76.9428 99.8449V95.8676C76.9428 95.3949 76.5611 95.0117 76.0903 95.0117Z" fill="#FF88BB"/>
<path d="M62.8169 95.0117H56.2041C55.7332 95.0117 55.3516 95.3949 55.3516 95.8676V99.8449C55.3516 100.318 55.7332 100.701 56.2041 100.701H62.8169C63.2877 100.701 63.6694 100.318 63.6694 99.8449V95.8676C63.6694 95.3949 63.2877 95.0117 62.8169 95.0117Z" fill="#FF88BB"/>
<path d="M102.629 105.301H96.0166C95.5457 105.301 95.1641 105.684 95.1641 106.157V110.134C95.1641 110.607 95.5457 110.99 96.0166 110.99H102.629C103.1 110.99 103.482 110.607 103.482 110.134V106.157C103.482 105.684 103.1 105.301 102.629 105.301Z" fill="#1F3C88"/>
<path d="M89.3598 105.301H82.747C82.2762 105.301 81.8945 105.684 81.8945 106.157V110.134C81.8945 110.607 82.2762 110.99 82.747 110.99H89.3598C89.8307 110.99 90.2123 110.607 90.2123 110.134V106.157C90.2123 105.684 89.8307 105.301 89.3598 105.301Z" fill="#FF88BB"/>
<path d="M76.0903 105.301H69.4775C69.0067 105.301 68.625 105.684 68.625 106.157V110.134C68.625 110.607 69.0067 110.99 69.4775 110.99H76.0903C76.5611 110.99 76.9428 110.607 76.9428 110.134V106.157C76.9428 105.684 76.5611 105.301 76.0903 105.301Z" fill="#FF88BB"/>
<path d="M62.8169 105.301H56.2041C55.7332 105.301 55.3516 105.684 55.3516 106.157V110.134C55.3516 110.607 55.7332 110.99 56.2041 110.99H62.8169C63.2877 110.99 63.6694 110.607 63.6694 110.134V106.157C63.6694 105.684 63.2877 105.301 62.8169 105.301Z" fill="#D3DFFF"/>
<path d="M102.629 115.949H96.0166C95.5457 115.949 95.1641 116.332 95.1641 116.805V120.782C95.1641 121.255 95.5457 121.638 96.0166 121.638H102.629C103.1 121.638 103.482 121.255 103.482 120.782V116.805C103.482 116.332 103.1 115.949 102.629 115.949Z" fill="#FBC343"/>
<path d="M89.3598 115.949H82.747C82.2762 115.949 81.8945 116.332 81.8945 116.805V120.782C81.8945 121.255 82.2762 121.638 82.747 121.638H89.3598C89.8307 121.638 90.2123 121.255 90.2123 120.782V116.805C90.2123 116.332 89.8307 115.949 89.3598 115.949Z" fill="#FF88BB"/>
<path d="M76.0903 115.949H69.4775C69.0067 115.949 68.625 116.332 68.625 116.805V120.782C68.625 121.255 69.0067 121.638 69.4775 121.638H76.0903C76.5611 121.638 76.9428 121.255 76.9428 120.782V116.805C76.9428 116.332 76.5611 115.949 76.0903 115.949Z" fill="#FF88BB"/>
<path d="M62.8169 115.949H56.2041C55.7332 115.949 55.3516 116.332 55.3516 116.805V120.782C55.3516 121.255 55.7332 121.638 56.2041 121.638H62.8169C63.2877 121.638 63.6694 121.255 63.6694 120.782V116.805C63.6694 116.332 63.2877 115.949 62.8169 115.949Z" fill="#FF88BB"/>
<path d="M91.7329 66.4793C91.8927 66.4879 92.053 66.481 92.2115 66.4587C92.5528 66.4162 92.8724 66.2677 93.1255 66.0339C93.414 65.7704 93.6232 65.3853 93.7032 64.8671H93.6833C93.5597 65.0193 93.403 65.141 93.2252 65.223C93.0475 65.3049 92.8534 65.345 92.6579 65.34C91.871 65.34 91.3672 64.7457 91.3672 63.9969C91.3672 63.1664 91.9654 62.4375 92.8596 62.4375C93.7538 62.4375 94.3041 63.1664 94.3041 64.2865C94.3041 65.2522 93.9821 65.9268 93.5521 66.3455C93.2041 66.6756 92.7579 66.882 92.2819 66.933C92.1011 66.9621 91.9179 66.9733 91.735 66.9666L91.7329 66.4793ZM91.9483 63.955C91.9483 64.5041 92.2778 64.8864 92.7885 64.8864C92.9594 64.8922 93.1289 64.8528 93.2799 64.7722C93.431 64.6917 93.5583 64.5727 93.6492 64.4272C93.6874 64.3618 93.7059 64.2867 93.7025 64.211C93.7025 63.4622 93.429 62.8884 92.809 62.8884C92.3045 62.8884 91.9483 63.3339 91.9483 63.955V63.955Z" fill="#792549"/>
<path d="M95.1854 66.4793C95.3452 66.488 95.5054 66.4811 95.6639 66.4587C96.0053 66.4164 96.3249 66.2678 96.5779 66.0339C96.8671 65.7704 97.0756 65.3853 97.1563 64.8671H97.1365C97.0127 65.0192 96.856 65.1408 96.6783 65.2228C96.5005 65.3047 96.3065 65.3448 96.111 65.34C95.3248 65.34 94.8203 64.7457 94.8203 63.9969C94.8203 63.1664 95.4192 62.4375 96.3127 62.4375C97.2062 62.4375 97.7579 63.1664 97.7579 64.2865C97.7579 65.2522 97.4352 65.9268 97.0059 66.3455C96.6579 66.6756 96.2117 66.882 95.7357 66.933C95.5549 66.9621 95.3717 66.9733 95.1888 66.9666L95.1854 66.4793ZM95.4007 63.955C95.4007 64.5041 95.7302 64.8864 96.2409 64.8864C96.4118 64.8921 96.5811 64.8527 96.732 64.7721C96.8829 64.6916 97.0102 64.5726 97.1009 64.4272C97.1397 64.362 97.1585 64.2868 97.1549 64.211C97.1549 63.4622 96.8815 62.8884 96.2607 62.8884C95.7555 62.8884 95.4007 63.3339 95.4007 63.955V63.955Z" fill="#792549"/>
<path d="M158.46 108.027H125.43V132.353H158.46V108.027Z" fill="#FBC343"/>
<path d="M158.465 113.535H149.664V113.898H158.465V113.535Z" fill="#E49B31"/>
<path d="M158.462 126.848H143.152V127.211H158.462V126.848Z" fill="#E49B31"/>
<path d="M141.9 116.84C141.9 119.671 141.471 122.486 140.627 125.188C139.996 127.211 138.738 128.979 137.036 130.235C135.334 131.49 133.278 132.167 131.166 132.167H125.434V108.027H140.478C141.42 110.869 141.9 113.845 141.9 116.84V116.84Z" fill="#E49B31"/>
<path d="M110.043 126.461H82.814C81.9071 126.461 81.1719 127.199 81.1719 128.11V130.702C81.1719 131.612 81.9071 132.35 82.814 132.35H110.043C110.95 132.35 111.685 131.612 111.685 130.702V128.11C111.685 127.199 110.95 126.461 110.043 126.461Z" fill="#FBC343"/>
<path d="M108.315 122.218V124.813C108.315 125.25 108.143 125.669 107.835 125.978C107.527 126.287 107.11 126.46 106.675 126.46H79.4454C79.0103 126.46 78.5929 126.287 78.2852 125.978C77.9775 125.669 77.8047 125.25 77.8047 124.813V122.218C77.8047 121.781 77.9775 121.362 78.2852 121.053C78.5929 120.744 79.0103 120.57 79.4454 120.57H106.675C107.109 120.572 107.526 120.746 107.833 121.054C108.141 121.363 108.314 121.781 108.315 122.218V122.218Z" fill="#FBC343"/>
<path d="M111.691 128.112V130.706C111.691 131.143 111.518 131.562 111.211 131.871C110.903 132.18 110.486 132.353 110.051 132.353H90.5232C89.1737 130.683 88.3492 128.53 87.8536 126.463C87.2827 124.096 87.1344 121.848 87.1016 120.57H106.675C107.109 120.572 107.526 120.746 107.834 121.054C108.141 121.363 108.314 121.781 108.315 122.218V124.813C108.315 125.25 108.143 125.669 107.835 125.978C107.527 126.287 107.11 126.46 106.675 126.46H110.046C110.263 126.46 110.477 126.502 110.677 126.585C110.877 126.668 111.058 126.79 111.211 126.943C111.364 127.097 111.485 127.279 111.567 127.48C111.65 127.68 111.692 127.895 111.691 128.112V128.112Z" fill="#E49B31"/>
<path d="M125.997 79.8103L123.798 86.5892L123.636 87.0909L122.616 90.2392L122.608 90.2604L119.321 90.1918L106.706 89.9049L105.784 87.2536L105.628 86.8109L103.188 79.8103C110.76 82.443 117.002 76.6909 125.997 79.8103Z" fill="#FBC343"/>
<path d="M123.637 87.0882L122.617 90.2364L119.323 90.1856L106.707 89.8987L105.785 87.2474C110.121 87.1712 117.583 87.0696 123.637 87.0882Z" fill="#E49B31"/>
<path d="M137.73 125.374C137.099 127.397 135.841 129.165 134.139 130.421C132.438 131.676 130.381 132.353 128.27 132.353H99.6979C97.6874 132.352 95.7326 131.689 94.1334 130.466C92.5342 129.243 91.379 127.527 90.8448 125.581C90.2197 123.3 89.8753 120.952 89.8193 118.587C89.8159 118.362 89.8125 118.137 89.8125 117.912C89.8125 117.645 89.8161 117.379 89.8234 117.114C90.0566 108.652 94.1748 100.77 100.786 95.5151L107.622 90.082L123.264 90.4451L131.862 98.7059C133.08 99.8604 134.139 101.172 135.014 102.606C137.045 105.992 138.337 109.773 138.805 113.697C139.273 117.622 138.907 121.602 137.73 125.374Z" fill="#FBC343"/>
<path d="M112.291 124.767V121.732C110.158 121.636 108.089 121.061 106.879 120.359L107.836 116.619C109.173 117.353 111.049 118.025 113.121 118.025C114.936 118.025 116.178 117.322 116.178 116.044C116.178 114.829 115.159 114.061 112.803 113.262C109.396 112.112 107.071 110.517 107.071 107.414C107.071 104.6 109.047 102.396 112.453 101.725V98.6875H115.571V101.501C117.704 101.598 119.138 102.046 120.188 102.556L119.265 106.168C118.438 105.816 116.973 105.08 114.679 105.08C112.611 105.08 111.945 105.972 111.945 106.871C111.945 107.925 113.059 108.596 115.765 109.616C119.553 110.959 121.082 112.716 121.082 115.595C121.082 118.439 119.076 120.867 115.415 121.508V124.766L112.291 124.767Z" fill="white"/>
<path d="M125.849 88.9609H103.723C102.804 88.9609 102.059 89.7089 102.059 90.6315V91.3425C102.059 92.2651 102.804 93.0131 103.723 93.0131H125.849C126.768 93.0131 127.513 92.2651 127.513 91.3425V90.6315C127.513 89.7089 126.768 88.9609 125.849 88.9609Z" fill="#ED7545"/>
<path opacity="0.4" d="M137.731 125.374C137.1 127.397 135.842 129.165 134.14 130.421C132.439 131.676 130.382 132.353 128.271 132.353H99.6988C97.6884 132.352 95.7336 131.69 94.1344 130.466C92.5352 129.243 91.3799 127.527 90.8458 125.581C90.2206 123.3 89.8762 120.952 89.8203 118.587C94.5477 123.111 100.117 129.027 113.137 129.208C129.304 129.434 136.273 121.826 137.524 108.031C139.426 113.643 139.499 119.718 137.731 125.374V125.374Z" fill="#E49B31"/>
<path d="M26.7585 127.327L23.8654 126.238L17.1445 132.169H25.098L26.7585 127.327Z" fill="#102048"/>
<path d="M26.7582 127.328H33.1475L32.4242 131.927L25.0977 132.17L26.7582 127.328Z" fill="#F9B384"/>
<path d="M52.4047 101.547L52.1702 103.156L52.0287 104.125L51.0163 111.094L50.6293 113.753L50.2875 116.127L49.3872 122.315L48.7616 126.607C48.5344 128.169 47.7548 129.596 46.5654 130.628C45.376 131.661 43.8563 132.228 42.2842 132.228H28.1445L28.163 132.046L28.6217 127.326L28.6901 126.661L38.5454 124.755L39.8689 115.103C39.2181 112.296 39.3767 109.595 39.659 107.699C39.8976 106.084 40.2305 105.056 40.2305 105.056L44.6284 103.788L52.4047 101.547Z" fill="#1F3C88"/>
<path d="M49.3849 122.316L48.7593 126.609C48.5321 128.171 47.7525 129.598 46.5631 130.63C45.3737 131.662 43.854 132.23 42.2819 132.23H41.5586C48.0381 131.066 46.7699 122.76 49.3849 122.316Z" fill="#102048"/>
<path d="M23.1052 129.835L21.7188 132.074L22.0259 132.266L23.4123 130.027L23.1052 129.835Z" fill="white"/>
<path d="M51.0182 111.094L50.2874 116.13C48.2515 115.545 45.5703 112.624 45.5703 112.624L51.0182 111.094Z" fill="#102048"/>
<path d="M65.9986 123.941C65.9986 123.941 62.5627 125.711 56.4141 124.576L61.5229 121.172L65.9986 123.941Z" fill="#102048"/>
<path d="M64.1048 126.378L58.6111 126.502L58.579 125.311L58.4922 122.047L63.3747 122.41L63.6058 123.669L64.1048 126.378Z" fill="#F9B384"/>
<path d="M63.6058 123.669L58.579 125.311L58.4922 122.047L63.3747 122.41L63.6058 123.669Z" fill="#E28B6D"/>
<path d="M70.3351 132.217L64.2767 127.316L64.1051 126.383L58.6094 126.505L58.7618 132.217H70.3351Z" fill="#102048"/>
<path d="M66.4485 128.861L64.2734 130.223L64.4651 130.531L66.6401 129.17L66.4485 128.861Z" fill="white"/>
<path d="M40.2266 105.058L59.8852 101.923C60.8046 101.777 61.7465 101.9 62.5972 102.28V102.28C63.4257 102.65 64.1335 103.247 64.6391 104.002C65.1447 104.758 65.4277 105.641 65.4555 106.551L65.9955 123.94C65.9955 123.94 60.3897 122.76 56.411 124.575L56.0493 112.683C53.6456 113.781 49.4823 114.014 45.2629 113.591L40.2266 105.058Z" fill="#1F3C88"/>
<path d="M63.2247 123.398H62.8631C62.8631 120.388 62.9355 117.89 62.9998 115.687C63.155 110.321 63.2404 107.365 61.8793 106.114C60.7773 105.102 58.5753 105.134 55.3807 105.512C51.9563 105.913 50.5911 102.254 50.5781 102.218L50.9199 102.094C50.9705 102.234 52.2011 105.532 55.3396 105.153C58.7216 104.753 60.9161 104.737 62.1254 105.847C63.6089 107.211 63.5269 110.048 63.3635 115.699C63.2972 117.899 63.2247 120.394 63.2247 123.398Z" fill="#3A6BEA"/>
<path d="M56.4176 122.385L56.2891 122.046C56.3349 122.029 60.9207 120.315 65.9817 121.586L65.8935 121.938C60.948 120.696 56.4627 122.368 56.4176 122.385Z" fill="#3A6BEA"/>
<path d="M30.15 132.281C29.5866 131.15 30.4583 126.465 30.4959 126.266L30.8507 126.334C30.6025 127.655 30.0508 131.272 30.4733 132.12L30.15 132.281Z" fill="#3A6BEA"/>
<path d="M50.4481 103.605C50.4481 103.605 49.0597 106.573 45.9272 108.57C44.8642 109.245 43.8189 109.553 42.8823 109.557C41.4686 109.557 40.2927 108.871 39.6562 107.704C39.8948 106.089 40.2278 105.061 40.2278 105.061L44.6256 103.794L49.0631 103.652L50.4481 103.605Z" fill="#102048"/>
<path d="M46.918 85.7266V89.929H51.0171V86.2942L46.918 85.7266Z" fill="#ED7545"/>
<path d="M51.0171 83.6953H46.918V85.7262L51.0171 86.2938V83.6953Z" fill="#F9B384"/>
<path d="M48.125 84.2671C48.2152 84.2671 49.1135 85.6824 51.0154 86.2911L50.9881 84.0859L48.125 84.2671Z" fill="#102048"/>
<path d="M51.4974 78.6706C51.4974 78.6706 53.7582 84.7831 50.8343 85.1764C47.9103 85.5697 47.4591 84.2382 47.4591 84.2382L46.5547 81.0007L48.5742 78.2773L51.4974 78.6706Z" fill="#F9B384"/>
<path d="M52.887 81.6185C52.8934 81.2676 52.6153 80.9778 52.2657 80.9713C51.9162 80.9649 51.6276 81.2441 51.6211 81.595C51.6146 81.946 51.8928 82.2357 52.2423 82.2422C52.5919 82.2487 52.8805 81.9695 52.887 81.6185Z" fill="#F9B384"/>
<path d="M48.4268 81.5766C48.4268 81.5766 48.5772 78.3083 51.5031 78.6713C51.5031 78.6713 49.5356 76.1319 46.9433 77.1182C45.6273 77.6178 44.7461 78.88 44.6189 80.287C44.4521 82.1058 45.5076 84.1785 46.987 84.5423C47.3752 83.6745 47.8066 82.827 48.2798 82.0028L48.4268 81.5766Z" fill="#102048"/>
<path d="M48.7597 82.7559C49.2043 82.5462 49.3667 81.9532 49.1225 81.4314C48.8782 80.9096 48.3198 80.6566 47.8753 80.8663C47.4307 81.0761 47.2683 81.6691 47.5126 82.1909C47.7568 82.7127 48.3152 82.9657 48.7597 82.7559Z" fill="#F9B384"/>
<path opacity="0.4" d="M51.3407 81.985C51.3472 81.5257 50.9816 81.1479 50.5241 81.1414C50.0665 81.1348 49.6903 81.5018 49.6837 81.9612C49.6772 82.4206 50.0428 82.7983 50.5004 82.8049C50.9579 82.8114 51.3342 82.4444 51.3407 81.985Z" fill="#EB5D60"/>
<path d="M48.5041 82.1511C48.4802 82.1511 48.4572 82.1416 48.4403 82.1246C48.4234 82.1076 48.4139 82.0846 48.4139 82.0605C48.4097 81.9068 48.3493 81.76 48.2441 81.6482C48.1389 81.5364 47.9964 81.4674 47.8437 81.4545C47.8199 81.4511 47.7984 81.4384 47.7839 81.4191C47.7694 81.3998 47.7632 81.3755 47.7665 81.3516C47.7705 81.3279 47.7834 81.3068 47.8024 81.2924C47.8215 81.278 47.8453 81.2714 47.869 81.274C48.5862 81.3756 48.5944 82.0537 48.5944 82.0605C48.5944 82.0846 48.5849 82.1076 48.5679 82.1246C48.551 82.1416 48.5281 82.1511 48.5041 82.1511Z" fill="#102048"/>
<path d="M62.1992 79.7305C62.1992 79.7305 65.3604 79.9727 67.0818 82.0002L63.1666 82.9686L62.1992 79.7305Z" fill="#BA5C36"/>
<path d="M67.7998 77.9921C67.8141 78.2824 67.0184 79.7313 66.4325 80.7587C66.0907 81.351 65.8213 81.8013 65.8213 81.8013L63.713 82.419L62.209 80.1424L62.1406 80.0298C62.1406 80.0298 62.1618 79.9317 62.2015 79.7553C62.2056 79.7553 62.2056 79.7443 62.209 79.7333C62.4619 78.6551 63.3589 74.9804 63.8764 74.8603C64.3317 74.7546 64.0644 76.7663 64.0644 76.7663C64.0644 76.7663 65.189 73.4945 65.8548 73.629C66.386 73.7347 65.3448 76.872 65.3448 76.872C65.3448 76.872 65.7174 76.4794 66.0968 76.6029C66.2111 76.6396 66.3133 76.7065 66.3929 76.7966C66.4724 76.8867 66.5262 76.9967 66.5487 77.1149C66.5487 77.1149 66.8167 76.9262 67.084 77.0861C67.3513 77.246 67.3267 77.758 67.3267 77.758C67.3267 77.758 67.771 77.5357 67.7998 77.9921Z" fill="#F9B384"/>
<path d="M45.9604 88.4531L44.5282 94.0742L42.3077 102.791C40.7996 103.463 39.2081 103.709 37.9461 103.499C36.4811 103.255 35.4577 102.401 35.5267 100.884C35.7072 96.8004 45.9604 88.4531 45.9604 88.4531Z" fill="#ED7545"/>
<path d="M45.6848 90.0469L44.5274 94.0716L42.3069 102.788C40.7988 103.46 39.2073 103.706 37.9453 103.496C41.1639 94.2232 45.6848 90.0469 45.6848 90.0469Z" fill="#BA5C36"/>
<path d="M54.6352 102.767C51.6518 102.973 42.2484 110.777 39.9883 105.741C39.9883 105.741 40.3028 86.953 49.9625 87.3017C50.7999 87.3334 51.6071 87.6234 52.2744 88.1322C52.9417 88.641 53.4366 89.3439 53.6918 90.1452C53.9835 91.1103 54.1986 92.0972 54.3351 93.0964C54.5516 94.6513 54.6749 96.2178 54.7042 97.7875C54.7439 99.2378 54.7261 100.89 54.6352 102.767Z" fill="#ED7545"/>
<path d="M54.7048 97.7849C53.211 96.8158 51.6523 93.8926 51.6523 93.8926L54.3356 93.0938C54.5522 94.6486 54.6754 96.2151 54.7048 97.7849V97.7849Z" fill="#BA5C36"/>
<path d="M66.4337 80.7572C66.0918 81.3495 65.8225 81.7998 65.8225 81.7998L63.7142 82.4175L62.2102 80.1409L62.1992 79.7559V79.7305H62.2067L66.4337 80.7572Z" fill="#E28B6D"/>
<path d="M49.9648 87.3008C49.9648 87.3008 54.604 87.6275 57.4069 88.1724L62.1992 79.7305C63.6127 80.8841 65.2911 81.6643 67.0817 82.0002L62.8876 91.9212C62.434 92.8462 61.7388 93.6303 60.8761 94.1898C60.0135 94.7493 59.0158 95.0633 57.9894 95.0982L50.8064 95.3446L49.9648 87.3008Z" fill="#ED7545"/>
<path d="M57.4048 88.3085C57.3966 88.3095 57.3884 88.3095 57.3802 88.3085C57.292 88.2921 48.5319 86.6792 47.0395 88.0045C47.012 88.0254 46.9775 88.0351 46.9432 88.0316C46.9088 88.028 46.877 88.0116 46.8542 87.9855C46.8314 87.9594 46.8194 87.9256 46.8204 87.8909C46.8214 87.8563 46.8355 87.8233 46.8597 87.7986C48.4505 86.3868 57.0637 87.9708 57.4294 88.0395C57.4613 88.0473 57.4893 88.0663 57.5083 88.093C57.5274 88.1198 57.5362 88.1526 57.5332 88.1853C57.5302 88.2181 57.5156 88.2487 57.4921 88.2716C57.4685 88.2944 57.4375 88.308 57.4048 88.3099V88.3085Z" fill="#BA5C36"/>
<path d="M153.402 124.425L154.005 132.172H143.969L149.032 128.662L148.942 123.82L153.402 124.425Z" fill="#102048"/>
<path d="M168.201 121.125L170.913 127.752L164.041 133.561L165.036 127.025L163.68 122.668L168.201 121.125Z" fill="#102048"/>
<path d="M156.051 83.7539C155.945 84.07 155.86 84.3929 155.797 84.7203C155.664 85.3915 155.548 86.2487 155.45 87.2597C155.132 90.5541 154.998 95.4553 154.962 100.658C154.886 112.376 155.327 125.641 155.327 125.641L153.49 125.612L148.969 125.543L147.371 125.518C144.947 106.955 145.638 91.2789 146.003 85.8212C146.014 85.6324 146.029 85.4581 146.036 85.2947C146.112 84.2927 146.163 83.7587 146.163 83.7587L156.051 83.7539Z" fill="#1F3C88"/>
<path d="M169.915 122.852L168.997 123.08L164.18 124.289L161.236 125.03C161.236 125.03 157.749 112.042 154.964 100.657C153.626 95.1667 152.447 90.0508 151.905 86.9465C151.717 85.8483 151.605 85.0035 151.59 84.4805L155.8 84.7207L161.116 85.0254C161.116 85.0254 161.247 85.7914 161.5 87.1675C162.512 92.6547 165.481 107.85 169.915 122.852Z" fill="#1F3C88"/>
<path d="M161.498 87.1657C159.486 87.3304 157.466 87.3609 155.45 87.257C154.182 87.1883 152.989 87.0785 151.903 86.9447C149.914 86.6998 147.943 86.3224 146.004 85.815C145.389 85.6482 145.047 85.5404 145.047 85.5404L146.034 85.2899L152.125 83.7539H156.05C155.944 84.07 155.86 84.3929 155.796 84.7203L161.113 85.025C161.113 85.025 161.246 85.7896 161.498 87.1657Z" fill="#102048"/>
<path d="M155.153 102.074C154.861 100.842 153.479 95.0119 153.299 94.0242L150.504 92.9721L150.631 92.6289L153.639 93.762V93.8883C153.66 94.1574 154.765 98.8794 155.503 101.987L155.153 102.074Z" fill="#3A6BEA"/>
<path d="M148.057 107.387C146.741 107.387 145.906 107.06 145.859 107.044L145.996 106.707C146.01 106.713 147.486 107.286 149.572 106.879L149.64 107.236C149.118 107.337 148.588 107.388 148.057 107.387V107.387Z" fill="#3A6BEA"/>
<path d="M158.526 107.133C157.988 107.132 157.451 107.084 156.922 106.991L156.99 106.634C157.015 106.639 159.461 107.094 160.59 106.301L160.795 106.598C160.194 107.021 159.302 107.133 158.526 107.133Z" fill="#3A6BEA"/>
<path d="M149.146 128.528L148.926 128.816L150.342 129.906L150.562 129.618L149.146 128.528Z" fill="white"/>
<path d="M165.089 126.843L164.953 127.18L166.882 127.966L167.018 127.63L165.089 126.843Z" fill="white"/>
<path d="M150.748 63.9062C150.748 63.9062 144.54 64.6928 142.973 71.7133L144.841 80.0647L143.997 85.6323C143.997 85.6323 152.436 86.4799 161.116 85.0276L158.479 70.8355L150.748 63.9062Z" fill="#ED7545"/>
<path d="M154.605 81.7015C154.605 81.7015 152.737 80.3247 155.178 74.2891L156.805 80.2355L154.605 81.7015Z" fill="#6E3620"/>
<path d="M154.366 69.7241L154.445 69.8739C154.469 69.9203 154.484 69.971 154.489 70.0232C154.494 70.0755 154.489 70.1282 154.474 70.1783C154.458 70.2284 154.433 70.275 154.4 70.3155C154.367 70.3559 154.326 70.3893 154.279 70.4139L147.331 74.1072L146.88 73.2513L153.828 69.558C153.874 69.5335 153.925 69.5183 153.977 69.5133C154.029 69.5084 154.081 69.5138 154.131 69.5292C154.181 69.5447 154.228 69.5698 154.268 69.6032C154.308 69.6367 154.341 69.6777 154.366 69.7241V69.7241Z" fill="#102048"/>
<path d="M156.175 79.7288L155.99 79.6272L153.593 78.3273L149.575 76.1447C149.503 75.6581 149.557 75.2442 149.848 74.9608L149.649 74.8812C149.488 74.8127 149.346 74.7053 149.237 74.5684C149.127 74.4315 149.053 74.2694 149.021 74.0967L149.013 74.0534C148.938 73.7723 148.931 73.4774 148.991 73.1928L149.085 73.0692C149.321 72.7604 149.427 72.6046 149.729 72.3609L149.215 72.3904C149.215 72.3904 147.95 72.7391 148.539 71.9217C148.945 71.3554 149.853 70.8757 150.369 70.6362C150.476 70.5859 150.596 70.5701 150.712 70.591C150.828 70.6119 150.934 70.6685 151.017 70.7528C152.757 72.5648 155.816 74.7336 155.816 74.7336L155.849 75.1783L156.146 79.2559L156.175 79.7288Z" fill="#F9B384"/>
<g clip-path="url(#clip0_2807_3036)">
<path d="M165.886 0.984375H104.82V70.6791H165.886V0.984375Z" fill="#FAFAFA"/>
<path d="M165.891 70.6736C165.891 70.6736 165.891 70.5601 165.891 70.3462C165.891 70.1324 165.891 69.8007 165.891 69.3773C165.891 68.5043 165.891 67.2604 165.891 65.615C165.891 62.324 165.891 57.5098 165.865 51.3949C165.865 39.1739 165.834 21.7633 165.817 0.983201L165.917 1.08359H104.855L104.969 0.970104C104.969 26.6648 104.969 50.6267 104.969 70.6605L104.873 70.5645L149.096 70.6299L161.482 70.6561H164.747H165.873H164.765H161.522L149.157 70.6823L104.803 70.7303H104.707V70.6299C104.707 50.5962 104.707 26.6343 104.707 0.939552V0.882812H104.829H165.891H165.991V0.983201C165.969 21.7895 165.952 39.2219 165.939 51.4604C165.939 57.5709 165.917 62.372 165.913 65.6542C165.913 67.291 165.913 68.548 165.913 69.3991C165.913 69.8356 165.913 70.1367 165.913 70.355C165.913 70.5732 165.891 70.6736 165.891 70.6736Z" fill="#263238"/>
<path d="M160.639 36.5696C160.639 36.6132 159.962 36.2291 158.674 35.8232C156.855 35.2556 154.93 35.1064 153.044 35.3868C151.751 35.5865 150.497 35.9902 149.33 36.5827C148.003 37.2929 146.775 38.1733 145.677 39.2015C144.481 40.2577 143.289 41.458 141.919 42.5666C140.52 43.7619 138.884 44.6457 137.117 45.1592C136.205 45.4002 135.254 45.4581 134.32 45.3294C133.419 45.1929 132.544 44.9237 131.723 44.5307C130.221 43.7494 128.764 42.8853 127.358 41.9425C126.108 41.1084 124.727 40.4902 123.273 40.1137C122.001 39.8032 120.688 39.7015 119.384 39.8125C117.485 39.9769 115.648 40.5741 114.015 41.5584C112.863 42.2611 112.322 42.7892 112.27 42.7543C112.382 42.6105 112.513 42.4815 112.658 42.3702C113.047 42.0195 113.465 41.7013 113.906 41.4187C115.287 40.5268 116.832 39.9213 118.451 39.6379C120.069 39.3544 121.728 39.399 123.33 39.7689C124.825 40.1445 126.247 40.767 127.537 41.6107C128.929 42.5365 130.372 43.3845 131.858 44.151C133.437 44.9606 135.254 45.1744 136.978 44.7533C138.7 44.2662 140.3 43.4215 141.674 42.2742C143.027 41.1874 144.219 39.9958 145.437 38.9352C146.565 37.8933 147.826 37.004 149.186 36.2902C150.658 35.5596 152.261 35.1285 153.901 35.0221C155.541 34.9157 157.186 35.1361 158.74 35.6705C159.236 35.8376 159.718 36.0449 160.18 36.2902C160.342 36.3685 160.495 36.4621 160.639 36.5696Z" fill="#E8505B"/>
<path d="M126.818 45.9336H121.629V59.9747H126.818V45.9336Z" fill="#E8505B"/>
<path d="M148.846 45.9336H143.656V59.9747H148.846V45.9336Z" fill="#E8505B"/>
<path d="M156.193 37.6875H151.004V59.9734H156.193V37.6875Z" fill="#E8505B"/>
<path d="M120.1 55.5508H114.91V60.2777H120.1V55.5508Z" fill="#E8505B"/>
<path d="M134.167 52.2734H128.973V59.9727H134.167V52.2734Z" fill="#E8505B"/>
<path d="M141.506 50.5078H136.316V59.9747H141.506V50.5078Z" fill="#E8505B"/>
<path d="M127.031 61.6275C127.031 61.741 125.774 61.837 124.224 61.837C122.675 61.837 121.418 61.741 121.418 61.6275C121.418 61.514 122.675 61.418 124.224 61.418C125.774 61.418 127.031 61.5096 127.031 61.6275Z" fill="#263238"/>
<path d="M120.574 61.6275C120.574 61.741 119.317 61.837 117.767 61.837C116.218 61.837 114.961 61.741 114.961 61.6275C114.961 61.514 116.218 61.418 117.767 61.418C119.317 61.418 120.574 61.5096 120.574 61.6275Z" fill="#263238"/>
<path d="M157.217 61.6275C157.217 61.741 155.798 61.837 154.048 61.837C152.298 61.837 150.875 61.741 150.875 61.6275C150.875 61.514 152.294 61.418 154.048 61.418C155.803 61.418 157.217 61.5096 157.217 61.6275Z" fill="#263238"/>
<path d="M146.333 61.837C148.083 61.837 149.502 61.7432 149.502 61.6275C149.502 61.5118 148.083 61.418 146.333 61.418C144.583 61.418 143.164 61.5118 143.164 61.6275C143.164 61.7432 144.583 61.837 146.333 61.837Z" fill="#263238"/>
<path d="M141.511 61.6275C141.511 61.741 140.254 61.837 138.705 61.837C137.155 61.837 135.898 61.741 135.898 61.6275C135.898 61.514 137.155 61.418 138.705 61.418C140.254 61.418 141.511 61.5096 141.511 61.6275Z" fill="#263238"/>
<path d="M133.921 61.6275C133.921 61.741 132.668 61.837 131.119 61.837C129.57 61.837 128.312 61.741 128.312 61.6275C128.312 61.514 129.57 61.418 131.119 61.418C132.668 61.418 133.921 61.5096 133.921 61.6275Z" fill="#263238"/>
<path d="M157.218 11.1445H114.789V28.7646H157.218V11.1445Z" fill="#E0E0E0"/>
<path d="M123.608 16.7116C123.608 17.1037 123.493 17.4872 123.276 17.8136C123.059 18.1401 122.749 18.3947 122.387 18.5454C122.025 18.696 121.627 18.7359 121.242 18.6599C120.858 18.584 120.504 18.3956 120.226 18.1186C119.949 17.8417 119.76 17.4886 119.683 17.1041C119.606 16.7196 119.645 16.321 119.795 15.9586C119.945 15.5963 120.199 15.2866 120.525 15.0686C120.851 14.8507 121.234 14.7344 121.626 14.7344C122.151 14.7344 122.654 14.9425 123.026 15.3132C123.397 15.6839 123.606 16.1868 123.608 16.7116V16.7116Z" fill="#263238"/>
<path d="M139.366 15.3477H125.582V16.1115H139.366V15.3477Z" fill="#263238"/>
<path d="M152.394 17.0859H125.582V17.8498H152.394V17.0859Z" fill="white"/>
<path d="M123.608 22.7936C123.608 23.1857 123.493 23.5692 123.276 23.8957C123.059 24.2221 122.749 24.4768 122.387 24.6274C122.025 24.7781 121.627 24.8179 121.242 24.742C120.858 24.666 120.504 24.4776 120.226 24.2007C119.949 23.9237 119.76 23.5707 119.683 23.1862C119.606 22.8017 119.645 22.403 119.795 22.0407C119.945 21.6783 120.199 21.3686 120.525 21.1507C120.851 20.9327 121.234 20.8164 121.626 20.8164C121.886 20.8158 122.144 20.8666 122.384 20.9657C122.624 21.0648 122.843 21.2103 123.027 21.394C123.211 21.5776 123.357 21.7958 123.457 22.036C123.556 22.2761 123.608 22.5336 123.608 22.7936V22.7936Z" fill="#E8505B"/>
<path d="M132.618 21.4297H125.582V22.1935H132.618V21.4297Z" fill="#E8505B"/>
<path d="M152.394 23.1641H125.582V23.9279H152.394V23.1641Z" fill="white"/>
</g>
<path d="M151.431 72.7922L150.337 72.2548C150.223 72.1987 150.095 72.1804 149.97 72.2027L148.805 72.4086L148.773 72.2294L149.94 72.0235C150.102 71.9948 150.27 72.0188 150.418 72.0922L151.512 72.6289L151.431 72.7922Z" fill="#E28B6D"/>
<path d="M151.227 73.8254L149.915 73.3203C149.856 73.2982 149.795 73.2869 149.732 73.2867H148.984V73.1055H149.732C149.817 73.1053 149.9 73.1207 149.979 73.1508L151.292 73.6559L151.227 73.8254Z" fill="#E28B6D"/>
<path d="M151.048 74.8507L149.856 74.3984C149.762 74.3628 149.66 74.3501 149.56 74.3614L149.071 74.4176L149.051 74.2371L149.54 74.1809C149.669 74.1664 149.799 74.1829 149.92 74.2289L151.113 74.6812L151.048 74.8507Z" fill="#E28B6D"/>
<path d="M156.139 79.2597L155.987 79.6303L153.59 78.3304L155.177 74.2852L155.842 75.1822L156.139 79.2597Z" fill="#E28B6D"/>
<path d="M154.605 81.6999C154.605 81.6999 158.193 85.1192 161.116 85.0286L160.271 81.0039L154.605 81.6999Z" fill="#BA5C36"/>
<path d="M150.75 63.9051C151.142 63.8738 151.535 63.8669 151.928 63.8845C159.168 64.133 164.712 70.3869 164.36 77.6511C164.214 80.6545 163.437 83.6353 160.937 83.695L154.608 81.6977C155.205 79.45 155.65 77.1192 155.181 74.2853L158.12 75.6923L150.75 63.9051Z" fill="#ED7545"/>
<path d="M152.811 81.4183L143.964 81.6365L143.722 80.8843L142.832 78.1396L140.258 70.198L149.104 69.9805L152.811 81.4183Z" fill="#D3DFFF"/>
<path opacity="0.3" d="M144.712 77.1875C144.712 77.1875 144.697 79.6418 143.725 80.8841L142.836 78.1388L144.712 77.1875Z" fill="#1F3C88"/>
<path d="M140.42 76.9981C140.698 76.0949 141.206 75.261 141.764 74.5095C141.942 74.2699 142.329 73.6811 142.699 73.771C143.451 73.9522 142.699 75.2809 142.699 75.2809C142.699 75.2809 143.423 74.1917 143.694 74.736C143.966 75.2802 143.574 75.8863 143.574 75.8863C143.574 75.8863 144.719 75.1313 144.297 76.6412C144.297 76.6412 145.231 76.5204 144.659 77.5493C144.249 78.2836 143.985 79.1018 143.473 79.7764C142.961 80.4511 141.988 80.8375 141.183 80.4497C140.236 79.9947 140.115 78.7792 140.232 77.8533C140.27 77.5633 140.333 77.2772 140.42 76.9981V76.9981Z" fill="#F9B384"/>
<path d="M142.043 76.7586C142.031 76.7586 142.019 76.7558 142.007 76.7504C141.996 76.7456 141.987 76.7387 141.978 76.7301C141.97 76.7216 141.964 76.7114 141.959 76.7003C141.955 76.6893 141.953 76.6774 141.953 76.6655C141.953 76.6536 141.956 76.6419 141.961 76.631L142.82 74.679C142.824 74.6676 142.831 74.6571 142.84 74.6484C142.848 74.6396 142.858 74.6327 142.87 74.628C142.881 74.6233 142.893 74.6209 142.905 74.6211C142.918 74.6213 142.93 74.6239 142.941 74.6289C142.952 74.6339 142.962 74.6411 142.97 74.6501C142.979 74.6591 142.985 74.6697 142.989 74.6812C142.993 74.6928 142.995 74.705 142.994 74.7173C142.994 74.7295 142.99 74.7415 142.985 74.7524L142.126 76.7044C142.119 76.7205 142.107 76.7341 142.093 76.7438C142.078 76.7534 142.061 76.7585 142.043 76.7586V76.7586Z" fill="#E28B6D"/>
<path d="M142.927 77.4839C142.913 77.484 142.9 77.4809 142.888 77.475C142.877 77.47 142.868 77.4629 142.86 77.4541C142.852 77.4453 142.845 77.435 142.841 77.4237C142.837 77.4125 142.835 77.4006 142.836 77.3887C142.837 77.3767 142.839 77.365 142.845 77.3542L143.658 75.6068C143.668 75.5851 143.687 75.5684 143.709 75.5602C143.732 75.552 143.757 75.553 143.778 75.5629C143.8 75.5731 143.817 75.5916 143.825 75.6142C143.833 75.6368 143.832 75.6618 143.822 75.6837L143.009 77.4311C143.001 77.4468 142.99 77.4602 142.975 77.4696C142.961 77.4789 142.944 77.4839 142.927 77.4839V77.4839Z" fill="#E28B6D"/>
<path d="M143.606 78.0752C143.592 78.0751 143.577 78.0716 143.564 78.0649C143.553 78.0594 143.544 78.0518 143.536 78.0426C143.529 78.0334 143.523 78.0228 143.52 78.0113C143.516 77.9999 143.515 77.9879 143.516 77.976C143.517 77.9641 143.521 77.9526 143.526 77.9421L144.226 76.603C144.232 76.5925 144.239 76.5831 144.249 76.5755C144.258 76.5679 144.268 76.5622 144.28 76.5587C144.291 76.5552 144.303 76.554 144.315 76.5551C144.327 76.5562 144.338 76.5597 144.349 76.5653C144.359 76.5709 144.368 76.5785 144.376 76.5877C144.384 76.5969 144.389 76.6075 144.393 76.6189C144.396 76.6303 144.398 76.6423 144.396 76.6542C144.395 76.666 144.392 76.6776 144.386 76.6881L143.686 78.0272C143.678 78.0416 143.666 78.0537 143.653 78.0622C143.639 78.0706 143.623 78.0751 143.606 78.0752V78.0752Z" fill="#E28B6D"/>
<path d="M146.528 70.7728H143.363L142.82 69.6836H145.985L146.528 70.7728Z" fill="#102048"/>
<path d="M150.663 67.4497C150.106 67.4536 149.56 67.2886 149.098 66.9761C149.075 66.9525 149.061 66.9212 149.059 66.888C149.057 66.8548 149.067 66.822 149.087 66.7957C149.107 66.7694 149.136 66.7513 149.169 66.7449C149.201 66.7384 149.235 66.744 149.264 66.7606C149.316 66.7997 150.543 67.7167 152.185 66.7222C152.201 66.7098 152.218 66.7008 152.237 66.6958C152.256 66.6909 152.276 66.6901 152.295 66.6934C152.314 66.6968 152.333 66.7043 152.349 66.7153C152.365 66.7264 152.379 66.7408 152.389 66.7576C152.399 66.7744 152.405 66.7932 152.408 66.8127C152.41 66.8322 152.408 66.852 152.402 66.8707C152.396 66.8893 152.386 66.9065 152.373 66.921C152.36 66.9356 152.344 66.9471 152.326 66.9548C151.712 67.3268 151.145 67.4497 150.663 67.4497Z" fill="#BA5C36"/>
<path d="M154.604 81.8346C154.591 81.8344 154.578 81.8325 154.566 81.8291C154.531 81.8186 154.502 81.7949 154.485 81.7632C154.468 81.7315 154.464 81.6942 154.474 81.6596C155.773 77.2389 155.053 74.348 155.046 74.3192L154.993 74.1133L160.594 75.0556C160.626 75.0654 160.653 75.0864 160.67 75.1148C160.688 75.1431 160.694 75.1768 160.689 75.2096C160.683 75.2425 160.666 75.2722 160.64 75.2932C160.614 75.3142 160.582 75.3252 160.549 75.324L155.353 74.4496C155.49 75.1888 155.863 77.9067 154.738 81.7344C154.73 81.7636 154.712 81.7893 154.688 81.8074C154.664 81.8255 154.634 81.8351 154.604 81.8346Z" fill="#BA5C36"/>
<path d="M158.706 74.963H158.698C158.662 74.9605 158.628 74.944 158.605 74.9171C158.581 74.8901 158.568 74.8548 158.57 74.8189C158.57 74.7894 158.721 71.8601 156.694 68.8477C156.679 68.8179 156.676 68.7836 156.684 68.7512C156.692 68.7188 156.712 68.6906 156.74 68.6719C156.768 68.6532 156.801 68.6453 156.834 68.6496C156.867 68.6539 156.897 68.6702 156.919 68.6954C159 71.7839 158.842 74.8038 158.841 74.8319C158.839 74.867 158.825 74.9001 158.799 74.9245C158.774 74.9489 158.741 74.9627 158.706 74.963Z" fill="#BA5C36"/>
<path d="M153.235 60.5625V64.0669C153.235 65.1973 152.357 66.1136 151.273 66.1136C150.19 66.1136 149.312 65.1973 149.312 64.0669V60.5625H153.235Z" fill="#F9B384"/>
<path d="M151.381 61.0302C151.381 61.0302 151.176 63.1956 149.312 63.8223V60.7461L151.381 61.0302Z" fill="#102048"/>
<path d="M147.834 56.5672C147.834 56.5672 147.226 61.4828 149.133 62.0655C151.041 62.6482 152.784 60.955 152.784 60.955L152.424 56.9008L149.604 55.2344L147.834 56.5672Z" fill="#F9B384"/>
<path d="M158.689 66.1209L154.925 66.3714C154.446 65.8443 154.179 65.1044 154.002 64.2685C153.844 65.1284 153.969 65.847 154.389 66.4078L153.369 66.4764C152.466 65.1181 151.706 62.112 152.603 59.541L152.708 58.9342C152.708 58.9342 152.064 56.9775 151.131 56.8938C151.131 56.8938 147.93 59.0619 146.505 56.6433C145.442 54.8423 146.339 52.4744 148.898 54.2212C148.898 54.2212 155.042 51.3276 155.028 57.2603C155.028 58.3248 155.422 59.3701 156.207 60.0818C156.274 60.1484 156.345 60.2103 156.42 60.2671C157.797 61.3646 159.283 63.5506 158.689 66.1209Z" fill="#102048"/>
<path d="M153.678 59.2546C153.86 58.6882 153.616 58.1024 153.134 57.9463C152.651 57.7902 152.113 58.1228 151.931 58.6892C151.749 59.2557 151.993 59.8414 152.475 59.9975C152.958 60.1537 153.497 59.821 153.678 59.2546Z" fill="#F9B384"/>
<path d="M152.676 59.3065C152.652 59.3063 152.629 59.2967 152.613 59.2798C152.596 59.2628 152.586 59.2399 152.586 59.2159C152.586 58.824 152.894 58.4781 153.259 58.461H153.264C153.288 58.4604 153.311 58.4694 153.329 58.486C153.346 58.5026 153.356 58.5255 153.356 58.5495C153.357 58.5735 153.348 58.5968 153.331 58.6142C153.315 58.6315 153.292 58.6416 153.268 58.6422C153.026 58.6545 152.767 58.8886 152.767 59.2173C152.767 59.2412 152.757 59.2638 152.74 59.2805C152.723 59.2972 152.7 59.3065 152.676 59.3065V59.3065Z" fill="#102048"/>
<path d="M148.503 58.442C148.503 58.487 148.49 58.5309 148.465 58.5683C148.44 58.6057 148.405 58.6348 148.364 58.652C148.322 58.6691 148.277 58.6736 148.233 58.6648C148.189 58.656 148.148 58.6343 148.117 58.6024C148.085 58.5706 148.064 58.53 148.055 58.4859C148.046 58.4418 148.051 58.3961 148.068 58.3546C148.085 58.3131 148.115 58.2777 148.152 58.2528C148.189 58.2279 148.233 58.2147 148.278 58.2148C148.307 58.2148 148.337 58.2207 148.364 58.2321C148.392 58.2436 148.417 58.2603 148.438 58.2814C148.458 58.3025 148.475 58.3276 148.486 58.3551C148.498 58.3827 148.503 58.4122 148.503 58.442Z" fill="#102048"/>
<path d="M149.867 58.3281C149.867 58.373 149.854 58.4171 149.829 58.4545C149.804 58.492 149.769 58.5212 149.727 58.5385C149.686 58.5558 149.64 58.5603 149.596 58.5516C149.552 58.5428 149.512 58.5212 149.48 58.4894C149.449 58.4576 149.427 58.417 149.418 58.3729C149.41 58.3288 149.414 58.283 149.431 58.2415C149.449 58.1999 149.478 58.1645 149.515 58.1396C149.552 58.1147 149.596 58.1014 149.641 58.1016C149.701 58.1017 149.758 58.1257 149.8 58.1681C149.843 58.2105 149.866 58.268 149.867 58.3281V58.3281Z" fill="#102048"/>
<path d="M148.827 59.9625C148.815 59.9627 148.803 59.9605 148.793 59.956C148.782 59.9515 148.772 59.9449 148.763 59.9365C148.579 59.756 148.504 59.5851 148.54 59.4279C148.56 59.3626 148.593 59.3024 148.638 59.2515C148.684 59.2005 148.739 59.16 148.802 59.1328L148.781 58.6846C148.78 58.6605 148.789 58.637 148.805 58.6193C148.821 58.6015 148.844 58.5909 148.868 58.5899C148.892 58.5893 148.915 58.598 148.932 58.6141C148.95 58.6302 148.961 58.6525 148.962 58.6764L148.988 59.2549L148.924 59.2769C148.874 59.2941 148.739 59.3627 148.719 59.4684C148.698 59.5741 148.8 59.7155 148.893 59.8068C148.901 59.8152 148.908 59.8252 148.912 59.8362C148.917 59.8472 148.919 59.859 148.919 59.8709C148.919 59.8828 148.917 59.8947 148.912 59.9057C148.908 59.9167 148.901 59.9267 148.893 59.9351C148.884 59.944 148.874 59.951 148.863 59.9557C148.851 59.9604 148.839 59.9628 148.827 59.9625V59.9625Z" fill="#102048"/>
<path d="M149.01 60.6156C148.967 60.6159 148.924 60.6132 148.881 60.6074C148.857 60.6035 148.836 60.5904 148.822 60.571C148.808 60.5516 148.802 60.5275 148.806 60.5037C148.81 60.4804 148.823 60.4596 148.842 60.4456C148.862 60.4316 148.885 60.4254 148.909 60.4282C149.065 60.4415 149.222 60.4231 149.37 60.374C149.519 60.325 149.656 60.2463 149.774 60.1427C149.792 60.1292 149.815 60.123 149.838 60.1256C149.86 60.1281 149.881 60.1391 149.896 60.1564C149.911 60.1736 149.919 60.196 149.918 60.2189C149.918 60.2418 149.909 60.2636 149.893 60.28C149.648 60.4952 149.335 60.6144 149.01 60.6156V60.6156Z" fill="#102048"/>
<path opacity="0.4" d="M150.765 59.9649C151.093 59.9649 151.359 59.6982 151.359 59.3692C151.359 59.0402 151.093 58.7734 150.765 58.7734C150.438 58.7734 150.172 59.0402 150.172 59.3692C150.172 59.6982 150.438 59.9649 150.765 59.9649Z" fill="#EB5D60"/>
<path d="M193.812 131.988H0.8125V132.351H193.812V131.988Z" fill="#102048"/>
<defs>
<clipPath id="clip0_2807_3036">
<rect width="61.2797" height="69.9043" fill="white" transform="translate(104.707 0.871094)"/>
</clipPath>
</defs>
</svg>
