<svg xmlns="http://www.w3.org/2000/svg" viewBox="0 0 14 14"><defs><style>.cls-1,.cls-2{fill:none;stroke-miterlimit:10;}.cls-1{stroke:#000;stroke-width:0.34px;}.cls-2{stroke:#25489d;stroke-width:0.39px;}.cls-3{fill:#25489d;}</style></defs><g id="Shared_with_me" data-name="Shared with me"><ellipse class="cls-1" cx="5.94" cy="3.27" rx="1.52" ry="1.49"/><path class="cls-1" d="M8.58,11.69H2.49V6.94a1,1,0,0,1,1-1.06H8.58a1,1,0,0,1,1,1.06v4.75Z"/><path d="M8,1.57a1.55,1.55,0,0,0-.78.32,1.45,1.45,0,0,1,.84,1.17,1.51,1.51,0,0,1-.59,1.33A1.55,1.55,0,0,0,9.65,2.87,1.47,1.47,0,0,0,8,1.57Z"/><path d="M10.64,5.28H9a1.08,1.08,0,0,1,1,1.11v5h1.68V6.39A1.08,1.08,0,0,0,10.64,5.28Z"/><line class="cls-2" x1="7.71" y1="7.21" x2="5.44" y2="9.13"/><ellipse class="cls-3" cx="8.04" cy="6.91" rx="0.77" ry="0.78"/><line class="cls-2" x1="8.04" y1="11.87" x2="5.12" y2="9.48"/><ellipse class="cls-3" cx="8.04" cy="11.66" rx="0.77" ry="0.78"/><ellipse class="cls-3" cx="5.12" cy="9.48" rx="0.77" ry="0.78"/></g></svg>