<svg width="16" height="16" viewBox="0 0 21 21" fill="none" xmlns="http://www.w3.org/2000/svg">
<g clip-path="url(#clip0_2935_3510)">
<path d="M9.59418 0.617188H10.7709C10.8204 0.631568 10.8708 0.642382 10.9219 0.649546C12.4908 0.759861 13.9558 1.20847 15.2942 2.02872C17.8927 3.61969 19.4881 5.91325 20.05 8.91428C20.1201 9.28984 20.1549 9.67226 20.2059 10.0513V11.2279C20.1937 11.2971 20.1799 11.3662 20.1696 11.4358C20.1074 11.8673 20.0716 12.3046 19.9789 12.7292C19.4558 15.136 18.2198 17.1084 16.2596 18.5935C13.818 20.4384 11.0719 21.0523 8.07724 20.4272C5.68024 19.9271 3.73184 18.671 2.24285 16.7334C0.633731 14.6408 -0.0359986 12.258 0.215518 9.63598C0.419967 7.51109 1.24512 5.63526 2.66057 4.03349C4.21232 2.27778 6.14601 1.18445 8.45672 0.773098C8.83179 0.705439 9.21421 0.668667 9.59418 0.617188ZM3.71321 5.38815C1.10195 8.49705 0.967615 13.7617 4.82616 17.0295C8.34788 20.0099 12.9982 19.2431 15.4349 17.0859C15.4188 17.0663 15.4046 17.0452 15.3859 17.027C14.399 16.0396 13.414 15.0512 12.4207 14.0696C12.3584 14.0079 12.2368 13.9804 12.1422 13.9804C10.1265 13.9748 8.11074 13.9735 6.09502 13.9765C5.66455 13.9765 5.23408 13.9804 4.80361 13.9765C4.506 13.9726 4.34519 13.8235 4.34127 13.5377C4.33342 12.9964 4.33342 12.455 4.34127 11.9134C4.3447 11.6579 4.47904 11.5211 4.73104 11.4824C4.80215 11.4741 4.87375 11.471 4.9453 11.4731H9.7952L3.71321 5.38815ZM4.91588 4.17764C4.96001 4.22667 4.99236 4.26589 5.02865 4.30168C7.38201 6.65505 9.73538 9.00629 12.0888 11.3554C12.169 11.4251 12.2712 11.4643 12.3775 11.4662C13.4145 11.4741 14.4514 11.4696 15.4889 11.4716C15.8723 11.4716 16.0238 11.6236 16.0253 12.0021C16.0272 12.4787 16.0272 12.9549 16.0253 13.4308C16.0253 13.8426 15.8885 13.975 15.4693 13.9765H14.7706L16.6631 15.8719C19.0165 13.1048 19.4852 8.22592 16.1321 4.79491C12.9825 1.57422 8.10273 1.55265 4.91588 4.17764ZM15.1864 12.3252H14.3705V13.1327H15.1864V12.3252Z" fill="black"/>
<path d="M15.1869 12.3242V13.1317H14.3711V12.3242H15.1869Z" fill="white"/>
<path d="M16.0232 9.50151C16.0232 9.72949 16.0286 9.95796 16.0232 10.1879C16.0154 10.4566 15.8408 10.639 15.6075 10.637C15.3741 10.635 15.1995 10.4517 15.1951 10.181C15.1888 9.80303 15.1951 9.42502 15.1951 9.04701C15.1927 8.49936 14.8858 8.17332 14.3386 8.13312C13.3722 8.06154 12.7623 7.44966 12.6912 6.48037C12.651 5.93762 12.3221 5.63169 11.772 5.62923C11.3939 5.62923 11.0154 5.63512 10.6379 5.62629C10.3045 5.61845 10.0937 5.33212 10.229 5.0605C10.2781 4.95705 10.409 4.82517 10.5065 4.82222C11.1351 4.80212 11.772 4.71044 12.3902 4.89185C12.9996 5.0708 13.4556 5.6763 13.5179 6.30926C13.5314 6.51548 13.5824 6.71751 13.6684 6.90545C13.8155 7.19226 14.0969 7.29767 14.4038 7.30405C15.2863 7.3217 16.0708 8.06742 16.0291 9.09261C16.0232 9.2294 16.0291 9.36668 16.0291 9.50347L16.0232 9.50151Z" fill="black"/>
<path d="M13.4776 10.6401C13.1446 10.645 12.8117 10.6578 12.5073 10.4827C12.1249 10.2621 11.9042 9.93654 11.863 9.49528C11.8277 9.11629 11.7062 8.99127 11.3306 8.95842C11.0318 8.93692 10.7511 8.8072 10.541 8.59357C10.331 8.37993 10.2061 8.09705 10.1897 7.79792C10.1686 7.49933 10.1755 7.1983 10.1843 6.89873C10.1917 6.64182 10.3696 6.46777 10.5986 6.46875C10.8276 6.46973 11.0006 6.64182 11.0099 6.90021C11.0183 7.14094 11.0099 7.38265 11.0139 7.62338C11.0198 7.96363 11.1526 8.10336 11.4934 8.13867C12.1744 8.20829 12.6127 8.64464 12.6818 9.32221C12.7181 9.67326 12.8578 9.80269 13.2118 9.8071C13.4398 9.81005 13.6683 9.80367 13.8982 9.80956C14.1738 9.81691 14.3493 9.97822 14.3537 10.217C14.3581 10.4558 14.1738 10.6308 13.8899 10.6391C13.7516 10.643 13.6143 10.6401 13.4776 10.6401Z" fill="black"/>
</g>
<defs>
<clipPath id="clip0_2935_3510">
<rect width="20.0409" height="20.0463" fill="white" transform="translate(0.162109 0.617188)"/>
</clipPath>
</defs>
</svg>
