<svg width="31" height="31" viewBox="0 0 31 31" fill="none" xmlns="http://www.w3.org/2000/svg">
<rect x="0.5" y="0.5" width="30" height="30" rx="5.5" fill="#F4F1EB" stroke="#DCDCDC"/>
<g clip-path="url(#clip0_581_1971)">
<path d="M11.9583 7H9.83333C9.08189 7 8.36122 7.29851 7.82986 7.82986C7.29851 8.36122 7 9.08189 7 9.83333L7 11.9583C7 12.7098 7.29851 13.4304 7.82986 13.9618C8.36122 14.4932 9.08189 14.7917 9.83333 14.7917H11.9583C12.7098 14.7917 13.4304 14.4932 13.9618 13.9618C14.4932 13.4304 14.7917 12.7098 14.7917 11.9583V9.83333C14.7917 9.08189 14.4932 8.36122 13.9618 7.82986C13.4304 7.29851 12.7098 7 11.9583 7V7ZM13.375 11.9583C13.375 12.3341 13.2257 12.6944 12.9601 12.9601C12.6944 13.2257 12.3341 13.375 11.9583 13.375H9.83333C9.45761 13.375 9.09728 13.2257 8.8316 12.9601C8.56592 12.6944 8.41667 12.3341 8.41667 11.9583V9.83333C8.41667 9.45761 8.56592 9.09728 8.8316 8.8316C9.09728 8.56592 9.45761 8.41667 9.83333 8.41667H11.9583C12.3341 8.41667 12.6944 8.56592 12.9601 8.8316C13.2257 9.09728 13.375 9.45761 13.375 9.83333V11.9583Z" fill="55505C"/>
<path d="M11.9583 16.2084H9.83333C9.08189 16.2084 8.36122 16.5069 7.82986 17.0382C7.29851 17.5696 7 18.2903 7 19.0417L7 21.1667C7 21.9182 7.29851 22.6388 7.82986 23.1702C8.36122 23.7015 9.08189 24 9.83333 24H11.9583C12.7098 24 13.4304 23.7015 13.9618 23.1702C14.4932 22.6388 14.7917 21.9182 14.7917 21.1667V19.0417C14.7917 18.2903 14.4932 17.5696 13.9618 17.0382C13.4304 16.5069 12.7098 16.2084 11.9583 16.2084ZM13.375 21.1667C13.375 21.5424 13.2257 21.9028 12.9601 22.1684C12.6944 22.4341 12.3341 22.5834 11.9583 22.5834H9.83333C9.45761 22.5834 9.09728 22.4341 8.8316 22.1684C8.56592 21.9028 8.41667 21.5424 8.41667 21.1667V19.0417C8.41667 18.666 8.56592 18.3057 8.8316 18.04C9.09728 17.7743 9.45761 17.625 9.83333 17.625H11.9583C12.3341 17.625 12.6944 17.7743 12.9601 18.04C13.2257 18.3057 13.375 18.666 13.375 19.0417V21.1667Z" fill="55505C"/>
<path d="M22.7909 20.493L21.1666 22.1151V8.86499L22.7909 10.4871C22.8567 10.5528 22.9348 10.605 23.0208 10.6406C23.1067 10.6761 23.1989 10.6944 23.2919 10.6944C23.3849 10.6944 23.4771 10.676 23.563 10.6404C23.6489 10.6047 23.727 10.5525 23.7928 10.4867C23.8586 10.4209 23.9107 10.3428 23.9463 10.2568C23.9819 10.1708 24.0002 10.0787 24.0001 9.98568C24.0001 9.89264 23.9817 9.80052 23.9461 9.71457C23.9105 9.62863 23.8582 9.55054 23.7924 9.48478L21.96 7.65515C21.5615 7.25721 21.0214 7.03369 20.4583 7.03369C19.8952 7.03369 19.3551 7.25721 18.9566 7.65515L17.1242 9.48478C17.0584 9.55054 17.0062 9.62863 16.9705 9.71457C16.9349 9.80052 16.9165 9.89264 16.9165 9.98568C16.9165 10.0787 16.9348 10.1708 16.9703 10.2568C17.0059 10.3428 17.0581 10.4209 17.1238 10.4867C17.1896 10.5525 17.2677 10.6047 17.3536 10.6404C17.4396 10.676 17.5317 10.6944 17.6247 10.6944C17.7178 10.6944 17.8099 10.6761 17.8959 10.6406C17.9818 10.605 18.06 10.5528 18.1258 10.4871L19.75 8.86499V22.1151L18.1258 20.493C18.06 20.4272 17.9818 20.3751 17.8959 20.3395C17.8099 20.3039 17.7178 20.2856 17.6247 20.2857C17.5317 20.2857 17.4396 20.3041 17.3536 20.3397C17.2677 20.3753 17.1896 20.4275 17.1238 20.4933C17.0581 20.5592 17.0059 20.6373 16.9703 20.7232C16.9348 20.8092 16.9165 20.9013 16.9165 20.9944C16.9165 21.0874 16.9349 21.1795 16.9705 21.2655C17.0062 21.3514 17.0584 21.4295 17.1242 21.4953L18.9566 23.3249C19.3551 23.7229 19.8952 23.9464 20.4583 23.9464C21.0214 23.9464 21.5615 23.7229 21.96 23.3249L23.7924 21.4953C23.8582 21.4295 23.9105 21.3514 23.9461 21.2655C23.9817 21.1795 24.0001 21.0874 24.0001 20.9944C24.0002 20.9013 23.9819 20.8092 23.9463 20.7232C23.9107 20.6373 23.8586 20.5592 23.7928 20.4933C23.727 20.4275 23.6489 20.3753 23.563 20.3397C23.4771 20.3041 23.3849 20.2857 23.2919 20.2857C23.1989 20.2856 23.1067 20.3039 23.0208 20.3395C22.9348 20.3751 22.8567 20.4272 22.7909 20.493Z" fill="55505C"/>
</g>
<defs>
<clipPath id="clip0_581_1971">
<rect width="17" height="17" fill="white" transform="translate(7 7)"/>
</clipPath>
</defs>
</svg>
