<svg width="23" height="23" viewBox="0 0 45 46" fill="none" xmlns="http://www.w3.org/2000/svg">
<rect x="0.0234375" y="0.296875" width="44.7401" height="44.7401" rx="5.03843" fill="#FFC830"/>
<path d="M29.1728 24.746C29.1728 22.642 28.3263 21.2876 26.2223 20.417V20.3928C27.9393 19.4738 28.81 18.1436 28.81 16.4024C28.81 14.782 28.2054 13.4519 26.9962 12.4603C25.7869 11.4687 24.2149 10.9609 22.2802 10.9609C19.112 10.9609 16.5968 12.4361 15.5327 15.048L19.0395 16.7168C19.6925 15.3141 20.7082 14.6127 22.1351 14.6127C23.8522 14.6127 24.8679 15.4834 24.8679 16.6684C24.8679 17.926 23.8764 18.7966 22.2076 18.7966H20.418V22.4243H22.4253C24.1666 22.4243 25.2065 23.2224 25.2065 24.6493C25.2065 25.9794 24.094 26.85 22.4253 26.85C20.7082 26.85 19.3297 26.052 18.6767 24.6734L15.2425 26.4389C16.3792 29.075 19.0153 30.4777 22.3286 30.4777C24.2875 30.4777 25.9079 29.9457 27.2138 28.8574C28.5198 27.7691 29.1728 26.3905 29.1728 24.746Z" fill="white"/>
</svg>
