<svg width="20" height="18" viewBox="0 0 79 72" fill="none" xmlns="http://www.w3.org/2000/svg">
<path d="M77.9242 33.3147V37.4363C77.8775 37.6792 77.8246 37.9221 77.7868 38.165C77.5437 39.6811 77.4059 41.2159 77.0515 42.7029C75.0366 51.1488 70.277 58.0705 62.7294 63.2836C53.3394 69.7649 42.7631 71.9164 31.2322 69.7248C22.0033 67.9711 14.4996 63.5613 8.75895 56.7623C2.56146 49.4189 -0.0276682 41.056 0.953506 31.8547C1.67984 24.5474 4.9811 17.6506 10.364 12.1948C16.3418 6.03399 23.7841 2.19812 32.6849 0.753995C34.1347 0.51642 35.6139 0.385625 37.0781 0.220123H41.6004C41.7927 0.269452 41.9885 0.306908 42.1864 0.332235C48.1471 0.673518 53.9268 2.3347 59.0243 5.17177C69.0206 10.7561 75.174 18.8069 77.3328 29.3374C77.5935 30.6427 77.7281 31.9855 77.9242 33.3147ZM39.3276 64.1432C56.6753 64.1564 70.816 51.2928 70.9008 35.4184C70.9918 19.645 56.7309 6.62123 39.3424 6.60789C21.9535 6.59456 7.85687 19.4582 7.77193 35.3329C7.68407 51.1166 21.9389 64.1298 39.3276 64.1432Z" fill="#292931"/>
<path d="M34.9118 41.0427L41.4063 33.1683C44.6584 29.2326 47.9121 25.2968 51.1675 21.3611C52.3979 19.8778 53.9852 19.7016 55.2108 20.8823C55.7976 21.4418 56.181 22.256 56.2798 23.1521C56.3785 24.0481 56.185 24.9555 55.7399 25.6816C55.5489 25.9812 55.3406 26.2639 55.116 26.5275C49.1863 33.7097 43.2556 40.8841 37.3242 48.0506C35.7006 50.0156 34.123 50.0185 32.5018 48.0506C29.4844 44.4125 26.4677 40.7656 23.4518 37.1099C22.0441 35.4005 22.0733 33.0919 23.493 31.6821C23.9916 31.175 24.6198 30.8924 25.271 30.8822C25.9222 30.872 26.5563 31.135 27.0655 31.6263C27.4949 32.0647 27.9041 32.5314 28.2911 33.0244C30.4851 35.6766 32.6742 38.3317 34.9118 41.0427Z" fill="#292931"/>
</svg>
