<svg width="732" height="304" viewBox="0 0 732 304" fill="none" xmlns="http://www.w3.org/2000/svg">
<g clip-path="url(#clip0_504_2460)">
<path d="M534.32 261.59C530.887 263.859 526.834 265.005 522.72 264.87H502.57V219.01H522.43C527.35 219.01 531.21 220.42 534.02 223.29C535.018 224.33 535.798 225.56 536.313 226.906C536.828 228.253 537.069 229.689 537.02 231.13C537.02 235.64 534.21 239.13 529.7 240.97V241.15C535.5 242.08 539.01 246.3 539.01 251.92C539.044 256.2 537.48 259.423 534.32 261.59ZM520.32 228.91H513.76V237.17H520.44C523.72 237.17 525.59 235.58 525.59 233.01C525.59 230.25 523.83 228.91 520.32 228.91V228.91ZM513.76 246.3V254.91H522.31C525.36 254.91 527.52 253.39 527.52 250.58C527.52 247.77 525.3 246.3 522.25 246.3H513.76Z" fill="#1E2339"/>
<path d="M555.688 264.87H544.148V219.01H562.948C568.158 219.01 572.318 220.24 575.428 222.76C578.538 225.28 580.108 228.91 580.108 233.76C580.108 240.76 576.418 245.06 570.978 246.99L581.148 264.87H568.628L559.438 248.77H555.688V264.87ZM555.688 238.87H562.068C566.228 238.87 568.518 237.17 568.518 234.13C568.518 231.09 566.518 228.92 562.018 228.92H555.688V238.87Z" fill="#1E2339"/>
<path d="M597.442 264.87H585.852V219.01H597.442V264.87Z" fill="#1E2339"/>
<path d="M605.148 219.01H620.318C627.818 219.01 633.968 221.01 638.768 224.92C643.568 228.83 645.968 234.47 645.968 241.79C646.078 246.261 644.857 250.664 642.458 254.44C637.828 261.44 629.988 264.87 620.378 264.87H605.148V219.01ZM616.688 254.15H620.378C623.959 254.306 627.475 253.163 630.278 250.93C632.818 248.77 634.148 245.77 634.148 241.85C634.148 237.93 632.868 235 630.228 232.85C627.464 230.632 623.99 229.488 620.448 229.63H616.648L616.688 254.15Z" fill="#1E2339"/>
<path d="M663.742 251.28C664.847 252.542 666.219 253.542 667.758 254.21C669.297 254.877 670.965 255.195 672.642 255.14C674.843 255.156 677.008 254.572 678.902 253.45C679.77 253.012 680.534 252.393 681.141 251.633C681.749 250.874 682.185 249.993 682.422 249.05H669.242V239.77H694.482V244.22C694.546 247.038 694.039 249.84 692.992 252.457C691.946 255.074 690.381 257.453 688.392 259.45C684.392 263.45 679.142 265.54 672.642 265.54C669.474 265.634 666.321 265.085 663.372 263.927C660.422 262.769 657.738 261.024 655.482 258.8C651.072 254.323 648.61 248.284 648.633 242C648.655 235.716 651.16 229.695 655.602 225.25C657.806 222.983 660.452 221.192 663.376 219.988C666.3 218.784 669.44 218.193 672.602 218.25C677.024 218.212 681.37 219.407 685.152 221.7C688.812 223.865 691.653 227.181 693.232 231.13L683.452 235.93C682.648 233.694 681.142 231.779 679.159 230.47C677.177 229.161 674.823 228.53 672.452 228.67C670.819 228.637 669.198 228.949 667.693 229.584C666.189 230.22 664.836 231.166 663.722 232.36C661.348 234.914 660.085 238.306 660.212 241.79C660.144 245.286 661.405 248.678 663.742 251.28V251.28Z" fill="#1E2339"/>
<path d="M731.491 229.26H710.881V236.77H729.621V246.66H710.881V254.57H731.671V264.87H699.461V219.01H731.461L731.491 229.26Z" fill="#1E2339"/>
<path d="M93.8664 102.019C93.8664 112.969 97.6564 122.239 105.376 129.679C109.076 133.317 113.462 136.182 118.279 138.109C123.096 140.035 128.249 140.984 133.436 140.899C138.61 141.011 143.752 140.074 148.554 138.146C153.355 136.217 157.717 133.337 161.376 129.679C169.086 122.089 172.886 112.829 172.886 101.739C172.886 90.6491 169.086 81.6691 161.376 74.2291C157.714 70.6268 153.37 67.7913 148.598 65.8888C143.826 63.9862 138.723 63.0548 133.586 63.1491C128.396 63.064 123.241 64.0132 118.422 65.9413C113.603 67.8694 109.216 70.7377 105.516 74.3791C101.748 77.9141 98.764 82.201 96.7571 86.9623C94.7503 91.7236 93.7655 96.8531 93.8664 102.019V102.019ZM117.146 85.1791C121.366 80.5491 126.836 78.2991 133.426 78.2991C140.016 78.2991 145.506 80.5491 149.566 85.1791C153.766 89.767 156.031 95.8007 155.886 102.019C156.015 108.208 153.813 114.219 149.716 118.859C145.646 123.499 140.166 125.739 133.576 125.739C130.518 125.823 127.477 125.24 124.666 124.031C121.855 122.822 119.34 121.017 117.296 118.739C113.112 114.078 110.853 108.002 110.976 101.739C110.825 95.6307 113.035 89.6994 117.146 85.1791Z" fill="#831BEE"/>
<path d="M206.828 141.179C216.368 141.179 223.948 137.249 229.708 129.529V131.529C229.708 133.688 230.565 135.759 232.092 137.285C233.619 138.812 235.689 139.669 237.848 139.669C240.007 139.669 242.077 138.812 243.604 137.285C245.13 135.759 245.988 133.688 245.988 131.529V73.0394C245.913 70.8736 245 68.8214 243.441 67.3158C241.882 65.8101 239.8 64.9685 237.633 64.9685C235.466 64.9685 233.383 65.8101 231.825 67.3158C230.266 68.8214 229.353 70.8736 229.278 73.0394V106.369C229.278 117.739 222.548 125.369 212.018 125.369C200.928 125.369 195.458 117.919 195.458 106.699V73.0394C195.458 70.8249 194.578 68.701 193.012 67.1351C191.446 65.5692 189.322 64.6895 187.108 64.6895C184.893 64.6895 182.769 65.5692 181.203 67.1351C179.638 68.701 178.758 70.8249 178.758 73.0394V110.769C178.758 128.689 188.718 141.179 206.828 141.179Z" fill="#831BEE"/>
<path d="M266.15 139.641C267.246 139.641 268.332 139.425 269.344 139.005C270.357 138.585 271.277 137.97 272.051 137.194C272.826 136.419 273.44 135.498 273.858 134.485C274.277 133.472 274.492 132.387 274.49 131.291V101.611C274.49 88.5507 281.24 81.1107 294.01 81.1107H294.65C295.19 81.12 295.726 81.0215 296.228 80.821C296.729 80.6206 297.186 80.3221 297.57 79.9431C297.955 79.5641 298.26 79.1122 298.468 78.6138C298.675 78.1154 298.782 77.5806 298.78 77.0407V68.0407C298.783 66.9725 298.365 65.9463 297.616 65.1844C296.867 64.4226 295.848 63.9865 294.78 63.9707H294.73C285.61 63.9707 278.734 68.184 274.1 76.6107V72.8107C274.1 71.7417 273.89 70.6832 273.481 69.6956C273.072 68.7081 272.472 67.8107 271.716 67.0548C270.96 66.299 270.063 65.6994 269.075 65.2903C268.088 64.8812 267.029 64.6707 265.96 64.6707C264.891 64.6707 263.833 64.8812 262.845 65.2903C261.858 65.6994 260.96 66.299 260.204 67.0548C259.449 67.8107 258.849 68.7081 258.44 69.6956C258.031 70.6832 257.82 71.7417 257.82 72.8107V131.271C257.818 132.367 258.031 133.454 258.448 134.468C258.865 135.482 259.478 136.404 260.252 137.181C261.025 137.958 261.944 138.575 262.956 138.997C263.969 139.419 265.054 139.638 266.15 139.641V139.641Z" fill="#831BEE"/>
<path d="M163.253 260.28V162.91C163.253 161.234 162.588 159.626 161.402 158.441C160.217 157.256 158.61 156.59 156.933 156.59H137.853C136.634 156.591 135.44 156.945 134.416 157.608C133.393 158.272 132.583 159.217 132.083 160.33L109.553 210.77C109.054 211.881 108.245 212.824 107.222 213.486C106.199 214.148 105.007 214.5 103.788 214.5C102.57 214.5 101.378 214.148 100.355 213.486C99.3324 212.824 98.5226 211.881 98.0234 210.77L75.1534 160.3C74.6533 159.194 73.8449 158.256 72.825 157.598C71.8052 156.94 70.6172 156.59 69.4034 156.59H50.8434C49.1673 156.59 47.5598 157.256 46.3745 158.441C45.1893 159.626 44.5234 161.234 44.5234 162.91V260.28C44.5234 261.956 45.1893 263.564 46.3745 264.749C47.5598 265.934 49.1673 266.6 50.8434 266.6H60.3634C62.0396 266.6 63.6471 265.934 64.8324 264.749C66.0176 263.564 66.6834 261.956 66.6834 260.28V197.77L95.6834 262.88C96.179 263.996 96.988 264.945 98.0123 265.611C99.0365 266.276 100.232 266.63 101.453 266.63H106.023C107.246 266.63 108.443 266.276 109.468 265.61C110.494 264.945 111.305 263.996 111.803 262.88L140.943 197.36V260.36C140.943 261.19 141.107 262.012 141.425 262.778C141.742 263.545 142.208 264.242 142.795 264.829C143.381 265.416 144.078 265.881 144.845 266.199C145.612 266.516 146.433 266.68 147.263 266.68H156.923C157.761 266.681 158.591 266.516 159.364 266.194C160.137 265.872 160.838 265.4 161.427 264.804C162.016 264.209 162.481 263.502 162.795 262.725C163.108 261.949 163.264 261.117 163.253 260.28Z" fill="#1E2339"/>
<path d="M183.151 261.689C187.931 265.759 193.971 267.869 201.281 267.869C211.401 267.869 218.701 264.069 223.341 256.349V266.599H239.751V218.829C239.864 214.208 239.002 209.615 237.221 205.349C232.581 195.079 223.171 190.029 209.121 190.029C197.031 190.029 187.831 193.969 181.591 201.909C180.978 202.678 180.523 203.559 180.251 204.503C179.979 205.447 179.896 206.436 180.006 207.412C180.116 208.389 180.417 209.334 180.892 210.194C181.368 211.054 182.008 211.812 182.776 212.424C183.544 213.037 184.425 213.492 185.37 213.764C186.314 214.036 187.302 214.12 188.279 214.01C189.255 213.899 190.2 213.598 191.06 213.123C191.92 212.648 192.678 212.007 193.291 211.239C197.071 206.729 202.291 204.499 208.701 204.499C218.111 204.499 223.451 209.559 223.451 215.739C223.451 219.959 221.061 222.059 216.451 222.059H207.151C193.941 222.059 175.961 227.539 175.961 244.959V245.769C175.877 248.794 176.48 251.798 177.726 254.556C178.971 257.313 180.826 259.752 183.151 261.689V261.689ZM197.211 236.689C200.227 234.862 203.684 233.891 207.211 233.879H223.371V236.259C223.371 247.499 216.061 254.529 204.681 254.529C197.521 254.529 192.741 250.449 192.741 244.269C192.722 242.724 193.122 241.202 193.899 239.866C194.675 238.53 195.799 237.428 197.151 236.679L197.211 236.689Z" fill="#1E2339"/>
<path d="M293.502 251.71C291.749 252.097 289.958 252.285 288.162 252.27C279.592 252.27 275.232 248.76 275.232 239.76V206.61H293.642V191.61H275.232V176.77C275.271 175.649 275.084 174.531 274.681 173.483C274.279 172.436 273.67 171.48 272.89 170.673C272.11 169.866 271.176 169.224 270.143 168.785C269.11 168.347 267.999 168.121 266.877 168.121C265.755 168.121 264.644 168.347 263.611 168.785C262.578 169.224 261.644 169.866 260.864 170.673C260.085 171.48 259.476 172.436 259.073 173.483C258.671 174.531 258.483 175.649 258.522 176.77V191.57H244.742V206.57H258.522V242.4C258.522 258.7 268.072 267.4 284.522 267.4C287.59 267.412 290.635 266.887 293.522 265.85L293.502 251.71Z" fill="#1E2339"/>
<path d="M320.001 228.53C320.001 215.46 326.751 208.01 339.531 208.01C341.131 207.997 342.728 208.138 344.301 208.43V191.29C342.97 190.965 341.601 190.823 340.231 190.87C331.105 190.87 324.221 195.087 319.581 203.52V199.77C319.581 197.608 318.723 195.535 317.194 194.007C315.666 192.479 313.593 191.62 311.431 191.62C309.27 191.62 307.197 192.479 305.668 194.007C304.14 195.535 303.281 197.608 303.281 199.77V266.65H320.001V228.53Z" fill="#1E2339"/>
<path d="M358.93 266.611C360.029 266.611 361.118 266.394 362.133 265.973C363.149 265.553 364.072 264.936 364.849 264.159C365.626 263.382 366.243 262.459 366.663 261.444C367.084 260.428 367.3 259.34 367.3 258.241V199.921C367.225 197.752 366.311 195.697 364.751 194.19C363.19 192.682 361.105 191.84 358.935 191.84C356.766 191.84 354.681 192.682 353.12 194.19C351.559 195.697 350.645 197.752 350.57 199.921V258.241C350.57 260.459 351.451 262.586 353.018 264.156C354.586 265.725 356.712 266.608 358.93 266.611V266.611Z" fill="#1E2339"/>
<path d="M366.549 175.051C367.591 174.046 368.419 172.841 368.984 171.508C369.55 170.176 369.842 168.743 369.842 167.296C369.842 165.848 369.55 164.416 368.984 163.083C368.419 161.751 367.591 160.546 366.549 159.541C365.563 158.476 364.367 157.627 363.037 157.047C361.707 156.466 360.271 156.166 358.819 156.166C357.368 156.166 355.932 156.466 354.602 157.047C353.272 157.627 352.076 158.476 351.089 159.541C350.055 160.552 349.233 161.76 348.674 163.095C348.116 164.429 347.83 165.862 347.836 167.309C347.842 168.755 348.138 170.186 348.707 171.516C349.276 172.846 350.107 174.048 351.149 175.051C353.214 177.05 355.975 178.168 358.849 178.168C361.723 178.168 364.485 177.05 366.549 175.051V175.051Z" fill="#FE016E"/>
<path d="M446.97 264.42L421.15 229.68C420.873 229.305 420.724 228.851 420.724 228.385C420.724 227.919 420.873 227.465 421.15 227.09L445.99 193.77C446.139 193.566 446.23 193.325 446.25 193.073C446.271 192.821 446.222 192.569 446.108 192.343C445.994 192.117 445.82 191.927 445.605 191.795C445.39 191.662 445.143 191.591 444.89 191.59H431.83C430.887 191.591 429.957 191.814 429.116 192.241C428.275 192.669 427.547 193.288 426.99 194.05L415.52 209.77C414.963 210.533 414.234 211.153 413.392 211.58C412.55 212.008 411.619 212.231 410.675 212.231C409.731 212.231 408.8 212.008 407.958 211.58C407.116 211.153 406.387 210.533 405.83 209.77L394.47 194.06C393.915 193.293 393.186 192.669 392.343 192.238C391.5 191.807 390.567 191.581 389.62 191.58H376.15C375.897 191.581 375.65 191.652 375.435 191.785C375.22 191.918 375.046 192.107 374.932 192.333C374.818 192.559 374.769 192.811 374.79 193.063C374.81 193.315 374.901 193.556 375.05 193.76L400.05 227.38C400.33 227.754 400.481 228.208 400.481 228.675C400.481 229.142 400.33 229.596 400.05 229.97L374.15 264.43C373.997 264.632 373.904 264.873 373.881 265.125C373.857 265.378 373.905 265.632 374.019 265.858C374.132 266.085 374.306 266.275 374.522 266.408C374.738 266.541 374.987 266.611 375.24 266.61H388.55C389.497 266.609 390.43 266.383 391.273 265.952C392.116 265.521 392.845 264.897 393.4 264.13L405.6 247.2C406.157 246.436 406.886 245.814 407.729 245.385C408.572 244.956 409.504 244.732 410.45 244.732C411.396 244.732 412.328 244.956 413.171 245.385C414.014 245.814 414.743 246.436 415.3 247.2L427.61 264.2C428.167 264.965 428.896 265.587 429.739 266.017C430.582 266.446 431.514 266.67 432.46 266.67H445.94C446.201 266.67 446.456 266.596 446.676 266.455C446.895 266.314 447.07 266.113 447.178 265.876C447.287 265.639 447.325 265.376 447.288 265.118C447.251 264.859 447.141 264.617 446.97 264.42V264.42Z" fill="#1E2339"/>
<path d="M43.8672 67.65V115.02C44.5688 104.898 48.4027 95.2455 54.8373 87.4007C61.2718 79.5559 69.9881 73.9079 79.7772 71.24V40.42H104.337C106.872 40.4226 109.382 39.9255 111.724 38.9572C114.066 37.9888 116.194 36.5682 117.987 34.7766C119.779 32.9849 121.201 30.8574 122.171 28.5158C123.14 26.1742 123.639 23.6644 123.637 21.13V19.32C123.635 14.1951 121.597 9.281 117.972 5.65808C114.347 2.03517 109.432 -6.85791e-07 104.307 0H75.9372C78.635 6.51716 79.9373 13.5272 79.7603 20.5785C79.5832 27.6297 77.9308 34.5657 74.9093 40.9392C71.8879 47.3128 67.5645 52.9826 62.2179 57.5832C56.8713 62.1837 50.6201 65.613 43.8672 67.65V67.65Z" fill="#FE016E"/>
<path d="M43.8672 115.02V121.86C43.9679 123.649 44.185 125.43 44.5172 127.19C45.3563 130.156 46.9398 132.858 49.1172 135.04C50.9245 136.856 53.1011 138.262 55.4994 139.162C57.8976 140.063 60.4615 140.437 63.0172 140.26C72.5372 139.64 79.7772 131.36 79.7772 121.81V71.2402C69.9881 73.9082 61.2718 79.5562 54.8373 87.4009C48.4027 95.2457 44.5688 104.898 43.8672 115.02V115.02Z" fill="#FFC830"/>
<path d="M43.68 30.44C43.5107 30.1769 43.4128 29.8743 43.3961 29.5619C43.3794 29.2494 43.4444 28.9381 43.5848 28.6584C43.7251 28.3788 43.9358 28.1406 44.1963 27.9673C44.4567 27.7939 44.7579 27.6915 45.07 27.67L54.95 27.14L64.83 26.61C65.1413 26.594 65.4514 26.6601 65.7291 26.8016C66.0069 26.9432 66.2426 27.1551 66.4127 27.4164C66.5828 27.6776 66.6813 27.9789 66.6984 28.2902C66.7155 28.6014 66.6505 28.9117 66.51 29.19L62.03 38.02L57.56 46.83C57.4196 47.1087 57.2079 47.3454 56.9464 47.5159C56.685 47.6865 56.3832 47.7849 56.0714 47.8011C55.7597 47.8174 55.4493 47.7509 55.1715 47.6085C54.8938 47.466 54.6587 47.2526 54.49 46.99L51.98 43.15C49.4829 44.8596 47.4395 47.1515 46.0265 49.8276C44.6135 52.5038 43.8734 55.4837 43.87 58.51V67.65C50.6229 65.613 56.8742 62.1837 62.2208 57.5832C67.5674 52.9826 71.8907 47.3128 74.9121 40.9392C77.9336 34.5657 79.5861 27.6297 79.7631 20.5785C79.9401 13.5272 78.6378 6.51716 75.94 2.59501e-06H19.28C16.7486 -0.00131106 14.2417 0.496141 11.9026 1.46396C9.56353 2.43178 7.43804 3.85099 5.64759 5.64051C3.85715 7.43002 2.43683 9.55478 1.4678 11.8934C0.498763 14.232 -3.40852e-07 16.7386 0 19.27V21.09C-1.35964e-06 23.6301 0.500646 26.1454 1.47332 28.4919C2.44599 30.8384 3.87162 32.9702 5.66869 34.7654C7.46577 36.5607 9.59905 37.9841 11.9466 38.9543C14.2941 39.9246 16.8099 40.4226 19.35 40.42H29.04C35.3226 40.4225 41.4598 38.5301 46.65 34.99L43.68 30.44Z" fill="#831BEE"/>
<path d="M477.75 59.6191H475.75V268.829H477.75V59.6191Z" fill="#1E2339"/>
<path d="M691.893 185.83C694.397 185.827 696.829 186.667 698.797 188.214C700.765 189.761 702.155 191.926 702.743 194.36H710.743C703.666 183.513 694.855 173.902 684.663 165.91C686.907 165.888 689.095 165.203 690.95 163.94C692.805 162.678 694.245 160.894 695.089 158.815C695.933 156.736 696.142 154.453 695.691 152.255C695.24 150.057 694.149 148.041 692.554 146.462C690.96 144.883 688.934 143.811 686.731 143.381C684.529 142.951 682.249 143.182 680.177 144.046C678.106 144.91 676.337 146.367 675.092 148.234C673.848 150.102 673.184 152.296 673.183 154.54C673.186 155.857 673.419 157.163 673.873 158.4C657.445 148.258 638.756 142.352 619.483 141.21C621.593 139.759 623.184 137.671 624.022 135.251C624.86 132.832 624.903 130.207 624.143 127.762C623.383 125.317 621.861 123.178 619.799 121.66C617.738 120.141 615.244 119.322 612.683 119.322C610.123 119.322 607.629 120.141 605.567 121.66C603.506 123.178 601.983 125.317 601.224 127.762C600.464 130.207 600.506 132.832 601.345 135.251C602.183 137.671 603.774 139.759 605.883 141.21C586.398 142.256 567.487 148.177 550.883 158.43C551.338 157.193 551.571 155.887 551.573 154.57C551.573 152.323 550.908 150.127 549.662 148.258C548.416 146.389 546.645 144.93 544.571 144.066C542.498 143.202 540.215 142.97 538.01 143.402C535.805 143.833 533.777 144.907 532.182 146.488C530.586 148.07 529.495 150.088 529.044 152.289C528.594 154.49 528.805 156.775 529.651 158.856C530.497 160.937 531.94 162.721 533.799 163.983C535.657 165.246 537.847 165.93 540.093 165.95C529.9 173.933 521.092 183.542 514.023 194.39H522.363C522.827 192.455 523.798 190.679 525.176 189.245C526.555 187.811 528.291 186.771 530.206 186.231C532.121 185.692 534.145 185.674 536.07 186.178C537.994 186.682 539.749 187.691 541.153 189.1C542.605 190.546 543.627 192.367 544.103 194.36H566.803V170.42C566.803 166.062 568.534 161.883 571.616 158.802C574.697 155.721 578.876 153.99 583.233 153.99C587.591 153.99 591.77 155.721 594.851 158.802C597.932 161.883 599.663 166.062 599.663 170.42V194.36H625.383V170.42C625.383 166.062 627.114 161.883 630.196 158.802C633.277 155.721 637.456 153.99 641.813 153.99C646.171 153.99 650.35 155.721 653.431 158.802C656.512 161.883 658.243 166.062 658.243 170.42V194.36H681.073C681.662 191.932 683.048 189.772 685.01 188.226C686.972 186.679 689.395 185.835 691.893 185.83Z" fill="#FE016E"/>
</g>
<defs>
<clipPath id="clip0_504_2460">
<rect width="731.66" height="303.22" fill="white"/>
</clipPath>
</defs>
</svg>
