<svg width="23" height="23" viewBox="0 0 46 45" fill="none" xmlns="http://www.w3.org/2000/svg">
<rect x="0.460938" y="0.0507812" width="44.7401" height="44.7401" rx="5.03843" fill="#831BEE"/>
<path d="M16.3049 29.9414H30.1626V26.3621H21.9883L25.1806 23.8227C26.9944 22.3959 28.2762 21.2108 28.9776 20.2676C29.7031 19.3244 30.0659 18.1878 30.0659 16.8334C30.0659 15.0922 29.4612 13.6411 28.2278 12.4802C26.9944 11.2952 25.3741 10.7148 23.3426 10.7148C21.7222 10.7148 20.2712 11.1017 18.9894 11.8756C17.7318 12.6253 16.8853 13.762 16.4258 15.2373L20.0293 16.7609C20.6581 15.1889 21.7464 14.3908 23.3184 14.3908C24.8662 14.3908 26.0271 15.5033 26.0271 16.8576C26.0271 17.559 25.8094 18.1878 25.3499 18.7682C24.8904 19.3486 24.0923 20.1225 22.9073 21.0899L16.3049 26.5072V29.9414Z" fill="white"/>
</svg>
