<svg width="15" height="14" viewBox="0 0 15 14" fill="none" xmlns="http://www.w3.org/2000/svg">
<path d="M7.36578 10.1797C7.36578 10.4199 7.56054 10.6147 7.80078 10.6147C8.04103 10.6147 8.23578 10.4199 8.23578 10.1797L7.36578 10.1797ZM8.10837 3.27933C7.93849 3.10945 7.66307 3.10945 7.49319 3.27933L4.72487 6.04765C4.55499 6.21753 4.55499 6.49296 4.72487 6.66284C4.89475 6.83271 5.17017 6.83271 5.34005 6.66284L7.80078 4.2021L10.2615 6.66284C10.4314 6.83271 10.7068 6.83271 10.8767 6.66284C11.0466 6.49296 11.0466 6.21753 10.8767 6.04765L8.10837 3.27933ZM8.23578 10.1797L8.23578 3.58692L7.36578 3.58692L7.36578 10.1797L8.23578 10.1797Z" fill="grey"/>
<circle cx="7.80118" cy="6.88321" r="6.1254" stroke="grey" stroke-width="1.5"/>
</svg>
