<svg width="15" height="15" viewBox="0 0 19 19" fill="none" xmlns="http://www.w3.org/2000/svg">
<path d="M4.62695 14.9615C4.62695 13.1716 5.88595 11.647 7.59697 11.3649L7.75109 11.3395C9.12119 11.1136 10.5173 11.1136 11.8874 11.3395L12.0415 11.3649C13.7525 11.647 15.0115 13.1716 15.0115 14.9615C15.0115 15.7352 14.4044 16.3623 13.6555 16.3623H5.98298C5.23407 16.3623 4.62695 15.7352 4.62695 14.9615Z" stroke="#E40968" stroke-width="1.11263"/>
<path d="M12.8481 5.9314C12.8481 7.54444 11.492 8.85206 9.81925 8.85206C8.14648 8.85206 6.79042 7.54444 6.79042 5.9314C6.79042 4.31837 8.14648 3.01074 9.81925 3.01074C11.492 3.01074 12.8481 4.31837 12.8481 5.9314Z" stroke="#E40968" stroke-width="1.11263"/>
</svg>
