<svg width="50" height="50" viewBox="0 0 50 50" fill="none" xmlns="http://www.w3.org/2000/svg">
<path d="M25.6625 1.54107C12.748 1.29896 2.08241 11.572 1.8403 24.4865C1.59819 37.401 11.8712 48.0665 24.7857 48.3087C37.7002 48.5508 48.3658 38.2777 48.6079 25.3632C48.85 12.4487 38.577 1.78318 25.6625 1.54107Z" stroke="#586ADA" stroke-width="2"/>
<path d="M13.7703 37.9185C13.3163 37.7132 13.1945 37.3497 13.2007 36.8637C13.2653 32.1559 16.8116 27.9526 21.4161 27.1682C21.9934 27.075 22.5764 27.0224 23.161 27.0107C24.1961 26.9827 25.2325 26.9621 26.267 26.9944C30.1944 27.1189 33.0792 28.9759 34.9779 32.4016C35.7264 33.7494 36.0558 35.2244 36.1286 36.7637C36.151 37.2429 36.0095 37.5913 35.5713 37.7994L13.7703 37.9185Z" fill="#586ADA"/>
<path d="M24.6012 25.4598C23.2406 25.4666 21.9086 25.0672 20.7737 24.3123C19.6388 23.5574 18.7521 22.4809 18.2258 21.2189C17.6994 19.957 17.5571 18.5663 17.8168 17.223C18.0766 15.8797 18.7267 14.644 19.6848 13.6725C20.643 12.7009 21.8662 12.037 23.1997 11.7649C24.5332 11.4927 25.9169 11.6246 27.1758 12.1437C28.4348 12.6628 29.5122 13.5459 30.272 14.6811C31.0318 15.8164 31.4397 17.1528 31.444 18.5213C31.4464 20.3525 30.728 22.1103 29.4458 23.4104C28.1636 24.7105 26.4219 25.4473 24.6012 25.4598Z" fill="#586ADA"/>
</svg>
