<svg width="11" height="11" viewBox="0 0 13 16" fill="none" xmlns="http://www.w3.org/2000/svg">
<path d="M1.55273 13.4967C1.55273 11.7067 2.81173 10.1821 4.52275 9.90003L4.67687 9.87462C6.04697 9.64873 7.44307 9.64873 8.81317 9.87462L8.96729 9.90003C10.6783 10.1821 11.9373 11.7067 11.9373 13.4967C11.9373 14.2703 11.3302 14.8975 10.5813 14.8975H2.90876C2.15985 14.8975 1.55273 14.2703 1.55273 13.4967Z" stroke="#E40968" stroke-width="1.11263"/>
<path d="M9.77387 4.46656C9.77387 6.0796 8.41781 7.38722 6.74504 7.38722C5.07226 7.38722 3.7162 6.0796 3.7162 4.46656C3.7162 2.85352 5.07226 1.5459 6.74504 1.5459C8.41781 1.5459 9.77387 2.85352 9.77387 4.46656Z" stroke="#E40968" stroke-width="1.11263"/>
</svg>
