<svg width="28" height="28" viewBox="0 0 28 28" fill="none" xmlns="http://www.w3.org/2000/svg">
<g opacity="0.98">
<path d="M20.5486 17.4567C20.643 17.6067 20.7808 17.7238 20.9405 17.8009C22.1613 18.3906 22.993 19.6462 22.974 21.0998L22.9445 23.3504C22.9384 23.8165 23.3114 24.1944 23.7775 24.1944C24.2437 24.1944 24.6265 23.8165 24.6326 23.3504L24.6621 21.0998C24.7007 18.1478 22.3387 15.7546 19.3864 15.7546C19.2641 15.7546 19.2069 15.9124 19.2983 15.9925C19.7826 16.4164 20.2044 16.9095 20.5486 17.4567Z" fill="#E40967"/>
<path fill-rule="evenodd" clip-rule="evenodd" d="M8.11123 17.4425C6.09138 17.4425 4.43253 19.0797 4.40609 21.0994L4.37663 23.3499C4.37053 23.8159 3.98772 24.1938 3.5216 24.1938C3.05548 24.1938 2.68256 23.8159 2.68866 23.3499L2.71812 21.0994C2.75676 18.1476 5.18123 15.7546 8.13332 15.7546H14.8852C17.8373 15.7546 20.1991 18.1476 20.1605 21.0994L20.131 23.3499C20.1249 23.8159 19.7421 24.1938 19.276 24.1938C18.8099 24.1938 18.4369 23.8159 18.443 23.3499L18.4725 21.0994C18.4989 19.0797 16.883 17.4425 14.8631 17.4425H8.11123Z" fill="#E40967"/>
<path d="M17.0444 11.6005C17.147 11.4103 17.308 11.2583 17.4948 11.1493C18.3325 10.6605 18.9023 9.75669 18.9159 8.7226C18.9294 7.68852 18.3833 6.78474 17.5583 6.29589C17.3744 6.1869 17.2173 6.03494 17.1197 5.84468C16.8469 5.31306 16.4984 4.82711 16.0882 4.40093C16.0241 4.33436 16.0683 4.22141 16.1613 4.22141C18.6475 4.22141 20.6365 6.23666 20.604 8.7226C20.5714 11.2085 18.5296 13.2238 16.0435 13.2238C15.9505 13.2238 15.9092 13.1108 15.9751 13.0443C16.3964 12.6181 16.7576 12.1321 17.0444 11.6005Z" fill="#E40967"/>
<path fill-rule="evenodd" clip-rule="evenodd" d="M11.564 11.5359C13.1179 11.5359 14.394 10.2763 14.4144 8.7226C14.4347 7.16889 13.1915 5.90935 11.6377 5.90935C10.0838 5.90935 8.80771 7.16889 8.78737 8.7226C8.76703 10.2763 10.0102 11.5359 11.564 11.5359ZM11.5419 13.2238C14.0281 13.2238 16.0699 11.2085 16.1024 8.7226C16.135 6.23666 14.1459 4.22141 11.6598 4.22141C9.17363 4.22141 7.13182 6.23666 7.09928 8.7226C7.06674 11.2085 9.05578 13.2238 11.5419 13.2238Z" fill="#E40967"/>
</g>
</svg>
