<svg width="28" height="21" viewBox="0 0 28 21" fill="none" xmlns="http://www.w3.org/2000/svg">
<path d="M13.92 21C8.70927 21 3.72012 16.5266 0.426848 11.8824C-0.142283 11.0797 -0.142283 9.91458 0.426848 9.11199C1.25485 7.9443 2.99005 5.69151 5.30799 3.72267C11.1462 -1.23611 16.6825 -1.24567 22.532 3.72267C25.2551 6.0356 27.4132 9.06861 27.4132 9.11199C27.9823 9.91458 27.9823 11.0797 27.4132 11.8823C24.1204 16.5259 19.1319 21 13.92 21ZM13.92 1.99489C8.14758 1.99489 3.14376 8.41856 1.74769 10.3873C1.70258 10.451 1.70258 10.5434 1.74769 10.607C3.14381 12.5758 8.14758 18.9995 13.92 18.9995C19.6924 18.9995 24.6962 12.5758 26.0923 10.607C26.1737 10.4922 26.087 10.3873 26.0923 10.3873C24.6962 8.41856 19.6924 1.99489 13.92 1.99489Z" fill="#E77D27"/>
<path d="M13.92 17.499C10.6114 17.499 7.91957 14.358 7.91957 10.4972C7.91957 6.6363 10.6114 3.49527 13.92 3.49527C17.2286 3.49527 19.9204 6.6363 19.9204 10.4972C19.9204 14.358 17.2286 17.499 13.92 17.499ZM13.92 5.49581C11.5567 5.49581 9.63398 7.73941 9.63398 10.4972C9.63398 13.2549 11.5567 15.4985 13.92 15.4985C16.2833 15.4985 18.206 13.2549 18.206 10.4972C18.206 7.73941 16.2833 5.49581 13.92 5.49581Z" fill="#E77D27"/>
</svg>
