<svg width="31" height="31" viewBox="0 0 31 31" fill="none" xmlns="http://www.w3.org/2000/svg">
<path d="M15.5 0C6.944 0 0 6.944 0 15.5C0 24.056 6.944 31 15.5 31C24.056 31 31 24.056 31 15.5C31 6.944 24.056 0 15.5 0ZM15.5 24.8C14.3633 24.8 13.4333 23.87 13.4333 22.7333C13.4333 21.5967 14.3633 20.6667 15.5 20.6667C16.6367 20.6667 17.5667 21.5967 17.5667 22.7333C17.5667 23.87 16.6367 24.8 15.5 24.8ZM17.8663 8.773L17.174 17.0603C17.1017 17.9283 16.3783 18.6 15.5 18.6C14.6217 18.6 13.8983 17.9283 13.826 17.0603L13.1337 8.773C13.02 7.38833 14.105 6.2 15.5 6.2C16.8227 6.2 17.8767 7.27467 17.8767 8.57667C17.8767 8.63867 17.8767 8.711 17.8663 8.773Z" fill="#FF6174"/>
</svg>
