<svg width="18" height="18" viewBox="0 0 18 18" fill="none" xmlns="http://www.w3.org/2000/svg">
<path fill-rule="evenodd" clip-rule="evenodd" d="M14.032 5.37324e-07H13.968C13.5294 -1.10558e-05 13.1509 -2.10591e-05 12.8376 0.0213516C12.5078 0.0438556 12.1779 0.0933594 11.852 0.228363C11.1169 0.532845 10.5328 1.11687 10.2284 1.85195C10.0934 2.17788 10.0439 2.50779 10.0214 2.83762C9.99998 3.15087 9.99999 3.52934 10 3.96797V6.03199C9.99999 6.47062 9.99998 6.84914 10.0214 7.16238C10.0439 7.49221 10.0934 7.82212 10.2284 8.14805C10.5328 8.88314 11.1169 9.46716 11.852 9.77164C12.1779 9.90664 12.5078 9.95615 12.8376 9.97865C13.1509 10 13.5293 10 13.968 10H14.032C14.4706 10 14.8491 10 15.1624 9.97865C15.4922 9.95615 15.8221 9.90664 16.1481 9.77164C16.8831 9.46716 17.4672 8.88314 17.7716 8.14805C17.9066 7.82212 17.9561 7.49221 17.9787 7.16238C18 6.84913 18 6.47064 18 6.03199V3.96801C18 3.52936 18 3.15088 17.9787 2.83762C17.9561 2.50779 17.9066 2.17788 17.7716 1.85195C17.4672 1.11687 16.8831 0.532845 16.1481 0.228363C15.8221 0.0933594 15.4922 0.0438556 15.1624 0.0213516C14.8491 -2.10591e-05 14.4706 -1.10558e-05 14.032 5.37324e-07ZM12.6173 2.07612C12.6589 2.05889 12.7458 2.03227 12.9738 2.01671C13.2107 2.00054 13.5204 2 14 2C14.4796 2 14.7893 2.00054 15.0262 2.01671C15.2542 2.03227 15.3411 2.05889 15.3827 2.07612C15.6277 2.17762 15.8224 2.37229 15.9239 2.61732C15.9411 2.65893 15.9677 2.74576 15.9833 2.97376C15.9995 3.21074 16 3.52038 16 4V6C16 6.47963 15.9995 6.78926 15.9833 7.02624C15.9677 7.25424 15.9411 7.34107 15.9239 7.38269C15.8224 7.62771 15.6277 7.82239 15.3827 7.92388C15.3411 7.94112 15.2542 7.96774 15.0262 7.98329C14.7893 7.99946 14.4796 8 14 8C13.5204 8 13.2107 7.99946 12.9738 7.98329C12.7458 7.96774 12.6589 7.94112 12.6173 7.92388C12.3723 7.82239 12.1776 7.62771 12.0761 7.38269C12.0589 7.34107 12.0323 7.25424 12.0167 7.02624C12.0005 6.78926 12 6.47963 12 6V4C12 3.52038 12.0005 3.21074 12.0167 2.97376C12.0323 2.74576 12.0589 2.65893 12.0761 2.61732C12.1776 2.37229 12.3723 2.17762 12.6173 2.07612Z" fill="#747474"/>
<path fill-rule="evenodd" clip-rule="evenodd" d="M4.03199 8H3.96802C3.52937 7.99999 3.15088 7.99998 2.83762 8.02135C2.50779 8.04386 2.17788 8.09336 1.85195 8.22836C1.11687 8.53285 0.532845 9.11687 0.228363 9.85195C0.0933594 10.1779 0.0438556 10.5078 0.0213516 10.8376C-2.10591e-05 11.1509 -1.10558e-05 11.5293 5.37324e-07 11.968V14.032C-1.10558e-05 14.4706 -2.10591e-05 14.8491 0.0213516 15.1624C0.0438556 15.4922 0.0933594 15.8221 0.228363 16.1481C0.532845 16.8831 1.11687 17.4672 1.85195 17.7716C2.17788 17.9066 2.50779 17.9561 2.83762 17.9787C3.15088 18 3.52936 18 3.96801 18H4.03199C4.47064 18 4.84913 18 5.16238 17.9787C5.49221 17.9561 5.82212 17.9066 6.14805 17.7716C6.88314 17.4672 7.46716 16.8831 7.77164 16.1481C7.90664 15.8221 7.95615 15.4922 7.97865 15.1624C8.00002 14.8491 8.00002 14.4707 8 14.032V11.968C8.00002 11.5294 8.00002 11.1509 7.97865 10.8376C7.95615 10.5078 7.90664 10.1779 7.77164 9.85195C7.46716 9.11687 6.88314 8.53285 6.14805 8.22836C5.82212 8.09336 5.49221 8.04386 5.16238 8.02135C4.84913 7.99998 4.47064 7.99999 4.03199 8ZM2.61732 10.0761C2.65893 10.0589 2.74576 10.0323 2.97376 10.0167C3.21074 10.0005 3.52038 10 4 10C4.47963 10 4.78926 10.0005 5.02624 10.0167C5.25424 10.0323 5.34107 10.0589 5.38269 10.0761C5.62771 10.1776 5.82239 10.3723 5.92388 10.6173C5.94112 10.6589 5.96774 10.7458 5.98329 10.9738C5.99946 11.2107 6 11.5204 6 12V14C6 14.4796 5.99946 14.7893 5.98329 15.0262C5.96774 15.2542 5.94112 15.3411 5.92388 15.3827C5.82239 15.6277 5.62771 15.8224 5.38269 15.9239C5.34107 15.9411 5.25424 15.9677 5.02624 15.9833C4.78926 15.9995 4.47963 16 4 16C3.52038 16 3.21074 15.9995 2.97376 15.9833C2.74576 15.9677 2.65893 15.9411 2.61732 15.9239C2.37229 15.8224 2.17762 15.6277 2.07612 15.3827C2.05889 15.3411 2.03227 15.2542 2.01671 15.0262C2.00054 14.7893 2 14.4796 2 14V12C2 11.5204 2.00054 11.2107 2.01671 10.9738C2.03227 10.7458 2.05889 10.6589 2.07612 10.6173C2.17762 10.3723 2.37229 10.1776 2.61732 10.0761Z" fill="#747474"/>
<path fill-rule="evenodd" clip-rule="evenodd" d="M3 0C1.34315 0 0 1.34315 0 3C0 4.65685 1.34315 6 3 6H5C6.65685 6 8 4.65685 8 3C8 1.34315 6.65685 0 5 0H3ZM2 3C2 2.44772 2.44772 2 3 2H5C5.55228 2 6 2.44772 6 3C6 3.55228 5.55228 4 5 4H3C2.44772 4 2 3.55228 2 3Z" fill="#747474"/>
<path fill-rule="evenodd" clip-rule="evenodd" d="M13 12C11.3431 12 10 13.3431 10 15C10 16.6569 11.3431 18 13 18H15C16.6569 18 18 16.6569 18 15C18 13.3431 16.6569 12 15 12H13ZM12 15C12 14.4477 12.4477 14 13 14H15C15.5523 14 16 14.4477 16 15C16 15.5523 15.5523 16 15 16H13C12.4477 16 12 15.5523 12 15Z" fill="#747474"/>
</svg>
