<?xml version="1.0" encoding="UTF-8" standalone="no"?>
<!DOCTYPE svg PUBLIC "-//W3C//DTD SVG 1.1//EN" "http://www.w3.org/Graphics/SVG/1.1/DTD/svg11.dtd">
<svg width="100%" height="100%" viewBox="0 0 24 24" version="1.1" xmlns="http://www.w3.org/2000/svg" xmlns:xlink="http://www.w3.org/1999/xlink" xml:space="preserve" xmlns:serif="http://www.serif.com/" style="fill-rule:evenodd;clip-rule:evenodd;stroke-linejoin:round;stroke-miterlimit:2;">
    <g transform="matrix(1,0,0,1,-4808.56,-1084.21)">
        <path d="M4820.39,1084.21C4826.92,1084.21 4832.22,1089.51 4832.22,1096.04C4832.22,1102.57 4826.92,1107.87 4820.39,1107.87C4813.86,1107.87 4808.56,1102.57 4808.56,1096.04C4808.56,1089.51 4813.86,1084.21 4820.39,1084.21ZM4812.73,1089.85C4811.36,1091.55 4810.54,1093.7 4810.54,1096.04C4810.54,1101.48 4814.95,1105.89 4820.39,1105.89C4822.74,1105.89 4824.9,1105.07 4826.59,1103.7L4812.73,1089.85ZM4815.88,1094.52L4822.15,1100.78C4822.12,1101.12 4822.14,1101.35 4822.14,1101.35C4822.02,1103.24 4820.32,1103.67 4820.32,1103.67C4818.26,1104.02 4817.31,1102.05 4817.31,1102.05C4816.31,1100.35 4814.83,1099.5 4814.83,1099.5C4812.92,1098.54 4813.02,1096.94 4813.02,1096.94C4813.09,1094.73 4815.22,1094.59 4815.22,1094.59C4815.45,1094.57 4815.67,1094.55 4815.88,1094.52ZM4828,1102.29C4829.4,1100.59 4830.24,1098.41 4830.24,1096.04C4830.24,1090.61 4825.83,1086.19 4820.39,1086.19C4818.01,1086.19 4815.83,1087.04 4814.13,1088.44L4815.76,1090.07C4815.85,1090 4815.94,1089.93 4816.04,1089.86C4816.04,1089.86 4817.69,1088.79 4818.77,1089.86C4818.77,1089.86 4819.63,1090.94 4818.4,1092.7L4819.6,1093.9C4819.81,1094.03 4819.96,1094.2 4820.07,1094.37L4824.07,1098.36C4825.82,1097.14 4826.9,1098 4826.9,1098C4827.96,1099.08 4826.9,1100.73 4826.9,1100.73C4826.83,1100.82 4826.76,1100.91 4826.69,1100.99L4828,1102.29ZM4823.28,1097C4823.28,1097 4825.1,1098.28 4826.75,1096.65C4826.75,1096.65 4827.4,1095.98 4827.62,1095.04C4827.88,1094.14 4827.83,1093.01 4826.9,1092.16C4826.9,1092.16 4825.42,1091.05 4823.28,1093.75C4823.28,1093.75 4821.94,1095.95 4823.28,1097ZM4819.77,1093.48C4819.77,1093.48 4818.49,1091.65 4820.12,1090C4820.12,1090 4820.79,1089.35 4821.73,1089.14C4822.63,1088.88 4823.77,1088.93 4824.61,1089.86C4824.61,1089.86 4825.72,1091.34 4823.01,1093.48C4823.01,1093.48 4820.82,1094.81 4819.77,1093.48Z" style="fill:rgb(53,57,77);"/>
    </g>
</svg>
