<svg width="10" height="18" viewBox="0 0 10 18" fill="none" xmlns="http://www.w3.org/2000/svg">
<path d="M5.03844 4.40779C3.93839 4.40779 3.04662 3.57038 3.04662 2.53739C3.04662 1.5044 3.93839 0.666992 5.03844 0.666992C6.1385 0.666992 7.03027 1.5044 7.03027 2.53739C7.03027 3.57038 6.1385 4.40779 5.03844 4.40779Z" fill="#831BEE"/>
<path d="M4.34448 5.15899C4.84078 5.09349 5.38039 5.09637 5.86785 5.17106C9.17932 5.42328 10.2546 7.91478 9.95095 9.8145C9.81925 10.6358 7.82742 10.6444 7.96045 9.8145C8.07093 9.12218 8.02364 8.07738 7.45752 7.33478C7.45752 8.23739 7.45752 9.13999 7.45752 10.0423C7.45752 10.0742 7.45266 10.1041 7.45045 10.1348C7.45177 10.1495 7.45708 10.1618 7.45708 10.1767C7.45708 12.3252 7.46282 14.4729 7.59938 16.6197C7.65993 17.574 5.38349 17.5702 5.32338 16.6197C5.21643 14.9371 5.18948 13.2537 5.18329 11.57C5.07545 11.5746 4.96762 11.5746 4.85979 11.5706C4.85316 13.2543 4.82708 14.9377 4.72102 16.6197C4.66047 17.5702 2.38403 17.574 2.44502 16.6197C2.58158 14.4729 2.58644 12.3252 2.58644 10.1767C2.58644 10.1101 2.60014 10.0495 2.62091 9.99117C2.62401 9.0584 2.67881 8.12478 2.66201 7.19258C1.98408 7.93862 1.9222 9.0765 2.03976 9.81393C2.17323 10.6433 0.180957 10.6349 0.0492582 9.81393C-0.261427 7.87485 0.865522 5.31871 4.34448 5.15899Z" fill="#831BEE"/>
</svg>
