<svg width="29" height="29" viewBox="0 0 29 29" fill="none" xmlns="http://www.w3.org/2000/svg">
<path d="M18.7414 3.41699H10.2589C7.25016 3.41699 6.58558 4.91533 6.19891 6.75199L4.8335 13.2891H24.1668L22.8014 6.75199C22.4147 4.91533 21.7502 3.41699 18.7414 3.41699Z" stroke="#747474" stroke-width="2.5" stroke-linecap="round" stroke-linejoin="round"/>
<path d="M26.572 23.9495C26.7049 25.3632 25.5691 26.5837 24.1191 26.5837H21.8474C20.5424 26.5837 20.3612 26.0278 20.1316 25.3391L19.8899 24.6141C19.5516 23.6232 19.3341 22.9587 17.5941 22.9587H11.4074C9.66745 22.9587 9.4137 23.7078 9.11161 24.6141L8.86995 25.3391C8.64036 26.0278 8.45911 26.5837 7.15411 26.5837H4.88245C3.43245 26.5837 2.29661 25.3632 2.42953 23.9495L3.1062 16.5907C3.27536 14.7782 3.62578 13.292 6.79161 13.292H22.2099C25.3758 13.292 25.7262 14.7782 25.8954 16.5907L26.572 23.9495Z" stroke="#747474" stroke-width="2.5" stroke-linecap="round" stroke-linejoin="round"/>
<path d="M4.83333 9.66699H3.625" stroke="#747474" stroke-width="1.5" stroke-linecap="round" stroke-linejoin="round"/>
<path d="M25.3748 9.66699H24.1665" stroke="#747474" stroke-width="1.5" stroke-linecap="round" stroke-linejoin="round"/>
<path d="M14.5 3.625V6.04167" stroke="#747474" stroke-width="1.5" stroke-linecap="round" stroke-linejoin="round"/>
<path d="M12.6875 6.04199H16.3125" stroke="#747474" stroke-width="1.5" stroke-linecap="round" stroke-linejoin="round"/>
<path d="M7.25 18.125H10.875" stroke="#747474" stroke-width="1.5" stroke-linecap="round" stroke-linejoin="round"/>
<path d="M18.125 18.125H21.75" stroke="#747474" stroke-width="1.5" stroke-linecap="round" stroke-linejoin="round"/>
</svg>
