<svg width="12" height="18" viewBox="0 0 12 18" fill="none" xmlns="http://www.w3.org/2000/svg">
<path d="M2.20607 12.874C1.72713 13.7992 1.47217 14.8269 1.47217 15.8812C1.47217 16.682 2.14489 17.3333 2.97174 17.3333C3.79846 17.3333 4.47118 16.6818 4.47118 15.881C4.47118 15.6407 4.49429 15.404 4.53906 15.1727C3.46171 14.7667 2.60702 13.9259 2.20607 12.874Z" fill="#831BEE"/>
<path d="M7.4624 15.1727C7.50704 15.404 7.53015 15.6407 7.53015 15.8812C7.53015 16.6818 8.20287 17.3333 9.02972 17.3333C9.85657 17.3333 10.5292 16.6818 10.5292 15.8812C10.5292 14.8269 10.2743 13.7992 9.79526 12.874C9.39431 13.9259 8.53962 14.7667 7.4624 15.1727Z" fill="#831BEE"/>
<path d="M11.3853 7.4974C11.9824 6.91925 11.9824 5.97845 11.3853 5.40017C11.0962 5.12005 10.7116 4.96582 10.3026 4.96582C9.89365 4.96582 9.50911 5.12005 9.22001 5.40017C8.17377 6.41331 7.15078 6.88517 6.00017 6.88517C4.84969 6.88517 3.82656 6.41331 2.78045 5.40017C2.18349 4.82201 1.21208 4.82201 0.614985 5.40017C0.325757 5.68028 0.166504 6.05271 0.166504 6.44879C0.166504 6.84486 0.325757 7.21729 0.614985 7.4974C1.21051 8.07416 2.16419 8.79714 2.97358 9.19525V10.3411H9.02688V9.19525C9.83615 8.79714 10.7898 8.07429 11.3853 7.4974Z" fill="#831BEE"/>
<path d="M2.97412 11.3262V11.5211C2.97412 13.1374 4.3319 14.4524 6.00084 14.4524C7.66978 14.4524 9.02756 13.1374 9.02756 11.5211V11.3262H2.97412Z" fill="#831BEE"/>
<path d="M5.99984 6.12483C7.03767 6.12483 7.94566 5.57821 8.43458 4.76699C8.67759 4.36379 8.81755 3.89549 8.81755 3.39591C8.81755 1.8912 7.5535 0.666992 5.99984 0.666992C4.44617 0.666992 3.18213 1.8912 3.18213 3.39591C3.18213 3.89549 3.32208 4.36366 3.5651 4.76686C4.05401 5.57808 4.962 6.12483 5.99984 6.12483Z" fill="#831BEE"/>
</svg>
