<svg width="29" height="29" viewBox="0 0 29 29" fill="none" xmlns="http://www.w3.org/2000/svg">
<path d="M21.7524 20.2019V8.74063V8.73666C21.7524 7.38585 21.7524 6.71002 21.4893 6.19357C21.2576 5.73885 20.8874 5.36912 20.4327 5.13742C19.9157 4.87402 19.2395 4.87402 17.886 4.87402H11.1193C9.76588 4.87402 9.08865 4.87402 8.5717 5.13742C8.11697 5.36912 7.74754 5.73885 7.51584 6.19357C7.25244 6.71053 7.25244 7.38717 7.25244 8.74063V20.2019C7.25244 21.8465 7.25244 22.6689 7.49908 23.1721C7.95623 24.1048 8.95809 24.641 9.98771 24.504C10.5432 24.4301 11.2274 23.974 12.5958 23.0617L12.5985 23.0599C13.1413 22.6981 13.4129 22.517 13.6967 22.4167C14.2178 22.2325 14.7861 22.2325 15.3072 22.4167C15.5915 22.5172 15.8638 22.6987 16.4083 23.0617L16.4084 23.0617C17.7768 23.974 18.4619 24.4301 19.0174 24.504C20.0471 24.641 21.0487 24.1048 21.5058 23.1721C21.7524 22.6689 21.7524 21.8466 21.7524 20.2023V20.2019Z" stroke="#747474" stroke-width="2.5" stroke-linecap="round" stroke-linejoin="round"/>
</svg>
