<svg width="28" height="22" viewBox="0 0 28 22" fill="none" xmlns="http://www.w3.org/2000/svg">
<path d="M25.6682 16.4983C25.7148 12.109 23.6432 8.02901 20.0965 5.7179C18.8898 4.93212 17.5832 4.42545 16.2482 4.14456C16.4048 3.79612 16.4998 3.41034 16.4998 2.99967C16.4998 1.52945 15.3782 0.333008 13.9998 0.333008C12.6215 0.333008 11.4998 1.52945 11.4998 2.99967C11.4998 3.41034 11.5948 3.79612 11.7515 4.14456C10.4165 4.42545 9.10984 4.93034 7.90317 5.71612C4.3565 8.02723 2.28484 12.1072 2.3315 16.4966C1.36484 16.8663 0.666504 17.8423 0.666504 18.9997C0.666504 20.4699 1.78817 21.6663 3.1665 21.6663H24.8332C26.2115 21.6663 27.3332 20.4699 27.3332 18.9997C27.3332 17.8423 26.6348 16.8663 25.6682 16.4983ZM13.9998 2.11079C14.4582 2.11079 14.8332 2.51079 14.8332 2.99967C14.8332 3.47967 14.4732 3.86723 14.0265 3.88323C14.0082 3.88323 13.9898 3.88323 13.9732 3.88323C13.5265 3.86723 13.1665 3.47967 13.1665 2.99967C13.1665 2.51079 13.5415 2.11079 13.9998 2.11079ZM8.7715 7.23434C10.3715 6.19256 12.1632 5.6699 13.9565 5.66279C13.9715 5.66101 13.9848 5.66634 13.9998 5.66634C14.0148 5.66634 14.0282 5.66279 14.0432 5.66101C15.8365 5.6699 17.6282 6.19079 19.2265 7.23256C22.2298 9.1899 23.9998 12.6246 24.0048 16.333H3.99484C3.99984 12.6246 5.76984 9.1899 8.7715 7.23434ZM24.8332 19.8886H3.1665C2.70817 19.8886 2.33317 19.4886 2.33317 18.9997C2.33317 18.5108 2.70817 18.1108 3.1665 18.1108H24.8332C25.2915 18.1108 25.6665 18.5108 25.6665 18.9997C25.6665 19.4886 25.2915 19.8886 24.8332 19.8886Z" fill="#747474"/>
<path d="M20.2048 10.3979C18.6248 8.51874 16.3648 7.44141 13.9998 7.44141C13.5398 7.44141 13.1665 7.83963 13.1665 8.3303C13.1665 8.82096 13.5398 9.21918 13.9998 9.21918C15.8915 9.21918 17.7015 10.0814 18.9648 11.5854C19.1298 11.781 19.3565 11.8805 19.5848 11.8805C19.7832 11.8805 19.9815 11.8059 20.1415 11.653C20.4832 11.3241 20.5132 10.7641 20.2048 10.3979Z" fill="#747474"/>
</svg>
