<svg width="27" height="27" viewBox="0 0 27 27" fill="none" xmlns="http://www.w3.org/2000/svg">
<path d="M22.9553 3.93809C14.5077 -4.49264 0.0138053 1.51133 0.00256571 13.4456C-0.14649 20.6724 6.22067 27.0408 13.4481 26.891C25.3828 26.8791 31.386 12.3848 22.9553 3.93809ZM2.10337 13.4455C2.10337 10.6952 3.08741 8.1706 4.72156 6.20456L6.35014 7.83315C6.76038 8.2434 7.42546 8.2434 7.8357 7.83315C8.2459 7.42291 8.2459 6.75782 7.8357 6.34763L6.20712 4.71904C17.0619 -3.76085 30.651 9.84253 22.1745 20.6865L20.861 19.373C20.4508 18.9628 19.7856 18.9628 19.3754 19.373C18.9652 19.7833 18.9652 20.4483 19.3754 20.8585L20.6889 22.172C13.4483 28.2834 2.0613 23.0055 2.10337 13.4455ZM14.2518 8.7912C14.3837 7.49171 15.2684 6.78445 16.2604 6.89076C18.7572 7.16376 18.0931 11.4863 15.8093 11.3367C14.8172 11.2304 14.1199 10.0907 14.2518 8.7912ZM11.2442 11.3367C12.2363 11.2304 12.9336 10.0907 12.8017 8.7912C12.528 5.99615 8.91076 6.39957 9.20924 9.17624C9.34112 10.4757 10.2522 11.443 11.2442 11.3367ZM9.20704 12.6738C9.00851 11.4895 8.15199 10.8956 7.24489 11.055C4.9651 11.4589 5.82687 15.3848 7.9242 15.1066C8.83119 14.9473 9.40557 13.858 9.20704 12.6738ZM19.7348 11.0025C18.8136 10.8432 17.9436 11.437 17.7421 12.6213C17.3473 15.4789 20.5016 16.0308 21.0781 13.1985C21.2798 12.0142 20.6561 11.1619 19.7348 11.0025ZM11.0115 13.6761C10.9942 13.6927 11.0275 13.6583 11.0115 13.6761V13.6761ZM15.9526 13.6817C15.9383 13.6659 15.9677 13.6966 15.9526 13.6817V13.6817ZM17.8941 18.2821C17.8669 20.6703 15.4714 20.8919 13.4791 20.8511C12.489 20.8511 11.5361 20.83 10.7625 20.5751C7.68497 19.5377 9.36964 15.5224 11.0115 13.6761C11.864 12.8525 12.6952 12.4507 13.5005 12.4477C14.3148 12.4477 15.1062 12.8514 15.9526 13.6818C17.1052 14.9587 17.8941 16.7925 17.8941 18.2821ZM15.7933 18.2821C15.7933 17.3072 15.2578 16.0561 14.4584 15.159C13.8916 14.6092 13.5894 14.5485 13.4841 14.5485H13.4831C13.3787 14.5489 13.0756 14.6101 12.4972 15.162C11.6934 16.0652 11.1551 17.3147 11.1551 18.2821C11.1551 18.4521 11.1551 18.4925 11.4198 18.5798C11.8973 18.7371 12.7331 18.7503 13.4791 18.7503C14.2237 18.7503 15.0578 18.7371 15.5323 18.5801C15.7933 18.4938 15.7933 18.4573 15.7933 18.2821Z" fill="#747474"/>
</svg>
