<svg width="26" height="26" viewBox="0 0 26 26" fill="none" xmlns="http://www.w3.org/2000/svg">
<path d="M18.2083 8.83398C17.6341 8.83398 17.1667 8.36655 17.1667 7.79233C17.1667 6.64336 16.2324 5.70898 15.0833 5.70898H13.5208C13.233 5.70898 13 5.94194 13 6.22983C13 6.51772 13.233 6.75068 13.5208 6.75068H15.0833C15.6576 6.75068 16.125 7.21811 16.125 7.79233C16.125 8.94131 17.0593 9.87563 18.2083 9.87563C18.7826 9.87563 19.25 10.3431 19.25 10.9173V12.4798C19.25 12.7677 19.483 13.0006 19.7708 13.0006C20.0587 13.0006 20.2917 12.7677 20.2917 12.4798V10.9173C20.2917 9.76831 19.3573 8.83398 18.2083 8.83398Z" fill="#747474"/>
<path d="M17.6876 11.9577H16.6459C16.3585 11.9577 16.125 11.7243 16.125 11.4369C16.125 10.5752 15.4242 9.87437 14.5625 9.87437C14.2752 9.87437 14.0417 9.64092 14.0417 9.35352V8.31187C14.0417 8.02397 13.8087 7.79102 13.5208 7.79102C13.233 7.79102 13 8.02397 13 8.31187V9.35352C13 10.2151 13.7009 10.916 14.5625 10.916C14.8499 10.916 15.0833 11.1495 15.0833 11.4369C15.0833 12.2985 15.7842 12.9994 16.6458 12.9994H17.6876C17.9754 12.9994 18.2084 12.7664 18.2084 12.4785C18.2084 12.1907 17.9754 11.9577 17.6876 11.9577Z" fill="#747474"/>
<path d="M13 0.5C6.10762 0.5 0.5 6.10762 0.5 13C0.5 19.8924 6.10762 25.5 13 25.5C19.8924 25.5 25.5 19.8924 25.5 13C25.5 6.10762 19.8924 0.5 13 0.5ZM13 23.4167C7.2561 23.4167 2.58335 18.7439 2.58335 13C2.58335 10.5024 3.46836 8.20869 4.93926 6.41221L12.5687 14.0417H6.22915C5.94126 14.0417 5.7083 14.2746 5.7083 14.5625V16.6458C5.7083 16.9337 5.94126 17.1667 6.22915 17.1667H15.6937L19.5877 21.0608C17.7913 22.5316 15.4976 23.4167 13 23.4167ZM21.0608 19.5878L18.6396 17.1667H19.7708C20.0587 17.1667 20.2917 16.9337 20.2917 16.6458V14.5625C20.2917 14.2746 20.0587 14.0417 19.7708 14.0417H15.5146L6.41221 4.93921C8.20869 3.46836 10.5024 2.58335 13 2.58335C18.7439 2.58335 23.4167 7.2561 23.4167 13C23.4167 15.4976 22.5316 17.7913 21.0608 19.5878ZM18.2083 16.125V15.0833H19.25V16.125H18.2083Z" fill="#747474"/>
</svg>
