<svg width="26" height="25" viewBox="0 0 26 25" fill="none" xmlns="http://www.w3.org/2000/svg">
<path d="M14.8031 3.65723L16.6364 7.32389C16.8864 7.83431 17.5531 8.32389 18.1156 8.41764L21.4385 8.96973C23.5635 9.32389 24.0635 10.8656 22.5323 12.3864L19.9489 14.9697C19.5114 15.4072 19.2718 16.251 19.4073 16.8551L20.1468 20.0531C20.7302 22.5843 19.3864 23.5635 17.1468 22.2406L14.0323 20.3968C13.4698 20.0635 12.5427 20.0635 11.9698 20.3968L8.85517 22.2406C6.626 23.5635 5.27184 22.5739 5.85517 20.0531L6.59475 16.8551C6.73017 16.251 6.49059 15.4072 6.05309 14.9697L3.46975 12.3864C1.94892 10.8656 2.4385 9.32389 4.5635 8.96973L7.88642 8.41764C8.4385 8.32389 9.10517 7.83431 9.35517 7.32389L11.1885 3.65723C12.1885 1.66764 13.8135 1.66764 14.8031 3.65723Z" fill="#EAB600"/>
</svg>
