<?xml version="1.0" encoding="UTF-8" standalone="no"?>
<!DOCTYPE svg PUBLIC "-//W3C//DTD SVG 1.1//EN" "http://www.w3.org/Graphics/SVG/1.1/DTD/svg11.dtd">
<svg width="100%" height="100%" viewBox="0 0 30 24" version="1.1" xmlns="http://www.w3.org/2000/svg" xmlns:xlink="http://www.w3.org/1999/xlink" xml:space="preserve" xmlns:serif="http://www.serif.com/" style="fill-rule:evenodd;clip-rule:evenodd;stroke-linejoin:round;stroke-miterlimit:2;">
    <g transform="matrix(0.902864,0,0,0.902864,-5496.8,-350.779)">
        <path d="M6120.74,407.371L6120.74,414.482L6116.12,414.482L6116.12,411.844C6116.12,411.526 6115.99,411.222 6115.77,410.998C6115.55,410.773 6115.24,410.647 6114.92,410.647C6110.92,410.647 6098,410.647 6093.99,410.647C6093.67,410.647 6093.37,410.773 6093.15,410.998C6092.92,411.222 6092.8,411.526 6092.8,411.844C6092.8,412.969 6092.8,414.482 6092.8,414.482L6088.18,414.482L6088.18,407.371L6120.74,407.371ZM6120.72,406.039L6088.2,406.039C6088.2,406.039 6087.57,400.975 6093.17,398.86C6093.26,398.831 6097.02,397.627 6104.48,397.54C6111.95,397.454 6115.65,398.831 6115.74,398.86C6121.33,400.972 6120.72,406.023 6120.72,406.039ZM6092.72,397.627C6092.64,397.649 6092.59,397.663 6092.58,397.666C6091.24,398.13 6090.24,398.741 6089.5,399.409L6089.5,390.601C6089.5,390.049 6089.72,389.519 6090.11,389.128C6090.5,388.737 6091.03,388.518 6091.58,388.518C6097.07,388.518 6111.88,388.518 6117.37,388.518C6117.92,388.518 6118.45,388.737 6118.85,389.128C6119.24,389.519 6119.45,390.049 6119.45,390.601C6119.45,393.772 6119.45,399.444 6119.45,399.444C6118.7,398.762 6117.69,398.138 6116.34,397.666C6116.32,397.662 6116.27,397.644 6116.17,397.613L6116.17,395.096C6116.05,393.426 6113.79,393.075 6110.93,393.096C6107.89,393.118 6105.3,393.168 6105.08,395.096L6105.08,396.382C6104.88,396.383 6104.68,396.384 6104.48,396.386C6104.25,396.389 6104.03,396.392 6103.81,396.396L6103.81,395.096C6103.59,393.321 6101.32,393.038 6098.46,393.096C6095.29,393.16 6093.05,393.217 6092.72,395.096L6092.72,397.627Z" style="fill:rgb(131,139,199);"/>
    </g>
</svg>
