<?xml version="1.0" encoding="UTF-8" standalone="no"?>
<!DOCTYPE svg PUBLIC "-//W3C//DTD SVG 1.1//EN" "http://www.w3.org/Graphics/SVG/1.1/DTD/svg11.dtd">
<svg width="100%" height="100%" viewBox="0 0 59 62" version="1.1" xmlns="http://www.w3.org/2000/svg" xmlns:xlink="http://www.w3.org/1999/xlink" xml:space="preserve" xmlns:serif="http://www.serif.com/" style="fill-rule:evenodd;clip-rule:evenodd;stroke-linejoin:round;stroke-miterlimit:2;">
    <g transform="matrix(1,0,0,1.02998,-1480.88,-113.165)">
        <g transform="matrix(0.902294,0,0,0.876033,-4460.33,13.6594)">
            <path d="M6611.91,166.927C6597.55,164.807 6586.55,153.35 6586.55,139.551C6586.55,124.248 6600.07,111.824 6616.73,111.824C6633.38,111.824 6646.9,124.248 6646.9,139.551C6646.9,144.64 6645.4,149.41 6642.8,153.511C6637.43,163.727 6611.91,176.161 6611.91,176.161L6611.91,166.927ZM6614.13,172.534C6617.51,170.751 6623.07,167.666 6628.36,164.064C6633.69,160.434 6638.81,156.324 6640.83,152.479L6640.93,152.321C6643.31,148.569 6644.68,144.206 6644.68,139.551C6644.68,125.418 6632.11,114.041 6616.73,114.041C6601.35,114.041 6588.77,125.418 6588.77,139.551C6588.77,152.279 6598.98,162.779 6612.24,164.734L6614.13,165.013L6614.13,172.534Z" style="fill:rgb(237,138,181);"/>
        </g>
        <g transform="matrix(-0.644359,0,0,0.594051,5773.45,52.977)">
            <path d="M6611.91,166.927C6597.55,164.807 6586.55,153.35 6586.55,139.551C6586.55,124.248 6600.07,111.824 6616.73,111.824C6633.38,111.824 6646.9,124.248 6646.9,139.551C6646.9,144.64 6645.4,149.41 6642.8,153.511C6637.43,163.727 6611.91,176.161 6611.91,176.161L6611.91,166.927ZM6615.02,170.91L6615.02,164.084L6612.35,163.69C6599.58,161.807 6589.66,151.805 6589.66,139.551C6589.66,125.921 6601.89,115.093 6616.73,115.093C6631.56,115.093 6643.8,125.921 6643.8,139.551C6643.8,143.978 6642.49,148.124 6640.22,151.692L6640.08,151.927C6638.64,154.669 6635.51,157.521 6631.93,160.266C6626.26,164.611 6619.4,168.552 6615.02,170.91Z" style="fill:rgb(237,138,181);"/>
        </g>
        <g transform="matrix(0.690553,0,0,0.670455,-3059.38,42.5759)">
            <path d="M6605.3,135.603C6607.4,135.603 6609.11,137.311 6609.11,139.414C6609.11,141.517 6607.4,143.225 6605.3,143.225C6603.19,143.225 6601.49,141.517 6601.49,139.414C6601.49,137.311 6603.19,135.603 6605.3,135.603ZM6616.73,135.603C6618.83,135.603 6620.54,137.311 6620.54,139.414C6620.54,141.517 6618.83,143.225 6616.73,143.225C6614.62,143.225 6612.91,141.517 6612.91,139.414C6612.91,137.311 6614.62,135.603 6616.73,135.603ZM6628.38,135.603C6630.49,135.603 6632.19,137.311 6632.19,139.414C6632.19,141.517 6630.49,143.225 6628.38,143.225C6626.28,143.225 6624.57,141.517 6624.57,139.414C6624.57,137.311 6626.28,135.603 6628.38,135.603Z" style="fill:rgb(237,138,181);"/>
        </g>
    </g>
</svg>
