<?xml version="1.0" encoding="UTF-8" standalone="no"?>
<!DOCTYPE svg PUBLIC "-//W3C//DTD SVG 1.1//EN" "http://www.w3.org/Graphics/SVG/1.1/DTD/svg11.dtd">
<svg width="100%" height="100%" viewBox="0 0 29 27" version="1.1" xmlns="http://www.w3.org/2000/svg" xmlns:xlink="http://www.w3.org/1999/xlink" xml:space="preserve" xmlns:serif="http://www.serif.com/" style="fill-rule:evenodd;clip-rule:evenodd;stroke-linejoin:round;stroke-miterlimit:2;">
    <g transform="matrix(1,0,0,1,-6652.25,-14.3756)">
        <path d="M6666.63,25.721L6678.58,14.755C6679.17,14.217 6680.08,14.256 6680.62,14.842C6680.62,14.843 6680.62,14.844 6680.62,14.844C6681.16,15.431 6681.12,16.342 6680.53,16.88L6668.76,27.678L6680.53,38.476C6681.12,39.014 6681.16,39.925 6680.62,40.512C6680.62,40.512 6680.62,40.513 6680.62,40.514C6680.08,41.1 6679.17,41.139 6678.58,40.601L6666.63,29.635L6654.67,40.601C6654.08,41.139 6653.17,41.1 6652.64,40.514C6652.63,40.513 6652.63,40.512 6652.63,40.512C6652.1,39.925 6652.13,39.014 6652.72,38.476L6664.49,27.678L6652.72,16.88C6652.13,16.342 6652.1,15.431 6652.63,14.844C6652.63,14.844 6652.63,14.843 6652.64,14.842C6653.17,14.256 6654.08,14.217 6654.67,14.755L6666.63,25.721Z" style="fill:rgb(30,35,57);"/>
    </g>
</svg>
