<?xml version="1.0" encoding="UTF-8" standalone="no"?>
<!DOCTYPE svg PUBLIC "-//W3C//DTD SVG 1.1//EN" "http://www.w3.org/Graphics/SVG/1.1/DTD/svg11.dtd">
<svg width="100%" height="100%" viewBox="0 0 17 21" version="1.1" xmlns="http://www.w3.org/2000/svg" xmlns:xlink="http://www.w3.org/1999/xlink" xml:space="preserve" xmlns:serif="http://www.serif.com/" style="fill-rule:evenodd;clip-rule:evenodd;stroke-linejoin:round;stroke-miterlimit:2;">
    <g transform="matrix(0.7709,0,0,0.7709,-4359.13,-252.992)">
        <path d="M5668.01,329.25C5668.01,328.929 5667.87,328.625 5667.62,328.421C5667.37,328.217 5667.04,328.136 5666.73,328.198C5663.99,328.743 5657.65,330.007 5655.4,330.454C5654.93,330.547 5654.6,330.958 5654.6,331.435C5654.6,334.881 5654.6,348.153 5654.6,351.596C5654.6,352.073 5654.93,352.484 5655.4,352.578C5657.65,353.027 5663.99,354.299 5666.73,354.847C5667.04,354.91 5667.37,354.829 5667.62,354.625C5667.87,354.421 5668.01,354.117 5668.01,353.795C5668.01,349.201 5668.01,333.842 5668.01,329.25ZM5673.73,330.41C5674.28,330.41 5674.8,330.627 5675.19,331.013C5675.57,331.399 5675.79,331.922 5675.79,332.468C5675.79,336.703 5675.79,346.354 5675.79,350.59C5675.79,351.136 5675.57,351.659 5675.19,352.045C5674.8,352.43 5674.28,352.647 5673.73,352.647C5671.78,352.647 5669.14,352.647 5669.14,352.647L5669.14,350.452L5673.57,350.452L5673.57,332.606L5669.14,332.606L5669.14,330.41L5673.73,330.41ZM5664.11,340.317C5664.78,340.317 5665.32,340.857 5665.32,341.524C5665.32,342.19 5664.78,342.731 5664.11,342.731C5663.45,342.731 5662.91,342.19 5662.91,341.524C5662.91,340.857 5663.45,340.317 5664.11,340.317Z" style="fill:rgb(131,139,199);"/>
    </g>
</svg>
