<?xml version="1.0" encoding="UTF-8" standalone="no"?>
<!DOCTYPE svg PUBLIC "-//W3C//DTD SVG 1.1//EN" "http://www.w3.org/Graphics/SVG/1.1/DTD/svg11.dtd">
<svg width="100%" height="100%" viewBox="0 0 35 35" version="1.1" xmlns="http://www.w3.org/2000/svg" xmlns:xlink="http://www.w3.org/1999/xlink" xml:space="preserve" xmlns:serif="http://www.serif.com/" style="fill-rule:evenodd;clip-rule:evenodd;stroke-linejoin:round;stroke-miterlimit:2;">
    <g transform="matrix(0.902864,0,0,0.902864,-4791.08,-347.652)">
        <path d="M5325.38,385.054C5335.78,385.054 5344.23,393.499 5344.23,403.901C5344.23,414.302 5335.78,422.747 5325.38,422.747C5314.98,422.747 5306.54,414.302 5306.54,403.901C5306.54,393.499 5314.98,385.054 5325.38,385.054ZM5328.39,419.971C5328.39,419.971 5331.46,419.574 5333.35,418.223L5333.6,389.883C5333.6,389.883 5332.57,388.256 5331.12,390.646C5331.12,390.646 5327.51,398.782 5327.61,413.68C5327.61,413.68 5327.67,416.936 5328.39,419.971ZM5316.31,406.769L5317.66,406.769L5318.04,390.646L5318.68,390.646L5318.88,406.769L5320.02,406.769L5320.32,390.646L5320.99,390.646L5321.19,406.769L5322.5,406.769L5322.4,390.646L5323.02,390.646L5323.97,407.192C5324.08,409.076 5323.97,410.467 5323.97,410.467C5323.84,412.427 5322.79,413.638 5322.79,413.638L5321.19,415.814C5320.61,416.52 5320.58,417.226 5320.58,417.226L5320.58,419.619L5318.23,418.639L5318.23,417.226C5318.2,415.872 5317.51,415.252 5317.51,415.252C5316.45,414.113 5315.83,413.312 5315.83,413.312C5314.74,411.826 5315.06,407.192 5315.06,407.192L5315.83,390.646L5316.4,390.646L5316.31,406.769Z" style="fill:rgb(131,139,199);"/>
    </g>
</svg>
