<?xml version="1.0" encoding="UTF-8" standalone="no"?>
<!DOCTYPE svg PUBLIC "-//W3C//DTD SVG 1.1//EN" "http://www.w3.org/Graphics/SVG/1.1/DTD/svg11.dtd">
<svg width="100%" height="100%" viewBox="0 0 16 16" version="1.1" xmlns="http://www.w3.org/2000/svg" xmlns:xlink="http://www.w3.org/1999/xlink" xml:space="preserve" xmlns:serif="http://www.serif.com/" style="fill-rule:evenodd;clip-rule:evenodd;stroke-linejoin:round;stroke-miterlimit:2;">
    <g transform="matrix(1,0,0,1,-6127.2,-138.585)">
        <path d="M6135.12,138.585C6139.49,138.585 6143.05,142.134 6143.05,146.506C6143.05,150.878 6139.49,154.427 6135.12,154.427C6130.75,154.427 6127.2,150.878 6127.2,146.506C6127.2,142.134 6130.75,138.585 6135.12,138.585ZM6135.1,147.469L6139.1,144.994L6139.1,148.691C6139.1,148.823 6139.05,148.949 6138.95,149.041C6138.86,149.134 6138.74,149.187 6138.6,149.187C6137.17,149.187 6133.03,149.187 6131.6,149.187C6131.47,149.187 6131.34,149.134 6131.25,149.041C6131.16,148.949 6131.11,148.823 6131.11,148.691L6131.11,144.994L6135.1,147.469ZM6131.11,144.072L6131.11,144.007C6131.11,143.876 6131.16,143.75 6131.25,143.657C6131.34,143.564 6131.47,143.512 6131.6,143.512C6133.03,143.512 6137.17,143.512 6138.6,143.512C6138.74,143.512 6138.86,143.564 6138.95,143.657C6139.05,143.75 6139.1,143.876 6139.1,144.007L6139.1,144.072L6135.1,146.547L6131.11,144.072Z" style="fill:rgb(131,139,199);"/>
    </g>
</svg>
