<?xml version="1.0" encoding="UTF-8" standalone="no"?>
<!DOCTYPE svg PUBLIC "-//W3C//DTD SVG 1.1//EN" "http://www.w3.org/Graphics/SVG/1.1/DTD/svg11.dtd">
<svg width="100%" height="100%" viewBox="0 0 24 24" version="1.1" xmlns="http://www.w3.org/2000/svg" xmlns:xlink="http://www.w3.org/1999/xlink" xml:space="preserve" xmlns:serif="http://www.serif.com/" style="fill-rule:evenodd;clip-rule:evenodd;stroke-linejoin:round;stroke-miterlimit:2;">
    <g transform="matrix(1,0,0,1,-5133.98,-1045.34)">
        <path d="M5145.81,1045.34C5152.34,1045.34 5157.64,1050.64 5157.64,1057.17C5157.64,1063.7 5152.34,1069 5145.81,1069C5139.28,1069 5133.98,1063.7 5133.98,1057.17C5133.98,1050.64 5139.28,1045.34 5145.81,1045.34ZM5138.14,1051C5136.78,1052.69 5135.96,1054.84 5135.96,1057.17C5135.96,1062.61 5140.37,1067.03 5145.81,1067.03C5148.15,1067.03 5150.31,1066.21 5152,1064.84L5138.14,1051ZM5153.41,1063.44C5154.82,1061.74 5155.66,1059.55 5155.66,1057.17C5155.66,1051.74 5151.25,1047.32 5145.81,1047.32C5143.43,1047.32 5141.24,1048.17 5139.53,1049.58L5148.12,1058.15L5152.2,1058.15C5152.48,1058.15 5152.7,1058.38 5152.7,1058.65C5152.7,1059.21 5152.7,1060.14 5152.7,1060.7C5152.7,1060.97 5152.48,1061.19 5152.2,1061.19L5151.17,1061.19L5153.41,1063.44ZM5144.01,1058.15L5147.05,1061.19L5139.4,1061.19C5139.12,1061.19 5138.9,1060.97 5138.9,1060.7C5138.9,1060.14 5138.9,1059.21 5138.9,1058.65C5138.9,1058.38 5139.12,1058.15 5139.4,1058.15L5144.01,1058.15ZM5151.79,1059.16L5150.76,1059.16L5150.76,1060.19L5151.79,1060.19L5151.79,1059.16ZM5146.33,1052.23C5147.15,1052.32 5146.2,1054.18 5147.41,1054.17C5148.19,1054.21 5148.68,1054.88 5148.78,1055.75C5148.89,1056.41 5150.14,1056.03 5150.56,1056.33C5150.88,1056.56 5150.76,1057.16 5150.32,1057.2C5149.07,1057.25 5147.97,1056.88 5147.8,1055.5C5147.74,1055.18 5147.2,1055.14 5147.2,1055.14C5146.15,1055.09 5145.79,1053.87 5145.81,1052.69C5145.83,1052.43 5146.05,1052.22 5146.33,1052.23ZM5147.84,1050.27C5148.85,1050.31 5149.73,1051.21 5149.66,1052.25C5149.64,1052.58 5149.7,1052.64 5149.77,1052.78C5150.09,1053.36 5150.96,1053.13 5151.6,1053.42C5152.7,1053.92 5152.77,1055.42 5152.73,1056.76C5152.68,1057.25 5151.82,1057.3 5151.77,1056.76C5151.72,1055.51 5151.99,1054.31 5150.4,1054.2C5149.36,1054.1 5148.87,1053.07 5148.68,1051.97C5148.45,1050.86 5146.22,1051.66 5145.88,1050.96C5145.74,1050.68 5145.94,1050.31 5146.28,1050.27C5146.8,1050.25 5147.32,1050.27 5147.84,1050.27Z" style="fill:rgb(53,57,77);"/>
    </g>
</svg>
