<?xml version="1.0" encoding="UTF-8" standalone="no"?>
<!DOCTYPE svg PUBLIC "-//W3C//DTD SVG 1.1//EN" "http://www.w3.org/Graphics/SVG/1.1/DTD/svg11.dtd">
<svg width="100%" height="100%" viewBox="0 0 23 22" version="1.1" xmlns="http://www.w3.org/2000/svg" xmlns:xlink="http://www.w3.org/1999/xlink" xml:space="preserve" xmlns:serif="http://www.serif.com/" style="fill-rule:evenodd;clip-rule:evenodd;stroke-linejoin:round;stroke-miterlimit:2;">
    <g transform="matrix(1.09114,0,0,1.09114,-5916.91,-100.585)">
        <path d="M5432.14,93.991C5432.25,93.702 5432.53,93.512 5432.84,93.512C5433.15,93.512 5433.43,93.702 5433.54,93.991C5434.34,96.058 5435.54,99.158 5435.54,99.158C5435.54,99.158 5438.86,99.343 5441.07,99.466C5441.38,99.483 5441.65,99.689 5441.75,99.984C5441.84,100.279 5441.75,100.603 5441.51,100.799C5439.79,102.199 5437.21,104.3 5437.21,104.3C5437.21,104.3 5438.06,107.514 5438.63,109.657C5438.71,109.957 5438.6,110.275 5438.34,110.457C5438.09,110.64 5437.76,110.649 5437.49,110.481C5435.63,109.28 5432.84,107.478 5432.84,107.478C5432.84,107.478 5430.04,109.28 5428.18,110.481C5427.92,110.649 5427.58,110.64 5427.33,110.457C5427.08,110.275 5426.97,109.957 5427.05,109.657C5427.61,107.514 5428.46,104.3 5428.46,104.3C5428.46,104.3 5425.89,102.199 5424.17,100.799C5423.93,100.603 5423.83,100.279 5423.93,99.984C5424.03,99.689 5424.29,99.483 5424.6,99.466C5426.82,99.343 5430.13,99.158 5430.13,99.158C5430.13,99.158 5431.34,96.058 5432.14,93.991Z" style="fill:rgb(253,199,64);"/>
    </g>
</svg>
