<?xml version="1.0" encoding="UTF-8" standalone="no"?>
<!DOCTYPE svg PUBLIC "-//W3C//DTD SVG 1.1//EN" "http://www.w3.org/Graphics/SVG/1.1/DTD/svg11.dtd">
<svg width="100%" height="100%" viewBox="0 0 16 16" version="1.1" xmlns="http://www.w3.org/2000/svg" xmlns:xlink="http://www.w3.org/1999/xlink" xml:space="preserve" xmlns:serif="http://www.serif.com/" style="fill-rule:evenodd;clip-rule:evenodd;stroke-linejoin:round;stroke-miterlimit:2;">
    <g transform="matrix(1,0,0,1,-6127.2,-96.9042)">
        <path d="M6135.12,96.904C6139.49,96.904 6143.05,100.454 6143.05,104.825C6143.05,109.197 6139.49,112.747 6135.12,112.747C6130.75,112.747 6127.2,109.197 6127.2,104.825C6127.2,100.454 6130.75,96.904 6135.12,96.904ZM6130.95,107.601C6131.05,106.378 6133.43,105.738 6133.43,105.738C6134.52,105.471 6135.14,105.475 6135.14,105.475C6135.68,105.475 6136.81,105.738 6136.81,105.738C6138.91,106.283 6139.27,107.148 6139.32,107.57C6138.42,108.937 6136.88,109.841 6135.12,109.841C6133.38,109.841 6131.85,108.95 6130.95,107.601ZM6135.14,99.918C6136.31,99.918 6137.27,100.875 6137.27,102.053C6137.27,103.231 6136.31,104.188 6135.14,104.188C6133.96,104.188 6133,103.231 6133,102.053C6133,100.875 6133.96,99.918 6135.14,99.918Z" style="fill:rgb(131,139,199);"/>
    </g>
</svg>
