<svg width="15" height="15" viewBox="0 0 15 15" fill="none" xmlns="http://www.w3.org/2000/svg">
<circle cx="7.5" cy="7.5" r="7.5" fill="#FF0000"/>
<path d="M8.25 3.27273L8.16477 9.54545H7.17614L7.09091 3.27273H8.25ZM7.67045 12.0682C7.46023 12.0682 7.27983 11.9929 7.12926 11.8423C6.97869 11.6918 6.90341 11.5114 6.90341 11.3011C6.90341 11.0909 6.97869 10.9105 7.12926 10.7599C7.27983 10.6094 7.46023 10.5341 7.67045 10.5341C7.88068 10.5341 8.06108 10.6094 8.21165 10.7599C8.36222 10.9105 8.4375 11.0909 8.4375 11.3011C8.4375 11.4403 8.40199 11.5682 8.33097 11.6847C8.26278 11.8011 8.17045 11.8949 8.05398 11.9659C7.94034 12.0341 7.8125 12.0682 7.67045 12.0682Z" fill="white"/>
</svg>
