<?xml version="1.0" encoding="UTF-8" standalone="no"?>
<!DOCTYPE svg PUBLIC "-//W3C//DTD SVG 1.1//EN" "http://www.w3.org/Graphics/SVG/1.1/DTD/svg11.dtd">
<svg width="100%" height="100%" viewBox="0 0 28 23" version="1.1" xmlns="http://www.w3.org/2000/svg" xmlns:xlink="http://www.w3.org/1999/xlink" xml:space="preserve" xmlns:serif="http://www.serif.com/" style="fill-rule:evenodd;clip-rule:evenodd;stroke-linejoin:round;stroke-miterlimit:2;">
    <g transform="matrix(1,0,0,1,-538.432,-2164.93)">
        <path d="M560.507,2180.18L556.882,2178.74L563.443,2175.38L565.914,2182.32L562.397,2180.93C560.598,2184.7 556.744,2187.32 552.284,2187.32C547.202,2187.32 542.906,2183.92 541.542,2179.28L543.676,2179.28C544.965,2182.79 548.334,2185.29 552.284,2185.29C555.889,2185.29 559.01,2183.2 560.507,2180.18ZM542.061,2171.56C543.81,2167.65 547.731,2164.93 552.284,2164.93C557.365,2164.93 561.661,2168.32 563.025,2172.96L560.891,2172.96C559.602,2169.46 556.233,2166.96 552.284,2166.96C548.651,2166.96 545.508,2169.07 544.025,2172.14L547.744,2173.25L541.506,2177.18L538.432,2170.47L542.061,2171.56Z" style="fill:white;"/>
    </g>
</svg>
