<?xml version="1.0" encoding="UTF-8" standalone="no"?>
<!DOCTYPE svg PUBLIC "-//W3C//DTD SVG 1.1//EN" "http://www.w3.org/Graphics/SVG/1.1/DTD/svg11.dtd">
<svg width="100%" height="100%" viewBox="0 0 28 28" version="1.1" xmlns="http://www.w3.org/2000/svg" xmlns:xlink="http://www.w3.org/1999/xlink" xml:space="preserve" xmlns:serif="http://www.serif.com/" style="fill-rule:evenodd;clip-rule:evenodd;stroke-linejoin:round;stroke-miterlimit:2;">
    <g transform="matrix(1,0,0,1,-4455.25,-1553.98)">
        <path d="M4469.06,1553.98C4476.69,1553.98 4482.88,1560.17 4482.88,1567.8C4482.88,1575.42 4476.69,1581.61 4469.06,1581.61C4461.44,1581.61 4455.24,1575.42 4455.24,1567.8C4455.24,1560.17 4461.44,1553.98 4469.06,1553.98ZM4470.62,1566.24L4470.62,1560.49L4467.5,1560.49L4467.5,1566.24L4461.75,1566.24L4461.75,1569.36L4467.5,1569.36L4467.5,1575.1L4470.62,1575.1L4470.62,1569.36L4476.37,1569.36L4476.37,1566.24L4470.62,1566.24Z" style="fill:rgb(131,139,199);"/>
    </g>
</svg>
