<?xml version="1.0" encoding="UTF-8" standalone="no"?>
<!DOCTYPE svg PUBLIC "-//W3C//DTD SVG 1.1//EN" "http://www.w3.org/Graphics/SVG/1.1/DTD/svg11.dtd">
<svg width="100%" height="100%" viewBox="0 0 23 22" version="1.1" xmlns="http://www.w3.org/2000/svg" xmlns:xlink="http://www.w3.org/1999/xlink" xml:space="preserve" xmlns:serif="http://www.serif.com/" style="fill-rule:evenodd;clip-rule:evenodd;stroke-linejoin:round;stroke-miterlimit:2;">
    <g transform="matrix(0.983565,0,0,0.983565,-7397.35,-103.317)">
        <path d="M7535.06,106.738L7535.06,106.111C7535.06,105.522 7535.53,105.044 7536.12,105.044C7536.12,105.044 7536.12,105.044 7536.12,105.044C7536.71,105.044 7537.19,105.522 7537.19,106.111L7537.19,106.739C7538.45,106.74 7540.29,106.742 7540.5,106.745C7542.02,106.802 7543.33,108.104 7543.39,109.633C7543.44,113.639 7543.44,119.515 7543.39,123.521C7543.33,125.039 7542.03,126.351 7540.5,126.409C7535.59,126.472 7528.8,126.472 7523.89,126.409C7522.37,126.352 7521.06,125.05 7521,123.521C7520.95,119.515 7520.95,113.639 7521,109.633C7521.06,108.116 7522.36,106.803 7523.89,106.745C7524.07,106.742 7525.91,106.741 7527.2,106.739L7527.2,106.111C7527.2,105.522 7527.68,105.044 7528.26,105.044C7528.26,105.044 7528.27,105.044 7528.27,105.044C7528.86,105.044 7529.33,105.522 7529.33,106.111L7529.33,106.738C7531.15,106.737 7533.24,106.737 7535.06,106.738ZM7541.46,114.361L7522.93,114.361C7522.91,116.783 7522.9,121.076 7523,123.496C7523.03,123.968 7523.43,124.379 7523.92,124.409C7528.81,124.595 7535.58,124.594 7540.47,124.409C7540.96,124.378 7541.37,123.954 7541.39,123.474C7541.42,121.06 7541.46,116.775 7541.46,114.361ZM7535.06,108.739C7533.24,108.739 7531.15,108.74 7529.33,108.741L7529.33,109.679C7529.33,110.268 7528.86,110.746 7528.27,110.746C7528.27,110.746 7528.26,110.746 7528.26,110.746C7527.68,110.746 7527.2,110.268 7527.2,109.679L7527.2,108.742C7525.96,108.743 7524.15,108.744 7523.98,108.744C7523.46,108.75 7523.02,109.174 7523,109.687C7522.99,110.578 7522.98,111.469 7522.96,112.361L7541.45,112.361C7541.44,111.46 7541.42,110.559 7541.39,109.659C7541.35,109.173 7540.94,108.763 7540.45,108.744C7540.24,108.742 7538.43,108.74 7537.19,108.74L7537.19,109.679C7537.19,110.268 7536.71,110.746 7536.12,110.746C7536.12,110.746 7536.12,110.746 7536.12,110.746C7535.53,110.746 7535.06,110.268 7535.06,109.679L7535.06,108.739Z" style="fill:rgb(131,139,199);fill-rule:nonzero;"/>
    </g>
</svg>
