<?xml version="1.0" encoding="UTF-8" standalone="no"?>
<!DOCTYPE svg PUBLIC "-//W3C//DTD SVG 1.1//EN" "http://www.w3.org/Graphics/SVG/1.1/DTD/svg11.dtd">
<svg width="100%" height="100%" viewBox="0 0 37 28" version="1.1" xmlns="http://www.w3.org/2000/svg" xmlns:xlink="http://www.w3.org/1999/xlink" xml:space="preserve" xmlns:serif="http://www.serif.com/" style="fill-rule:evenodd;clip-rule:evenodd;stroke-linejoin:round;stroke-miterlimit:2;">
    <g transform="matrix(0.642708,0,0,0.642708,-385.622,-481.223)">
        <path d="M646.537,788.619C643.458,789.901 639.877,790.635 636.057,790.635C629.974,790.635 624.498,788.773 620.69,785.805C621.229,785.829 621.769,785.841 622.313,785.841C636.942,785.841 648.819,777.208 648.819,766.575C648.819,765.69 648.736,764.819 648.577,763.967C653.614,766.675 656.872,770.973 656.872,775.809C656.872,779.324 655.151,782.554 652.278,785.096C653.316,789.757 657.26,792.246 657.26,792.246C652.336,792.693 648.715,790.526 646.537,788.619ZM605.167,775.344C601.939,772.53 599.996,768.911 599.996,764.964C599.996,756.011 609.996,748.742 622.313,748.742C634.631,748.742 644.631,756.011 644.631,764.964C644.631,773.918 634.631,781.187 622.313,781.187C618.433,781.187 614.783,780.465 611.602,779.197C609.599,781.226 605.659,784.17 599.996,783.656C599.996,783.656 604.596,780.752 605.167,775.344Z" style="fill:white;"/>
    </g>
</svg>
