<?xml version="1.0" encoding="UTF-8" standalone="no"?>
<!DOCTYPE svg PUBLIC "-//W3C//DTD SVG 1.1//EN" "http://www.w3.org/Graphics/SVG/1.1/DTD/svg11.dtd">
<svg width="100%" height="100%" viewBox="0 0 34 34" version="1.1" xmlns="http://www.w3.org/2000/svg" xmlns:xlink="http://www.w3.org/1999/xlink" xml:space="preserve" xmlns:serif="http://www.serif.com/" style="fill-rule:evenodd;clip-rule:evenodd;stroke-linejoin:round;stroke-miterlimit:2;">
    <g transform="matrix(0.688033,0.638595,-0.638595,0.688033,-1165.96,-3075.96)">
        <path d="M3165,1539.64C3174.96,1539.64 3183.05,1547.73 3183.05,1557.69C3183.05,1567.64 3174.96,1575.73 3165,1575.73C3155.05,1575.73 3146.96,1567.64 3146.96,1557.69C3146.96,1547.73 3155.05,1539.64 3165,1539.64ZM3165,1541.59C3173.89,1541.59 3181.1,1548.8 3181.1,1557.69C3181.1,1566.57 3173.89,1573.78 3165,1573.78C3156.12,1573.78 3148.91,1566.57 3148.91,1557.69C3148.91,1548.8 3156.12,1541.59 3165,1541.59ZM3167.6,1564.47L3165.12,1567.53L3162.4,1564.47L3167.6,1564.47ZM3167.6,1551.72L3162.4,1551.72L3162.4,1563.8L3167.6,1563.8L3167.6,1551.72ZM3167.6,1548.25C3167.6,1548.14 3167.56,1548.04 3167.49,1547.96C3167.41,1547.88 3167.31,1547.84 3167.2,1547.84C3166.23,1547.84 3163.78,1547.84 3162.81,1547.84C3162.7,1547.84 3162.6,1547.88 3162.52,1547.96C3162.45,1548.04 3162.4,1548.14 3162.4,1548.25C3162.4,1549.11 3162.4,1551.06 3162.4,1551.06L3167.6,1551.06L3167.6,1548.25Z" style="fill:rgb(89,104,219);"/>
    </g>
</svg>
