<?xml version="1.0" encoding="UTF-8" standalone="no"?>
<!DOCTYPE svg PUBLIC "-//W3C//DTD SVG 1.1//EN" "http://www.w3.org/Graphics/SVG/1.1/DTD/svg11.dtd">
<svg width="100%" height="100%" viewBox="0 0 21 20" version="1.1" xmlns="http://www.w3.org/2000/svg" xmlns:xlink="http://www.w3.org/1999/xlink" xml:space="preserve" xmlns:serif="http://www.serif.com/" style="fill-rule:evenodd;clip-rule:evenodd;stroke-linejoin:round;stroke-miterlimit:2;">
    <g transform="matrix(0.987391,0,0,0.987391,-5354.29,-91.0211)">
        <path d="M5432.06,94.181C5432.19,93.862 5432.49,93.651 5432.84,93.651C5433.18,93.651 5433.49,93.862 5433.61,94.181C5434.41,96.243 5435.54,99.158 5435.54,99.158C5435.54,99.158 5438.66,99.332 5440.87,99.455C5441.21,99.474 5441.51,99.701 5441.61,100.027C5441.72,100.353 5441.61,100.711 5441.35,100.928C5439.64,102.324 5437.21,104.3 5437.21,104.3C5437.21,104.3 5438.01,107.323 5438.58,109.46C5438.66,109.792 5438.54,110.143 5438.26,110.344C5437.98,110.546 5437.61,110.556 5437.32,110.371C5435.47,109.173 5432.84,107.478 5432.84,107.478C5432.84,107.478 5430.21,109.173 5428.35,110.371C5428.06,110.556 5427.69,110.546 5427.41,110.344C5427.14,110.143 5427.01,109.792 5427.1,109.46C5427.66,107.323 5428.46,104.3 5428.46,104.3C5428.46,104.3 5426.04,102.324 5424.33,100.928C5424.06,100.711 5423.95,100.353 5424.06,100.027C5424.17,99.701 5424.46,99.474 5424.81,99.455C5427.01,99.332 5430.13,99.158 5430.13,99.158C5430.13,99.158 5431.26,96.243 5432.06,94.181Z" style="fill:rgb(253,199,64);"/>
    </g>
</svg>
