<?xml version="1.0" encoding="UTF-8" standalone="no"?>
<!DOCTYPE svg PUBLIC "-//W3C//DTD SVG 1.1//EN" "http://www.w3.org/Graphics/SVG/1.1/DTD/svg11.dtd">
<svg width="100%" height="100%" viewBox="0 0 63 42" version="1.1" xmlns="http://www.w3.org/2000/svg" xmlns:xlink="http://www.w3.org/1999/xlink" xml:space="preserve" xmlns:serif="http://www.serif.com/" style="fill-rule:evenodd;clip-rule:evenodd;stroke-linejoin:round;stroke-miterlimit:2;">
    <g transform="matrix(6.0943,0,0,2.75926,-2214.62,-415.028)">
        <path d="M373.651,151.57C373.65,150.93 373.415,150.413 373.126,150.413C371.538,150.413 366.752,150.413 364.538,150.413C364.398,150.413 364.274,150.621 364.237,150.921C364.2,151.221 364.259,151.538 364.38,151.696C366.481,154.425 371.341,160.737 373.045,162.951C373.421,163.439 373.657,164.321 373.668,165.284C373.668,165.284 373.668,165.284 373.668,165.284C373.668,165.284 373.655,155.066 373.651,151.57Z" style="fill:rgb(240,242,255);"/>
        <path d="M373.651,151.57C373.65,150.93 373.415,150.413 373.126,150.413C371.538,150.413 366.752,150.413 364.538,150.413C364.398,150.413 364.274,150.621 364.237,150.921C364.2,151.221 364.259,151.538 364.38,151.696C366.481,154.425 371.341,160.737 373.045,162.951C373.421,163.439 373.657,164.321 373.668,165.284L373.651,151.57ZM366.218,152.112L372.893,160.783L372.883,152.112L366.218,152.112Z" style="fill:rgb(225,228,237);"/>
    </g>
</svg>
