<?xml version="1.0" encoding="UTF-8" standalone="no"?>
<!DOCTYPE svg PUBLIC "-//W3C//DTD SVG 1.1//EN" "http://www.w3.org/Graphics/SVG/1.1/DTD/svg11.dtd">
<svg width="100%" height="100%" viewBox="0 0 21 21" version="1.1" xmlns="http://www.w3.org/2000/svg" xmlns:xlink="http://www.w3.org/1999/xlink" xml:space="preserve" xmlns:serif="http://www.serif.com/" style="fill-rule:evenodd;clip-rule:evenodd;stroke-linejoin:round;stroke-miterlimit:2;">
    <g transform="matrix(1.38554,0,0,1.38554,-246.676,-284.952)">
        <path d="M185.496,205.661C189.613,205.661 192.956,209.004 192.956,213.121C192.956,217.238 189.613,220.581 185.496,220.581C181.378,220.581 178.036,217.238 178.036,213.121C178.036,209.004 181.378,205.661 185.496,205.661ZM185.496,206.909C188.924,206.909 191.708,209.692 191.708,213.121C191.708,216.549 188.924,219.333 185.496,219.333C182.067,219.333 179.284,216.549 179.284,213.121C179.284,209.692 182.067,206.909 185.496,206.909ZM187.883,212.228L183.361,216.787L181.932,216.707L181.848,215.287L186.37,210.728L187.883,212.228ZM188.286,211.821L186.773,210.321C186.773,210.321 187.228,209.862 187.526,209.562C187.666,209.42 187.894,209.419 188.035,209.559C188.314,209.836 188.758,210.276 189.037,210.553C189.178,210.692 189.179,210.92 189.039,211.062C188.741,211.362 188.286,211.821 188.286,211.821Z" style="fill:rgb(131,139,199);"/>
    </g>
</svg>
