<svg width="184" height="74" viewBox="0 0 184 74" fill="none" xmlns="http://www.w3.org/2000/svg">
<path d="M24.0799 24.6885C24.0799 27.3312 25.0389 29.5685 26.9924 31.3642C27.9284 32.2422 29.0382 32.9338 30.2572 33.3987C31.4762 33.8636 32.78 34.0925 34.0927 34.0721C35.4017 34.099 36.7029 33.873 37.9179 33.4076C39.1329 32.9422 40.2366 32.2471 41.1626 31.3642C43.1135 29.5323 44.0751 27.2974 44.0751 24.6209C44.0751 21.9443 43.1135 19.777 41.1626 17.9814C40.2358 17.112 39.1366 16.4276 37.9291 15.9685C36.7217 15.5093 35.4303 15.2845 34.1306 15.3072C32.8173 15.2867 31.5129 15.5158 30.2935 15.9811C29.074 16.4465 27.9638 17.1387 27.0278 18.0176C26.0743 18.8708 25.3192 19.9054 24.8114 21.0545C24.3036 22.2037 24.0544 23.4417 24.0799 24.6885V24.6885ZM29.9707 20.6241C31.0385 19.5067 32.4226 18.9637 34.0901 18.9637C35.7577 18.9637 37.1469 19.5067 38.1742 20.6241C39.237 21.7314 39.8099 23.1877 39.7734 24.6885C39.806 26.1821 39.2487 27.6328 38.2121 28.7528C37.1823 29.8726 35.7956 30.4133 34.1281 30.4133C33.3541 30.4334 32.5847 30.2927 31.8734 30.001C31.162 29.7093 30.5258 29.2735 30.0086 28.7238C28.9498 27.5988 28.3782 26.1324 28.4094 24.6209C28.3712 23.1466 28.9304 21.7151 29.9707 20.6241Z" fill="#831BEE"/>
<path d="M52.6634 34.1398C55.0774 34.1398 56.9954 33.1913 58.4529 31.3281V31.8108C58.4529 32.3318 58.6699 32.8315 59.0562 33.1999C59.4425 33.5684 59.9664 33.7753 60.5126 33.7753C61.0589 33.7753 61.5828 33.5684 61.9691 33.1999C62.3554 32.8315 62.5724 32.3318 62.5724 31.8108V17.6943C62.5534 17.1715 62.3224 16.6763 61.928 16.3129C61.5336 15.9495 61.0066 15.7464 60.4582 15.7464C59.9099 15.7464 59.3829 15.9495 58.9885 16.3129C58.5941 16.6763 58.3631 17.1715 58.3441 17.6943V25.7384C58.3441 28.4826 56.6411 30.3241 53.9766 30.3241C51.1704 30.3241 49.7863 28.526 49.7863 25.8181V17.6943C49.7863 17.1598 49.5637 16.6472 49.1675 16.2693C48.7712 15.8913 48.2338 15.679 47.6734 15.679C47.1131 15.679 46.5756 15.8913 46.1794 16.2693C45.7832 16.6472 45.5605 17.1598 45.5605 17.6943V26.8004C45.5605 31.1253 48.0808 34.1398 52.6634 34.1398Z" fill="#831BEE"/>
<path d="M67.6732 33.768C67.9506 33.768 68.2252 33.7159 68.4814 33.6146C68.7376 33.5133 68.9704 33.3648 69.1664 33.1776C69.3624 32.9905 69.5178 32.7683 69.6237 32.5238C69.7296 32.2793 69.7839 32.0173 69.7836 31.7528V24.5895C69.7836 21.4375 71.4916 19.6419 74.7229 19.6419H74.8849C75.0215 19.6441 75.1572 19.6204 75.284 19.572C75.4109 19.5236 75.5264 19.4515 75.6237 19.3601C75.721 19.2686 75.7982 19.1595 75.8508 19.0393C75.9034 18.919 75.9303 18.7899 75.9299 18.6596V16.4874C75.9306 16.2296 75.8248 15.982 75.6353 15.7981C75.4458 15.6142 75.188 15.509 74.9178 15.5052H74.9051C72.5974 15.5052 70.8573 16.522 69.6849 18.5558V17.6387C69.6849 17.3807 69.6316 17.1252 69.5281 16.8869C69.4246 16.6485 69.2729 16.4319 69.0816 16.2495C68.8904 16.0671 68.6633 15.9224 68.4134 15.8236C68.1635 15.7249 67.8957 15.6741 67.6252 15.6741C67.3547 15.6741 67.0868 15.7249 66.8369 15.8236C66.587 15.9224 66.36 16.0671 66.1687 16.2495C65.9774 16.4319 65.8257 16.6485 65.7222 16.8869C65.6187 17.1252 65.5654 17.3807 65.5654 17.6387V31.7479C65.5648 32.0126 65.6188 32.2748 65.7243 32.5195C65.8299 32.7643 65.985 32.9868 66.1807 33.1744C66.3764 33.3619 66.609 33.5109 66.8651 33.6128C67.1212 33.7146 67.3958 33.7674 67.6732 33.768V33.768Z" fill="#831BEE"/>
<path d="M41.6351 62.8842V39.3841C41.6351 38.9795 41.4666 38.5916 41.1667 38.3055C40.8668 38.0195 40.4601 37.8588 40.0359 37.8588H35.2079C34.8993 37.859 34.5972 37.9444 34.3382 38.1045C34.0792 38.2646 33.8742 38.4928 33.7479 38.7614L28.0469 50.935C27.9206 51.2032 27.7157 51.4309 27.4569 51.5906C27.1981 51.7503 26.8964 51.8353 26.5882 51.8353C26.2799 51.8353 25.9782 51.7503 25.7194 51.5906C25.4606 51.4309 25.2557 51.2032 25.1294 50.935L19.3424 38.7542C19.2158 38.4873 19.0113 38.2608 18.7532 38.102C18.4951 37.9432 18.1945 37.8587 17.8874 37.8588H13.191C12.7669 37.8588 12.3601 38.0195 12.0602 38.3055C11.7603 38.5916 11.5918 38.9795 11.5918 39.3841V62.8842C11.5918 63.2888 11.7603 63.6767 12.0602 63.9628C12.3601 64.2488 12.7669 64.4096 13.191 64.4096H15.5999C16.0241 64.4096 16.4308 64.2488 16.7307 63.9628C17.0307 63.6767 17.1991 63.2888 17.1991 62.8842V47.7975L24.5373 63.5117C24.6627 63.7812 24.8674 64.0101 25.1266 64.1708C25.3857 64.3315 25.6882 64.4169 25.9973 64.4168H27.1537C27.4631 64.4168 27.7659 64.3313 28.0254 64.1707C28.2849 64.0101 28.4902 63.7812 28.6163 63.5117L35.9898 47.6986V62.9035C35.9898 63.1038 36.0312 63.3022 36.1116 63.4872C36.1919 63.6723 36.3097 63.8405 36.4582 63.9821C36.6067 64.1237 36.783 64.2361 36.977 64.3127C37.1711 64.3894 37.379 64.4288 37.589 64.4288H40.0334C40.2453 64.4292 40.4552 64.3893 40.6509 64.3116C40.8465 64.2339 41.024 64.1199 41.1731 63.9762C41.3221 63.8324 41.4397 63.6619 41.519 63.4744C41.5984 63.287 41.6378 63.0864 41.6351 62.8842Z" fill="#1E2339"/>
<path d="M46.6709 63.2245C47.8804 64.2068 49.4088 64.716 51.2585 64.716C53.8193 64.716 55.6664 63.7989 56.8405 61.9357V64.4095H60.9929V52.8803C61.0216 51.765 60.8035 50.6564 60.3527 49.6269C59.1786 47.1483 56.7975 45.9294 53.2423 45.9294C50.1831 45.9294 47.8551 46.8804 46.2762 48.7967C46.1212 48.9821 46.0059 49.1948 45.9371 49.4227C45.8683 49.6506 45.8472 49.8891 45.875 50.1248C45.9029 50.3604 45.9791 50.5886 46.0994 50.7961C46.2197 51.0037 46.3816 51.1866 46.576 51.3345C46.7704 51.4823 46.9934 51.5922 47.2324 51.6578C47.4713 51.7235 47.7214 51.7436 47.9685 51.717C48.2155 51.6905 48.4547 51.6178 48.6723 51.503C48.8899 51.3883 49.0817 51.2339 49.2367 51.0484C50.1932 49.96 51.5141 49.4218 53.1361 49.4218C55.5172 49.4218 56.8684 50.643 56.8684 52.1345C56.8684 53.153 56.2636 53.6598 55.0971 53.6598H52.7438C49.4012 53.6598 44.8516 54.9824 44.8516 59.1867V59.3822C44.8303 60.1122 44.983 60.8373 45.2982 61.5028C45.6133 62.1684 46.0827 62.757 46.6709 63.2245V63.2245ZM50.2286 57.1908C50.9919 56.7498 51.8666 56.5153 52.759 56.5126H56.8481V57.087C56.8481 59.7998 54.9984 61.4964 52.1188 61.4964C50.3071 61.4964 49.0976 60.5117 49.0976 59.0202C49.0928 58.6472 49.1941 58.28 49.3906 57.9575C49.587 57.6349 49.8714 57.3692 50.2135 57.1884L50.2286 57.1908Z" fill="#1E2339"/>
<path d="M74.5941 60.8159C74.1504 60.9092 73.6971 60.9546 73.2428 60.9511C71.0743 60.9511 69.971 60.1039 69.971 57.9318V49.9311H74.6295V46.3109H69.971V42.7292C69.9808 42.4586 69.9334 42.1888 69.8316 41.9359C69.7298 41.6831 69.5756 41.4524 69.3783 41.2576C69.1811 41.0628 68.9447 40.9079 68.6833 40.8021C68.4219 40.6963 68.1408 40.6418 67.8569 40.6418C67.5729 40.6418 67.2919 40.6963 67.0305 40.8021C66.7691 40.9079 66.5327 41.0628 66.3354 41.2576C66.1381 41.4524 65.984 41.6831 65.8822 41.9359C65.7803 42.1888 65.7329 42.4586 65.7427 42.7292V46.3012H62.2559V49.9214H65.7427V58.569C65.7427 62.5029 68.1593 64.6027 72.3218 64.6027C73.0979 64.6055 73.8686 64.4789 74.5991 64.2286L74.5941 60.8159Z" fill="#1E2339"/>
<path d="M81.2992 55.2215C81.2992 52.0671 83.0072 50.269 86.241 50.269C86.6458 50.2659 87.05 50.2998 87.448 50.3704V46.2337C87.1112 46.1552 86.7647 46.121 86.4182 46.1323C84.1087 46.1323 82.367 47.15 81.1929 49.1853V48.2803C81.1929 47.7586 80.9756 47.2583 80.5889 46.8894C80.2021 46.5205 79.6776 46.3133 79.1306 46.3133C78.5837 46.3133 78.0591 46.5205 77.6724 46.8894C77.2856 47.2583 77.0684 47.7586 77.0684 48.2803V64.4217H81.2992V55.2215Z" fill="#1E2339"/>
<path d="M91.1506 64.4121C91.4287 64.4121 91.7041 64.3599 91.9611 64.2584C92.218 64.1568 92.4515 64.008 92.6482 63.8205C92.8448 63.6329 93.0008 63.4102 93.1073 63.1651C93.2137 62.92 93.2685 62.6573 93.2685 62.392V48.3166C93.2495 47.7932 93.0182 47.2973 92.6233 46.9335C92.2284 46.5697 91.7009 46.3663 91.1518 46.3663C90.6028 46.3663 90.0752 46.5697 89.6803 46.9335C89.2854 47.2973 89.0541 47.7932 89.0352 48.3166V62.392C89.0352 62.9274 89.2579 63.4408 89.6546 63.8196C90.0512 64.1984 90.5893 64.4115 91.1506 64.4121V64.4121Z" fill="#1E2339"/>
<path d="M93.079 42.3141C93.3425 42.0715 93.552 41.7807 93.6951 41.4591C93.8383 41.1376 93.912 40.7918 93.912 40.4425C93.912 40.0931 93.8383 39.7474 93.6951 39.4258C93.552 39.1042 93.3425 38.8135 93.079 38.5708C92.8293 38.3139 92.5267 38.109 92.1901 37.9688C91.8536 37.8286 91.4903 37.7563 91.123 37.7563C90.7557 37.7563 90.3924 37.8286 90.0559 37.9688C89.7193 38.109 89.4167 38.3139 89.167 38.5708C88.9051 38.8148 88.6973 39.1064 88.5559 39.4285C88.4145 39.7505 88.3424 40.0964 88.3438 40.4455C88.3452 40.7947 88.4201 41.14 88.5642 41.461C88.7082 41.782 88.9183 42.0721 89.1822 42.3141C89.7047 42.7966 90.4034 43.0664 91.1306 43.0664C91.8578 43.0664 92.5565 42.7966 93.079 42.3141V42.3141Z" fill="#E40968"/>
<path d="M113.428 63.8836L106.894 55.4991C106.824 55.4086 106.786 55.2991 106.786 55.1866C106.786 55.074 106.824 54.9645 106.894 54.874L113.18 46.8323C113.217 46.7831 113.24 46.7249 113.245 46.6641C113.251 46.6033 113.238 46.5423 113.209 46.4878C113.181 46.4334 113.137 46.3876 113.082 46.3555C113.028 46.3234 112.965 46.3063 112.901 46.3061H109.597C109.358 46.3063 109.123 46.3601 108.91 46.4633C108.697 46.5665 108.513 46.716 108.372 46.8999L105.469 50.6938C105.329 50.8779 105.144 51.0276 104.931 51.1308C104.718 51.234 104.482 51.2878 104.243 51.2878C104.005 51.2878 103.769 51.234 103.556 51.1308C103.343 51.0276 103.158 50.8779 103.018 50.6938L100.143 46.9023C100.002 46.7172 99.818 46.5665 99.6047 46.4625C99.3914 46.3585 99.1553 46.3041 98.9157 46.3037H95.5073C95.4434 46.3039 95.3807 46.321 95.3263 46.3531C95.2719 46.3852 95.2279 46.4309 95.199 46.4854C95.1702 46.5399 95.1578 46.6009 95.1631 46.6617C95.1683 46.7224 95.1912 46.7807 95.229 46.8298L101.555 54.944C101.626 55.0342 101.664 55.1439 101.664 55.2566C101.664 55.3692 101.626 55.4789 101.555 55.5691L95.0012 63.886C94.9626 63.9348 94.939 63.9929 94.9331 64.0538C94.9272 64.1147 94.9393 64.176 94.968 64.2307C94.9966 64.2854 95.0408 64.3313 95.0954 64.3634C95.15 64.3955 95.2129 64.4123 95.277 64.4121H98.645C98.8846 64.4118 99.1206 64.3574 99.3339 64.2533C99.5472 64.1493 99.7317 63.9986 99.8722 63.8136L102.959 59.7275C103.1 59.543 103.285 59.3929 103.498 59.2894C103.711 59.1859 103.947 59.132 104.187 59.132C104.426 59.132 104.662 59.1859 104.875 59.2894C105.088 59.3929 105.273 59.543 105.414 59.7275L108.529 63.8305C108.67 64.0151 108.854 64.1653 109.067 64.2689C109.281 64.3725 109.517 64.4265 109.756 64.4266H113.167C113.233 64.4267 113.298 64.4086 113.353 64.3747C113.409 64.3407 113.453 64.2922 113.48 64.235C113.508 64.1778 113.517 64.1142 113.508 64.0519C113.499 63.9896 113.471 63.9312 113.428 63.8836V63.8836Z" fill="#1E2339"/>
<path d="M11.4277 16.3933V27.826C11.6053 25.3831 12.5754 23.0534 14.2036 21.1601C15.8318 19.2668 18.0374 17.9036 20.5144 17.2597V9.82135H26.729C27.3703 9.82199 28.0055 9.70202 28.5981 9.46831C29.1908 9.2346 29.7293 8.89173 30.1829 8.45932C30.6365 8.02691 30.9962 7.51344 31.2416 6.9483C31.4869 6.38315 31.613 5.77741 31.6127 5.16573V4.72889C31.612 3.492 31.0964 2.306 30.1792 1.43161C29.2619 0.557225 28.0182 0.0660399 26.7214 0.06604H19.5427C20.2253 1.63895 20.5549 3.33082 20.5101 5.03263C20.4653 6.73444 20.0472 8.40842 19.2826 9.94668C18.5181 11.4849 17.4241 12.8533 16.0712 13.9637C14.7183 15.074 13.1365 15.9017 11.4277 16.3933V16.3933Z" fill="#E40968"/>
<path d="M11.4277 27.8259V29.4767C11.4532 29.9085 11.5082 30.3382 11.5922 30.7631C11.8045 31.4789 12.2052 32.1311 12.7562 32.6577C13.2135 33.0959 13.7643 33.4351 14.3711 33.6525C14.978 33.8699 15.6267 33.9603 16.2734 33.9175C18.6824 33.7679 20.5144 31.7695 20.5144 29.4646V17.2596C18.0374 17.9035 15.8318 19.2667 14.2036 21.16C12.5754 23.0533 11.6053 25.383 11.4277 27.8259V27.8259Z" fill="#FFC830"/>
<path d="M11.3799 7.41272C11.3371 7.34922 11.3123 7.27618 11.3081 7.20078C11.3038 7.12538 11.3203 7.05023 11.3558 6.98274C11.3913 6.91525 11.4446 6.85775 11.5105 6.81592C11.5764 6.77409 11.6526 6.74936 11.7316 6.74417L14.2317 6.61626L16.7317 6.48835C16.8105 6.4845 16.8889 6.50045 16.9592 6.5346C17.0295 6.56875 17.0891 6.61991 17.1322 6.68296C17.1752 6.74601 17.2001 6.81873 17.2045 6.89385C17.2088 6.96898 17.1923 7.04387 17.1568 7.11103L16.0232 9.24214L14.8921 11.3684C14.8565 11.4357 14.803 11.4928 14.7368 11.534C14.6707 11.5751 14.5943 11.5989 14.5154 11.6028C14.4365 11.6067 14.358 11.5907 14.2877 11.5563C14.2174 11.5219 14.1579 11.4704 14.1153 11.407L13.4801 10.4803C12.8483 10.8929 12.3312 11.446 11.9737 12.0919C11.6161 12.7378 11.4288 13.457 11.428 14.1874V16.3933C13.1367 15.9017 14.7185 15.074 16.0714 13.9637C17.4243 12.8533 18.5183 11.4849 19.2829 9.94669C20.0474 8.40844 20.4655 6.73446 20.5103 5.03265C20.5551 3.33084 20.2256 1.63896 19.5429 0.0660559H5.20574C4.5652 0.0657389 3.93086 0.185798 3.33898 0.419381C2.7471 0.652963 2.20926 0.995487 1.75621 1.42738C1.30316 1.85928 0.943762 2.37209 0.698558 2.93651C0.453355 3.50092 0.327148 4.10589 0.327148 4.71685V5.1561C0.327148 5.76916 0.453832 6.37621 0.699956 6.94254C0.946081 7.50887 1.30682 8.02338 1.76155 8.45666C2.21628 8.88993 2.75608 9.23347 3.3501 9.46764C3.94412 9.7018 4.5807 9.82201 5.22346 9.82137H7.67541C9.26514 9.82198 10.8181 9.36525 12.1314 8.51085L11.3799 7.41272Z" fill="#831BEE"/>
<path d="M121.217 14.4552H120.711V64.9478H121.217V14.4552Z" fill="#1E2339"/>
<path d="M137.583 57.0388C138.039 56.8384 138.449 56.5528 138.788 56.1988C139.127 55.8448 139.388 55.4296 139.556 54.9777C139.649 54.6633 139.699 54.3388 139.706 54.0123C139.729 53.4958 139.624 52.9813 139.399 52.511C139.174 52.0407 138.835 51.6281 138.41 51.3067C137.547 50.643 136.401 50.3196 134.974 50.3196H129.356V64.3492H135.161C138.559 64.3492 140.384 62.7901 140.384 60.4249C140.381 59.7223 140.158 59.0365 139.744 58.4555C139.311 57.828 138.597 57.3429 137.583 57.0388ZM131.649 52.3084H134.673C136.55 52.3084 137.395 53.0807 137.395 54.2391C137.395 55.3976 136.439 56.2448 134.541 56.2448H131.649V52.3084ZM135.192 62.3605H131.649V58.1755H135.047C137.072 58.1755 138.084 59.0178 138.084 60.2367C138.071 61.5182 137.059 62.3605 135.199 62.3605H135.192Z" fill="#1E2339"/>
<path d="M141.452 54.7822V64.3493H143.689V59.4933C143.689 57.828 144.59 56.8771 146.3 56.8771C146.514 56.8751 146.728 56.8937 146.938 56.9326V54.746C146.76 54.7046 146.577 54.6867 146.394 54.6929C145.171 54.6929 144.251 55.2303 143.633 56.3051V54.7822H141.452Z" fill="#1E2339"/>
<path d="M149.754 54.7822H147.52V64.3492H149.754V54.7822Z" fill="#1E2339"/>
<path d="M149.658 50.6938C149.527 50.5584 149.367 50.4504 149.189 50.3766C149.012 50.3027 148.82 50.2646 148.626 50.2646C148.432 50.2646 148.241 50.3027 148.063 50.3766C147.885 50.4504 147.726 50.5584 147.594 50.6938C147.389 50.8885 147.25 51.1367 147.194 51.4068C147.138 51.6769 147.167 51.9569 147.277 52.2114C147.388 52.4659 147.575 52.6834 147.815 52.8364C148.055 52.9894 148.337 53.0711 148.626 53.0711C148.915 53.0711 149.197 52.9894 149.437 52.8364C149.677 52.6834 149.864 52.4659 149.975 52.2114C150.085 51.9569 150.114 51.6769 150.058 51.4068C150.002 51.1367 149.863 50.8885 149.658 50.6938Z" fill="#1E2339"/>
<path d="M159.036 62.8625V64.3492H161.214V49.7645H158.978V56.1433C158.629 55.6158 158.108 55.2127 157.495 54.9969C156.94 54.7492 156.336 54.6152 155.723 54.6035C155.04 54.5814 154.36 54.7049 153.733 54.965C153.105 55.2251 152.547 55.6153 152.097 56.1071C151.205 57.0492 150.715 58.2765 150.726 59.5463C150.71 60.8352 151.215 62.0806 152.135 63.0242C152.578 63.5003 153.124 63.8784 153.736 64.1319C154.348 64.3854 155.011 64.5081 155.678 64.4916C156.3 64.4743 156.912 64.3406 157.48 64.0982C158.127 63.8607 158.674 63.4264 159.036 62.8625V62.8625ZM153.831 61.6968C153.298 61.0959 153.006 60.3344 153.006 59.5475C153.006 58.7606 153.298 57.9992 153.831 57.3983C154.105 57.1097 154.442 56.8816 154.819 56.7299C155.195 56.5782 155.601 56.5065 156.009 56.5198C156.415 56.5072 156.819 56.5792 157.192 56.731C157.565 56.8827 157.899 57.1105 158.17 57.3983C158.715 57.9937 159.016 58.7572 159.016 59.5475C159.016 60.3379 158.715 61.1014 158.17 61.6968C157.897 61.9815 157.563 62.2061 157.19 62.3549C156.816 62.5037 156.414 62.5731 156.009 62.5584C155.603 62.5708 155.198 62.5004 154.823 62.3518C154.447 62.2032 154.109 61.9799 153.831 61.6968V61.6968Z" fill="#1E2339"/>
<path d="M170.435 56.2448C170.074 55.7059 169.55 55.2849 168.932 55.0381C168.378 54.7834 167.775 54.6427 167.16 54.6253C166.479 54.6028 165.801 54.7265 165.177 54.9871C164.552 55.2478 163.997 55.6388 163.552 56.1314C162.676 57.0671 162.194 58.2796 162.201 59.5344C162.178 60.8052 162.671 62.0353 163.575 62.9688C164.015 63.4387 164.557 63.8116 165.164 64.0617C165.77 64.3117 166.427 64.4329 167.087 64.4169C167.7 64.4018 168.303 64.2671 168.858 64.0211C169.486 63.7832 170.018 63.3605 170.377 62.8143V64.3179C170.377 66.2342 169.081 67.2382 167.34 67.2382C165.931 67.2382 164.878 66.5576 164.182 65.2133L162.31 66.2294C163.231 68.1602 164.921 69.1256 167.371 69.1256C168.949 69.1256 170.207 68.6767 171.166 67.8006C172.125 66.9245 172.611 65.7202 172.611 64.2166V54.7822H170.432L170.435 56.2448ZM169.572 61.6558C169.303 61.9396 168.971 62.1635 168.602 62.312C168.232 62.4604 167.832 62.5297 167.431 62.515C167.028 62.5279 166.626 62.4578 166.253 62.3095C165.88 62.1613 165.545 61.9384 165.27 61.6558C164.722 61.0631 164.427 60.2958 164.443 59.5054C164.42 58.7249 164.717 57.9665 165.27 57.3912C165.553 57.1187 165.889 56.9023 166.26 56.7546C166.63 56.6069 167.028 56.5309 167.43 56.5309C167.832 56.5309 168.23 56.6069 168.6 56.7546C168.971 56.9023 169.307 57.1187 169.59 57.3912C170.141 57.9677 170.438 58.7253 170.417 59.5054C170.433 60.2952 170.131 61.0608 169.572 61.6438V61.6558Z" fill="#1E2339"/>
<path d="M183.17 62.2181L181.556 61.1948C181.012 62.1819 180.109 62.6839 178.851 62.6839C178.11 62.6921 177.39 62.4434 176.827 61.984C176.549 61.7662 176.324 61.493 176.168 61.1837C176.013 60.8743 175.93 60.5363 175.926 60.1932H183.532C183.559 59.9729 183.571 59.7512 183.57 59.5295C183.57 58.0428 183.137 56.8602 182.275 55.9454C181.412 55.0307 180.207 54.5842 178.686 54.5842C178.012 54.5678 177.342 54.6885 176.72 54.9381C176.098 55.1878 175.54 55.5608 175.081 56.0323C174.609 56.4982 174.239 57.0482 173.99 57.6507C173.742 58.2533 173.621 58.8966 173.633 59.544C173.617 60.2047 173.742 60.8616 174 61.4749C174.259 62.0881 174.645 62.6448 175.136 63.1111C175.631 63.5758 176.218 63.9406 176.864 64.1836C177.51 64.4266 178.2 64.5429 178.894 64.5254C180.69 64.5278 182.325 63.7048 183.17 62.2181ZM178.681 56.4113C180.109 56.4113 181.212 57.2367 181.293 58.5834H176.032C176.111 57.9718 176.426 57.4104 176.916 57.0087C177.406 56.607 178.036 56.394 178.681 56.4113V56.4113Z" fill="#1E2339"/>
<path d="M175.403 44.9158C176.036 44.9151 176.651 45.1178 177.149 45.4913C177.647 45.8647 177.999 46.3872 178.148 46.9745H180.172C178.381 44.3567 176.152 42.037 173.573 40.1081C174.141 40.1029 174.694 39.9375 175.164 39.6328C175.633 39.3281 175.998 38.8977 176.211 38.3958C176.425 37.894 176.478 37.3431 176.364 36.8125C176.25 36.282 175.973 35.7955 175.57 35.4144C175.166 35.0333 174.654 34.7745 174.096 34.6708C173.539 34.567 172.962 34.6229 172.438 34.8314C171.914 35.0398 171.466 35.3915 171.151 35.8422C170.836 36.2929 170.668 36.8224 170.668 37.364C170.669 37.6819 170.728 37.9972 170.843 38.2956C166.686 35.848 161.957 34.4225 157.08 34.1468C157.614 33.7966 158.016 33.2927 158.228 32.7087C158.441 32.1248 158.451 31.4914 158.259 30.9012C158.067 30.311 157.682 29.795 157.16 29.4285C156.638 29.062 156.007 28.8643 155.359 28.8643C154.711 28.8643 154.08 29.062 153.559 29.4285C153.037 29.795 152.652 30.311 152.46 30.9012C152.267 31.4914 152.278 32.1248 152.49 32.7087C152.702 33.2927 153.105 33.7966 153.639 34.1468C148.708 34.3994 143.923 35.8284 139.722 38.3028C139.837 38.0044 139.896 37.6891 139.896 37.3712C139.896 36.829 139.728 36.299 139.413 35.8478C139.097 35.3967 138.649 35.0447 138.124 34.8361C137.6 34.6275 137.022 34.5718 136.464 34.6758C135.906 34.7798 135.393 35.039 134.989 35.4207C134.586 35.8024 134.309 36.2896 134.195 36.8207C134.081 37.3519 134.135 37.9034 134.349 38.4057C134.563 38.9079 134.928 39.3385 135.398 39.6432C135.869 39.9479 136.423 40.113 136.991 40.1178C134.412 42.0446 132.183 44.3637 130.395 46.9817H132.505C132.622 46.5148 132.868 46.0862 133.217 45.7401C133.566 45.3939 134.005 45.1429 134.489 45.0128C134.974 44.8827 135.486 44.8782 135.973 44.9999C136.46 45.1216 136.904 45.365 137.259 45.705C137.627 46.054 137.885 46.4935 138.006 46.9745H143.75V41.1966C143.75 40.1449 144.188 39.1363 144.968 38.3927C145.747 37.649 146.805 37.2312 147.907 37.2312C149.01 37.2312 150.067 37.649 150.847 38.3927C151.627 39.1363 152.065 40.1449 152.065 41.1966V46.9745H158.573V41.1966C158.573 40.1449 159.011 39.1363 159.791 38.3927C160.57 37.649 161.628 37.2312 162.73 37.2312C163.833 37.2312 164.89 37.649 165.67 38.3927C166.45 39.1363 166.888 40.1449 166.888 41.1966V46.9745H172.665C172.814 46.3886 173.164 45.8673 173.661 45.494C174.157 45.1208 174.771 44.9172 175.403 44.9158Z" fill="#E40968"/>
</svg>
